<?xml version="1.0" encoding="UTF-8" standalone="no"?>
<!-- Created with Inkscape (http://www.inkscape.org/) -->

<svg
   width="517.08936"
   height="503.72696"
   viewBox="0 0 517.08936 503.72696"
   version="1.1"
   id="svg1"
   xmlns="http://www.w3.org/2000/svg"
   xmlns:svg="http://www.w3.org/2000/svg">
  <defs
     id="defs1" />
  <g
     id="layer6"
     transform="translate(173,14.999999)"
     style="display:inline">
    <path
       style="display:inline;opacity:1;fill:#dadada;fill-opacity:1;stroke-width:20;stroke-linecap:round;paint-order:stroke fill markers"
       id="path2"
       d="m -74.34498,259.34065 c -3.50986,-1.06841 -1.61187,-0.4684 -5.68673,-1.82273 0,0 0.17381,0.135 0.17381,0.135 v 0 c 4.07526,1.35378 2.17712,0.75396 5.68721,1.82211 z" />
    <path
       style="display:inline;opacity:1;fill:#dadada;fill-opacity:1;stroke-width:20;stroke-linecap:round;paint-order:stroke fill markers"
       id="path9"
       d="m -125.20764,256.76174 c 0.27214,-0.3066 0.5923,-0.57652 0.81641,-0.91979 0.32053,-0.49098 0.5036,-1.06109 0.80511,-1.56398 1.21698,-2.02983 1.51392,-2.06219 2.93726,-4.14063 1.09843,-1.60399 3.34949,-5.29561 4.29502,-6.82551 4.66516,-7.73434 10.01984,-15.06334 16.16254,-21.69522 1.22317,-1.32059 2.52261,-2.56844 3.78391,-3.85266 3.48192,-3.6026 7.58194,-6.47478 11.65887,-9.34357 1.08325,-0.76225 2.22163,-1.44977 3.25998,-2.27213 0.96999,-0.76822 1.82278,-1.67413 2.75298,-2.49007 0.8791,-0.77112 1.78284,-1.5137 2.67426,-2.27055 4.17831,-3.5094 8.49017,-6.84708 12.45439,-10.60163 3.15108,-3.83317 6.95204,-7.05867 10.87879,-10.06464 1.14077,-0.90558 2.16471,-1.60518 3.07125,-2.76647 0.5022,-0.64332 0.85817,-1.38937 1.32359,-2.05979 1.39864,-2.0147 2.91687,-3.87846 4.606,-5.65051 0.55175,-0.53857 1.14654,-1.03632 1.65525,-1.61572 1.05547,-1.20215 1.92634,-2.55505 2.92225,-3.80699 1.76781,-2.22227 3.5875,-4.37986 5.47852,-6.49778 0.30018,-0.33974 3.52357,-3.99268 3.83757,-4.32926 0.66255,-0.71016 1.39769,-1.35216 2.03738,-2.08299 0.66457,-0.75926 1.22034,-1.60831 1.86963,-2.38068 1.0735,-1.27701 3.02753,-3.32644 4.1709,-4.54492 4.70945,-4.39308 8.53492,-9.40954 12.24639,-14.64166 0.33332,-0.40056 4.40343,-5.28594 4.70814,-5.67515 0.80883,-1.03308 1.5312,-2.1323 2.34732,-3.15962 2.46014,-3.09679 5.17256,-5.95287 7.96431,-8.74601 2.28566,-2.411 4.911,-4.48185 7.26933,-6.8136 0.66185,-0.65439 1.26256,-1.36787 1.88838,-2.05679 0.59218,-0.65189 1.22148,-1.27303 1.76556,-1.96558 0.56018,-0.71304 1.02681,-1.49485 1.54021,-2.242283 1.50437,-2.69926 3.33074,-5.22388 5.23595,-7.65335 1.19182,-1.51979 2.8434,-3.2914 3.9325,-4.89388 0.6519,-0.9592 1.19058,-1.99066 1.78587,-2.98599 0.72736,-1.031963 1.43797,-2.075939 2.18207,-3.095898 1.85884,-2.547965 2.94073,-3.957906 5.06825,-6.303235 2.62905,-2.898201 5.50848,-5.577214 8.2985,-8.317384 0.86129,-0.833497 1.77323,-1.61765 2.58386,-2.500492 0.80841,-0.880415 1.49549,-1.865252 2.26477,-2.780046 0.80354,-0.955531 1.61591,-1.904147 2.45317,-2.830274 2.50111,-2.766563 5.28182,-5.184585 8.02178,-7.706113 3.47038,-4.726673 8.4295,-7.957168 12.74746,-11.814299 0.69174,-0.617922 1.33811,-1.284843 2.00717,-1.927264 0.63887,-0.645979 1.32883,-1.245149 1.91662,-1.937935 3.38518,-3.989891 0.0439,-0.842333 3.83055,-4.845331 2.01843,-2.133729 4.34863,-3.857995 6.73832,-5.53899 0.47975,-0.504714 1.35394,-0.823042 1.43926,-1.514142 0.26448,-2.142379 -3.6278,-5.216287 -4.33202,-5.957067 -0.7219,-0.759392 -1.4196,-1.541436 -2.12941,-2.312154 0,0 -1.70457,-1.04614 -1.70457,-1.04614 v 0 c -1.12897,-0.357137 -2.26231,-0.700743 -3.38691,-1.071411 -1.91754,-0.632024 -5.93463,-2.559682 -8.44798,-1.870527 -0.67834,0.185998 -1.01989,0.9689 -1.52983,1.45335 -1.5896,2.306262 -3.23157,4.535324 -5.21309,6.531037 -8.42655,8.486891 3.29969,-3.661346 -4.83533,4.278418 -0.63893,0.623594 -1.17172,1.347391 -1.75758,2.021087 -4.21086,5.009122 -7.69231,10.747831 -13.07705,14.643612 -0.23252,0.236761 -4.91241,5.005302 -5.09619,5.178936 -1.14999,1.086477 -4.7071,4.102824 -5.88721,5.135457 -0.93908,0.82172 -1.9241,1.596224 -2.79814,2.48681 -0.82256,0.838134 -1.51939,1.791021 -2.27908,2.686532 -2.52493,2.933079 -4.98716,5.930929 -7.61075,8.777305 -2.62969,2.852988 -3.10681,3.193433 -5.82825,5.949351 -0.91918,0.930819 -1.82244,1.877212 -2.73367,2.815818 -0.87047,0.839636 -1.79563,1.626047 -2.61142,2.518909 -1.14399,1.252067 -2.7613,3.646949 -3.7977,4.983794 -1.92008,2.476694 -3.91489,4.922206 -6.12047,7.150676 -0.58357,0.68946 -1.20054,1.35199 -1.75072,2.06838 -0.51753,0.67387 -0.95471,1.40599 -1.44856,2.0974 -0.52347,0.73288 -1.0911,1.43397 -1.60303,2.17495 -1.81351,2.62492 -3.49027,5.34939 -5.54158,7.807203 -2.43689,3.08157 -4.92988,6.1305 -7.60814,9.00881 -0.9156,0.984 -1.90929,1.89332 -2.82573,2.87654 -0.79862,0.85681 -4.10115,4.69041 -4.87975,5.59035 -4.47962,4.53378 -8.65802,9.32627 -12.62793,14.31152 -0.84849,0.96368 -3.23177,3.68898 -4.10829,4.60961 -0.71318,0.74909 -1.5072,1.42018 -2.19957,2.18855 -0.64009,0.71037 -1.17885,1.50628 -1.7914,2.24054 -1.23656,1.48225 -2.56724,2.88431 -3.79234,4.3765 -1.83115,2.1797 -3.69705,4.31385 -5.65467,6.38183 -1.13278,1.19665 -2.40374,2.26661 -3.45479,3.53565 -0.4864,0.58729 -0.86054,1.25915 -1.29082,1.88873 -1.35186,1.9963 -2.78755,3.97744 -4.40366,5.77344 -0.54112,0.60136 -1.17694,1.11291 -1.71682,1.71538 -0.83908,0.93635 -1.55311,2.07187 -2.25283,3.10903 -2.84006,3.93236 -6.15445,7.53335 -9.92806,10.59085 -3.7365,3.7294 -7.07742,7.79169 -10.46331,11.83785 -0.73753,0.84444 -1.45211,1.70949 -2.21259,2.53332 -0.81891,0.88712 -1.7301,1.68809 -2.52392,2.59774 -0.80368,0.92093 -1.50134,1.9293 -2.2618,2.88623 -2.97891,3.74858 -6.02583,7.4524 -9.45379,10.80656 -2.48663,2.70548 -4.95906,5.35045 -7.35376,8.13964 -4.75028,5.53281 -9.19335,11.36171 -14.52182,16.37206 -2.73704,2.57363 -5.49302,5.10102 -8.12867,7.77664 -0.56099,0.56949 -1.12144,1.13984 -1.6989,1.69262 -0.4584,0.43881 -0.99274,0.80146 -1.4079,1.28138 -0.27552,0.31849 -0.42794,0.72543 -0.6419,1.08814 z" />
    <path
       style="display:inline;opacity:1;fill:#dadada;fill-opacity:1;stroke-width:20;stroke-linecap:round;paint-order:stroke fill markers"
       id="path10"
       d="m -36.94509,137.92061 c -0.10882,0.44911 -0.38511,0.88896 -0.32645,1.34733 0.13752,1.07461 0.6144,2.078 0.89858,3.12344 0.37444,1.3775 0.73745,2.7583 1.07713,4.14478 0.73406,2.99632 1.7175,7.36773 2.25513,10.3605 0.34257,1.90692 0.59819,3.82844 0.89728,5.74265 0.10988,1.91093 0.18467,3.82419 0.32964,5.73278 0.32025,4.21605 0.80827,8.4182 1.13159,12.63402 0.41331,5.38916 0.57021,10.75951 0.66338,16.16106 0.25088,6.53251 0.64124,13.05632 1.12827,19.5736 0.11123,0.86729 0.19865,1.73796 0.3337,2.60186 0.54664,3.49687 1.2268,6.96667 1.71939,10.47432 0.65383,4.65588 0.55578,4.21849 0.99015,8.95074 0.51448,6.46161 1.30402,12.90231 1.75844,19.36879 0.22229,3.16331 0.36316,6.33182 0.55137,9.49734 0.0341,1.49894 0.085,2.99759 0.10236,4.49681 0.0385,3.32767 -0.0803,5.35581 0.12471,8.67913 0.0962,1.55938 0.30131,3.11023 0.43015,4.66725 0.72065,8.70965 -0.0957,0.65216 0.89987,9.80273 0.21047,9.61118 0.86138,19.19268 1.88807,28.74851 0.49857,2.67759 1.59751,8.67321 2.15049,11.24394 0.47469,2.20678 1.10782,4.37919 1.53118,6.59638 1.13939,5.96715 1.50882,12.08801 2.18126,18.11796 0.45479,4.96653 0.77413,9.94377 1.16234,14.91558 0.10753,1.37708 0.15565,2.7608 0.33725,4.13008 0.14126,1.06516 1.46224,7.89263 1.65359,8.89373 0.822,3.82745 0.77994,7.74761 1.1471,11.62349 0.11213,1.18364 0.31918,2.357 0.43091,3.54068 0.12105,1.28248 0.29015,4.83397 0.35935,6.1839 0.44847,2.9237 0.5822,3.27492 0.72553,6.15641 0.0436,0.87705 -0.011,1.75761 0.0439,2.63401 0.0567,0.90398 0.21254,1.79929 0.29057,2.70168 0.14933,1.72699 0.2372,3.45884 0.37684,5.18664 0.47234,2.94401 0.009,5.90017 -0.003,8.84937 0.0794,2.0425 0.0677,1.06153 0.0471,2.94273 0.56741,1.58741 0.77435,3.24542 0.93988,4.91034 0.0427,0.42899 -0.0164,0.87973 0.1238,1.28739 1.88942,5.49218 0.11935,-1.36631 1.00923,2.26099 -0.0115,0.17153 -0.093,1.39123 0.0168,1.53467 0.19935,0.26038 0.48083,0.45235 0.75924,0.62563 1.3543,0.84288 2.67256,1.76912 4.13009,2.41734 3.97209,1.76653 8.08131,3.20703 12.12197,4.81054 0,0 -1.7523,-0.96408 -1.7523,-0.96408 v 0 c 3.977,1.79728 7.99735,3.50156 11.931,5.39185 1.36587,0.65635 2.61743,1.52951 3.95488,2.24198 0.16782,0.0894 0.37887,0.24303 0.54843,0.15697 0.11869,-0.0602 -0.18097,-0.19606 -0.25913,-0.3038 -0.23862,-0.32895 -0.40087,-0.70962 -0.65252,-1.02984 -0.50229,-2.84343 0.11958,1.57971 0.28627,-1.43625 0.025,-0.45175 -0.20759,-0.88083 -0.30094,-1.32354 -0.31565,-1.49701 -0.56846,-2.99889 -0.36765,-4.53417 -0.56486,-2.15295 -0.2111,-0.5533 -0.54291,-2.93444 -0.44148,-3.16825 -1.09385,-6.31563 -1.16648,-9.52605 -0.39003,-4.37285 -0.0473,-0.98159 -0.60618,-5.40607 -0.11533,-0.91302 -0.17288,-1.83396 -0.32376,-2.74179 -0.50743,-3.0532 -1.39613,-6.05685 -1.45617,-9.17969 -0.28677,-1.38095 -1.12296,-5.35373 -1.35107,-6.68048 -0.20678,-1.2027 -0.31744,-2.42094 -0.5351,-3.62172 -0.75397,-4.1596 -1.98418,-8.22286 -2.56327,-12.41738 -0.26506,-1.71942 -1.06395,-7.07935 -1.43695,-8.7953 -0.32941,-1.51542 -0.7932,-2.99853 -1.17349,-4.50199 -1.33861,-5.2922 -2.53945,-10.61837 -3.50787,-15.99189 -0.33331,-1.99408 -0.65577,-3.98999 -0.99993,-5.98222 -0.78869,-4.56555 -1.52955,-7.85326 -1.90509,-12.48523 -0.15942,-1.96632 -0.0981,-3.94461 -0.18811,-5.91533 -0.15826,-3.46511 -0.48848,-6.92115 -0.57858,-10.39005 -1.02524,-9.64113 -1.95088,-19.29446 -2.654,-28.96489 0.001,-7.24019 0.0692,-2.38021 -0.19814,-9.47295 -0.0572,-1.51595 -0.0413,-3.03539 -0.14795,-4.54866 -0.33054,-4.69037 -1.2862,-9.30988 -1.76031,-13.98369 -0.9996,-9.55789 -2.10684,-19.11366 -2.19195,-28.73819 -0.1311,-4.68501 -0.17833,-3.92511 -0.0467,-8.47563 0.0936,-3.23585 0.45349,-6.55929 0.18116,-9.79719 -0.0782,-0.93024 -0.27687,-1.8464 -0.4153,-2.76961 -0.72069,-2.71083 -0.77057,-3.04878 -1.65301,-5.74808 -0.36266,-1.10935 -0.78939,-2.19749 -1.13593,-3.31198 -1.32243,-4.25299 -2.3023,-8.60874 -3.46872,-12.90428 -1.40791,-5.75778 -2.67149,-11.43303 -3.31711,-17.33798 -1.04764,-9.5818 -0.0784,-3.12418 -0.92289,-12.53739 -0.17848,-1.98948 -0.46767,-3.96747 -0.7015,-5.95121 -0.2129,-4.8771 -0.39504,-9.72266 -0.12045,-14.60229 0.0654,-1.16297 0.18121,-2.32264 0.28823,-3.48252 0.0807,-0.87404 0.3696,-1.74627 0.27475,-2.61887 -0.0842,-0.77437 -0.53208,-1.46418 -0.79813,-2.19627 z" />
    <path
       style="display:inline;opacity:1;fill:#dadada;fill-opacity:1;stroke-width:20;stroke-linecap:round;paint-order:stroke fill markers"
       id="path11"
       d="m -25.67922,123.79816 c -0.0877,0.30962 -0.22913,0.60885 -0.26298,0.92885 -0.0782,0.73909 -0.0575,1.48543 -0.0711,2.22852 -0.0603,3.31121 -0.17524,4.91925 0.6688,8.39376 0.65037,2.67727 1.78393,5.22242 2.42081,7.90293 0.63709,2.6814 0.92886,5.43327 1.39329,8.14991 0.80936,8.83178 4.98749,16.55768 8.73564,24.39969 0,0 1.79316,0.88578 1.79316,0.88578 v 0 c 1.31505,-2.99498 3.47584,-7.46196 3.98735,-10.66768 0.38085,-2.38683 0.14641,-4.83184 0.21961,-7.24776 0.079,-2.43046 -0.11877,-4.8858 0.23695,-7.29138 0.29125,-1.96957 1.24532,-3.7883 1.68848,-5.72934 0.73816,-3.23315 0.61607,-4.5846 0.55972,-7.73727 -0.0137,-0.76722 0.002,-1.53708 -0.0711,-2.30095 -0.0388,-0.40661 -0.17532,-0.79789 -0.26298,-1.19684 z" />
    <path
       style="display:inline;opacity:1;fill:#dadada;fill-opacity:1;stroke-width:20;stroke-linecap:round;paint-order:stroke fill markers"
       id="path13"
       d="m 162.0981,109.65365 c 0.17392,-0.0533 0.39761,-0.027 0.52178,-0.15992 0.0929,-0.0994 0.12527,-0.33791 0.009,-0.40803 -9.12042,-5.48603 -18.31738,-10.844863 -27.54212,-16.153603 -1.84326,-1.06078 -3.99375,-1.3989 -6.0558,-1.65907 -4.05664,0.15873 -7.44081,1.45079 -10.98893,3.35323 -1.12138,0.60127 -2.28284,1.15667 -3.29366,1.92949 -1.13868,0.87058 -2.0745,1.97851 -3.11175,2.96776 -2.33672,2.339923 -4.86909,4.470703 -7.25999,6.752363 -4.61602,4.40511 -3.23813,3.57704 -8.36432,7.61019 -1.51737,1.19383 -3.12101,2.27396 -4.66457,3.43372 -1.49261,1.12148 -2.96234,2.2731 -4.44351,3.40965 -1.46006,0.94304 -2.95282,1.83727 -4.38017,2.82913 -1.80699,1.25567 -5.75072,4.36666 -7.51316,5.75767 -3.20979,2.53332 -6.31641,5.10838 -9.32924,7.87205 -0.96263,0.93753 -3.99828,3.82042 -4.84764,4.93177 -0.73318,0.95934 -1.27866,2.04856 -1.91831,3.07263 -2.03367,3.25587 -4.09583,6.49316 -6.14741,9.73776 -0.69453,1.08262 -1.42363,2.14382 -2.08359,3.24786 -0.7509,1.25616 -3.13043,5.6773 -3.79358,6.95606 -0.88796,1.71223 -2.78316,5.51136 -3.54497,7.28121 -0.55485,1.28902 -1.0251,2.61283 -1.53764,3.91925 -1.70447,6.06092 -3.39877,12.17316 -4.02186,18.45973 -0.0313,0.31614 -0.65206,10.33317 -0.67097,10.63696 -0.43956,10.91699 0.10119,21.83907 0.0892,32.75967 0.92865,20.19728 -0.33036,-8.88227 0.24674,10.08266 0.0504,1.65696 0.22594,3.30818 0.29249,4.96456 0.1228,3.05626 0.07,6.11789 0.19227,9.17417 0.0592,1.47863 0.17319,2.95456 0.25979,4.43184 -0.009,1.29101 -0.0916,2.58354 -0.0284,3.87304 0.0688,1.40612 0.69576,6.2406 0.88989,7.68298 0.15939,1.18434 0.80615,5.8347 1.0816,7.03778 0.29612,1.29333 0.72913,2.55145 1.09369,3.82718 0.29251,1.1979 0.53079,2.41037 0.87753,3.59372 0.70269,2.3981 1.596,4.73642 2.35391,7.11764 0.59099,1.85681 1.08863,3.74499 1.75443,5.57631 0.2924,0.80425 0.66085,1.57878 0.99128,2.36817 2.03679,4.25994 4.3918,8.38142 6.9904,12.32343 0.54041,0.78779 1.09789,1.56414 1.62123,2.36337 0.95141,1.45295 1.77005,2.9908 2.73827,4.43261 1.46936,2.18807 3.12447,4.2406 4.839,6.23681 0.54989,0.57547 1.07403,1.17669 1.64965,1.72643 0.86,0.82134 2.71143,2.38556 3.74783,2.98815 15.05644,8.75435 20.52487,14.22031 33.31829,17.83707 5.09433,1.49775 10.38809,2.02153 15.65868,2.46324 6.22629,0.54018 12.47805,0.65405 18.72087,0.88919 5.37365,-0.10458 10.74703,0.31201 16.11327,-0.11178 4.75684,-0.80448 9.57118,-1.19284 14.33363,-1.95217 1.76701,-0.31061 3.15646,-0.50335 4.88374,-1.01543 0.85692,-0.25404 1.6732,-0.63364 2.52997,-0.8882 0.99142,-0.29457 2.00846,-0.4951 3.00888,-0.75749 3.05915,-0.80236 3.09151,-0.84393 6.13073,-1.76599 4.6461,-1.17435 8.86189,-3.3243 12.7708,-6.06605 1.18473,-0.83099 2.28196,-1.78197 3.46328,-2.61781 1.24452,-0.88058 2.54054,-1.68602 3.81081,-2.52902 1.26972,-0.82702 2.58017,-1.59462 3.80914,-2.48105 1.21803,-0.87853 2.34312,-1.87927 3.52346,-2.80781 2.34319,-1.84332 4.65617,-3.72602 7.03638,-5.52128 1.97362,-1.48859 4.83741,-3.42697 6.88928,-4.83824 1.01918,-0.73889 2.15305,-1.34111 3.05753,-2.21667 0.9444,-0.9142 1.60778,-2.08013 2.43576,-3.10097 0.81948,-1.01036 1.65129,-2.01114 2.50601,-2.99186 0.80553,-0.92429 1.66387,-1.8015 2.47373,-2.722 2.1642,-2.45985 2.0996,-2.46465 4.02831,-4.99724 0.79814,-1.40896 2.10023,-3.57955 2.6816,-5.10963 0.38618,-1.01638 0.57798,-2.0974 0.92223,-3.12874 1.15615,-3.46362 2.66125,-6.75291 4.25407,-10.0306 1.99392,-5.07316 4.69465,-9.80344 7.20276,-14.62569 4.26201,-8.19443 -0.82578,1.28044 3.41701,-6.55604 0.51216,-1.26384 1.09415,-2.50159 1.53649,-3.79154 0.55802,-1.62726 1.81113,-6.56172 2.25487,-8.22621 0.3897,-1.46181 0.83377,-2.90968 1.18372,-4.38151 0.71531,-3.00848 1.27264,-6.05243 1.93893,-9.07214 3.19297,-16.13651 -1.31301,7.01076 1.52553,-8.80359 0.23968,-1.33535 0.66533,-2.6362 0.85076,-3.98016 0.18226,-1.32094 0.18528,-2.66067 0.24927,-3.9926 0.0518,-1.07814 0.20855,-6.53155 0.24264,-7.6827 0.0293,-6.52887 -0.45456,-13.04609 -1.07006,-19.54124 -1.80282,-7.10401 -4.02726,-14.10689 -6.8855,-20.85673 -2.52386,-5.83883 -4.82043,-11.78482 -7.72452,-17.44687 -2.01284,-3.86748 -4.14759,-7.6977 -6.81135,-11.16236 -0.9613,-1.25034 -3.50239,-4.22919 -4.53862,-5.45514 -5.51593,-5.84407 -11.30886,-11.40211 -17.38303,-16.66038 -3.21071,-2.40429 -6.18081,-5.15388 -9.45965,-7.46916 -1.428,-1.00835 -7.39682,-4.8492 -8.98125,-5.7715 -12.59008,-7.32877 -25.23711,-14.55926 -37.85567,-21.838893 -5.49084,-2.88039 -11.16296,-5.38445 -17.01949,-7.42073 -1.35792,-0.47214 -2.68339,-1.07944 -4.09409,-1.35655 -1.20223,-0.23616 -2.44782,-0.11261 -3.67172,-0.16891 -4.83678,-0.69275 -9.67911,-1.48335 -14.55509,-1.862196 -1.57157,-0.122106 -3.15734,-0.394279 -4.72386,-0.218821 -1.43837,0.161105 -2.76251,0.872057 -4.1687,1.214837 -1.58042,0.38525 -3.18884,0.64488 -4.78326,0.96732 0.36931,-1.01773 -7.06813,1.42725 -5.95744,3.43186 1.74137,3.14287 4.90205,5.2545 7.35308,7.88176 0,0 2.58018,1.78861 2.58018,1.78861 v 0 c 4.41765,2.184143 8.65308,4.784003 13.25294,6.552423 3.7756,1.45152 7.4844,0.84145 11.3204,0.58763 9.07101,-0.37084 1.92426,-0.33713 11.51782,0.38707 1.43331,0.1082 2.87424,0.08 4.30881,0.16993 4.73956,0.29715 9.44384,0.9721 14.05071,2.14292 1.85237,0.68143 3.70475,1.36286 5.55713,2.04429 1.22026,0.40674 2.45151,0.78187 3.66077,1.22022 5.49575,1.99216 10.80377,4.48988 15.91424,7.32071 -9.81634,-5.69883 -19.63268,-11.39766 -29.44902,-17.09648 1.24371,0.76889 2.51588,1.49357 3.73115,2.30667 1.01761,0.68086 1.9753,1.44727 2.96234,2.17173 3.26988,2.39999 6.55298,4.78619 9.69709,7.35134 5.91978,4.7445 11.75908,9.67002 16.54596,15.59705 4.25761,4.6718 8.23798,9.64382 11.11492,15.30593 1.37918,2.81577 2.81484,5.61722 4.29358,8.3819 1.66073,3.10494 3.49523,6.12363 4.84135,9.39089 2.73498,6.56002 5.81983,13.04319 7.27283,20.04441 1.86825,6.73809 2.94868,13.6625 4.18171,20.5389 0.57526,3.65902 0.75004,4.37687 1.08232,8.08175 0.12294,1.37074 0.14534,2.74966 0.28217,4.11909 0.15387,1.53987 0.47247,3.06193 0.58954,4.60503 0.23975,3.16011 -0.0139,6.34495 0.22726,9.50486 -0.0791,5.60314 0.0573,4.00978 -0.47536,9.57856 -0.14606,1.52699 -0.24873,3.06066 -0.48644,4.57608 -0.4728,3.01402 -1.18173,5.13477 -1.96981,8.06864 -0.34467,1.28317 -0.67214,2.5709 -1.00821,3.85634 -0.32819,1.16283 -0.60739,2.34062 -0.98456,3.4885 -0.39247,1.19443 -0.87496,2.35741 -1.32239,3.53237 -1.92387,5.05221 -4.01441,10.04141 -7.01354,14.57095 -1.77311,3.20705 -3.60571,6.38198 -5.5033,9.51751 -0.5503,0.9093 -1.20479,1.75743 -1.69706,2.69941 -0.8461,1.619 -1.21861,3.45776 -2.11647,5.05509 -1.19383,2.90887 -2.42051,5.89127 -4.21278,8.49909 -2.47225,3.5972 -2.05573,2.36149 -5.12807,5.45367 -0.80752,0.81273 -1.52192,1.71297 -2.28287,2.56946 -2.24504,2.26515 -3.25908,3.3867 -5.74381,5.47298 -4.5177,3.79325 -9.45322,7.04031 -14.05301,10.72505 -1.25332,0.80489 -2.45063,1.70452 -3.75995,2.41468 -1.36261,0.73906 -2.81023,1.31047 -4.23482,1.92157 -4.40973,1.89162 -8.98987,3.35062 -13.5491,4.82961 -3.10195,0.76594 -6.25358,1.63323 -9.41584,2.11708 -2.73824,0.41898 -5.5406,0.48118 -8.26039,1.0597 -4.83758,0.60201 -9.66967,1.3158 -14.54092,1.57734 -4.95659,0.41945 -9.93167,0.84859 -14.91057,0.63381 -5.93854,0.12957 -11.8872,0.0663 -17.79718,-0.60161 -5.63988,-0.8319 -11.17769,-2.11216 -16.58572,-3.93295 -10.18993,-3.84808 -22.58075,-12.56104 19.96524,12.33971 0.69529,0.40693 -1.42849,-0.74843 -2.11282,-1.17354 -1.72595,-1.07218 -2.49237,-1.76964 -4.08739,-3.05054 -1.61201,-1.55114 -2.15594,-1.9784 -3.56991,-3.72637 -2.11441,-2.61388 -3.90653,-5.5189 -5.42099,-8.51252 -2.37588,-4.29275 -5.30757,-8.23687 -7.82843,-12.44449 -1.66068,-2.79116 -3.40688,-5.52494 -4.75823,-8.48711 -1.50343,-3.29553 -1.42311,-3.51146 -2.50676,-6.9524 -0.3806,-1.20852 -0.77097,-2.41394 -1.15645,-3.62092 -0.71973,-3.58051 -1.61268,-7.11561 -2.34497,-10.69294 -1.13061,-5.5232 -0.35505,-2.05547 -1.32469,-7.70362 -0.24401,-1.42135 -0.53221,-2.83475 -0.79832,-4.25212 -0.5115,-4.72572 -1.18347,-9.43858 -1.65516,-14.16768 -0.16623,-1.66664 -0.23006,-3.34259 -0.40285,-5.00857 -1.10385,-10.64295 -0.30521,0.38888 -0.97598,-10.37206 -0.80774,-10.83517 -0.95163,-21.72121 -0.34773,-32.5733 0.17138,-1.71149 0.27999,-3.43044 0.51416,-5.13448 0.29456,-2.14358 1.33027,-7.3135 1.78769,-9.48759 0.91782,-4.3624 1.96066,-8.68578 4.00928,-12.68543 3.28057,-7.16172 6.78332,-14.21364 10.81984,-20.98481 1.5735,-2.4625 2.48227,-3.9778 4.22192,-6.32856 4.24809,-5.74033 0.32292,-0.22618 4.70391,-5.5742 1.39178,-1.699 2.473,-3.63811 3.93367,-5.28574 2.41148,-2.9815 4.81467,-5.96188 7.48789,-8.7179 3.65535,-3.76859 2.70024,-2.50271 6.54972,-6.24749 1.15125,-1.11994 2.25317,-2.2895 3.37976,-3.43425 0.34085,-0.27944 8.38631,-6.87962 8.65932,-7.08637 4.37815,-3.31566 5.31493,-3.70537 10.06253,-6.46724 6.04172,-3.51473 3.28994,-2.06203 9.53559,-4.96961 7.1522,-2.35226 13.29128,-5.11118 20.93462,-3.12823 1.30933,0.39445 2.13417,0.58644 3.33985,1.13269 0.41916,0.1899 1.61891,0.87492 1.2228,0.64072 -43.95792,-25.990233 -30.43718,-17.276953 -20.52547,-12.41137 z" />
    <path
       style="display:inline;opacity:1;fill:#dadada;fill-opacity:1;stroke-width:20;stroke-linecap:round;paint-order:stroke fill markers"
       id="path14"
       d="m -145.94799,275.38197 c 0.0206,-1.97923 0.12396,-3.93097 0.50153,-5.8799 0.17496,-0.9031 0.50782,-1.77555 0.62512,-2.68794 0.0587,-0.4567 0.25194,-6.5023 0.26284,-6.82407 0.35995,-12.18837 -0.19893,4.48122 0.42838,-7.72088 0.29542,-5.74644 -0.16229,-2.30239 0.32569,-8.05995 0.30698,-3.62192 0.5375,-4.57511 1.13103,-8.18508 0.40932,-1.22277 0.81863,-2.44554 1.22794,-3.66832 0.37171,-1.26115 0.69865,-2.53636 1.11513,-3.78345 0.41989,-1.25729 0.96354,-2.47066 1.39239,-3.72492 0.46472,-1.35914 0.7718,-2.77169 1.28733,-4.11238 0.82839,-2.15433 2.62609,-5.52174 3.68608,-7.58489 0.541,-1.20255 0.99252,-2.44951 1.623,-3.60766 1.34815,-2.47647 2.51298,-3.32646 3.68755,-5.87007 0.47515,-1.02899 0.71768,-2.15034 1.098,-3.21803 0.85591,-2.40285 1.76217,-4.7875 2.63092,-7.18575 0.62664,-1.22608 1.19905,-2.48144 1.87993,-3.67825 0.0861,-0.15125 3.96155,-6.24645 4.11309,-6.5112 1.98493,-3.46778 1.57106,-3.15054 3.09904,-6.88211 0.49291,-1.20375 1.02639,-2.39048 1.53958,-3.58573 1.19808,-2.33969 2.09181,-4.819 3.22959,-7.18577 3.64369,-7.57944 -0.058,0.81383 3.44115,-6.86764 0.87901,-1.9296 2.28757,-5.36496 3.09363,-7.30372 1.62642,-6.14589 4.71136,-11.73345 8.00492,-17.12229 0.78089,-1.27769 1.66132,-2.49388 2.41689,-3.78669 0.76354,-1.30643 1.42465,-2.67009 2.13697,-4.00514 3.37994,-6.37749 7.24278,-12.56862 12.53071,-17.55247 0.85849,-0.80912 1.79683,-1.52909 2.69525,-2.29363 2.47955,-2.02768 4.38398,-4.6243 6.0739,-7.323013 0.72695,-1.16089 1.30199,-2.41466 2.06029,-3.55532 1.70462,-2.56412 3.864,-5.00872 5.83146,-7.3607 3.96899,-5.097239 8.60042,-9.614903 12.98119,-14.347426 1.00954,-1.090608 2.07872,-2.130394 3.01387,-3.285436 1.02127,-1.261429 1.89675,-2.634222 2.84513,-3.951333 5.36971,-6.261284 12.2246,-10.96107 18.11141,-16.682721 1.36242,-1.324191 2.63522,-2.737565 3.95282,-4.106348 1.62867,-1.338494 3.20151,-2.747977 4.88601,-4.015482 3.0614,-2.303545 7.70732,-5.252691 10.99883,-7.205733 3.27416,-1.942747 7.46987,-4.244893 10.93828,-5.859035 1.64616,-0.766098 3.34545,-1.412439 5.01817,-2.118658 1.48575,-0.507668 2.96313,-1.040482 4.45723,-1.523002 3.55395,-1.14775 3.70938,-1.025224 7.07107,-2.191869 0.96718,-0.335649 1.9103,-0.737492 2.87365,-1.083978 1.82498,-0.656391 3.66851,-1.260088 5.49964,-1.899154 2.59453,-0.842683 5.39818,-0.991962 7.94977,-1.986549 1.06402,-0.414748 2.02839,-1.059252 3.09109,-1.477377 1.36553,-0.537276 2.80038,-0.88138 4.17934,-1.383208 1.64853,-0.599934 3.26656,-1.280589 4.89984,-1.920883 8.04327,-1.949175 4.14259,-1.141773 12.49192,-2.593236 2.14274,-0.372498 4.27773,-0.793777 6.42939,-1.110725 6.13303,-0.903421 12.33397,-1.481098 18.50397,-2.061334 5.35625,-0.625187 10.74668,-0.908925 16.10982,-1.456264 6.30386,-0.643345 4.04574,-0.67752 10.46075,-0.997785 1.73703,-0.08672 3.47709,-0.09506 5.21564,-0.142587 4.52478,-0.09295 9.04984,0.243642 13.57375,0.19264 1.15365,-0.01301 2.42431,0.362928 3.45792,-0.149633 0.59647,-0.295782 1.02892,-1.339765 0.65136,-1.888133 -1.76237,-2.559681 -4.35451,-4.435075 -6.53177,-6.652613 0,0 -2.36174,-1.709189 -2.36174,-1.709189 v 0 c -6.08562,-3.4023448 -10.72627,-7.069378 -17.43218,-8.315822 -1.21395,-0.22564 -2.47068,-0.04393 -3.70421,0.01084 -3.9024,0.173285 -7.76746,0.866621 -11.63562,1.350831 -4.77528,0.584598 -4.92679,0.634174 -9.87206,1.105775 -1.80633,0.172259 -3.6213,0.259309 -5.42241,0.479563 -4.91155,0.600626 -9.75456,1.7256312 -14.6122,2.6339247 C 53.51539,-5.368068 41.70067,-2.614229 29.70807,-0.916075 12.81886,0.199455 31.04416,-1.142897 17.36438,0.211816 15.75281,0.371411 14.12464,0.349715 12.51804,0.553328 9.79476,0.898462 7.25832,2.036369 4.71031,2.972631 1.93414,3.951419 -0.88463,5.001108 -3.43448,6.502078 c -2.93116,1.725425 -5.26352,4.229511 -7.89172,6.346997 -4.38276,3.399322 -8.87823,6.605194 -13.4358,9.767311 -2.41757,1.677346 -8.43922,5.813219 -10.88397,7.37775 -1.89655,1.213714 -3.84109,2.350764 -5.76164,3.526145 -1.90416,1.03511 -3.87148,1.961636 -5.71247,3.105328 -7.16477,4.451033 -12.46236,11.132841 -18.52749,16.853131 -1.31951,1.126853 -2.73561,2.149548 -3.95852,3.380561 -1.0395,1.046398 -1.87768,2.275276 -2.80196,3.424726 -4.0028,4.977968 -7.72344,10.211623 -12.31692,14.682997 -2.52533,2.620217 -4.09556,4.389104 -6.87972,6.729504 -1.14005,0.958338 -2.40988,1.754299 -3.55421,2.707519 -2.48537,2.07029 -4.76771,4.42099 -6.32525,7.27653 -0.53737,1.00099 -1.04043,2.02118 -1.6121,3.00298 -3.6804,6.320743 -8.26053,12.073783 -11.70591,18.540043 -0.74417,1.31796 -1.5415,2.60729 -2.2325,3.95388 -0.68636,1.33753 -1.2407,2.73915 -1.89628,4.09203 -2.7629,5.70165 -5.72665,11.35257 -9.49699,16.46236 -1.51363,2.91162 -2.17372,4.10334 -3.55038,7.05391 -1.1112,2.38161 -2.04976,4.63732 -3.08101,7.05433 -1.10311,2.38358 -2.44155,4.65458 -3.43274,7.09233 -5.56957,11.24456 2.11673,-4.12175 -3.54811,6.72216 -2.38503,4.56554 -3.9812,9.54491 -7.02213,13.75837 -2.99622,3.95987 -1.91651,2.3843 -4.46964,6.29828 -0.60806,0.93216 -1.30717,1.81266 -1.81102,2.80504 -0.72484,1.42761 -1.78821,5.12238 -2.44275,6.51005 -0.56339,1.19443 -1.31578,2.2902 -1.97367,3.43529 -1.25743,2.57877 -2.43442,5.19766 -3.7537,7.74534 -0.66911,1.29211 -1.50775,2.49596 -2.11897,3.81643 -0.57878,1.25039 -0.98044,2.57563 -1.4409,3.87426 -1.67132,4.71362 -1.16612,3.0495 -2.02868,8.01079 -0.31963,1.41253 -0.70261,2.8122 -0.9589,4.23758 -0.7064,3.92886 -1.03098,8.23212 -1.12099,12.22377 -0.0301,1.33383 0.0809,2.6685 0.047,4.00224 -0.0316,1.24598 -0.16225,2.48748 -0.24337,3.73122 -0.11076,1.1217 -0.20718,2.2449 -0.33226,3.3651 -0.11564,1.03573 -0.33302,2.06149 -0.38985,3.1021 -0.0542,0.99292 0.0859,1.98865 0.0576,2.98264 -0.0557,1.95314 -0.47089,3.79624 -0.9576,5.67519 z" />
    <path
       style="display:inline;opacity:1;fill:#dadada;fill-opacity:1;stroke-width:20;stroke-linecap:round;paint-order:stroke fill markers"
       id="path15"
       d="m -170.2143,225.28174 c 0.006,0.47746 -0.0421,0.95881 0.019,1.43239 0.10813,0.83822 0.34706,1.6548 0.48672,2.48835 0.69472,4.14664 1.14148,8.34093 2.18073,12.42654 0.52495,2.06373 1.20745,4.08414 1.81118,6.1262 3.02136,9.29746 5.50903,18.75896 7.85544,28.24603 0.58173,2.35207 1.02939,4.73825 1.68443,7.07097 0.71144,2.5336 1.608,5.01153 2.412,7.51729 1.88861,5.9359 3.12159,12.04438 4.6472,18.07423 1.06104,4.19367 2.28233,8.3547 3.50102,12.50469 0.62169,1.52471 1.2348,3.05295 1.86507,4.57413 0.67366,1.62592 1.39464,3.23232 2.04666,4.86703 2.26051,5.66745 4.12348,11.50437 6.11685,17.26971 1.97653,6.48282 4.38522,12.86349 7.15567,19.05043 1.54355,3.0319 2.59117,6.31782 4.18846,9.32306 0.70304,1.32274 1.55984,2.55867 2.29067,3.86626 1.25252,2.24098 2.52022,4.8737 3.66172,7.1827 0.5814,1.09505 1.17385,2.1843 1.74419,3.28514 0.96384,1.86034 1.77636,3.63712 2.82451,5.44841 1.36468,2.35826 3.01656,4.52876 4.53624,6.78588 2.11683,3.23873 4.73563,6.07649 7.70041,8.54704 11.13187,8.81265 24.00608,15.09707 36.46097,21.84805 9.89697,5.58874 22.47998,12.94732 -24.50811,-14.15128 -0.48385,-0.27904 0.97057,0.5531 1.45319,0.83426 1.73937,1.01332 1.3932,0.81595 3.0979,1.89085 3.12259,1.92733 6.04695,4.14908 8.82248,6.54418 1.89457,1.79169 4.03157,3.25837 6.17503,4.73179 2.9534,2.0147 5.91556,4.01131 8.83792,6.07152 11.95791,8.09032 24.25586,16.03232 37.76704,21.17636 1.69509,0.54313 3.25899,1.44425 4.93798,2.02545 0.7546,0.26121 1.54091,0.41975 2.31088,0.63141 2.63066,0.7035 5.28738,1.28801 7.93328,1.93517 2.91016,0.77118 5.78209,1.67207 8.64227,2.60984 2.90354,0.95577 5.69363,2.21045 8.54753,3.29382 2.39498,0.96639 4.84605,1.77779 7.30933,2.54991 2.5027,0.94334 5.05192,1.7435 7.62116,2.48444 1.88353,0.60496 3.86449,0.76369 5.82141,0.96361 1.55978,0.14857 3.11783,0.0258 4.68331,0.1164 1.02924,0.12693 2.06371,0.15275 3.09488,0.22656 0.13493,0.009 0.27063,0.0438 0.40477,0.0268 0.44631,-0.0566 0.91116,-0.24802 1.36789,-0.30005 0.44953,-0.0512 0.99036,-0.003 1.43617,0.0204 1.24139,0.0498 2.47922,0.0107 3.7199,0.0735 1.02516,-0.0481 1.9727,0.37944 2.92834,0.6892 0.074,0.0357 0.80568,0.27499 0.7904,0.37472 -0.0194,0.12668 -0.72963,0.60129 -0.20639,0.44043 0.73518,0.15235 1.46907,0.42989 2.17141,0.72436 11.76863,6.54685 26.28768,15.16916 -29.27949,-16.88633 22.03159,12.80655 67.06885,38.82429 0.91954,0.57217 -0.11644,-0.0673 0.23414,0.15393 0.36818,0.16516 11.14418,6.96919 15.21656,8.90317 34.12946,19.66396 0.0877,0.0499 0.20148,-0.0305 0.30208,-0.022 0.18883,0.0159 0.37369,0.0632 0.56054,0.0948 1.90271,0.30901 3.65514,1.10023 5.44827,1.77171 2.42438,0.84464 4.91267,1.48066 7.35222,2.27637 1.70089,0.65633 3.51601,0.72949 5.28193,1.0812 1.22862,0.22314 2.42748,0.5593 3.65038,0.81001 0.846,-0.0309 1.64946,-0.39242 2.49478,-0.52778 2.82638,-0.6412 5.78317,-0.72628 8.67471,-0.81999 4.19151,0.10141 8.38043,-0.0225 12.57105,0.10351 2.63123,0.0283 5.31231,0.35358 7.94097,0.0571 1.67116,-0.1885 2.42412,-0.49488 4.05498,-0.97905 4.65068,-1.30806 9.48316,-1.98193 14.3039,-2.21807 0.52697,-0.0144 1.05381,-0.0353 1.58092,-0.0431 0.40327,-0.006 0.8069,-0.0131 1.20995,0.002 0.58485,0.0215 1.56549,0.34426 2.14332,0.10808 0.0777,-0.0442 0.17871,-0.0616 0.23299,-0.13252 0.0936,-0.12238 0.10874,-0.29056 0.19054,-0.42113 0.16227,-0.25902 0.34223,-0.44629 0.55111,-0.66227 0.41885,-0.34851 0.60661,-0.92905 0.97309,-1.31642 0.36521,-0.38603 1.44623,-1.11889 1.82565,-1.38909 0.45058,-0.32302 0.8729,-0.68965 1.35175,-0.96905 0.75988,-0.44339 3.20561,-1.50971 3.95871,-1.83328 0.62029,-0.26652 4.19762,-1.76101 4.76692,-1.96286 0.89669,-0.31792 1.81812,-0.56119 2.72719,-0.84179 1.82689,-0.48095 3.68743,-0.82622 5.51542,-1.30263 0.85406,-0.22258 1.68656,-0.52554 2.5451,-0.73018 2.49082,-0.59372 5.0646,-0.98483 7.59109,-1.39551 2.77938,-0.40342 5.60216,-0.63743 8.40674,-0.41 0.47267,-0.0335 0.97583,0.23284 1.22951,-0.25381 0.56973,-1.09296 1.12493,-2.19343 1.6874,-3.29015 -0.0575,0.11982 -1.04952,2.23028 -1.30333,2.6361 -0.16443,0.26291 -0.52184,0.51384 -0.47528,0.87688 -0.0104,0.0338 -0.0619,0.11858 -0.0311,0.1013 0.29466,-0.16536 0.82688,-0.93252 0.76993,-1.25135 0.26894,-0.85065 -0.002,-0.20177 0.61268,-1.0702 0.21881,-0.30899 0.36964,-0.66808 0.62172,-0.95057 1.27679,-1.4308 3.00733,-2.42531 4.62331,-3.39841 5.26106,-2.87571 10.40723,-5.9739 15.77616,-8.64449 5.14527,-2.55115 10.24189,-5.18872 15.45051,-7.61434 1.87577,-0.8377 3.77825,-1.69362 5.75634,-2.27065 0.0791,-0.0497 0.15399,-0.10688 0.23728,-0.14922 0.0775,-0.0394 0.17367,-0.0424 0.24298,-0.0949 0.1743,-0.13204 0.41004,-0.75237 0.24552,-0.60833 -0.84591,0.74064 -1.01991,1.68108 -0.74653,0.61646 1.03612,-0.99639 0.10941,-0.18635 1.63098,-1.19797 2.67199,-1.77648 -0.0258,-0.252 3.40666,-1.93647 6.08892,-2.98812 -1.85625,0.81042 4.75743,-2.32976 0.88075,-0.43851 1.76693,-0.86626 2.64223,-1.31553 0.955,-0.49017 1.88532,-1.02832 2.8483,-1.50261 3.95309,-1.94697 8.08128,-3.5368 12.11859,-5.29634 0.89198,-0.42033 1.79771,-0.81262 2.67593,-1.26099 0.83785,-0.42775 1.63989,-0.9226 2.46958,-1.36599 1.32939,-0.71045 3.31834,-1.62671 4.56503,-2.5158 0.68062,-0.4854 1.25802,-1.10197 1.90833,-1.62728 0.67118,-0.54216 1.36986,-1.04937 2.05479,-1.57405 0.65859,-0.54632 1.34977,-1.05559 1.97578,-1.63896 0.63662,-0.59326 1.19523,-1.26524 1.80593,-1.88516 1.25269,-1.27159 2.56575,-2.48299 3.8117,-3.76118 1.69106,-1.73481 1.98956,-2.14113 3.57063,-3.98171 2.76941,-3.02709 4.70653,-6.62015 6.89007,-10.05725 0.63677,-1.00233 1.29351,-1.99183 1.94027,-2.98775 0.66683,-1.05473 1.33366,-2.10945 2.0005,-3.16417 1.25542,-2.1341 2.87778,-4.01893 4.21784,-6.09447 1.36687,-2.11703 2.52559,-4.36194 3.83789,-6.51322 1.27505,-2.09022 2.60159,-4.14869 3.88315,-6.23493 0.61958,-0.99225 1.26231,-1.9704 1.85873,-2.97674 2.99165,-5.04784 0.45165,-1.14734 3.53815,-6.07899 1.70964,-2.73167 3.51807,-5.40858 5.28299,-8.1049 0.92427,-1.63689 2.25269,-2.99182 3.27057,-4.56171 1.06675,-1.64526 1.92694,-3.41674 2.95646,-5.08555 1.08768,-1.76307 2.09309,-3.23679 3.24092,-4.95638 0.19558,-0.28832 2.79726,-4.10314 2.98367,-4.45776 0.4406,-0.83817 0.67988,-1.76949 1.08465,-2.62553 1.25113,-2.646 2.8329,-5.17882 4.28046,-7.71954 3.14317,-5.12827 6.12057,-10.35579 9.26933,-15.48376 0.33531,-0.98332 0.68814,-1.96083 1.00592,-2.94995 0.6567,-2.044 1.23992,-4.11107 1.89271,-6.15631 0.59618,-1.86792 1.33675,-3.69066 1.86223,-5.57969 0.25308,-0.9098 0.39956,-1.84595 0.59934,-2.76893 1.34143,-4.99269 1.67018,-10.17802 1.95731,-15.31944 0.0517,-5.27461 0.74482,-10.51107 1.19677,-15.75947 0.0425,-1.85871 0.3689,-3.70344 0.41296,-5.56203 0.0243,-1.0242 -0.10899,-2.04904 -0.0682,-3.07272 0.0384,-0.96413 0.20917,-1.91844 0.30538,-2.87852 0.34758,-3.46865 0.24719,-2.2167 0.35578,-5.75949 0.13509,-3.48776 0.69812,-6.93793 0.99271,-10.40973 0.18382,-3.30101 0.0671,-1.66765 0.34745,-4.90029 0.39095,-3.92987 0.68799,-7.86917 1.24151,-11.7799 0.015,-3.37066 0.18028,-6.77885 -0.38186,-10.11216 -0.424,-3.10388 -1.43527,-6.04805 -2.53973,-8.9611 -0.96251,-3.44488 -2.55672,-6.62409 -4.02647,-9.86418 -1.67181,-4.3486 -3.16857,-8.76108 -4.86085,-13.10233 -2.41048,-5.42287 -4.61972,-10.92686 -7.36723,-16.19247 -1.81594,-3.8307 -3.7572,-7.59971 -5.63644,-11.40005 -0.40382,-0.81665 -0.75158,-1.66244 -1.19874,-2.45619 -0.54226,-0.96257 -1.17684,-1.87014 -1.76526,-2.8052 -2.90013,-4.66062 -5.80938,-9.30854 -8.642,-14.01085 -1.15591,-1.97122 -2.40403,-3.8861 -3.63706,-5.80934 -0.36779,-0.57367 -0.69841,-1.17322 -1.10605,-1.71928 -5.91334,-7.92138 2.0478,3.33103 -3.43087,-4.50131 -0.48482,-0.75234 -0.97401,-1.50188 -1.45446,-2.25702 -0.94568,-1.48635 -1.71621,-2.78301 -2.71157,-4.23393 -1.3521,-1.97097 -2.84781,-3.8387 -4.27195,-5.75705 -3.76891,-3.83387 -7.13762,-8.03105 -10.85836,-11.905803 -3.45809,-3.82989 -6.91167,-7.66706 -10.47902,-11.39585 -0.52192,-0.53171 -1.02891,-1.0785 -1.56576,-1.59513 -2.52842,-2.433122 -1.31139,-1.056651 -3.70077,-3.492908 -1.63311,-1.665143 -3.26289,-3.31756 -4.93468,-4.946926 -4.05833,-3.844929 -8.42939,-7.332832 -12.7694,-10.848767 -4.75405,-3.880706 -9.77131,-7.413465 -14.71983,-11.036776 -4.86911,-3.627336 -9.68275,-7.330235 -14.60768,-10.882216 -4.23588,-3.091655 -8.67052,-5.887441 -13.09296,-8.699551 -5.5001,-3.383623 -10.9976,-6.771986 -16.49302,-10.163685 -13.15762,-7.667879 -26.37666,-15.233983 -39.58674,-22.808516 -1.00396,-0.57566 -2.02956,-1.112796 -3.03902,-1.678764 -1.04453,-0.585636 -4.1589,-2.376452 -3.12283,-1.775981 8.76252,5.078446 17.53483,10.139968 26.30224,15.209952 -14.02111,-5.673429 -25.78587,-16.203232 -39.71,-22.2780077 -3.52903,-1.5396333 -7.15291,-2.7479613 -10.82597,-3.8840443 -5.91197,-1.409504 -12.12361,-2.565964 -18.23022,-1.956239 -1.00451,0.100296 -1.99426,0.315121 -2.99139,0.472681 -0.4561,0.570854 -1.16231,1.011511 -1.36829,1.712563 -1.03233,3.5136065 3.01021,5.6514707 4.88214,7.665992 0,0 10.16885,6.547188 10.16885,6.547188 v 0 c 2.55735,1.097011 5.04286,2.379553 7.67207,3.291033 1.97011,0.682989 5.28899,0.861852 7.39524,1.046778 0.85233,-0.109967 1.69999,-0.265719 2.55698,-0.329901 5.82491,-0.43624 11.53503,0.824392 17.04908,2.603986 2.65923,0.916157 4.25625,1.416726 6.85093,2.509206 11.64132,4.901539 33.0684,19.149903 -15.57621,-9.741639 10.98563,6.356911 21.96671,12.721701 32.9569,19.070734 1.05953,0.612094 2.12909,1.206669 3.19217,1.812589 1.07804,0.614444 4.30549,2.46938 3.23115,1.848498 -9.06385,-5.23819 -18.13021,-10.472035 -27.19971,-15.700438 -1.83374,-1.057118 7.08795,4.101429 5.45573,3.24898 5.02218,3.000277 9.95614,6.134205 14.79166,9.427466 4.60915,2.911636 9.29905,5.700078 13.79753,8.782505 2.54719,1.742672 5.08582,3.487482 7.54349,5.355991 0.79862,0.607172 1.58309,1.232742 2.37463,1.849113 0.75024,0.606758 1.48425,1.234148 2.25072,1.820273 0.81802,0.625553 1.6674,1.209002 2.50111,1.813502 4.85666,3.513206 9.71605,7.024906 14.42995,10.729729 4.0098,3.186034 7.83625,6.599018 11.63134,10.036809 1.76054,1.63275 3.49884,3.295492 5.21742,4.972285 0.58066,0.566536 1.14005,1.154465 1.71007,1.731698 0.51479,0.542805 1.01144,1.103405 1.54436,1.628414 0.57751,0.568924 1.1901,1.101092 1.78515,1.651638 3.95473,3.68743 7.86132,7.424556 11.38749,11.534102 3.3558,3.956064 7.22385,7.452094 10.39287,11.576394 3.49715,3.67255 6.59262,7.704493 9.24762,12.029633 0.42592,0.73697 0.87715,1.45988 1.27775,2.21091 0.3429,0.64284 0.5669,1.34894 0.95125,1.96789 0.3976,0.6403 0.92693,1.18878 1.382,1.78958 1.47864,1.95214 2.8736,3.96326 4.28293,5.96545 3.33031,4.80537 6.55048,9.68386 9.91215,14.46683 2.03399,3.41106 0.98616,1.70355 3.14586,5.12108 1.66554,2.74936 3.16318,5.56526 4.57949,8.44848 0.47276,0.96242 0.94626,1.92448 1.41938,2.88672 2.17743,5.25003 4.90471,10.26901 6.7962,15.63703 1.62005,4.25635 3.12572,8.5466 4.5316,12.87683 0.32217,1.18139 0.58322,2.38126 0.96817,3.5437 0.69769,2.10682 1.86074,4.03291 2.60844,6.1212 1.04802,2.93624 2.19924,5.82632 3.2718,8.75328 0.95379,3.33862 1.96469,6.49095 2.00483,10.02076 0.56909,4.18875 0.73387,8.41891 0.80182,12.64358 0.0117,3.33673 0.038,1.66425 -0.0799,5.01742 -0.0294,3.64296 0.15087,7.28793 -0.007,10.93146 -0.23027,4.23403 -0.12443,1.51216 -0.18623,5.77662 -0.0144,0.99343 0.0357,1.99071 -0.0552,2.98008 -0.0854,0.92988 -0.35527,1.83486 -0.47205,2.76132 -0.22935,1.81957 -0.20727,3.66507 -0.4698,5.48181 -0.50917,5.25977 -0.91517,10.52764 -1.42922,15.78668 -0.24183,5.09108 -0.43309,10.18257 -1.04768,15.24851 -0.34246,1.82934 -0.57636,3.67811 -0.92884,5.50554 -0.75234,3.90056 -2.06668,7.68158 -4.06444,11.1223 -0.36345,0.85931 -0.69228,1.7341 -1.09035,2.57793 -2.14743,4.55216 -5.0659,8.68589 -7.52244,13.06293 -1.71714,2.78055 -1.47638,2.36032 -3.12039,5.14128 -0.49414,0.83588 -0.94626,1.69744 -1.47313,2.51308 -0.50851,0.78723 -1.15562,1.48258 -1.62997,2.29084 -0.88883,1.51454 -1.3196,3.26901 -2.25657,4.76051 -1.21973,2.26997 -1.4731,2.85657 -2.90262,5.04049 -1.08339,1.65511 -2.3923,3.15693 -3.45054,4.82823 -0.24436,0.38592 -2.48349,4.69125 -2.65513,5.01964 -1.53285,2.85013 -2.97195,5.74784 -4.49392,8.60274 -2.79876,5.24989 -0.56201,0.86743 -3.51196,6.09804 -0.57375,1.01733 -1.09754,2.06203 -1.64631,3.09305 -0.33749,0.61789 -3.16463,5.80515 -3.50399,6.38061 -1.83802,3.11672 -2.08415,3.20913 -4.0646,6.22786 -0.66077,1.00718 -1.26403,2.05164 -1.93536,3.0518 -0.6891,1.02666 -1.42974,2.01777 -2.14461,3.02666 -1.08367,1.35971 -3.4246,4.32632 -4.58433,5.66831 -2.65787,3.07559 -5.70436,5.78487 -8.30548,8.91463 -1.74747,1.90039 -3.46133,3.86001 -5.30097,5.6727 -2.36551,2.33085 -1.41069,1.26008 -3.95411,3.39054 -0.61886,0.51837 -1.20703,1.07232 -1.81054,1.60848 -3.76945,3.15538 0.12687,0.0274 -3.94729,2.89438 -1.71716,1.20837 -1.92593,1.63364 -3.67714,2.83762 -0.33647,0.23133 -4.19321,2.58527 -4.51378,2.78147 -5.59164,3.17951 -11.36469,6.01371 -17.57975,7.77296 -2.6639,0.81119 -5.3966,1.66491 -8.16515,2.05472 -1.90418,0.26811 -3.87048,0.25483 -5.78556,0.42271 -1.87,-0.11597 -0.39224,-0.30073 -2.10213,1.07519 -0.18495,0.14883 0.33533,-0.8763 0.22186,-0.31974 -0.0263,1.35806 -1.7113,2.85445 -2.45487,3.81863 -0.86577,0.84891 -1.9815,1.98026 -2.91458,2.72391 -3.05896,2.43796 -6.54675,4.18358 -9.88892,6.17815 -0.9529,0.52556 -1.88567,1.08939 -2.8587,1.57668 -4.64201,2.32475 -9.58972,4.01064 -14.38024,5.9893 -3.32381,1.30361 -6.71168,2.48528 -10.15831,3.3847 -1.38528,0.43426 0.13129,-0.51453 -0.17286,-0.64212 -0.0526,-0.0221 -0.085,0.0761 -0.12745,0.11414 -0.12202,0.23133 -0.3341,0.54674 -0.49564,0.74283 -0.0811,0.0985 -0.22025,0.14252 -0.29077,0.24882 -0.36336,0.54777 -1.17398,2.33732 -1.35584,2.72141 0.57141,-1.08724 1.14421,-2.17376 1.71423,-3.26173 0.006,-0.0121 0.1397,-0.17765 0.0319,-0.21518 -0.11946,-0.0416 -0.0594,0.39922 -0.17064,0.33898 -0.87304,1.38182 -3.7589,2.01439 -5.10763,2.73134 -2.16283,0.76199 -4.36877,1.52042 -6.59335,2.08262 -0.92645,0.23413 -1.87671,0.36509 -2.80476,0.59273 -1.82774,0.44833 -3.5188,1.02382 -5.30981,1.59668 -2.8329,0.8249 -5.69362,1.50853 -8.53587,2.29891 -1.63188,0.4538 -3.24681,0.96997 -4.88872,1.38603 -0.76536,0.19394 -1.54156,0.34229 -2.31235,0.51344 -1.78764,0.5215 -3.5672,0.99663 -5.39401,1.33955 -0.41696,0.13551 -0.95719,0.47262 -1.1037,-0.1149 -0.16037,0.0223 -0.22883,-0.003 -0.32887,0.1499 -0.57432,0.87981 -0.81566,1.04905 -1.8467,1.57181 -3.94215,1.94951 -8.41351,2.67167 -12.7605,3.00884 -3.9813,0.11454 -7.96245,0.19681 -11.94406,0.2764 -4.2862,0.0382 -8.55993,-0.27561 -12.84685,-0.25465 -3.53902,-0.10053 -7.09692,-0.12906 -10.61571,-0.53022 -1.03794,-0.0981 -2.0835,-0.21683 -3.05316,-0.60897 -0.89949,-0.0104 -1.80159,-0.12374 -2.68542,-0.28537 -1.6023,-0.27012 -3.15755,-0.72245 -4.73992,-1.08762 -2.20721,-0.48299 -4.37071,-1.12857 -6.43355,-2.06586 -2.26176,-0.94255 -4.59648,-1.7027 -6.80428,-2.77253 -0.2115,-0.12057 -0.42933,-0.23066 -0.63451,-0.36172 -0.18245,-0.11654 -0.71446,-0.4878 -0.5267,-0.38002 11.0039,6.31671 21.98542,12.67235 32.97812,19.00853 -0.1641,-0.0261 -0.27633,-0.12642 -0.37932,-0.25484 -0.0772,-0.25534 -0.44831,-0.34646 -0.68025,-0.48074 -11.14179,-6.45057 -22.15361,-13.13168 -33.43281,-19.33884 -11.0322,-6.07122 21.79394,12.62142 32.6916,18.93094 0.17487,0.10124 -0.34881,-0.20409 -0.52322,-0.30614 -11.29717,-6.5219 -23.64386,-15.37419 -36.5552,-20.63222 -0.95737,-0.41123 -1.89816,-0.86917 -2.76778,-1.42853 -0.0225,-0.063 -0.003,-0.17206 -0.0676,-0.18891 -0.0758,-0.0197 -0.63865,0.32955 -0.6805,0.36401 -0.1095,0.0902 0.13886,0.25623 -0.19616,0.21058 -0.89389,0.1001 -1.77599,0.28426 -2.68448,0.2525 -1.09649,0.0915 -2.19291,0.0962 -3.28851,0.18678 -1.30889,0.0809 -2.58489,-0.16348 -3.87576,-0.2536 -0.81053,0.0682 -1.63087,0.0585 -2.44215,0.14214 -1.5111,0.0124 -2.99472,-0.18092 -4.49792,-0.30252 -1.57819,-0.14233 -3.11733,-0.42887 -4.64826,-0.84798 -2.01117,-0.49375 -4.02472,-0.97297 -6.02962,-1.48712 -2.34193,-0.78407 -4.64901,-1.65233 -6.96759,-2.50168 -2.70178,-1.02637 -5.47368,-1.87509 -8.21479,-2.79026 -2.96286,-0.90311 -5.92367,-1.8364 -8.9351,-2.56218 -2.65311,-0.66453 -5.31192,-1.32296 -7.89122,-2.24035 -2.28517,-0.88556 -4.53353,-1.86032 -6.8742,-2.60148 -1.51622,-0.62447 -1.15609,-0.44524 -2.72218,-1.22988 -0.45586,-0.22839 -1.80008,-0.95775 -1.35924,-0.70157 46.97174,27.29556 33.85553,19.62082 23.95219,13.84544 -2.84823,-1.88843 -5.55813,-3.96404 -8.40427,-5.85417 -2.12197,-1.53084 -4.22214,-3.08974 -6.32089,-4.65201 -3.24281,-2.2655 -6.52113,-4.49195 -9.54598,-7.04889 -11.50578,-8.15675 -24.12572,-14.60152 -36.48041,-21.38464 -10.46524,-5.80144 0.46217,0.24589 25.64484,14.86994 0.48779,0.28327 -0.99728,-0.5278 -1.4873,-0.80719 -1.47727,-0.84228 -1.60843,-0.9562 -3.00173,-1.91446 -0.48759,-0.33535 -0.97222,-0.67498 -1.45833,-1.01247 -3.40857,-2.55407 -6.69601,-5.25272 -9.50215,-8.48248 -1.98317,-2.23014 -3.76467,-4.5462 -5.56024,-6.92949 -1.45135,-1.92641 -2.94482,-3.84036 -4.24907,-5.8729 -0.68713,-1.07082 -1.29283,-2.19176 -1.93925,-3.28765 -1.37527,-2.47624 -2.57349,-4.4767 -3.67942,-7.09048 -0.4522,-1.06874 -0.73787,-2.20202 -1.1724,-3.27807 -1.26074,-3.12198 -2.88674,-6.0982 -4.09253,-9.24557 -2.51223,-5.75631 -0.0963,-0.31881 -2.79588,-6.10422 -1.57608,-3.37768 -3.03657,-6.8171 -4.70133,-10.15304 -0.63714,-1.27672 -1.32847,-2.52567 -1.99271,-3.7885 -2.08956,-4.39255 -4.15118,-8.79887 -6.05266,-13.27725 -3.54834,-8.35708 -0.47049,-1.3529 -3.85184,-9.67312 -0.63569,-1.56418 -1.32591,-3.10564 -1.98887,-4.65846 -6.09302,-11.1403 -12.45555,-22.24258 -16.63264,-34.28029 -0.68432,-2.43305 -1.34147,-4.8739 -2.05295,-7.29914 -2.76149,-9.41313 -1.73081,-5.10005 -4.20215,-14.36604 -1.31588,-4.93371 -2.32565,-8.62758 -2.94304,-13.68543 -0.24527,-2.00939 -0.26067,-4.04021 -0.391,-6.06031 0.16178,-4.26879 0.25796,-8.52037 0.81455,-12.76032 0.12503,-0.95246 0.26953,-1.9027 0.43878,-2.84831 0.12233,-0.68351 0.35598,-1.34726 0.43561,-2.03705 0.0561,-0.48579 -0.0208,-0.9778 -0.0312,-1.4667 z" />
    <path
       style="display:inline;opacity:1;fill:#dadada;fill-opacity:1;stroke-width:20;stroke-linecap:round;paint-order:stroke fill markers"
       id="path16"
       d="m 67.56293,172.53814 c 0.0841,-0.23303 0.22567,-0.45277 0.25239,-0.69907 0.39004,-3.59478 -0.65521,1.62771 0.0439,-2.7095 0.33267,-2.0639 1.35942,-3.95405 2.20078,-5.83944 2.1203,-4.94995 5.94297,-8.84783 9.16204,-13.08061 0.60448,-0.95092 1.13508,-1.95306 1.81345,-2.85277 1.57538,-2.08941 3.19916,-3.52258 5.10457,-5.29751 2.54313,-2.36898 5.13764,-4.61025 7.87303,-6.75242 1.98409,-1.48914 4.10696,-2.80887 5.79329,-4.65537 0.85874,-0.9403 2.07779,-2.70201 2.85639,-3.66918 0.56801,-0.70557 1.17286,-1.38067 1.7593,-2.071 2.06816,-2.20461 4.25551,-4.22133 6.78181,-5.88939 0.77978,-0.51487 1.61888,-0.93645 2.39492,-1.45694 0.28238,-0.18939 3.87288,-2.89271 4.13559,-3.09009 3.08368,-2.58096 6.62377,-4.53525 10.43862,-5.80993 0.9076,-0.30327 4.17791,-1.10914 5.19938,-1.36618 2.52397,-0.77712 4.76031,-2.22431 7.21251,-3.17195 1.39302,-0.53833 1.81504,-0.59717 3.21844,-0.94133 1.88335,-0.4286 3.9018,-0.25802 5.66844,0.51499 0.43003,0.13452 0.78419,0.45942 1.2138,0.59563 0.21342,0.0677 0.84733,0.23625 0.66268,0.10964 -12.55488,-8.608943 -25.08729,-17.255333 -37.82471,-25.591797 -0.19796,-0.12956 -0.30332,0.366274 -0.48349,0.519614 -0.16253,0.138331 -0.35793,0.232565 -0.5369,0.348848 -0.2033,0.128943 -0.42218,0.236102 -0.6099,0.38683 -1.69273,1.359168 0.49824,-0.09666 -1.65093,1.392332 -1.37173,0.950361 -2.77846,1.795369 -4.11955,2.7961 -3.18638,1.69231 -0.26859,0.0601 -3.33399,2.02217 -1.51174,0.9676 -1.85579,0.93744 -3.16853,2.18351 -0.54529,0.5176 -0.9931,1.12972 -1.51423,1.67163 -0.55683,0.57904 -1.14555,1.12655 -1.71832,1.68983 -2.71128,1.9572 -4.70625,4.74299 -7.3025,6.81921 -0.66801,0.5342 -1.43276,0.93588 -2.12567,1.437363 -0.62731,0.45401 -1.22185,0.95167 -1.83277,1.4275 -0.61056,0.43998 -1.21172,0.89329 -1.83166,1.31995 -0.60303,0.41502 -1.20592,0.83243 -1.83637,1.20447 -1.60783,0.94881 -3.35976,1.61649 -4.86638,2.74039 -0.44253,0.33011 -0.84207,0.71425 -1.2631,1.07138 -0.40302,0.43745 -0.80427,0.87654 -1.20907,1.31233 -0.43483,0.46813 -0.84283,0.96335 -1.30981,1.3994 -1.71251,1.59913 -3.75106,2.78578 -5.63444,4.15835 -0.35697,0.31442 -0.73944,0.60206 -1.0709,0.94327 -0.4798,0.4939 -1.52179,1.88351 -1.92731,2.39847 -1.23446,1.56763 -2.54322,3.05246 -3.75578,4.63877 -2.30125,3.00603 -0.49203,0.73321 -2.99051,3.62991 -0.49009,0.5682 -0.92411,1.18633 -1.44769,1.72384 -0.48956,0.50257 -1.0701,0.90848 -1.58289,1.38733 -0.8583,0.8015 -1.65795,1.6636 -2.48694,2.49539 -0.33247,0.40205 -0.6882,0.78594 -0.99741,1.20614 -0.30671,0.4168 -0.55438,0.87425 -0.84737,1.30081 -1.20063,1.74802 -2.49984,3.42281 -3.69517,5.17685 -0.3025,0.48896 -0.62258,0.96748 -0.90751,1.46689 -0.30011,0.52601 -0.53242,1.08977 -0.84657,1.60751 -0.92242,1.52022 -1.02686,1.31968 -1.9678,2.76578 -0.0248,0.0381 -1.52875,2.66064 -1.55951,2.71425 -1.27984,2.95039 -3.02713,5.6563 -4.62812,8.43344 -1.66405,2.78835 -2.1924,5.97405 -2.79356,9.11224 -0.669,2.60422 -0.59702,5.33675 -1.03189,7.98125 -0.0952,0.57871 -0.26607,1.14238 -0.39911,1.71357 -0.22847,2.52085 -0.97279,5.01078 -1.03567,7.54957 0.12894,3.27228 0.12317,1.64015 0.0191,4.89638 0.0686,3.86791 -0.67708,7.71393 -0.63843,11.57878 0.008,0.81657 0.087,1.6309 0.13052,2.44635 0.11825,4.44217 0.40423,8.87605 0.60899,13.31485 0.34859,2.16676 0.31025,4.36773 0.49372,6.54763 0.0717,0.85211 0.22261,1.69668 0.2842,2.54959 0.1184,1.63962 0.1048,4.00748 0.11494,5.63388 0.0564,1.09804 0.15676,2.19469 0.16908,3.2941 0.0358,3.18999 -0.2144,6.40107 -0.32443,9.58814 -0.0954,4.06645 -0.034,2.05571 -0.18241,6.03226 0.17883,3.98973 -0.0132,8.03665 0.99274,11.93985 1.78494,5.74781 0.9813,2.84973 2.41108,8.69421 0.30604,1.43842 0.57948,2.88417 0.91811,4.31528 0.36115,1.52628 0.81663,3.02915 1.18071,4.55474 0.37052,1.55255 1.50618,7.03545 1.85402,8.64519 0.28942,1.33939 0.52451,2.6926 0.88707,4.01407 0.3635,1.32488 0.8589,2.60999 1.28835,3.91499 2.47734,5.02449 3.66618,10.64994 7.37544,15.02437 5.16312,6.08901 9.22333,8.48572 15.91188,13.63009 0,0 1.81948,0.83038 1.81948,0.83038 v 0 c 2.16455,-0.0515 4.38937,0.35548 6.49364,-0.15437 4.22382,-1.02339 2.11021,-5.60049 1.32509,-8.07607 -1.3672,-4.31089 -0.8351,-1.97238 -1.51505,-6.32338 -0.27719,-1.19916 -0.52048,-2.40667 -0.83159,-3.59748 -1.1186,-4.28164 -2.48363,-8.49051 -3.3832,-12.8312 -0.29384,-1.41783 -0.48338,-2.85536 -0.74097,-4.28022 -0.2523,-1.39554 -0.52579,-2.78717 -0.78868,-4.18076 -0.77387,-6.84344 -0.32774,-1.17952 -0.33988,-7.43026 -0.007,-3.84994 -0.84329,-7.63592 -0.89909,-11.48549 -0.5025,-6.13145 -0.54722,-12.3615 0.63916,-18.42135 0.11194,-0.93509 0.22388,-1.87019 0.33582,-2.80528 0.0989,-0.88853 0.19082,-1.77787 0.2967,-2.6656 0.0962,-0.80705 0.26104,-1.60724 0.30967,-2.41855 0.13088,-2.18378 -0.22067,-4.38669 -0.12579,-6.57198 -0.49555,-4.41568 -1.22541,-8.82702 -1.20148,-13.28137 0.20929,-4.55291 -0.2747,-9.13224 0.41892,-13.66235 0.96124,-6.66875 -0.36154,1.91699 0.85782,-4.30722 0.4589,-2.34249 0.40292,-4.79243 1.1634,-7.08264 0.10334,-0.59095 0.16987,-1.18953 0.31003,-1.77285 0.14139,-0.58849 0.37127,-1.15249 0.53297,-1.73572 0.5517,-1.98993 1.04805,-4.04616 1.12848,-6.11289 0.0666,-0.56603 0.23446,-2.16282 0.37983,-2.7249 0.44009,-1.70165 1.35777,-3.28613 2.07311,-4.87521 1.54447,-2.84634 3.13971,-5.66256 4.78692,-8.45147 0.21621,-0.44389 0.43242,-0.88779 0.64864,-1.33168 0.22737,-0.42888 0.46649,-0.85172 0.68212,-1.28662 0.49794,-1.00432 0.8354,-1.94523 1.45367,-2.89327 0.61182,-0.93813 1.45409,-1.71199 2.02667,-2.67997 1.85289,-2.49229 3.72729,-4.97304 5.50447,-7.51515 2.30867,-4.03765 -0.94186,1.59832 1.7016,-2.80907 0.33853,-0.56442 0.59795,-1.17758 0.9755,-1.71668 0.42385,-0.6052 0.94909,-1.13266 1.41921,-1.70266 2.02085,-2.45017 0.79792,-1.13677 3.05539,-3.34449 0.77049,-0.65631 2.31217,-1.98773 3.1344,-2.61895 1.71981,-1.32027 3.66401,-2.42291 5.01864,-4.15734 2.21199,-2.63761 4.4368,-5.24223 7.51385,-6.92335 0.91559,-0.68452 1.52659,-1.10644 2.37255,-1.87807 1.98123,-1.80714 3.76926,-3.82555 5.94741,-5.41817 2.42211,-2.03867 1.24791,-0.95172 3.51511,-3.26892 0.16224,-0.14421 4.08619,-3.17968 4.26483,-3.32865 0.60758,-0.50667 1.17533,-1.05929 1.76419,-1.5876 0.57996,-0.52032 1.16152,-1.03885 1.74228,-1.55828 0.64545,-0.45587 1.26255,-0.95482 1.93637,-1.36762 1.17253,-0.71832 2.45032,-1.25332 3.62918,-1.96122 0.5089,-0.30559 0.97993,-0.67346 1.49912,-0.96122 1.1052,-0.61256 2.32365,-1.00767 3.37991,-1.71651 2.87685,-0.9367 5.72414,-1.99314 8.79038,-2.01985 0.17005,0.0125 0.35967,-0.0427 0.51015,0.0375 0.12751,0.0679 0.35845,0.44278 0.23887,0.36168 -12.51496,-8.488283 -25.01939,-16.992803 -37.45188,-25.601423 -0.18097,-0.12531 0.44311,0.04237 0.64965,0.118485 0.28535,0.105154 0.79026,0.512177 1.02601,0.689384 0.53942,0.500117 0.62263,0.495626 0.71101,1.183655 0.14122,1.099315 0.18236,1.141391 -0.77383,1.919966 -2.77015,2.12317 -6.072,3.27273 -9.06601,5.02986 -0.64267,0.49262 -2.85981,2.20908 -3.45373,2.58756 -3.59456,2.29059 -7.59752,3.84595 -11.34133,5.85637 -1.6633,1.0886 -2.94677,1.82481 -4.40676,3.172773 -0.63145,0.583 -1.15128,1.27736 -1.75882,1.88523 -2.20022,2.20141 -4.71442,3.96549 -7.17659,5.85503 -2.15352,1.57208 -4.51396,3.06452 -6.3468,5.02789 -1.57465,1.68679 -2.54005,3.80777 -3.88074,5.66289 -4.22472,5.64392 -9.2145,10.90728 -14.9512,15.02736 -0.69722,0.7001 -1.43409,1.36283 -2.09166,2.1003 -3.06381,3.43607 -5.30928,7.50145 -8.30913,10.98715 -1.3296,1.88462 -2.51539,3.80957 -3.68816,5.79449 -0.31378,0.53107 -1.26619,2.03979 -1.40654,2.78678 -0.0702,0.37361 0.0378,0.75936 0.0568,1.13903 z" />
    <path
       style="display:inline;opacity:1;fill:#dadada;fill-opacity:1;stroke-width:20;stroke-linecap:round;paint-order:stroke fill markers"
       id="path17"
       d="m 45.98661,280.13613 c 1.34962,3.3136 2.00053,6.84424 2.95284,10.27447 0.36056,1.29876 1.40035,4.35552 1.83761,5.66325 1.73533,4.58144 4.21508,8.73301 7.33972,12.48513 2.44778,2.74622 5.39244,4.96386 8.3079,7.17991 2.67852,2.10972 5.43111,4.13797 7.90258,6.49291 1.78011,1.63214 3.50292,3.3223 5.35004,4.87966 11.22138,8.71728 26.67314,15.75864 37.04121,21.68022 0.37049,0.2116 0.79757,0.30337 1.19505,0.45842 1.47694,0.57613 1.13013,0.44164 2.58076,1.06545 1.6593,0.79248 3.35063,1.54639 4.94603,2.46528 11.27447,9.25615 -5.17293,-2.72495 -35.39466,-20.25945 -0.0684,-0.0397 0.16546,-0.0394 0.2142,-0.10158 -0.791,-1.71603 -1.73852,-0.0246 -0.61344,-2.7989 0.31973,-0.78841 1.07922,-1.50403 0.56853,-1.00861 -1.54358,0.673 -4.05549,0.3587 -5.66161,-0.005 -0.31201,-0.0933 -0.633,-0.16063 -0.93602,-0.27994 -0.65186,-0.25668 -1.61752,-0.79255 -2.19757,-1.16166 -0.35962,-0.22884 -1.4201,-0.94106 -1.04894,-0.73144 43.36262,24.48962 55.46936,30.27175 39.93236,22.8033 -2.89504,-1.88927 -5.30637,-4.39723 -7.70296,-6.86268 -2.55198,-2.65891 -5.37943,-5.01162 -8.25089,-7.31267 -2.46724,-2.13288 -5.32574,-3.86497 -7.59017,-6.23345 -0.48589,-0.50822 -0.88929,-1.08934 -1.33394,-1.63401 -1.64474,-2.30137 -3.34138,-4.69288 -4.1278,-7.45303 -0.14435,-0.5066 -0.19256,-1.03579 -0.28884,-1.55369 -0.16329,-0.55954 -0.32659,-1.11908 -0.48989,-1.67862 -0.14874,-0.79831 -0.5436,-2.76446 -0.57333,-3.56091 -0.0205,-0.54795 0.098,-1.09267 0.12181,-1.64049 0.0744,-1.71359 -0.0396,-3.42883 -0.0853,-5.14159 -0.26549,-1.0259 0.33754,-2.88481 -0.0457,-3.86765 -0.11575,-0.29684 -1.54006,-2.27269 -1.71927,-2.59442 -0.15678,-0.28145 -0.23617,-0.5995 -0.35425,-0.89925 8.4e-4,-0.19842 -0.0479,-0.40335 0.003,-0.59525 0.0629,-0.23963 0.44441,-0.54156 0.48316,-0.80305 0.0109,-0.0732 -0.0434,-1.28663 -0.0442,-1.3047 -1.11664,-2.5435 -2.90803,-4.77089 -4.5183,-7.01818 -0.63535,-0.83952 -1.28931,-1.66526 -1.90603,-2.51856 -0.58544,-0.81002 -1.11109,-1.66227 -1.69952,-2.47013 -2.52412,-3.46538 -1.7144,-2.01564 -4.11153,-5.56633 -1.31836,-1.95281 -2.16312,-3.44548 -3.35696,-5.46191 -6.07324,-5.45665 -12.83183,-10.0759 -19.44329,-14.83891 0,0 -1.80117,-0.86938 -1.80117,-0.86938 v 0 c -3.28894,-0.55444 -8.06563,-1.72021 -11.61922,-1.19643 -0.89124,0.13136 -1.63675,0.75322 -2.45512,1.12983 1.53079,2.87305 3.18966,5.64309 4.86526,8.43347 0.50563,0.84205 0.97921,1.70408 1.51475,2.52743 0.53146,0.81707 1.15807,1.56988 1.68405,2.39048 0.42862,0.6687 0.78425,1.38147 1.17638,2.0722 0.74947,1.43115 0.96137,1.76022 1.55284,3.1285 0.11123,0.25731 0.20206,0.52297 0.30308,0.78445 0.0632,0.18719 0.11336,0.37931 0.18963,0.56156 0.10903,0.26054 0.15978,0.31314 0.29777,0.49417 0.0985,-0.004 0.24346,-0.10441 0.29511,-0.0204 0.28399,0.46176 0.63319,1.68884 0.68559,2.20745 -0.0757,0.22917 -0.089,0.48966 -0.22719,0.6875 -0.13384,0.19156 -1.25344,1.00165 -1.31204,1.24362 -0.18166,0.75002 0.98778,3.21276 0.90748,4.06355 0.2268,1.64124 0.32721,3.2537 0.42764,4.90646 0.0374,0.61625 0.13649,1.23061 0.12553,1.8479 -0.0208,1.17424 -0.36488,2.32803 -0.34804,3.50605 -0.25239,2.58655 -0.20492,0.77527 0.0893,3.51216 0.28582,2.65856 0.2352,5.38386 1.26063,7.90798 0.31334,0.66453 1.47302,3.19854 1.92062,3.87062 1.44976,2.17684 3.70605,3.70584 5.7134,5.30628 2.9866,2.28705 5.99132,4.55467 8.80941,7.05044 2.64013,2.30882 5.12061,4.77624 7.47988,7.3711 12.30066,13.80159 30.24142,27.9676 48.83532,25.59367 0.69276,-0.2455 1.40894,-0.42375 2.09518,-0.68692 1.27678,-0.48964 2.31327,-1.44188 3.62184,-1.86806 0.2964,-0.14144 0.64774,-0.2017 0.88921,-0.42431 0.81321,-0.74971 1.9019,-2.21891 1.73762,-3.45609 -0.0685,-0.51603 -1.35143,-0.87977 -1.47616,-1.52342 -10.04247,-10.86244 -24.06321,-18.34502 -38.30405,-22.32379 -1.05526,-0.26188 -2.09601,-0.57618 -3.11844,-0.94764 -0.922,-0.38546 -1.21226,-0.47944 -2.11907,-0.98096 -0.40823,-0.22577 -1.60402,-0.95336 -1.20015,-0.71988 56.55126,32.69157 42.88208,25.02204 31.36603,18.13613 -2.3156,-1.46673 -4.51946,-3.10104 -6.54889,-4.94777 -2.89825,-2.43558 -5.76682,-4.90677 -8.81574,-7.15676 -2.98597,-2.31427 -6.06301,-4.50651 -8.98538,-6.90126 -3.83944,-3.31436 -7.22951,-7.14936 -9.46324,-11.74727 -1.76572,-4.10451 -3.52935,-8.85125 -1.92872,-13.28112 z" />
    <path
       style="display:inline;opacity:1;fill:#dadada;fill-opacity:1;stroke-width:20;stroke-linecap:round;paint-order:stroke fill markers"
       id="path18"
       d="m -8.61416,410.45276 c -0.0822,0.34851 -0.13006,0.70696 -0.24663,1.04552 -1.09102,3.16873 -0.002,-0.89457 -1.11166,2.87157 -0.61939,2.10203 -0.86398,4.29195 -1.19364,6.45116 0.35073,5.22329 -0.28438,10.40407 -1.08275,15.5524 -0.58248,2.218 -0.88649,4.48323 -0.96443,6.77094 -0.15713,1.41301 -0.36056,2.58199 -0.19782,4.00104 0.2835,0.31725 -0.29697,2.66765 -0.167,2.81457 1.06247,1.20097 4.99927,3.24325 5.69541,3.64664 1.08366,0.57548 2.16732,1.15097 3.25098,1.72645 0,0 5.44043,2.94453 5.44043,2.94453 v 0 c 1.09557,0.52856 2.19114,1.05711 3.2867,1.58566 1.33423,0.59979 2.64071,1.26558 4.00268,1.79938 0.58066,0.22759 1.18606,0.5118 1.80884,0.47837 0.19287,-0.0103 0.0434,-0.38465 0.0436,-0.5778 10e-4,-0.79617 -0.01,-1.57122 0.15732,-2.36149 0.24528,-1.45463 -0.0576,-2.87038 -0.21151,-4.32831 -0.16734,-2.67063 -0.65917,-5.29617 -1.27878,-7.89781 -0.79284,-5.09361 -1.58512,-10.41229 0.37059,-15.34708 0.19056,-0.67405 0.33054,-1.3645 0.57169,-2.02215 0.55533,-1.51447 1.92507,-4.13945 3.32423,-5.08179 0.26357,-0.17752 0.59253,-0.22987 0.88879,-0.34481 z" />
  </g>
</svg>
