<?xml version="1.0" encoding="UTF-8" standalone="no"?>
<!-- Created with Inkscape (http://www.inkscape.org/) -->

<svg
   width="509.60532"
   height="501.83807"
   viewBox="0 0 509.60532 501.83807"
   version="1.1"
   id="svg1"
   xmlns="http://www.w3.org/2000/svg"
   xmlns:svg="http://www.w3.org/2000/svg">
  <defs
     id="defs1" />
  <g
     id="layer3"
     style="display:inline;opacity:1;fill:#dadada;fill-opacity:1"
     transform="translate(-6.6370749,-5.5766341)">
    <path
       style="fill:#dadada;fill-opacity:1;stroke-width:20;stroke-linecap:round;paint-order:stroke fill markers"
       id="path19"
       d="m 45.763028,271.29424 c 0.247243,-0.46208 0.515682,-0.91342 0.741729,-1.38623 0.445114,-0.93101 0.7809,-1.91473 1.270705,-2.82303 1.260082,-2.3367 4.131597,-6.63482 5.511521,-8.64283 1.282781,-1.86665 2.715321,-3.63186 3.922442,-5.54831 1.639675,-2.60318 3.072683,-5.33095 4.609024,-7.99642 5.833546,-9.08057 13.651727,-16.53982 20.771791,-24.55171 2.626821,-2.95584 4.999427,-6.13661 7.706569,-9.01907 5.344435,-5.69055 11.072881,-10.51463 16.908261,-15.66516 9.36055,-7.55531 18.22631,-15.70815 26.89984,-24.03528 1.83243,-1.75924 3.81581,-3.37346 5.49875,-5.2762 1.88884,-2.13552 3.45642,-4.53495 5.18462,-6.80243 3.56356,-4.90796 8.11134,-8.95796 11.97897,-13.59807 2.17444,-2.60875 4.04038,-5.46429 6.20924,-8.07767 6.55422,-7.8976 13.9369,-15.15103 21.06521,-22.52038 6.72354,-7.34664 13.76717,-14.38138 20.88855,-21.338344 2.27555,-2.22302 4.69356,-4.307752 6.8374,-6.658061 2.41375,-2.646226 4.54273,-5.538817 6.8141,-8.308226 2.59844,-2.721743 5.19689,-5.443487 7.79534,-8.16523 7.28733,-6.968931 14.92117,-13.61832 23.20787,-19.384744 4.72043,-3.284789 9.76392,-5.95965 14.75526,-8.787367 0.71503,-0.450949 4.06011,-2.170815 4.25447,-3.577605 0.57861,-4.188051 -7.14301,-9.383323 -8.08137,-10.306711 0,0 -2.95106,-1.791503 -2.95106,-1.791503 v 0 c -3.32782,-1.174536 -9.81257,-4.857375 -14.47322,-3.558194 -1.49949,0.417993 -2.82131,2.873423 -3.53403,3.929552 -1.50325,2.455235 -2.90441,4.97455 -4.48349,7.381715 -6.54883,9.983131 -14.74735,18.751994 -23.01544,27.310295 -2.78199,2.611708 -5.56398,5.223417 -8.34597,7.835126 -2.89648,2.391784 -5.93013,4.62654 -8.68944,7.175352 -2.31641,2.1397 -4.34212,4.574088 -6.50976,6.864369 -6.84122,7.228277 -13.73742,14.400587 -20.71164,21.501206 -8.95408,9.91228 -4.46574,4.89086 -13.46235,15.06666 -2.35596,2.61143 -4.67109,5.26398 -7.14414,7.76481 -2.46083,2.48847 -5.17876,4.71303 -7.64783,7.19331 -2.14354,2.15328 -4.12094,4.4658 -6.1814,6.69869 -2.15472,2.15935 -4.30943,4.31869 -6.46414,6.47804 -2.20879,1.96697 -4.54127,3.80327 -6.62636,5.90091 -1.75199,1.76253 -3.23033,3.77746 -4.85951,5.65409 -7.62366,8.78158 -15.13448,17.66199 -22.514005,26.65107 -5.75946,6.35548 -9.323667,10.5105 -15.606369,16.49581 -2.963898,2.82359 -6.222831,5.32936 -9.150757,8.19024 -2.607076,2.54738 -4.950016,5.35178 -7.4364,8.01709 -9.449278,10.12926 -5.355212,5.9511 -15.287203,15.4148 -2.573973,2.03769 -5.217237,3.99078 -7.721919,6.11307 -1.784265,1.51185 -3.38658,3.22757 -5.134902,4.78085 -3.990084,3.54494 -8.136487,6.92746 -13.00021,9.19886 z" />
    <path
       style="fill:#dadada;fill-opacity:1;stroke-width:20;stroke-linecap:round;paint-order:stroke fill markers"
       id="path20"
       d="m 138.87775,143.48474 c -0.0713,0.51883 -0.18892,1.03339 -0.21401,1.55651 -0.0797,1.66228 0.12964,6.25263 0.18358,7.36276 0.37049,7.62545 1.21901,15.20703 1.90056,22.80947 1.49705,12.94117 0.97228,25.99266 1.30773,38.98549 0.21803,8.44442 0.68314,16.88075 0.97641,25.32289 0.13197,13.24257 -0.57312,26.46641 -1.30789,39.68149 -0.21987,3.95436 -0.53218,7.90444 -0.66971,11.86253 -0.20198,5.81335 -0.13708,16.35505 -0.12854,22.28542 0.2886,9.43949 0.91018,18.89342 2.1898,28.25583 0.41691,3.05039 1.01142,6.07417 1.46404,9.11946 0.18068,1.21564 2.13955,15.77855 2.32858,17.18092 1.13317,7.87612 1.91493,15.79663 3.01573,23.67694 0.38861,2.78199 0.87547,5.54992 1.24575,8.3344 0.73576,5.53297 1.31137,11.08611 1.99782,16.62541 1.04573,9.49226 1.6459,19.05477 3.04382,28.50752 1.41998,8.03772 0.80295,4.10279 1.87236,11.80144 0.82227,7.15729 1.49488,14.36687 1.04425,21.5696 -0.0421,1.04485 -0.2516,2.14602 0.30488,3.12799 0.31784,0.56086 0.69241,1.16754 1.26578,1.46222 5.74605,2.95316 11.52671,5.89097 17.55618,8.21126 1.71996,0.66188 -3.00935,-2.1282 -4.51402,-3.19231 0,0 -1.87217,-0.86937 -1.87217,-0.86937 v 0 c -1.12239,-0.0637 -4.32965,-0.77216 -3.36717,-0.19126 5.80961,3.50639 12.0208,6.31406 18.19095,9.13815 0.36896,0.16888 0.90378,0.0216 1.18729,-0.2687 0.55544,-0.5687 -0.0535,-2.84347 -0.0995,-3.11959 -1.67593,-8.05745 -3.27998,-16.12237 -5.43761,-24.07149 -1.88667,-8.01209 -0.98467,-3.9486 -2.69874,-12.19207 -0.50754,-2.23172 -1.1329,-4.43559 -1.63824,-6.66781 -1.71714,-7.58505 -2.98961,-15.26248 -4.06302,-22.96237 -0.0893,-0.81603 -1.72171,-15.72394 -1.80326,-16.53941 -0.27057,-2.7057 -0.42687,-5.42286 -0.74061,-8.1239 -0.94392,-8.12636 -2.62217,-16.14041 -3.96612,-24.20327 -1.07431,-5.88763 -2.23071,-11.7603 -3.27337,-17.65361 -0.53698,-3.0351 -0.96425,-6.08906 -1.5118,-9.12226 -1.76098,-9.75499 -3.92868,-19.45021 -4.85214,-29.34192 -0.35217,-3.72787 -0.80739,-7.44743 -1.05652,-11.1836 -0.26239,-3.93507 -0.33911,-7.88041 -0.4775,-11.82179 -0.61119,-17.40689 -0.72348,-34.84221 0.58456,-52.22496 0.3135,-3.15726 2.0567,-20.09526 2.1966,-23.77819 0.49654,-13.07239 -1.57225,-26.07232 -1.43134,-39.1336 -0.0205,-2.7604 -0.0968,-5.52094 -0.0614,-8.28119 0.0568,-4.42325 0.28848,-8.84252 0.43718,-13.26363 0.0516,-1.53553 0.26909,-5.30591 0.18358,-7.17569 -0.0272,-0.59519 -0.14267,-1.18306 -0.21401,-1.77459 z" />
    <path
       style="fill:#dadada;fill-opacity:1;stroke-width:20;stroke-linecap:round;paint-order:stroke fill markers"
       id="path21"
       d="m 148.7312,127.61525 c 0.32552,11.34864 0.35295,22.70623 0.48255,34.05972 0.52097,21.24161 -1.10492,42.42189 -3.10805,63.54616 -0.21079,3.31852 -0.34951,6.64241 -0.63239,9.95556 -0.92309,10.81127 -1.13944,7.07163 -1.64863,17.86688 -0.14502,3.07444 -0.10102,6.15505 -0.18993,9.23163 -0.18021,6.23616 -0.45982,11.66197 -0.74962,17.88668 -0.0285,5.54384 -0.93235,11.0576 -0.9809,16.60056 -0.0275,3.13759 0.29072,6.2699 0.32922,9.40738 0.0384,3.13254 -0.0766,6.26511 -0.0985,9.3978 -0.0996,14.30253 0.12441,4.85746 -0.33566,18.7002 -0.42098,9.56321 -1.11084,19.12163 -0.65354,28.69683 0.25835,5.4094 0.39522,5.77258 1.0278,11.05239 0.26138,1.68315 0.43111,3.38312 0.78414,5.04947 0.35711,1.68556 2.43033,8.96788 2.91555,10.66002 1.43683,5.01073 2.8997,10.00803 4.26597,15.03877 0.41083,1.59357 0.82166,3.18714 1.23249,4.78071 0.57019,1.85029 1.20287,3.68246 1.71058,5.55086 0.35128,1.29275 2.34058,10.03146 2.55855,11.27122 0.59477,3.38301 0.8769,6.81361 1.32298,10.21942 0.49913,7.80587 1.87604,15.50043 2.93218,23.23802 0.98701,5.66362 0.85675,11.41583 1.35742,17.11994 0.11288,0.62328 0.11691,1.27651 0.33864,1.86985 0.24091,0.6447 0.6731,1.20095 1.029,1.79002 1.91476,3.16923 4.46756,3.99295 7.7115,5.82092 0,0 8.75329,3.43623 8.75329,3.43623 v 0 c 0.52185,0.2867 4.33123,2.74349 5.95539,2.81567 0.28915,0.0129 1.5753,-1.26672 1.5805,-1.27898 0.21143,-0.49906 0.10032,-1.07934 0.15048,-1.61901 -0.0964,-5.9905 -1.10599,-11.91955 -2.07817,-17.82015 -0.69757,-3.69749 -1.32344,-7.42697 -2.11051,-11.10599 -0.94932,-4.43743 -2.27344,-8.79048 -3.13023,-13.24968 -1.30823,-7.06104 -0.59564,-3.48986 -2.14632,-10.71183 -0.35669,-1.87594 -0.59217,-3.7734 -0.93956,-5.65108 -0.34111,-1.84365 -0.77674,-3.66884 -1.12559,-5.51104 -0.32923,-1.7386 -0.52291,-3.50319 -0.90843,-5.23018 -0.36759,-1.64662 -0.89882,-3.2524 -1.34822,-4.8786 -3.0184,-10.22252 -6.52276,-20.3107 -8.67178,-30.76989 -2.82839,-13.83809 -5.16758,-27.81878 -5.63327,-41.96512 -0.19899,-12.33854 -0.2287,-6.32933 0.0854,-18.80751 0.0782,-3.10627 0.0748,-6.21579 0.23867,-9.31872 0.15622,-2.95728 0.60145,-5.89591 0.72133,-8.85489 0.23108,-5.70386 -0.29242,-11.42189 -0.0364,-17.12557 0.0356,-5.37161 0.0571,-12.79957 0.20488,-18.15886 0.0839,-3.04336 0.29324,-6.08269 0.3589,-9.12649 0.7642,-35.42495 -0.67316,17.69942 -0.0559,-18.71763 0.0569,-3.35475 0.28276,-6.7045 0.42413,-10.05676 0.39934,-20.93597 1.05335,-41.94297 4.83727,-62.59698 1.309,-6.94075 2.63386,-13.8009 4.41892,-20.63443 0.6299,-2.41134 1.28941,-5.19087 2.1828,-7.56796 0.18524,-0.49289 0.46192,-0.94637 0.69288,-1.41956 z" />
    <path
       style="fill:#dadada;fill-opacity:1;stroke-width:20;stroke-linecap:round;paint-order:stroke fill markers"
       id="path23"
       d="m 263.81576,111.62896 c -2.83488,2.84104 -6.38511,4.87204 -9.09929,7.8684 -0.87812,0.96943 -1.61801,2.05562 -2.42702,3.08343 -5.74151,7.94521 -11.35547,15.9799 -17.07048,23.94402 -3.08127,4.58615 -6.56083,8.91717 -9.42838,13.6468 -0.1515,0.24987 -3.23068,5.72921 -3.41701,6.0605 -2.77547,5.73738 -5.5823,11.45108 -7.62828,17.49484 -1.01301,2.54259 -1.93585,5.11988 -2.92408,7.67192 -0.29175,0.75341 -0.6941,1.47007 -0.89392,2.25289 -0.26337,1.03174 -0.29848,2.10913 -0.48705,3.15712 -0.20602,1.14499 -0.46426,2.27997 -0.69638,3.41996 -0.70126,5.45071 -1.91969,10.82392 -2.64,16.27024 -0.30147,2.27945 -0.69779,6.65757 -0.91341,8.91624 -1.15732,11.62384 0.28105,23.33367 1.9536,34.83682 0.33268,1.87456 0.62974,3.7558 0.99804,5.62369 1.32847,6.73738 1.24618,4.87297 2.30352,11.58709 0.7827,4.97009 1.20783,9.98578 1.62623,14.99587 0.12477,1.35602 0.20512,2.71686 0.3743,4.06806 0.17012,1.35866 0.43884,2.70321 0.64306,4.05717 0.70528,4.67608 1.30739,9.35513 1.75897,14.06217 0.63404,5.86486 1.85387,11.57016 3.95504,17.0815 1.38511,3.01783 2.78424,6.15225 4.97486,8.69715 0.51087,0.59349 1.08835,1.12621 1.63253,1.68932 11.03004,9.55748 24.37295,16.2117 37.57876,22.37557 2.98886,1.3793 5.80852,3.08132 8.8515,4.34366 3.175,1.43814 6.28,3.02012 9.43999,4.49098 3.69912,1.57575 7.13682,3.67364 10.74924,5.42301 2.66231,1.12015 5.4226,1.93114 8.26587,2.42931 4.41901,0.47359 8.88517,0.47725 13.30955,0.10928 5.54663,-0.1276 11.00933,-0.828 16.43679,-1.92612 4.2162,-0.98034 8.39993,-2.08135 12.60104,-3.1272 4.14567,-1.38682 8.34161,-2.57967 12.48534,-3.9822 4.82796,-1.99614 8.54247,-5.80484 12.45617,-9.14683 3.35905,-2.90497 6.91402,-5.57428 10.42643,-8.28919 0.85658,-0.6621 1.76755,-1.26025 2.5645,-1.99303 0.73609,-0.67683 1.34503,-1.48006 2.01754,-2.22009 3.33632,-3.85619 5.76027,-8.3304 8.34914,-12.69061 2.08452,-3.72227 5.04917,-6.73643 8.22799,-9.52321 1.45592,-1.70218 3.43168,-3.08522 4.75682,-4.88714 0.76452,-1.03961 1.38604,-2.17717 2.08488,-3.26203 1.20808,-1.76395 2.2168,-3.71974 3.57371,-5.38102 0.54208,-0.66368 1.30688,-1.14702 1.75839,-1.87534 0.48614,-0.78417 0.65682,-1.72455 1.00339,-2.57962 0.37031,-0.91366 0.76469,-1.81737 1.14704,-2.72606 3.64922,-7.01136 6.86165,-14.23033 10.05186,-21.46032 1.30094,-2.64416 2.51383,-5.04405 3.71373,-7.72939 0.51511,-1.15281 1.13722,-2.2718 1.47884,-3.48736 0.39715,-1.41322 0.47505,-2.89726 0.72209,-4.34428 0.84606,-4.95562 0.62272,-3.66534 1.606,-8.49784 1.80533,-7.78938 2.32031,-15.77426 3.02857,-23.71323 0.78351,-7.58305 1.74995,-15.13728 2.31731,-22.74221 0.15757,-1.17455 0.27027,-2.356 0.47269,-3.52365 0.18883,-1.08926 0.53654,-2.14845 0.70014,-3.24178 0.65776,-4.39571 0.36027,-8.77837 0.12103,-13.18604 0.28445,-6.09234 -1.89718,-11.66919 -4.27116,-17.14592 -0.50708,-1.0096 -1.02381,-2.01441 -1.52123,-3.0288 -1.39045,-2.83551 -2.76578,-5.63315 -4.49457,-8.28632 -0.51064,-0.78368 -3.04644,-4.33831 -3.62027,-5.14621 -3.80571,-4.66938 -7.93586,-9.06751 -12.13883,-13.37927 -3.87789,-3.65995 -7.82893,-7.24145 -11.96701,-10.60551 -3.59907,-2.8103 -7.58057,-5.05197 -11.52529,-7.32495 -45.25923,-26.0788 -28.80132,-17.31269 -47.07198,-26.98651 -6.45631,-3.13837 -13.1198,-5.816223 -19.95788,-7.993326 -4.37502,-1.248828 -8.95346,-2.388384 -13.54797,-1.96624 -0.87874,0.08074 -1.74072,0.291034 -2.61108,0.43655 -0.91739,0.209409 -1.854,0.347658 -2.75219,0.628228 -2.05804,0.642871 -4.01932,1.563023 -6.04468,2.302428 -1.6262,0.593682 -4.88915,1.702414 -6.45757,2.471052 -1.04123,0.510278 -2.00709,1.161788 -3.01064,1.742678 -5.56231,3.56657 -11.42165,6.62975 -17.08468,10.02499 -2.09306,1.6399 -4.35071,2.99718 -6.39853,4.6955 -0.51429,0.42652 -2.64412,2.08254 -2.79896,2.96394 -0.1617,0.92052 0.25526,1.85171 0.38289,2.77757 -0.72046,1.20059 -1.66967,2.81075 -2.43773,3.97284 -0.55336,0.83724 -2.07175,2.47783 -1.78766,3.75048 1.00675,4.50995 11.96573,10.48379 12.04274,10.54114 0,0 3.60662,2.11976 3.60662,2.11976 v 0 c 2.79809,1.38313 10.32067,6.71263 15.51855,6.31484 1.57942,-0.12087 2.85888,-1.51681 4.00281,-2.37212 1.80104,-1.34664 2.21325,-1.54671 4.10455,-2.72053 1.16036,-0.0536 2.34547,0.0835 3.48109,-0.16083 0.87507,-0.18826 2.74345,-1.73221 3.3995,-2.20932 2.0574,-1.49623 4.02484,-3.11722 6.24148,-4.3794 5.21476,-3.60003 10.46291,-7.25537 16.24438,-9.89499 3.039,-1.18591 6.07529,-2.58218 9.24154,-3.40528 3.12701,-0.81291 6.31805,-1.01421 9.53404,-1.08543 5.18664,0.36501 10.27796,1.31368 15.19875,3.03997 6.35707,2.25053 12.68488,4.65886 18.5819,7.9666 15.26312,8.54695 9.89594,5.56141 -33.63121,-19.50101 -0.91612,-0.52749 1.80618,1.09897 2.71136,1.645 2.38979,1.4416 4.78873,2.86865 7.12559,4.39597 4.32914,3.08029 8.38819,6.48092 12.23082,10.15145 4.78804,4.18927 9.5101,8.47822 13.69583,13.28286 4.33855,4.92217 8.38956,10.21875 11.40845,16.06011 2.83982,5.52482 5.45917,11.20038 7.43249,17.09673 0.92965,4.49797 1.24252,8.6732 1.61877,13.23067 0.10369,1.25603 0.30947,2.5031 0.38794,3.76096 0.0782,1.25326 0.0544,2.51079 0.0816,3.76619 -0.40498,7.75382 -0.26397,15.52641 -0.96515,23.26025 -0.96101,7.87196 -2.00561,15.73187 -2.63896,23.64046 -0.4856,3.51525 -0.55291,4.83693 -1.48765,8.27009 -0.34345,1.26142 -0.86768,2.46848 -1.21975,3.72752 -1.09554,3.91776 -1.74816,7.97722 -3.41895,11.72813 -3.29505,7.14391 -7.29588,13.88303 -10.98642,20.82249 -0.46591,0.85236 -0.9143,1.71452 -1.39771,2.55708 -0.43273,0.75421 -1.02712,1.42475 -1.35007,2.23209 -0.2935,0.73373 -0.20817,1.57841 -0.47216,2.32328 -0.6825,1.92579 -2.24133,3.54339 -3.3753,5.19104 -1.08407,1.34237 -2.31836,2.56696 -3.34488,3.95285 -0.31235,0.42169 -0.55599,0.89315 -0.88467,1.30225 -0.71494,0.88986 -1.64729,1.59205 -2.27678,2.55797 -2.63662,3.53029 -5.36245,6.99824 -7.55082,10.83837 -2.49526,4.22911 -4.73733,8.58969 -7.19194,12.83528 -0.49308,0.75184 -1.00671,1.49059 -1.47924,2.25551 -0.4868,0.78802 -0.86657,1.64281 -1.39771,2.40165 -2.43144,3.47382 -6.01155,6.03627 -9.29157,8.62786 -2.4104,1.74647 -4.8553,3.35665 -7.3712,4.94364 -0.58253,0.36746 -1.12923,0.79547 -1.73853,1.11659 -1.20578,0.63547 -2.55464,0.96944 -3.75598,1.6162 -3.93836,1.66448 -8.04905,2.95159 -12.22334,3.87445 -3.84564,1.36812 -7.74102,2.46573 -11.69003,3.49879 -4.87396,1.28111 -9.84777,2.18386 -14.9086,2.14631 -4.85197,-0.30896 -9.77346,-0.54277 -14.4553,-1.96901 -2.83558,-0.91153 -5.66353,-1.88556 -8.27957,-3.33246 -3.32799,-1.65741 -6.73023,-3.16052 -10.04517,-4.84503 -3.33804,-1.6882 -6.6546,-3.41797 -10.09384,-4.8965 -2.57837,-1.26939 -5.18403,-2.46663 -7.81937,-3.61265 -9.68964,-4.78647 -22.78338,-13.12577 22.14602,13.03334 0.57915,0.3372 -1.18254,-0.63153 -1.76221,-0.96784 -1.7742,-1.02935 -1.74505,-1.06705 -3.41638,-2.25637 -3.09899,-2.6497 -5.49802,-6.0771 -7.62661,-9.52858 -0.93646,-1.75481 -1.67156,-3.02533 -2.42369,-4.88527 -1.5383,-3.80402 -2.39249,-7.86767 -2.97845,-11.9128 -1.43906,-7.77949 -2.96947,-15.54838 -4.82565,-23.23919 -2.47378,-11.04077 -4.25063,-22.2237 -6.89633,-33.22398 -1.22839,-5.98258 -2.26793,-11.72929 -2.19798,-17.87981 0.0528,-4.64318 0.56006,-6.21714 1.1965,-10.68516 0.21719,-1.5247 0.39143,-3.05522 0.58715,-4.58283 2.30766,-13.29508 -0.78532,4.3729 1.54911,-8.48837 0.94657,-5.21499 1.5597,-10.51195 3.4364,-15.51036 0.35649,-1.04059 0.71297,-2.08118 1.06946,-3.12177 0.41816,-0.88013 0.91063,-1.72866 1.25447,-2.6404 0.29003,-0.76906 0.41736,-1.59009 0.6394,-2.38147 0.74402,-2.65182 1.59143,-5.27298 2.39351,-7.90735 2.16597,-5.88243 3.74676,-11.99168 6.65229,-17.58127 3.29145,-6.99336 6.87956,-13.87065 10.8459,-20.50501 5.065,-8.21239 10.38774,-16.53499 17.83312,-22.80813 3.46394,-2.56758 8.22412,-6.38622 12.58636,-7.18824 0.62422,-0.11477 1.26656,-0.0844 1.89984,-0.12666 z" />
    <path
       style="fill:#dadada;fill-opacity:1;stroke-width:20;stroke-linecap:round;paint-order:stroke fill markers"
       id="path24"
       d="m 227.38969,209.84868 c -0.009,-0.63 -0.11307,-1.26563 -0.0284,-1.88999 1.04059,-7.6752 7.82079,-16.9045 12.20954,-22.98865 1.56672,-2.51486 2.93209,-5.16697 4.70015,-7.54459 1.89233,-2.54473 4.07321,-4.86625 6.24635,-7.17579 4.84956,-5.15395 7.89689,-7.70139 13.26965,-12.17227 2.01732,-1.67869 4.02187,-3.37625 6.11559,-4.95863 1.83587,-1.38751 3.77691,-2.63008 5.66537,-3.94512 6.87124,-4.33855 14.13229,-8.00262 21.52198,-11.36264 2.70238,-0.58821 5.79503,-2.00691 8.55195,-0.99821 12.47738,5.9913 9.31342,4.5278 -31.49568,-21.51369 -0.31116,-0.19856 -0.52261,0.52454 -0.8157,0.74891 -1.57577,1.20632 -3.41975,2.16341 -5.08591,3.23299 -4.0914,2.39035 -8.28715,4.59695 -12.31191,7.10167 -1.09185,0.67949 -2.22145,1.30825 -3.24466,2.08727 -1.08439,0.8256 -2.03966,1.80826 -3.05949,2.71239 -5.39805,5.30975 -11.56567,9.86221 -16.61415,15.53193 -1.1014,1.23694 -2.08611,2.57304 -3.12917,3.85957 -4.9011,6.42935 -10.89516,11.91718 -15.94326,18.21295 -1.72476,2.00239 -2.37188,4.43931 -3.23616,6.85775 -0.99543,2.78543 -1.9989,5.53552 -2.895,8.35844 -1.01562,3.0513 -2.18062,6.08429 -2.92877,9.21892 -0.28193,1.18127 -1.20509,6.411 -1.43465,7.50686 -0.27377,1.30684 -0.60221,2.60162 -0.90332,3.90244 -1.9341,7.4519 -3.67583,14.95071 -5.15614,22.50692 -1.44328,8.72889 -2.59861,17.4957 -3.67277,26.27778 -0.48942,4.13879 -0.67416,8.36485 -0.17349,12.516 0.14395,1.19356 0.57574,3.27831 0.81713,4.50141 0.42237,2.59877 1.5494,4.99909 2.3088,7.49372 0.35191,0.3771 -0.0959,1.25331 0.25415,1.47655 12.0786,5.73368 23.99972,11.81161 36.2358,17.20104 0.41725,0.18378 -0.11203,-0.90898 -0.24006,-1.34656 -0.21437,-0.73269 -0.56029,-1.42198 -0.78357,-2.152 -0.9894,-3.23492 -1.68591,-6.57277 -2.35909,-9.88261 -2.25712,-10.57174 -2.92662,-21.36294 -2.93669,-32.14492 -0.31175,-8.43676 -1.68511,-16.78114 -1.81337,-25.22994 -0.0784,-5.16578 0.10397,-6.31586 0.45233,-11.37776 0.20727,-11.59745 4.8779,-21.10117 9.05756,-31.5796 3.61348,-6.87256 8.57429,-12.92174 14.20543,-18.23947 2.2685,-2.14225 4.21995,-3.63273 6.62147,-5.5543 2.56614,-1.91014 5.64607,-3.92615 8.96229,-4.15267 0.80016,-0.40195 1.12913,-1.44533 1.60821,-2.13948 0.49686,-0.71992 0.98436,-1.18964 1.58273,-1.82744 2.01461,-2.38361 4.39907,-4.54864 7.17749,-5.99669 0.73925,-0.19801 1.30101,-0.80728 2.02929,-1.02572 0.25689,-0.0771 0.49329,-0.0785 0.72462,-0.16992 -0.24872,0.002 -3.59648,-0.80232 -2.25662,-1.32181 11.47532,5.40948 18.90884,9.63288 -29.28736,-18.62399 -0.32201,-0.18879 -0.50248,0.55716 -0.70091,0.87331 -0.63947,1.01886 -1.07678,2.15146 -1.6027,3.23332 -0.35954,0.82624 -0.72317,1.65071 -1.07861,2.47872 -0.9615,2.2398 -2.12177,5.10596 -3.20885,7.24818 -2.49454,4.91583 -2.27717,3.89373 -5.25909,8.77042 -0.99926,1.63421 -1.92769,3.31069 -2.89154,4.96604 -3.87511,8.29935 -8.09571,16.44239 -11.66713,24.88173 -0.75262,1.77848 -1.52548,3.55175 -2.16191,5.37504 -0.60657,1.73778 -1.04189,3.53068 -1.56284,5.29601 -0.37083,1.48847 -2.05941,8.12328 -2.33043,9.75559 -0.29091,1.75219 -0.38279,3.53169 -0.58653,5.29614 -0.5687,4.92515 -1.23901,9.83645 -1.88709,14.75152 -0.9257,7.25815 -2.654,14.35783 -4.39105,21.45138 -0.89506,2.33112 -1.37864,4.78113 -2.02128,7.18328 -0.50246,1.87816 -1.10269,3.3706 -1.4287,5.30662 -0.0855,0.54241 -0.19332,1.08176 -0.25645,1.62723 -0.0706,0.6101 -0.0699,1.22722 -0.14443,1.83685 -0.1576,1.28928 -0.52032,2.55005 -0.64421,3.843 -0.16375,1.70897 -0.16768,3.43001 -0.30254,5.1415 -0.56264,5.02444 -1.14499,10.04202 -1.57519,15.08022 -0.15063,2.19733 -0.11676,4.37535 -0.0432,6.57164 0.0265,0.79185 0.0215,3.40658 0.14636,4.21536 0.12262,0.79443 0.38137,1.56179 0.57206,2.34268 0.89522,2.11174 1.30989,4.41439 2.25189,6.5081 0.2834,0.6299 0.68818,1.19952 0.98283,1.82423 0.42699,0.90532 0.74297,1.85944 1.14825,2.77468 1.05442,2.26311 2.47726,4.32374 3.7344,6.47454 1.36302,2.03257 1.45024,4.41257 1.77804,6.74594 0.21994,1.96051 -0.002,3.92242 0.36808,5.86218 0.74921,2.92456 2.8235,5.26819 4.82505,7.43426 3.15994,2.90607 6.73188,5.30907 10.23155,7.77817 12.42385,8.03674 6.49214,4.25346 35.4167,20.27617 0.009,0.005 0.98569,-0.32832 0.91557,-0.50287 -0.29141,-0.72541 -0.78127,-1.37048 -1.31405,-1.94257 -1.68322,-1.8074 -3.53915,-3.44588 -5.30873,-5.16883 0,0 -5.91145,-4.19008 -5.91145,-4.19008 v 0 c -3.75338,-2.45584 -7.47256,-4.96374 -11.2298,-7.41368 -0.74383,-0.48503 -1.51555,-0.92606 -2.26491,-1.40249 -0.86195,-0.54801 -3.45847,-2.17227 -2.56873,-1.67063 2.93654,1.65562 41.51824,23.72558 28.19202,16.10271 -3.24777,-2.10946 -6.35863,-4.43004 -9.43414,-6.78131 -1.54163,-1.227 -2.76668,-2.51364 -3.46946,-4.38949 -0.68758,-1.73549 -1.12269,-3.44376 -1.0629,-5.33664 -0.0987,-2.78971 -0.87742,-5.49512 -1.39745,-8.22633 -0.94951,-2.45822 -2.3104,-4.67312 -3.88748,-6.78221 -0.20434,-0.31751 -1.58967,-2.45445 -1.72449,-2.73106 -0.22657,-0.46487 -0.31997,-0.98485 -0.52067,-1.46147 -0.77013,-1.82892 -1.86089,-3.53963 -2.09551,-5.55912 -0.19559,-1.22212 -0.44763,-2.43569 -0.60703,-3.66305 -0.35979,-2.77037 -0.0397,-5.57392 -0.11284,-8.35816 -0.0328,-2.38177 -0.16439,-4.8217 -0.0316,-7.20003 0.14384,-2.57591 0.60735,-5.14979 0.90958,-7.7084 2.28651,-10.04941 -1.09794,4.50339 1.22147,-4.51136 0.0806,-0.31325 0.65499,-3.58575 0.71774,-3.87639 0.1305,-0.60441 0.33939,-1.19097 0.45399,-1.79859 0.10297,-0.54597 0.13159,-1.10337 0.19739,-1.65505 0.38159,-3.52295 0.0179,0.32329 0.20197,-3.52491 0.15943,-3.33348 0.97671,-6.60194 1.02586,-9.94757 0.94177,-7.72886 1.45846,-15.49978 1.73222,-23.28038 0.17824,-5.15491 0.17137,-10.32039 0.43756,-15.47165 0.0912,-1.76445 0.28689,-3.52268 0.36792,-5.28763 0.5427,-11.82106 -0.43992,1.79546 0.5275,-10.33977 0.56431,-3.91619 0.97972,-7.34539 1.86772,-11.21849 2.03176,-8.86176 5.51097,-17.30754 10.11029,-25.14187 0.90543,-1.6723 1.82398,-3.33758 2.7163,-5.01692 0.83296,-1.56758 1.56932,-3.18764 2.45937,-4.72353 2.53984,-4.38283 5.78405,-8.36756 9.57335,-11.7252 1.58167,-1.1265 1.15294,-1.00116 2.73124,-1.57122 0.24568,-0.0887 0.96587,-0.0735 0.75137,-0.22257 -37.9569,-26.3832 -39.74484,-24.86783 -28.26841,-19.17977 0.41958,-0.14094 -0.54033,-0.75547 -0.94654,-0.93128 -0.54137,-0.2343 -1.21201,0.0436 -1.75641,-0.21653 -0.28682,0.15408 -0.16136,0.31552 -0.30514,0.58482 -0.32347,0.60582 -1.06002,0.92807 -1.33348,1.57495 -2.03788,2.50601 -4.76677,4.37423 -7.34381,6.2828 -0.88954,0.7674 -1.74398,1.61794 -2.83289,2.10165 -0.14748,0.0655 -0.31119,0.0856 -0.46678,0.1284 -0.0741,-0.008 -0.15092,-0.0449 -0.22229,-0.0235 -0.13935,0.0418 -0.25664,0.13711 -0.38496,0.20567 -1.86749,2.4296 -3.14932,5.32787 -5.64909,7.25785 -7.34633,7.96394 -13.86815,16.61598 -19.64737,25.78434 -1.14547,1.71577 -2.47745,3.32073 -3.43642,5.14729 -0.82619,1.57367 -1.3169,3.30368 -1.88469,4.98792 -2.45594,7.28509 -3.98898,14.8854 -4.94167,22.50116 0.0377,1.97617 0.0298,3.95375 0.11316,5.92852 0.22569,5.34374 0.57513,7.25764 0.85149,12.63182 0.31415,6.1091 0.23287,12.23236 0.55969,18.34116 0.69398,10.41206 1.3215,20.86448 0.89001,31.3009 -0.0589,1.17472 -0.11775,2.34944 -0.17662,3.52416 -0.0811,0.96216 -0.19141,1.92229 -0.24318,2.88646 -0.0414,0.77176 0.026,1.54798 -0.0362,2.31834 -0.0392,0.48462 -0.20191,0.95214 -0.26701,1.43396 -1.83025,13.54533 62.9843,41.28271 36.20338,19.25479 0.19222,-0.23928 -1.03548,-2.06802 -1.1526,-2.43031 -1.29485,-2.62017 -2.57459,-5.24606 -3.88268,-7.86131 -2.34627,-5.46646 -3.96865,-11.15425 -4.00099,-17.15823 0.0537,-8.73278 1.16274,-17.41441 3.44062,-25.85752 1.57656,-7.61855 2.94928,-15.2701 4.21963,-22.94312 1.393,-6.76464 3.46614,-13.36657 5.51607,-19.95744 1.09958,-2.63758 2.10983,-5.3559 3.3044,-7.95111 0.98435,-2.13849 2.28544,-4.14242 2.96383,-6.42068 3.02176,-7.26023 6.90271,-13.8392 12.46554,-19.49638 6.50408,-6.36645 12.69856,-13.18186 20.28874,-18.29835 6.37324,-3.85707 12.60632,-8.09178 19.88716,-10.09072 2.1857,-0.53467 4.62933,-1.38334 6.92286,-1.33325 0.44037,0.01 1.65772,0.48515 1.30209,0.22525 -35.23773,-25.7525 -40.49611,-30.65643 -30.60768,-21.52568 0.0785,0.18285 0.23302,0.34956 0.23562,0.54855 0.0142,1.08668 -3.61277,3.39289 -4.17447,4.08881 -2.67084,1.60717 -5.29308,3.25688 -7.68723,5.26888 -3.45888,2.90678 -6.47917,6.29983 -9.43395,9.70074 -3.15145,3.5137 -6.40741,6.93289 -9.55029,10.45426 -1.86464,2.0892 -3.61823,4.27577 -5.4826,6.36521 -6.32649,7.09022 -12.83849,14.10468 -20.56568,19.70943 -6.6703,7.27015 -13.41947,14.49478 -20.46913,21.39745 z" />
    <path
       style="fill:#dadada;fill-opacity:1;stroke-width:20;stroke-linecap:round;paint-order:stroke fill markers"
       id="path26"
       d="m 23.139264,308.2696 c -0.183085,0.30694 -0.457792,0.57532 -0.549255,0.92081 -0.11917,0.45015 -0.05697,0.92991 -0.06395,1.39552 -0.03478,2.32052 0.502603,3.42337 1.505248,5.5183 0,0 1.698389,1.05616 1.698389,1.05616 v 0 c 2.657381,0.34474 5.054425,0.56159 7.720915,0.27091 0.652906,-0.0712 1.318492,-0.0883 1.953738,-0.2551 0.42299,-0.11105 0.788336,-0.37886 1.182504,-0.56829 z" />
    <path
       style="fill:#dadada;fill-opacity:1;stroke-width:20;stroke-linecap:round;paint-order:stroke fill markers"
       id="path27"
       d="m 36.202632,321.24818 c -1.515998,-2.02819 -2.275497,-2.88787 -3.445749,-5.57011 -3.59524,-8.24039 -4.328788,-18.65202 -5.25705,-27.46995 -0.872899,-14.36557 0.458341,-28.75632 3.596827,-42.79071 1.864269,-8.33646 3.683866,-13.71114 6.188651,-21.90079 3.599541,-10.41134 7.903957,-20.58243 12.888488,-30.40714 4.905847,-9.66962 4.230483,-7.50541 9.302726,-16.76591 1.504416,-2.74664 2.906534,-5.54809 4.359802,-8.32214 6.021289,-10.85907 3.025056,-5.75875 9.565775,-16.3385 4.875952,-7.88695 5.407641,-9.02695 10.824151,-16.56092 2.081112,-2.89467 9.694009,-12.84551 11.842259,-15.66506 6.202388,-8.58636 13.570438,-16.17359 20.804338,-23.864812 7.39492,-7.862421 8.92442,-10.06702 17.13286,-17.287311 3.06758,-2.698295 6.33697,-5.158114 9.50545,-7.73717 8.14805,-6.476197 16.25074,-12.999191 25.14043,-18.446869 12.03823,-7.377136 1.48166,-0.545799 11.9101,-6.465408 1.21829,-0.691553 2.34719,-1.529916 3.52078,-2.294875 0.54445,-0.780867 1.38904,-1.42255 1.63335,-2.3426 0.85378,-3.215326 -2.6579,-4.905124 -4.45026,-6.62961 0,0 -9.159,-5.965895 -9.159,-5.965895 v 0 c -4.05589,-1.578917 -6.2703,-3.440688 -10.43253,-2.465952 -1.0925,0.255847 -2.01687,0.984013 -3.0253,1.47602 -0.89578,0.936593 -1.86102,1.811373 -2.68734,2.809781 -9.42103,11.382961 4.67751,-4.399819 -7.33233,9.365473 -6.53651,7.491943 -13.95625,14.089847 -20.97819,21.109535 -2.86693,2.773223 -5.65439,5.631027 -8.60079,8.31967 -3.11363,2.841254 -6.38135,5.508917 -9.57202,8.263376 -3.17373,2.652127 -6.4646,5.170057 -9.521188,7.95638 -2.708474,2.468992 -5.201484,5.164999 -7.755898,7.793063 -7.241495,7.450284 -7.503664,7.913644 -14.318062,15.578194 -2.04518,2.60418 -4.159908,5.1552 -6.135538,7.81253 -0.701083,0.94299 -10.709274,15.28168 -11.336188,16.17745 -1.910454,2.72975 -3.910051,5.39898 -5.736974,8.18533 -1.817771,2.77239 -8.139547,13.47383 -9.837709,16.32941 -1.513191,2.76546 -3.162146,5.46085 -4.539572,8.29637 -1.565306,3.22229 -6.184726,14.8059 -7.43635,17.94245 -4.130761,10.35162 -8.11292,20.76274 -11.603314,31.35135 -1.19911,3.68622 -2.501215,7.34051 -3.597332,11.05866 -5.020218,17.02914 -7.9820854,34.64218 -10.2546645,52.21879 -0.2409019,2.73439 -0.6069313,5.46064 -0.7227055,8.20318 -0.1762409,4.17492 0.1985609,8.57357 0.4589794,12.74315 0.099189,1.58813 0.225488,3.1748 0.2967191,4.76442 0.051179,1.14213 -0.081087,2.2959 0.070432,3.42909 0.1000384,0.74816 0.4513422,1.4406 0.6770133,2.1609 z" />
    <path
       style="fill:#dadada;fill-opacity:1;stroke-width:20;stroke-linecap:round;paint-order:stroke fill markers"
       id="path28"
       d="m 159.05253,63.977236 c 0.58029,-0.722492 0.96207,-1.248039 1.69625,-1.887169 0.49913,-0.434511 1.07718,-0.771966 1.57913,-1.20321 1.83914,-1.580054 3.59422,-3.296064 5.2771,-5.039127 3.18241,-3.26079 6.82665,-6.074274 10.84817,-8.230214 1.1278,-0.604614 6.88667,-3.242605 7.89449,-3.708191 5.96558,-2.644534 12.11173,-4.998896 18.4344,-6.652041 0.4455,-0.116484 7.74305,-1.745147 8.42235,-1.897115 3.79881,-0.585998 7.59782,-1.401465 11.28884,-2.48654 9.17394,-2.696925 -1.58261,0.09163 8.27413,-2.600825 1.58894,-0.434034 3.19538,-0.801239 4.79308,-1.201859 7.89386,-1.728651 15.95846,-2.071777 24.00293,-2.331728 5.1217,-0.115523 10.24532,-0.14071 15.36824,-0.172339 4.60509,-0.08563 9.21103,-0.270113 13.81061,-0.517739 5.56567,-0.380025 11.13866,-0.234248 16.68315,0.337439 5.36619,0.384921 10.68376,1.032097 15.96565,2.046909 5.44745,1.136071 10.55959,3.311518 15.51754,5.778762 10.61662,6.07032 26.57496,15.234517 -22.83631,-13.169951 -0.79881,-0.459202 1.58837,0.934412 2.37657,1.411588 2.31472,1.401324 2.46338,1.521793 4.73357,2.991363 3.87651,2.457588 7.44608,5.331163 10.74571,8.512856 3.24102,2.91695 6.76031,5.52846 10.35219,7.998062 0.7869,0.392755 1.40205,1.081068 2.18814,1.47631 1.57459,0.791688 3.19473,1.489317 4.7921,2.233976 3.1664,1.666415 6.3328,3.332831 9.49921,4.999246 0,0 11.78682,5.916992 11.78682,5.916992 v 0 c 3.10702,0.676559 6.18792,1.486747 9.32106,2.029678 0.97011,0.168107 2.06758,0.529514 2.95211,0.0971 0.98381,-0.480944 -3.78819,-1.708948 -2.62565,-1.974467 -4.25626,-2.632213 -8.57773,-5.162483 -12.49867,-8.296682 C 365.24207,44.973795 360.9017,41.35037 356.13,38.317108 341.85524,28.740252 326.93083,20.036642 311.5257,12.422477 306.28527,10.116364 300.92443,8.0665928 295.22071,7.2480446 289.84377,6.492369 284.43513,5.8380227 279.0094,5.5766341 c -5.2627,0.1864778 -10.51362,0.7709926 -15.78831,0.5417194 -4.83053,-0.09527 -9.67388,-0.2169993 -14.49833,0.1012214 -4.73369,0.3063933 -9.46971,0.6015638 -14.1747,1.2288024 -7.2982,1.0035975 -14.43096,2.7653467 -21.56212,4.5935257 -8.3938,1.721323 -16.94737,3.023786 -25.02392,5.965126 -8.88365,2.778004 -17.61193,6.088922 -26.22307,9.615569 -7.10261,3.348808 -14.09529,7.184381 -20.10749,12.286156 -0.68137,0.643339 -1.4149,1.235593 -2.04413,1.930018 -2.12615,2.346438 -3.51501,5.158157 -5.03173,7.898801 z" />
    <path
       style="fill:#dadada;fill-opacity:1;stroke-width:20;stroke-linecap:round;paint-order:stroke fill markers"
       id="path29"
       d="m 7.3652339,289.03936 c -0.3270278,4.73459 0.7084291,9.51603 2.1653713,14.00355 0.6808578,2.09711 1.5656408,4.12248 2.3337068,6.18924 0.799506,2.15136 1.579305,4.30999 2.368958,6.46499 3.399315,8.26704 6.477834,16.7165 10.415582,24.75356 1.848226,3.77229 3.933025,7.424 5.894719,11.13854 5.197561,8.71699 10.219185,17.54449 14.750211,26.62765 3.997276,6.67062 6.343241,14.1191 8.866251,21.42612 2.120246,5.36343 4.100303,10.77917 6.243294,16.13351 1.42008,3.78923 3.341401,7.36969 5.482991,10.79507 1.985917,3.082 4.545742,5.71167 7.148586,8.26912 2.507424,2.37413 5.137161,4.62119 7.825442,6.78767 3.134092,2.60369 6.600697,4.77097 10.135517,6.78364 27.250337,15.51592 17.327167,11.27807 30.095037,16.51991 4.11275,1.51562 8.16316,3.27971 12.37819,4.50854 0.11045,0.0322 5.29061,1.29433 5.36072,1.31143 3.24785,0.95682 6.64554,1.40413 9.86591,2.46111 1.5165,0.49774 3.04975,1.22509 4.50295,1.87116 9.25726,5.05546 22.98407,12.91975 -19.73756,-11.38891 -0.63044,-0.35872 1.24044,0.75316 1.84322,1.15664 1.23077,0.82384 1.8991,1.37776 3.0459,2.2741 2.17513,1.90952 4.34172,3.82656 6.54775,5.70061 10.74669,8.04161 22.00111,17.07695 35.34367,19.43221 5.40843,0.791 10.76785,1.81225 16.1973,2.47621 7.01756,0.69991 13.92325,2.11397 20.62712,4.28899 4.29304,1.61791 8.4936,3.43446 12.92513,4.64494 4.10753,1.08742 8.32427,1.62073 12.52656,2.1813 4.91055,0.31815 9.81484,0.60941 14.72119,0.98808 4.86716,0.26283 9.74348,0.4119 14.6174,0.53913 0.69586,0.008 1.39171,0.0175 2.08759,0.0235 1.24185,0.0108 2.63272,0.0465 3.87658,-0.0691 2.15887,-0.20077 4.29805,-0.78126 6.42834,-1.16612 5.65509,-1.19192 11.39478,-1.97779 17.12893,-2.6901 3.03129,-0.37911 6.11473,-0.65725 9.06141,-1.5123 1.204,-0.34937 2.37603,-0.80075 3.56448,-1.19984 4.6777,-1.78495 8.99986,-4.30524 13.59365,-6.28082 5.43106,-2.20338 10.95316,-4.16154 16.43596,-6.22655 2.42436,-0.90207 4.79216,-1.94282 7.18237,-2.92792 0.84018,-0.34627 1.71938,-0.60329 2.53299,-1.00807 1.79769,-0.89436 3.46616,-2.02856 5.22291,-3.00089 2.39442,-1.20818 4.95934,-2.06104 7.33608,-3.3063 1.99044,-1.04286 3.83533,-2.38142 5.68481,-3.64823 4.59337,-2.50676 8.09728,-6.23356 11.9397,-9.68243 2.54621,-2.66 5.95456,-4.33906 8.37557,-7.1321 1.14878,-1.32531 2.07072,-2.83137 3.10596,-4.24713 2.33667,-2.42648 4.88805,-4.64052 7.65896,-6.55953 2.37727,-1.64639 4.9383,-2.98334 7.34338,-4.58765 2.40811,-1.78917 4.99358,-3.32828 7.42689,-5.07864 1.32127,-1.00299 1.87977,-2.63049 2.84898,-3.9078 0.38209,-0.50355 0.84859,-0.93706 1.27289,-1.40559 1.39934,-1.07616 4.08198,-3.33457 5.82953,-3.74593 0.99122,-0.23333 2.03245,-0.14312 3.04335,-0.26579 1.89971,-0.5768 3.5033,-1.72505 5.19014,-2.73052 2.64405,-1.48304 4.28894,-4.11064 6.25137,-6.33719 2.29296,-1.90853 4.5885,-3.8529 6.4497,-6.20487 0.99308,-1.25494 1.8489,-2.61277 2.79022,-3.907 3.18272,-4.31001 6.62912,-8.38285 10.40427,-12.18243 2.36811,-2.5635 5.09368,-4.78901 7.49502,-7.31578 1.28654,-1.35375 2.09781,-2.52375 3.22038,-4.01601 2.3559,-3.63683 5.77954,-6.40402 8.37848,-9.83921 1.00075,-1.32276 2.70796,-4.17308 3.57962,-5.5901 1.9206,-3.40555 4.30126,-6.52351 6.17429,-9.95918 1.19395,-2.19002 1.24966,-2.54879 2.1637,-4.87903 1.16172,-2.67372 1.40333,-5.60391 2.14061,-8.38918 0.71696,-2.70855 1.90405,-5.31274 2.85452,-7.94404 1.73417,-5.78867 3.16763,-11.65062 5.32027,-17.30473 1.04766,-4.52005 1.827,-9.10935 3.31524,-13.51749 0.56551,-1.67503 1.45807,-3.70822 2.15335,-5.35167 0.25424,-0.85911 0.54078,-1.70932 0.76273,-2.57734 0.46819,-1.83106 0.80893,-3.69251 1.24204,-5.53217 0.64257,-2.72935 1.40177,-5.42196 2.05905,-8.14758 0.22454,-0.79493 0.52952,-1.57143 0.67363,-2.38481 0.50178,-2.83214 0.25419,-5.80532 0.47149,-8.66363 0.0326,-0.42887 0.60402,-5.60827 0.65252,-6.05071 0.0772,-2.89348 0.8129,-5.80442 0.76516,-8.70325 -0.021,-1.27648 -0.27838,-2.53955 -0.34286,-3.81458 -0.17125,-3.38658 -0.032,-3.90192 0.21961,-7.17607 0.683,-2.67391 0.70539,-5.43418 0.86915,-8.16939 0.048,-0.80254 0.15501,-1.60324 0.15093,-2.4072 -0.007,-1.30439 -0.3033,-3.89796 -0.43775,-5.2095 -0.32741,-3.8401 -1.17796,-7.58053 -2.28379,-11.2609 -1.76803,-5.09494 -3.51032,-10.18768 -5.10796,-15.34074 -0.35962,-1.08415 -0.76863,-2.15315 -1.07888,-3.25245 -1.18527,-4.19969 -0.10424,-1.89612 -1.68535,-6.23035 -1.44428,-3.95912 -3.26886,-7.81727 -4.92792,-11.6897 -2.98194,-6.29882 -5.65572,-12.73882 -8.76157,-18.9783 -2.20701,-4.74144 -5.08488,-9.11149 -7.32662,-13.8356 -2.11887,-3.6961 -3.7393,-7.67474 -5.97508,-11.29598 -2.31124,-3.6674 -4.45442,-7.41412 -6.94479,-10.96349 -3.46749,-5.16794 -7.59234,-9.82935 -11.56335,-14.60494 -4.7132,-5.80803 -10.08566,-10.99317 -15.49291,-16.137618 -7.30717,-7.068119 -15.89174,-12.589714 -24.48359,-17.940007 -21.66001,-13.8795 -44.1585,-26.366839 -66.42796,-39.229272 -8.02628,-4.664022 -16.37009,-8.749789 -24.5817,-13.073123 -2.68563,-1.41485 -5.32262,-2.918292 -7.95099,-4.43582 -0.5298,-0.305884 -1.04841,-0.631783 -1.58793,-0.920175 -0.23862,-0.127553 -0.84663,-0.576098 -0.74338,-0.325998 0.18364,0.444835 0.68501,0.676151 1.02751,1.014227 5.37509,4.360668 10.75019,8.721337 16.12528,13.082005 0,0 2.04247,1.647013 2.04247,1.647013 v 0 c 5.67012,4.523002 11.34023,9.046005 17.01035,13.569007 0.80592,0.585928 1.59388,1.197389 2.41776,1.757784 2.6487,1.801624 5.88198,2.613594 8.6334,4.228076 7.84219,3.820244 15.56499,7.874731 23.13061,12.219503 -69.39783,-40.102624 -26.77571,-15.906842 -11.1839,-5.864508 7.80538,4.925441 15.78942,9.715059 22.48858,16.139436 5.25419,5.000206 10.44805,10.088905 15.29027,15.492096 3.81709,4.435284 7.49859,8.999454 10.87691,13.779934 2.62232,3.90257 5.57309,7.55356 8.24098,11.42596 2.82607,4.04157 5.96271,7.86539 8.46733,12.13453 3.33097,4.84974 6.03542,10.0836 9.54923,14.81212 4.1464,6.2401 8.18865,12.56958 11.09462,19.50753 2.8785,6.41988 5.30611,13.08313 6.61009,20.01387 1.17514,4.88071 2.49812,9.72095 3.58906,14.62185 0.95855,3.80882 2.30419,7.48014 3.43107,11.24006 1.06785,5.26912 0.77616,10.62474 1.41295,15.94471 0.0307,2.96318 0.1684,4.07666 -0.30906,7.02245 -0.17175,1.0597 -0.56013,2.07654 -0.73295,3.13606 -0.45014,2.75964 -0.31326,5.62754 -0.9451,8.36934 -0.2497,1.58142 -0.63146,4.19208 -0.99978,5.75223 -0.59298,2.51178 -1.73463,4.84907 -2.34577,7.347 -0.19785,0.80869 -0.27403,1.64239 -0.41105,2.46358 -1.24915,5.38201 -2.5628,10.74029 -4.00316,16.07375 -1.02079,6.46627 -2.49785,12.8537 -5.00758,18.92446 -1.56335,5.78182 -3.81812,11.33528 -5.67411,17.02659 -0.85395,2.63763 -1.55292,5.39243 -2.74197,7.90693 -1.13678,2.40398 -2.71592,4.60064 -3.78059,7.04537 -2.5711,4.79571 -4.80998,9.79447 -7.90038,14.2899 -3.65447,5.25499 -7.33849,10.52953 -11.81838,15.12765 -1.23765,1.6129 -1.95089,2.43141 -2.96566,4.17505 -1.66711,2.86453 -3.04327,5.91574 -5.06722,8.57082 -2.97313,4.47745 -6.24201,8.75423 -8.94159,13.41004 -2.37026,3.49098 -5.10372,6.74329 -8.08413,9.72973 -2.37504,1.72313 -4.87937,3.26643 -7.03529,5.26373 -1.35556,1.13911 -2.79078,2.16713 -3.72172,3.707 -0.0769,0.3173 -0.19007,0.62795 -0.23061,0.95191 -0.0514,0.41039 0.0987,0.85169 -0.0437,1.24 -0.14437,0.39377 -0.50695,0.66859 -0.77448,0.99157 -1.14806,1.38601 -2.39591,2.69274 -3.78289,3.84278 -1.94455,1.45444 -4.15346,2.66603 -5.68686,4.59051 -1.47224,2.18155 -2.79725,4.45294 -4.78276,6.23874 -1.91412,1.85193 -3.73789,3.80342 -5.74897,5.55313 -2.33146,2.02844 -3.16335,2.53424 -5.62326,4.44487 -0.91719,0.71239 -1.82028,1.44276 -2.73042,2.16413 -1.63959,1.26646 -2.94949,2.15866 -4.35209,3.65636 -2.31989,2.47718 -3.99195,5.58757 -6.9282,7.47403 -0.8058,0.61866 -1.58299,1.27649 -2.41739,1.85599 -3.44173,2.3903 -7.3262,4.12168 -10.66851,6.67651 -3.84652,2.48557 -7.59508,5.11997 -11.52469,7.47218 -3.7509,1.78636 -1.84612,0.95149 -5.71486,2.50341 -0.74697,0.34186 -1.43592,0.80017 -2.17464,1.15952 -2.26786,1.10317 -4.64539,1.98571 -6.90208,3.11527 -4.90491,2.44958 -9.71022,5.09935 -14.73113,7.31933 -4.86558,2.00946 -9.92526,3.42092 -14.88358,5.17413 -3.54193,1.29147 -7.19981,2.26466 -10.84033,3.23557 -5.88349,1.09894 -11.87446,1.57983 -17.83419,2.06894 -4.18012,0.2843 -8.37387,0.25505 -12.54864,0.64961 -4.72693,0.21064 -9.43936,-0.0901 -14.14953,-0.49164 -4.8251,-0.28103 -9.6736,-0.3131 -14.46337,-1.05718 -4.15844,-0.56145 -8.27465,-1.44865 -12.29867,-2.64127 -3.95481,-1.30317 -7.81378,-2.94493 -11.91552,-3.75357 -6.54557,-1.35524 -13.18471,-2.08766 -19.76066,-3.27499 -6.15257,-1.30248 -12.34323,-2.5529 -18.34061,-4.46535 -0.52222,-0.18945 -1.05298,-0.35683 -1.56666,-0.56834 -0.45711,-0.18822 -1.76999,-0.8783 -1.34273,-0.62965 46.34517,26.97208 32.93383,19.08555 23.08867,13.32054 -2.72817,-1.96885 -5.24342,-4.2063 -7.91353,-6.25128 -11.38631,-8.84606 -24.00834,-16.14926 -37.23184,-21.89813 -4.56375,-1.62602 -9.27147,-2.593 -14.01363,-3.55591 -5.41785,-1.40048 -10.82839,-2.96224 -16.013157,-5.07964 -10.468208,-4.94148 -4.24549,-2.12123 17.018007,10.27412 0.88938,0.51845 -1.80427,-0.99422 -2.67545,-1.54268 -1.73294,-1.09099 -1.72578,-1.24817 -3.20171,-2.50374 -0.44545,-0.37894 -0.90216,-0.74443 -1.35324,-1.11665 -2.72463,-2.23001 -5.54978,-4.33781 -8.18757,-6.67398 -2.556533,-2.3527 -4.999261,-4.81956 -7.146127,-7.55963 -2.51525,-3.38493 -4.680501,-7.01461 -6.714498,-10.70545 -2.482731,-5.39574 -4.593455,-10.93389 -6.943406,-16.38616 -3.439752,-7.46914 -6.981784,-14.89278 -10.267028,-22.43154 -5.663916,-9.46892 -12.07708,-18.44892 -17.672282,-27.95828 -6.762429,-11.37674 -13.067932,-23.15593 -17.183616,-35.77821 -0.568062,-2.0013 -1.268005,-3.96978 -1.704188,-6.0039 -0.846199,-3.94622 -1.499705,-10.6815 -0.30535,-14.70683 0.120353,-0.40562 0.396971,-0.74731 0.595456,-1.12096 z" />
  </g>
</svg>
