<?xml version="1.0" encoding="UTF-8" standalone="no"?>
<!-- Created with Inkscape (http://www.inkscape.org/) -->

<svg
   width="503.94937"
   height="487.09402"
   viewBox="0 0 503.94937 487.09402"
   version="1.1"
   id="svg1"
   xmlns="http://www.w3.org/2000/svg"
   xmlns:svg="http://www.w3.org/2000/svg">
  <defs
     id="defs1" />
  <g
     id="layer7"
     style="display:inline"
     transform="translate(3.9713368,-11.640532)">
    <path
       style="display:inline;opacity:1;fill:#dadada;fill-opacity:1;stroke-width:5;stroke-linecap:round;paint-order:stroke fill markers"
       id="path56"
       d="m 31.76746,280.96158 c 6.202199,-2.37084 6.055863,-1.63881 11.509578,-8.28662 8.045202,-9.80671 19.885173,-30.33344 25.904707,-38.82467 24.042949,-33.91529 25.674863,-33.37198 55.396325,-65.13281 11.11363,-10.96837 22.05693,-22.11204 33.34088,-32.9051 10.42061,-9.96727 20.83128,-19.9651 31.76416,-29.36764 9.44722,-8.124843 19.40465,-15.64256 29.33049,-23.175218 15.02833,-11.404907 27.92828,-20.217494 43.56029,-30.264734 4.67672,-3.005891 9.45831,-5.8454 14.18746,-8.768099 -1.63472,-3.489419 14.63268,-5.37615 13.62327,-11.158688 -0.51912,-2.97385 -4.12369,-4.410017 -6.18554,-6.615026 0,0 -8.64579,-5.530935 -8.64579,-5.530935 v 0 c -3.51528,-1.227636 -6.82245,-3.708083 -10.54584,-3.682906 -4.5557,0.0308 -11.20628,9.733677 -12.84858,11.701614 -13.11182,16.96271 -26.51898,33.5662 -40.75631,49.616423 -7.90627,8.913005 -15.77312,17.871495 -24.04862,26.442779 -9.93297,10.288 -20.37484,20.07222 -30.55656,30.11412 -11.11784,10.96517 -22.22807,21.93807 -33.34211,32.9071 -31.500335,30.85536 -31.723181,32.48278 -64.634007,59.52358 -14.769842,12.13548 -25.372892,18.90848 -38.925296,30.73934 -6.566658,5.7325 -5.436407,4.38405 -8.2361,9.74866 z" />
    <path
       style="display:inline;opacity:1;fill:#dadada;fill-opacity:1;stroke-width:5;stroke-linecap:round;paint-order:stroke fill markers"
       id="path57"
       d="m 127.52527,142.04673 c 1.02378,3.85955 1.96927,7.74072 3.07134,11.57864 6.18535,21.54015 9.36462,28.75341 13.94664,52.53941 2.86418,14.86841 5.31454,29.83028 7.11534,44.86459 1.90925,15.93966 2.65927,31.99689 4.0072,47.9938 1.29585,15.37884 2.61609,30.75562 3.92413,46.13343 4.82889,32.03105 3.69524,64.42173 6.65602,96.58801 0.53512,5.81365 1.02324,11.6557 2.17613,17.37896 0.72468,3.59747 2.28791,6.97375 3.43186,10.46063 0,0 6.14774,2.93594 6.14774,2.93594 v 0 c -0.61241,-3.19608 -1.29121,-6.38016 -1.83723,-9.58826 -2.62252,-15.40833 -4.13419,-27.2435 -6.53176,-43.16691 -7.469,-49.60518 -3.86908,-19.31679 -8.86522,-74.02092 -0.37251,-4.37921 -7.75024,-90.8261 -7.93089,-94.1281 -0.68228,-12.47042 -1.19313,-52.87177 -0.8817,-69.0288 0.11591,-6.01304 0.56493,-12.01503 0.8474,-18.02254 0.0518,-3.29504 0.10366,-6.59008 0.1555,-9.88512 z" />
    <path
       style="display:inline;opacity:1;fill:#dadada;fill-opacity:1;stroke-width:5;stroke-linecap:round;paint-order:stroke fill markers"
       id="path58"
       d="m 347.01939,120.51949 c 3.1327,-4.42433 7.33375,-9.50859 4.94209,-15.47166 -4.60923,-11.492036 -30.40427,-19.954582 -34.33553,-21.046855 -4.71698,-1.310581 -9.67313,1.516754 -14.5097,2.275131 -16.68366,7.866094 -24.27939,10.010935 -38.55158,23.680254 -15.07479,14.43801 -30.73057,37.17153 -40.09588,55.41133 -5.86496,11.42252 -11.76457,23.06906 -14.91038,35.51798 -3.34783,13.24833 -2.91015,27.17418 -4.36522,40.76127 2.62645,13.33532 3.3966,27.17499 7.87936,40.00596 7.37355,21.10526 23.92383,46.90048 42.79675,60.04839 10.59246,7.37928 22.72498,12.81174 35.18829,16.17623 28.16235,7.60248 38.36763,1.03066 64.86121,-6.28922 22.29915,-15.70212 33.68384,-19.29334 45.52358,-45.65225 4.86815,-10.838 7.44372,-22.76705 8.5903,-34.59272 2.397,-24.72247 -2.18768,-48.84592 -14.18121,-70.67927 -5.81368,-10.58339 -14.72629,-19.14065 -22.08944,-28.71098 -9.94647,-7.13515 -19.05302,-15.61783 -29.8394,-21.40545 -20.23275,-10.85622 -42.96793,-16.45808 -65.6569,-18.53101 -8.168,-0.74626 -16.40386,0.0772 -24.6058,0.11585 0,0 1.06496,0.77302 1.06496,0.77302 v 0 c 8.19746,-0.0326 16.4294,-0.84952 24.59238,-0.0977 19.11417,1.76044 43.83376,7.00812 60.88438,16.26677 10.06664,5.46629 18.45846,13.57041 27.68769,20.35561 7.22896,9.43557 15.9973,17.87041 21.68688,28.30672 17.14761,31.45357 19.64829,70.91792 3.85538,103.46741 -12.16528,25.07287 -23.55405,29.60779 -44.83054,45.3802 -26.822,8.35955 -33.08603,14.05667 -61.93503,7.81619 -9.74645,-2.10831 -19.46854,-5.71005 -27.65925,-11.39782 -20.76859,-14.42206 -36.47855,-37.15344 -44.7503,-60.77549 -4.48833,-12.81756 -5.26528,-26.64614 -7.89792,-39.96921 1.74947,-13.40624 1.52976,-27.22029 5.24843,-40.21873 3.51198,-12.27596 9.63659,-23.75728 16.18935,-34.71605 16.52421,-27.63492 40.68792,-50.85093 70.38036,-63.71312 6.57041,-2.84618 13.71747,-4.11279 20.5762,-6.169184 15.02787,-0.221503 23.06269,3.228084 7.46927,-7.681348 -2.36697,-1.655975 4.5921,3.62662 6.28324,5.968595 3.99451,5.531797 4.27351,11.997907 3.37064,18.422107 z" />
    <path
       style="display:inline;opacity:1;fill:#dadada;fill-opacity:1;stroke-width:5;stroke-linecap:round;paint-order:stroke fill markers"
       id="path60"
       d="m 126.42229,28.313858 c -0.29185,-0.04084 -0.5837,-0.08168 -0.87555,-0.122524 -0.24055,-0.0043 -0.48285,0.01659 -0.72164,-0.01278 -0.29116,-0.03581 -0.64335,-0.378468 -0.86108,-0.181866 -0.18199,0.164326 0.20249,0.449328 0.34018,0.652219 2.39271,3.525725 -1.00032,-2.00191 1.92179,2.895118 0,0 4.81452,3.040799 4.81452,3.040799 v 0 c 2.0417,1.115076 3.96614,2.508046 6.06174,3.514891 1.25083,0.600969 2.6954,0.872531 3.97484,1.412971 z" />
    <path
       style="display:inline;opacity:1;fill:#dadada;fill-opacity:1;stroke-width:5;stroke-linecap:round;paint-order:stroke fill markers"
       id="path61"
       d="m 120.8386,36.430056 c -1.08733,1.204715 -2.50504,2.027043 -3.68858,3.118671 -1.83269,1.690361 -3.46441,3.586392 -5.20217,5.374189 -4.99352,5.13728 -1.3941,1.355748 -6.70589,7.008676 -8.243599,10.020067 -17.271139,19.332987 -26.152505,28.776534 -7.923572,8.218113 -13.788582,17.365727 -19.277723,27.289564 -0.870324,1.70624 -1.717664,3.4244 -2.610971,5.11872 -0.991989,1.88149 -1.945068,3.787 -3.044452,5.60783 -4.051261,6.70979 -9.22509,12.69945 -14.056225,18.84311 -4.109144,5.3227 -8.035137,10.73598 -11.654585,16.40406 -0.853326,1.33632 -1.763724,2.63905 -2.541372,4.02077 -0.926684,1.64654 -1.710691,3.3694 -2.566036,5.05409 -3.084111,5.64074 -6.529682,11.07637 -10.192534,16.35717 -1.08693,1.56704 -2.253519,3.07799 -3.3342688,4.6493 -2.7142543,3.94628 -3.0183461,4.61705 -5.4086371,8.66677 -2.0678182,4.04587 -4.5549506,7.94931 -5.9930386,12.29253 -1.5605792,4.71315 -1.9733902,9.58901 -2.3496085,14.49832 -0.1485056,9.58161 0.1918041,19.30088 1.8661414,28.76241 0.3179034,1.79644 0.7558131,3.56957 1.13371964,5.35436 3.16048226,10.57951 5.19286946,21.42399 7.01598106,32.29577 0.7319142,5.16897 1.958893,10.24453 3.0091914,15.35175 0.3691821,1.79521 0.6484974,3.6088 1.0475555,5.3976 0.898982,4.02973 1.780577,6.87026 2.920214,10.83318 3.773346,8.82298 7.007101,17.86974 10.89994,26.6429 2.154598,4.85575 3.667993,7.80565 6.003048,12.53863 4.393724,8.08435 8.21573,16.54964 13.178591,24.31877 0.895899,1.40249 1.889741,2.73995 2.834612,4.10992 6.247587,8.80443 13.838769,16.48522 21.250397,24.28626 6.95239,7.27214 13.782824,14.66187 20.87889,21.79474 8.960966,8.13455 18.486485,15.63144 28.612215,22.25692 13.65718,7.87139 26.96064,16.82609 41.54224,23.04994 3.85034,1.64343 7.77563,3.0714 11.72198,4.46192 1.20858,0.37604 2.4084,0.78152 3.62576,1.12812 14.94935,4.25634 -7.9815,-2.49667 7.60467,2.04426 3.94981,1.15075 7.85296,2.45946 11.76984,3.71575 8.61435,2.5376 17.15174,5.32848 25.87497,7.47387 9.22835,2.1708 18.66957,2.79538 28.1102,3.12827 10.26663,0.77327 20.48736,-0.16494 30.65216,-1.54821 12.63614,-2.22276 25.21467,-4.7167 37.75619,-7.42092 12.30269,-2.64411 24.21457,-6.19235 35.82876,-11.02804 9.13422,-4.15496 18.38168,-8.0591 27.52899,-12.18616 9.65647,-3.95938 17.68494,-10.68602 26.18662,-16.56492 1.52121,-1.04413 3.03862,-2.09382 4.56363,-3.13239 1.4616,-0.99538 2.97115,-1.92229 4.39613,-2.96942 5.64848,-4.15072 10.89323,-8.9213 16.06688,-13.63689 7.71155,-6.32849 13.83936,-14.15907 20.07501,-21.8655 7.67554,-8.72418 13.18265,-18.91681 18.61022,-29.10623 0.875,-1.68612 1.78053,-3.35673 2.62499,-5.05834 2.0802,-4.19163 2.76141,-5.98253 4.74847,-10.30111 2.52479,-5.48725 5.18912,-10.90776 7.85218,-16.32862 4.58719,-10.08051 7.27709,-20.8531 10.99663,-31.2551 2.92349,-7.78443 4.05715,-16.02812 4.76519,-24.26461 0.83198,-9.88783 0.0999,-19.8577 -0.75301,-29.72335 -1.29878,-9.4248 -2.78212,-18.81927 -3.982,-28.25752 -0.28648,-2.95619 -0.91483,-5.86265 -1.30687,-8.80319 -0.1922,-1.44162 -0.28215,-2.89548 -0.46722,-4.33804 -0.48977,-3.81778 -1.24676,-7.59523 -1.94194,-11.37882 -0.95499,-3.6826 -0.99899,-7.56364 -2.14909,-11.19436 -0.23099,-0.72921 -1.85859,-5.01062 -2.11538,-5.69082 -2.06418,-6.76061 -5.52914,-12.89992 -8.81674,-19.11179 -2.12977,-3.7549 -3.86388,-7.73749 -5.99886,-11.48806 -2.62088,-4.60418 -5.55504,-9.07139 -8.38159,-13.55082 -5.90986,-9.24608 -12.24815,-18.21504 -18.43014,-27.28206 -4.45361,-6.78635 -9.08327,-13.44127 -13.83736,-20.01847 C 426.88933,94.852182 421.93674,89.059789 416.93914,83.329933 411.88617,77.489938 406.09415,72.390471 400.02872,67.639119 380.23679,53.940072 359.31613,41.7793 337.67034,31.245935 328.79541,26.889893 319.50502,23.479412 310.06737,20.572844 299.67789,17.415973 289.03853,15.35311 278.35191,13.525099 c -10.57469,-1.768236 -21.30496,-2.066104 -31.99984,-1.799633 -1.71018,0.101738 -3.43366,0.06924 -5.13054,0.305215 -1.91533,0.266359 -3.78092,0.814338 -5.67631,1.19766 -2.13774,0.432335 -4.28087,0.837607 -6.4227,1.249236 -6.67668,1.283165 -13.32865,2.575797 -19.96415,4.059836 -6.70981,1.747802 -13.54064,3.096495 -20.17526,5.131991 -2.67487,0.820648 -5.28589,1.838215 -7.9499,2.693442 -6.21521,1.995264 -12.48323,3.822172 -18.72146,5.744224 -10.51365,3.825556 -21.01167,7.700012 -31.36728,11.93922 -3.27655,1.341302 -6.60166,2.581496 -9.78575,4.12956 -2.80799,1.365213 -6.49162,1.958119 -8.16163,4.596242 -1.83052,2.891682 -0.80173,6.797631 -1.20259,10.196447 -0.4165,3.356713 -0.83301,6.713426 -1.24951,10.07014 0,0 4.39982,2.783078 4.39982,2.783078 v 0 c 4.78353,-0.540232 9.56706,-1.080464 14.3506,-1.620697 5.13629,-0.206175 10.36269,0.361318 15.40886,-0.618526 3.12841,-0.607461 5.78684,-2.672057 8.65812,-4.054696 3.02563,-1.456961 5.98102,-3.059746 9.03163,-4.463634 10.10858,-4.651954 20.56386,-8.57353 31.29879,-11.51671 7.01803,-2.017632 12.16817,-3.608924 19.27263,-5.220387 3.03382,-0.688142 6.11277,-1.162887 9.15347,-1.81991 6.82062,-1.473769 13.52304,-3.456372 20.37143,-4.81033 8.88656,-1.816681 17.80272,-3.815267 26.86906,-4.502659 2.19301,-0.166269 4.3964,-0.144308 6.59317,-0.249792 1.61669,-0.07763 3.23095,-0.199675 4.84643,-0.299512 10.44435,-0.165904 20.88223,0.568074 31.20115,2.226387 10.66403,1.897915 21.23519,4.452816 31.56412,7.719305 9.61401,3.418489 19.02703,7.317395 28.15619,11.88939 1.40003,0.717511 2.81056,1.414866 4.20007,2.152533 1.43975,0.764337 5.69461,3.17476 4.28684,2.353024 -10.98278,-6.410791 -22.00875,-12.747291 -33.01313,-19.120937 1.3697,0.814822 2.75136,1.609879 4.10911,2.444465 1.32822,0.816436 2.64377,1.653741 3.94794,2.508071 1.21474,0.795743 2.40532,1.627752 3.60798,2.441628 6.24998,4.517282 12.22714,9.388536 17.5106,15.031327 5.28578,5.625136 10.231,11.54283 15.16032,17.480941 5.35041,6.805687 10.51335,13.761533 15.70736,20.686982 6.60883,9.00554 13.3005,17.96325 19.2881,27.40221 4.96814,8.00366 9.77277,16.11401 14.0282,24.52374 3.18442,6.24357 6.56018,12.39994 9.35141,18.83112 0.35504,0.9306 0.71008,1.8612 1.06512,2.7918 0.31232,0.88463 0.60667,1.77581 0.93696,2.65389 1.48332,3.94339 3.41458,7.71525 4.36452,11.85301 1.10441,3.88396 2.11647,7.78363 3.08915,11.70287 0.37655,1.51723 0.81322,3.02141 1.11549,4.55516 0.57341,2.90951 0.72883,5.89104 1.33116,8.79627 1.60151,9.45971 3.34003,18.90185 4.61208,28.41283 0.43305,3.25896 0.9404,6.67451 1.15622,9.95663 0.41399,6.29595 0.0438,12.60518 -0.44846,18.88315 -0.95065,8.04636 -2.34715,16.01074 -4.03894,23.9355 -2.27086,10.76096 -5.81196,21.17069 -9.79443,31.41372 -3.93264,11.03143 -8.33435,21.89247 -13.05524,32.61016 -0.87908,1.74526 -1.70717,3.51714 -2.63722,5.23578 -4.45562,8.23355 -10.08691,15.77312 -15.88505,23.09478 -6.37119,7.40294 -13.22238,14.37398 -19.99102,21.41209 -3.04963,2.84878 -4.33382,4.11729 -7.5405,6.83046 -5.388,4.55878 -11.22902,8.55102 -16.88943,12.75629 -3.64246,2.57182 -5.66351,4.07859 -9.45764,6.43652 -5.51263,3.42592 -11.32289,6.32 -17.14605,9.16974 -8.89012,4.27847 -17.8706,8.35754 -26.79029,12.5711 -3.79285,1.71837 -5.87064,2.71888 -9.77904,4.24452 -7.93273,3.09652 -16.16316,5.28468 -24.48304,7.06125 -12.82137,2.60297 -25.69728,5.09279 -38.71998,6.44712 -4.74027,0.59481 -5.67645,0.78614 -10.4464,1.08936 -6.66294,0.42355 -13.33172,0.0767 -19.99656,-0.12265 -9.43538,-0.63124 -18.88604,-1.53461 -28.06295,-3.9379 -8.79098,-2.4296 -17.5058,-5.12505 -26.1814,-7.93796 -7.64985,-2.43572 -15.39279,-4.54981 -23.02535,-7.03584 -3.65562,-1.29159 -7.30192,-2.5929 -10.857,-4.14728 -10.18546,-4.45337 -28.60451,-15.79696 14.56982,9.24218 -10.0215,-6.12589 -19.51675,-13.07736 -27.9886,-21.24646 -7.35021,-7.11381 -14.25626,-14.66574 -21.451942,-21.93462 -7.386483,-7.6184 -15.057913,-15.04668 -21.240756,-23.71569 -1.140086,-1.63343 -4.422213,-6.31278 -5.503209,-7.95508 -4.441518,-6.74774 -8.398695,-13.80038 -12.361048,-20.83429 -6.574266,-12.25208 -12.631915,-24.89767 -16.41677,-38.32187 -1.698587,-5.375 -3.334726,-10.79404 -4.660852,-16.27609 -1.232562,-5.09528 -2.024014,-10.29202 -3.225291,-15.39455 -2.462294,-11.02834 -5.961314,-21.79664 -8.098084,-32.90107 -0.805038,-3.48442 -1.682846,-7.05313 -2.282229,-10.58139 -1.268067,-7.46446 -1.546153,-15.02767 -0.927284,-22.57328 0.51739,-4.09614 0.554743,-5.36625 1.517992,-9.31439 1.393196,-5.71039 3.548592,-11.2538 5.965028,-16.59596 5.167418,-10.49384 10.900779,-20.68989 17.854827,-30.12455 1.105436,-1.53613 2.272853,-3.0295 3.316307,-4.60839 0.862273,-1.30474 1.574508,-2.70304 2.395398,-4.0342 3.47061,-5.62798 7.193697,-11.1286 11.171606,-16.40666 4.747453,-6.34982 9.068601,-12.93957 13.513175,-19.5003 1.219493,-1.80011 2.526392,-3.541 3.714027,-5.3623 1.052879,-1.61464 2.00304,-3.29397 3.004559,-4.94096 0.918999,-1.7479 3.874307,-7.40962 4.866616,-9.13472 3.730129,-6.48472 8.236389,-12.46381 13.16389,-18.083212 8.51396,-9.749357 16.92316,-19.667851 26.58713,-28.31497 3.89416,-3.521762 3.55255,-3.26224 7.35796,-6.524002 0.92396,-0.791955 4.87532,-4.072332 5.8548,-5.074937 1.07874,-1.104225 1.83966,-2.491692 2.98537,-3.540424 z" />
    <path
       style="display:inline;opacity:1;fill:#dadada;fill-opacity:1;stroke-width:5;stroke-linecap:round;paint-order:stroke fill markers"
       id="path64"
       d="m 123.51703,67.68716 c -0.0519,-0.243052 -0.14778,-0.480754 -0.15566,-0.729158 -0.0562,-1.773519 1.65814,-4.063232 2.51939,-5.535595 1.73899,-2.214481 3.78811,-4.177658 5.87713,-6.059245 1.2062,-1.653799 2.99995,-2.384123 4.7518,-3.270509 0.96657,-0.489056 1.13887,-0.635206 2.00692,-1.206424 1.41121,-0.732324 2.54132,-1.8397 3.69119,-2.912327 1.58245,-1.524101 -0.45143,0.50279 1.11553,-1.304128 0.24011,-0.276879 0.54308,-0.494957 0.78191,-0.772946 1.26358,-1.470821 0.61344,-1.147165 2.2538,-2.579767 0.54568,-0.476567 1.15732,-0.871852 1.73599,-1.307777 3.25457,-2.175939 6.78693,-4.094691 10.61326,-5.053503 0.68981,-0.172855 1.39672,-0.268424 2.09508,-0.402636 4.28362,-0.342431 8.57833,-0.497686 12.86376,-0.840369 2.69497,0.04525 5.37604,-0.284259 8.06932,-0.274185 1.57013,0.0059 2.57999,0.08175 4.13989,0.168408 2.93217,0.09226 5.77644,0.87648 8.67979,1.184475 1.90396,0.07777 3.7705,0.456986 5.60178,0.960833 0.47885,0.14707 1.02664,-0.02349 1.50476,0.0835 0.3769,0.08434 0.72223,0.29807 1.10524,0.347738 0.26824,0.03478 0.53487,-0.09296 0.80526,-0.09999 0.41177,-0.01071 0.82324,0.03129 1.23485,0.04694 3.29765,-0.05438 6.52349,0.794689 9.68866,1.631747 2.16245,0.648391 4.34658,1.218215 6.55698,1.677621 0.20001,0.02166 1.70844,0.385168 1.83314,0.18319 0.175,-0.283439 -0.88537,-1.2105 -1.12275,-1.422639 -1.354,-1.210013 -2.75738,-2.3636 -4.13606,-3.5454 0,0 -11.87615,-8.232241 -11.87615,-8.232241 v 0 c -1.58203,-1.135926 -3.14945,-2.292488 -4.74609,-3.407779 -1.29516,-0.90469 -2.47144,-1.723576 -4.06735,-1.753147 -1.85246,-0.251781 -3.66518,-0.714939 -5.51864,-0.962663 -3.09541,-0.377478 -6.22426,-0.287518 -9.29356,-0.900414 -0.48654,-0.04954 -0.97475,-0.08473 -1.45962,-0.148625 -0.43284,-0.05704 -0.85596,-0.232638 -1.29214,-0.213995 -0.1572,0.0067 -0.22589,0.238307 -0.37605,0.285296 -0.38277,0.119778 -0.89149,-0.107085 -1.28197,0.05253 -0.79099,0.859369 -2.27632,0.557451 -3.30458,0.556662 -2.31508,-0.07836 -4.62357,0.185993 -6.93586,0.294792 -1.24062,0.06524 -2.48008,0.1558 -3.72161,0.200665 -2.7344,0.09881 -5.48579,-0.104115 -8.1997,0.349393 -3.91158,0.320268 -7.76475,0.98774 -11.49184,2.254836 -4.58546,1.521049 -8.92243,3.613388 -13.15226,5.941565 -0.69259,0.385793 -1.37202,0.79623 -2.07777,1.157378 -0.68083,0.348394 -1.3862,0.646586 -2.0793,0.969878 -0.58975,0.247507 -1.19582,0.45923 -1.76924,0.742519 -0.37795,0.186722 -0.71042,0.454709 -1.07667,0.663465 -1.53022,0.872222 -0.5501,0.143883 -1.68773,1.075893 -1.12831,0.981644 -2.28204,1.953694 -3.15117,3.184709 -0.6979,0.803912 -1.28544,1.666412 -1.94806,2.495082 -0.96305,1.204373 -2.15955,2.122378 -3.46519,2.933675 -0.56601,0.554949 -1.36126,1.304712 -1.86806,1.919722 -1.28418,1.55835 -2.21212,3.393342 -3.47923,4.966598 -0.34219,0.424532 -0.70923,0.830171 -1.02655,1.273594 -1.1886,1.66094 -1.96715,3.56493 -3.06187,5.277875 z" />
    <path
       style="display:inline;opacity:1;fill:#dadada;fill-opacity:1;stroke-width:5;stroke-linecap:round;paint-order:stroke fill markers"
       id="path65"
       d="m 101.47755,82.045383 c -0.53075,-3.876552 1.17815,-7.292078 2.84977,-10.658884 2.54883,-5.133594 1.31281,-2.953803 4.69038,-7.877062 2.74657,-2.909268 3.90849,-4.288026 6.92201,-6.900259 1.13849,-0.986886 2.35788,-1.876391 3.53396,-2.818171 2.49128,-1.994975 4.43706,-3.62417 7.02523,-5.504716 1.26521,-0.919298 2.57217,-1.779731 3.85826,-2.669596 3.94697,-2.710744 8.16405,-4.995153 12.62659,-6.736284 1.36509,-0.532612 2.76487,-0.972089 4.15549,-1.433977 1.32014,-0.438482 2.63343,-0.90366 3.97621,-1.266939 1.35529,-0.366662 2.74011,-0.613843 4.11017,-0.920764 3.8443,-0.899922 7.76152,-1.350592 11.66853,-1.857412 1.18748,-0.15404 2.3637,-0.410371 3.55826,-0.493163 2.97546,-0.206224 4.10772,0.04755 7.01495,0.370963 4.13799,0.537913 7.98773,2.081481 11.72417,3.859335 0.11508,0.0056 0.39633,0.119923 0.34524,0.01666 -0.14282,-0.288664 -0.4345,-0.477517 -0.6777,-0.688646 -0.70967,-0.616071 -1.39589,-1.269139 -2.17789,-1.790336 -3.36075,-2.23992 -6.82392,-4.32224 -10.23588,-6.48336 0,0 8.87262,3.483146 8.87262,3.483146 v 0 c -3.72671,-2.376117 -7.4898,-4.696104 -11.18012,-7.128352 -2.21189,-1.457836 -4.18577,-3.33795 -6.64427,-4.410601 -2.98353,-0.747419 -6.03695,-1.103374 -9.11271,-0.746454 -1.9457,0.24521 -4.01707,0.523608 -5.96208,0.685792 -1.35224,0.112756 -2.71431,0.107152 -4.06232,0.262435 -3.84543,0.442969 -7.61996,1.481345 -11.37034,2.387702 -1.71509,0.544067 -6.31728,1.963808 -7.93284,2.643339 -1.28213,0.539279 -2.5013,1.218269 -3.7341,1.862378 -4.27106,2.231543 -8.41451,4.700014 -12.59606,7.091435 -2.58991,1.658541 -5.50935,3.462464 -7.98221,5.303111 -1.21218,0.902275 -2.41204,1.827407 -3.53199,2.841905 -1.10184,0.998101 -2.086851,2.11809 -3.121801,3.185399 -4.044783,4.171248 -2.800225,2.868632 -6.723645,7.281351 -1.160441,1.213909 -2.316455,2.432066 -3.481324,3.641728 -1.086806,1.128596 -2.254298,2.183123 -3.273652,3.372994 -0.803179,0.937534 -1.456302,1.993861 -2.180575,2.993608 -1.557505,2.149897 -3.108489,4.297044 -4.879005,6.281029 z" />
    <path
       style="display:inline;opacity:1;fill:#dadada;fill-opacity:1;stroke-width:5;stroke-linecap:round;paint-order:stroke fill markers"
       id="path66"
       d="m 137.37744,178.36082 c -1.1909,6.15382 -0.7259,12.57023 -0.35505,18.79886 0.58983,9.62172 2.65468,19.04591 5.26038,28.29809 2.93732,9.0287 5.23989,18.18588 6.63259,27.57559 0.20002,1.71407 0.85699,6.89023 0.83691,8.58355 -0.0174,1.46537 -0.34426,2.91167 -0.44975,4.37333 -0.31017,4.29764 -0.32563,8.62569 -0.55046,12.92948 -0.48348,12.28411 -0.5684,24.57824 -1.04155,36.86467 -0.28961,13.80234 1.39596,27.5604 2.7259,41.27763 2.03784,17.94788 5.71371,35.64409 8.52185,53.47241 2.45859,13.99881 3.9814,28.13672 6.02553,42.19411 0.18473,1.96521 0.59903,3.90424 0.78848,5.86906 0.11063,1.14742 -0.12733,2.9505 0.81647,3.92995 3.15161,3.27068 15.78689,7.58025 16.10192,7.71368 0,0 -5.81137,-2.8553 -5.81137,-2.8553 v 0 c 4.3456,2.27489 8.64978,4.6307 13.03678,6.82467 0.92285,0.46152 1.85158,1.22201 2.87975,1.13531 0.95563,-0.0806 -1.92541,-9.60932 -2.02568,-10.20192 -0.95266,-3.11004 -1.99121,-6.19407 -2.89674,-9.31816 -3.2962,-11.37195 -5.50119,-23.03747 -7.34154,-34.72181 -2.76737,-17.44227 -4.9178,-34.98163 -6.91544,-52.52814 -1.48014,-13.6775 -2.38803,-27.41227 -3.13496,-41.14781 -0.11467,-12.30953 0.94876,-24.5788 0.94679,-36.88998 -0.0279,-4.47823 0.16693,-9.03847 -0.27001,-13.5014 -0.16791,-1.71504 -0.55477,-3.4026 -0.75914,-5.11368 -0.17853,-1.49474 -0.25936,-2.99953 -0.38904,-4.49929 -0.18535,-1.44477 -0.3707,-2.88954 -0.55605,-4.33431 -1.64987,-9.55796 -4.02164,-18.94879 -7.159,-28.13256 -2.69438,-9.13514 -5.22118,-18.3332 -5.60016,-27.9141 -0.35784,-6.58686 -0.63436,-13.22676 -1.80055,-19.72437 z" />
    <path
       style="display:inline;opacity:1;fill:#dadada;fill-opacity:1;stroke-width:5;stroke-linecap:round;paint-order:stroke fill markers"
       id="path67"
       d="m 81.120179,233.29212 c 1.294523,-1.16823 5.677206,-5.10437 6.577179,-6.01388 8.263948,-8.35148 15.920452,-17.70081 23.824132,-26.42596 16.09822,-17.39839 30.28595,-36.4147 45.4012,-54.6451 19.12287,-22.42464 39.81055,-43.46584 60.64445,-64.290308 15.9756,-15.218794 31.77377,-30.913219 50.12763,-43.294471 1.20507,-2.241603 5.20073,-2.102833 6.54242,-4.352419 1.43019,-2.397979 -2.56051,-4.779454 -3.55286,-5.417208 -3.41879,-2.197151 -7.08302,-3.986624 -10.62452,-5.979935 0,0 6.2846,4.203742 6.2846,4.203742 v 0 c -0.0528,-0.03374 -10.80621,-7.531862 -13.93782,-8.177077 -0.80685,-0.166238 -1.74441,0.05648 -2.41182,0.539395 -1.90001,1.374759 -1.82437,4.678558 -3.84786,5.890149 -1.15712,1.561097 -2.24613,3.175056 -3.47135,4.68329 -3.33129,4.100766 -8.61066,9.720127 -12.10154,13.393206 -3.40635,3.584127 -14.85477,15.34204 -18.02338,18.562334 -3.45454,3.510884 -6.93714,6.99405 -10.40571,10.491076 -21.0455,20.772614 -41.93481,41.719846 -61.38078,64.020706 -15.66983,17.83976 -31.30023,35.70634 -46.625411,53.84431 -9.922289,11.06888 -20.264977,21.78273 -31.7357,31.27162 z" />
    <path
       style="display:inline;opacity:1;fill:#dadada;fill-opacity:1;stroke-width:5;stroke-linecap:round;paint-order:stroke fill markers"
       id="path68"
       d="m 29.692539,269.22937 c 3.737435,-1.77132 4.953759,-2.09819 8.459783,-5.1904 2.258893,-1.99227 13.582076,-14.36481 14.261225,-15.11347 18.714238,-20.6298 2.470419,-3.38927 22.823125,-24.61991 11.961001,-11.84123 24.233583,-23.3568 36.251178,-35.13997 3.5174,-3.44879 7.12394,-6.81112 10.51422,-10.38494 2.80088,-2.9525 5.32582,-6.15569 8.04736,-9.18148 2.12917,-2.36721 4.3355,-4.66386 6.50325,-6.99579 0.64291,-2.06584 1.28582,-4.13168 1.92873,-6.19752 0,0 -8.10352,-5.01701 -8.10352,-5.01701 v 0 c -2.59283,0.88647 -5.18565,1.77293 -7.77848,2.6594 -2.38691,2.20113 -4.7522,4.42594 -7.16072,6.60341 -3.10812,2.80996 -6.36406,5.45854 -9.38859,8.35829 -3.54029,3.39422 -6.864069,7.0073 -10.294392,10.51262 -11.706373,11.96234 -23.349725,23.98842 -35.273369,35.73577 -26.050344,24.70556 0.05367,0.16926 -25.129793,23.21949 -1.064203,0.97406 -12.900992,11.98318 -15.176929,14.48507 -2.814631,3.09406 -3.171034,4.04188 -4.937103,7.19967 z" />
    <path
       style="display:inline;opacity:1;fill:#dadada;fill-opacity:1;stroke-width:5;stroke-linecap:round;paint-order:stroke fill markers"
       id="path69"
       d="m 276.31077,101.68083 c -0.81297,0.27452 -1.62594,0.54903 -2.43891,0.82355 -1.4959,0.26556 -3.04096,0.3328 -4.4877,0.79668 -5.98259,1.91827 -12.69492,7.9321 -17.29266,12.01569 -1.72078,1.49828 -3.53562,2.89493 -5.16235,4.49483 -1.74389,1.71513 -3.26615,3.64229 -4.93215,5.43318 -1.72309,1.85225 -3.54289,3.61431 -5.23437,5.49547 -4.9871,5.54633 -9.38915,11.42819 -13.59939,17.56966 -4.57392,7.49265 -9.20031,15.37198 -10.98954,24.09366 -0.78898,3.8459 -1.36,11.66882 -1.69656,15.4947 -0.99873,14.06506 -1.23222,28.16308 -1.51643,42.25515 -0.34651,11.58609 -1.62677,23.11859 -2.8479,34.63802 -0.91859,6.78695 -1.2886,13.64751 -0.41945,20.4634 0.35687,2.79859 1.15553,6.12523 1.76601,8.88494 2.28158,9.37169 7.11957,17.69397 11.98393,25.91225 4.92849,7.6752 10.44225,15.11343 17.49335,20.98815 1.3697,1.14118 2.84116,2.15435 4.26174,3.23153 11.83038,7.03478 23.05667,16.04734 36.5342,19.43043 6.16154,1.54665 12.42634,1.7521 18.73577,2.00717 11.18761,0.41605 22.24235,-1.31218 32.65274,-5.46237 1.97011,-0.78541 3.8668,-1.74374 5.80021,-2.61561 11.48477,-6.57032 21.21377,-15.70662 30.8542,-24.66196 7.34311,-7.72232 15.35939,-14.9823 21.41252,-23.82526 1.06903,-1.56172 2.00452,-3.21077 3.00678,-4.81616 6.08821,-10.65616 9.84037,-22.34866 13.28646,-34.06153 2.29358,-8.02441 4.79724,-15.99873 6.18858,-24.24528 0.26691,-1.58204 1.40506,-10.17442 1.63001,-11.85305 0.48515,-7.19286 2.73529,-14.18704 2.93398,-21.40775 0.13818,-5.02182 -0.2864,-5.90474 -1.17049,-10.90064 -1.71962,-7.36676 -4.103,-14.67471 -8.36726,-21.00098 -2.71124,-4.02228 -4.78566,-6.04177 -8.04217,-9.62571 -1.7345,-1.54945 -3.40825,-3.1697 -5.20348,-4.64835 -2.93364,-2.41631 -8.04753,-6.10917 -11.33719,-8.05604 -15.68319,-9.28156 -29.97748,-18.44573 -46.29365,-25.62772 -13.71435,-5.20659 -28.09142,-8.40426 -42.51689,-10.88679 -4.62538,-0.58936 -10.40273,-1.66333 -15.1192,-0.94013 -7.87413,1.20738 -16.79427,6.28077 -22.98811,11.08041 -2.27739,1.76475 -4.30483,3.83037 -6.45724,5.74556 -1.47901,2.13783 -3.51269,3.98379 -4.43701,6.41348 -0.90065,2.36746 -0.90886,10.94612 -0.97135,13.71446 0,0 8.36915,5.01055 8.36915,5.01055 v 0 c 2.24595,-0.72835 4.48091,-1.49152 6.73785,-2.18507 11.7811,-3.6203 5.48965,-0.69334 15.84209,-6.8593 7.09247,-4.79078 14.26521,-9.99156 22.67883,-12.25509 7.61116,-2.04764 15.3128,-1.01069 22.91943,0.3158 14.50618,2.73071 28.97933,6.14058 42.58415,11.99595 10.62744,4.98946 32.50755,17.44681 -11.51806,-7.64835 -2.02786,-1.15591 4.0129,2.38841 5.96313,3.67095 1.93829,1.27469 3.85338,2.58939 5.69717,3.99731 1.74949,1.33591 3.38229,2.81808 5.07344,4.22711 8.5673,8.72442 16.0098,17.9705 19.39785,29.95792 0.35733,1.74709 0.77969,3.48214 1.07199,5.24128 1.51842,9.13818 1.24439,18.53173 0.4869,27.72235 -1.3602,12.27537 -2.95318,24.5906 -6.05097,36.56464 -3.2098,11.56004 -6.39407,23.28112 -12.42088,33.75843 -2.36464,4.01013 -3.18404,5.6004 -5.91005,9.40775 -5.0113,6.99915 -10.96876,13.27662 -17.11452,19.27708 -9.44837,8.89839 -19.36967,17.58085 -30.89476,23.69743 -4.80709,2.2401 -6.20743,3.11212 -11.35437,4.61314 -8.38336,2.44486 -17.14899,3.06074 -25.83924,2.87157 -6.71206,-0.58662 -13.14144,-1.33005 -19.56038,-3.51668 -1.73179,-0.58995 -6.60731,-3.07696 -5.08858,-2.05686 4.67171,3.13786 27.44637,16.14403 13.99546,8.44352 -1.28413,-0.93276 -2.61326,-1.80651 -3.85237,-2.79828 -6.91649,-5.5359 -12.55687,-12.54699 -17.28037,-19.99339 -4.82747,-7.84488 -8.99871,-16.0721 -11.73135,-24.90096 -0.43339,-1.40737 -0.94477,-2.79304 -1.30015,-4.22209 -2.0031,-8.05494 -1.75928,-16.42055 -1.30274,-24.63587 0.94999,-11.69155 3.12778,-23.33033 2.6596,-35.08814 -0.82839,-14.25647 -1.68648,-28.58089 -0.33087,-42.83548 0.31001,-2.55598 0.52019,-5.12606 0.93004,-7.66794 1.76193,-10.92766 5.64599,-21.25081 11.42195,-30.69229 3.88684,-6.15861 7.82586,-12.21778 12.09723,-18.11943 1.43463,-1.98219 2.79331,-4.02477 4.34667,-5.91535 1.5264,-1.85776 3.26031,-3.53486 4.87885,-5.31292 1.46154,-1.6056 2.90752,-3.22529 4.36128,-4.83793 4.55899,-3.93406 4.24196,-3.76558 8.79614,-7.31104 0.88974,-0.69267 5.8497,-4.29576 6.73592,-5.42444 0.6473,-0.82439 0.85835,-1.9125 1.28753,-2.86875 0.4148,-0.51578 0.8296,-1.03157 1.24441,-1.54735 z" />
    <path
       style="display:inline;opacity:1;fill:#dadada;fill-opacity:1;stroke-width:5;stroke-linecap:round;paint-order:stroke fill markers"
       id="path70"
       d="m 245.38472,120.05468 c -0.87423,0.63715 -1.84221,1.16238 -2.62268,1.91144 -1.31607,1.26311 -5.07533,6.20096 -6.04118,7.41257 -3.96688,4.97624 -7.37206,9.44017 -10.91334,14.75418 -6.42999,10.68978 -11.85296,21.98407 -16.90638,33.38209 -3.78753,8.85778 -6.19071,18.20699 -7.7537,27.68851 -1.99088,9.79315 -3.31062,19.68255 -3.93951,29.65199 -0.9035,11.85567 0.0475,23.68066 2.0702,35.36421 2.01131,11.00656 6.42777,21.26791 11.13498,31.33873 3.80402,8.52734 8.34429,16.69326 13.60082,24.40523 3.70803,5.50564 8.26559,10.39255 12.99618,15.02771 3.43188,3.29436 7.01529,6.44223 10.7442,9.39672 12.05879,8.98609 24.65398,18.17273 39.62149,20.044 7.31696,0.32381 14.70202,-0.0799 22.00217,-0.69992 8.80363,-0.54444 17.23039,-2.81495 25.51389,-5.70483 9.39028,-3.45921 17.64533,-9.17085 25.90488,-14.68921 6.79655,-5.03539 13.75223,-9.83864 20.70194,-14.65773 5.85805,-4.12595 11.51422,-8.5785 16.81419,-13.4028 5.29704,-5.51561 9.05604,-12.21718 13.18146,-18.59916 5.98066,-8.83206 10.77006,-18.34554 14.79523,-28.20325 2.97743,-9.5607 3.9568,-19.56631 4.41089,-29.52333 -0.56894,-9.79589 -0.37945,-19.60765 -0.66112,-29.40738 -0.45106,-4.38709 -0.0533,-8.88809 -0.54245,-13.26744 -0.51191,-4.58278 -1.94894,-9.08838 -3.31194,-13.46781 -2.86774,-8.47546 -8.54295,-15.09458 -14.70717,-21.35742 -5.49981,-5.50972 -11.80762,-10.04554 -18.39847,-14.13932 -16.6393,-10.45447 -33.59692,-20.10179 -51.40684,-28.25693 -5.78792,-2.76144 -11.80879,-4.9594 -17.93448,-6.83308 -5.14591,-1.44423 -10.36369,-2.61596 -15.54312,-3.93199 -6.12712,-1.8032 -12.3207,-3.30867 -18.55439,-4.6865 -3.66689,-0.64405 -7.31538,-1.38835 -10.99709,-1.94521 -0.49355,0.0311 -1.98703,-0.89348 -0.58967,0.14851 5.18797,3.86859 10.38013,7.73155 15.5702,11.59733 0,0 -1.20402,-0.53106 -1.20402,-0.53106 v 0 c 1.69638,1.32428 12.1979,12.90142 19.54357,13.74538 3.37837,0.48298 6.78048,0.83136 10.11282,1.59826 6.04119,1.20906 11.94289,3.00083 17.93125,4.44067 5.31218,1.39907 10.594,2.90692 15.88469,4.38446 5.73981,1.66903 11.23172,4.01705 16.63554,6.56102 14.18278,6.76297 43.7967,23.46036 -16.1808,-10.41829 7.1909,3.98565 14.17897,8.39588 20.31249,13.91169 6.51011,6.00182 12.7586,12.43636 16.70889,20.47486 2.19387,4.82816 3.28917,8.07475 4.58533,13.20946 0.39867,1.57932 0.92808,3.12998 1.21171,4.73396 0.29474,1.66678 0.54032,7.09712 0.63064,8.74616 0.36921,9.77686 1.33134,19.53692 0.99796,29.3355 -0.15864,9.70803 -0.46786,19.50623 -3.40519,28.85342 -1.33442,4.13629 -1.76094,5.90011 -3.63689,9.882 -2.94157,6.2438 -6.85283,11.96592 -10.70844,17.66241 -4.21704,6.05002 -8.43993,12.17856 -13.48299,17.57337 -4.97094,5.00137 -10.57935,9.1555 -16.37895,13.14838 -6.56716,5.03345 -12.89667,10.36613 -19.52725,15.31902 -7.97318,5.78523 -16.42053,10.28638 -25.60664,13.84985 -7.86811,2.82326 -16.02214,4.8234 -24.38103,5.45648 -7.19554,0.45814 -14.43869,1.02949 -21.62002,0.0557 -2.1956,-0.44801 -4.29092,-0.94675 -6.33765,-1.89367 -0.67352,-0.31161 -2.60964,-1.41348 -1.96958,-1.03793 29.40451,17.2531 33.21731,19.64087 23.44647,13.58038 -4.18476,-2.81956 -8.03576,-6.05646 -11.81062,-9.40147 -5.16222,-4.69424 -9.99407,-9.71761 -14.47656,-15.06929 -2.66437,-3.36246 -5.3727,-6.76318 -7.53167,-10.48532 -2.52029,-4.34508 -4.35792,-9.07609 -6.62299,-13.54929 -4.78478,-9.99878 -9.74867,-19.99418 -12.02858,-30.936 -0.38791,-2.00032 -0.85021,-3.98764 -1.16371,-6.00097 -1.46364,-9.39944 -1.10921,-18.92203 -0.53676,-28.37729 0.72029,-9.8457 1.78467,-19.66128 3.71011,-29.35518 2.13654,-9.20111 3.67489,-18.58478 6.98446,-27.46779 4.4124,-11.5509 9.52976,-22.83214 15.75241,-33.53234 2.94848,-5.26368 5.57149,-10.71132 8.54358,-15.95649 3.25451,-5.74358 1.75966,-2.66401 5.02411,-7.63372 0.52822,-0.80415 0.97239,-1.66046 1.45859,-2.4907 z" />
    <path
       style="display:inline;opacity:1;fill:#dadada;fill-opacity:1;stroke-width:5;stroke-linecap:round;paint-order:stroke fill markers"
       id="path71"
       d="m 267.10865,148.98333 c 9.54521,-5.6929 20.79246,-7.3315 31.64254,-8.64665 11.13262,-0.34874 22.76172,-0.29355 33.54051,2.97806 2.04939,0.62204 4.00878,1.50914 6.01317,2.26371 1.90429,0.87094 3.83258,1.69121 5.71286,2.61283 1.97577,0.96843 3.9176,2.00558 5.85136,3.05538 1.87432,1.01754 7.42392,4.20246 5.57136,3.14581 -6.08465,-3.47054 -12.10758,-7.05273 -18.26769,-10.38747 -1.49152,-0.80743 2.84996,1.84033 4.24929,2.79868 1.29863,0.88938 2.56211,1.82902 3.84317,2.74353 6.78554,4.88781 12.55883,10.91601 18.06213,17.16234 3.60283,4.44636 7.86217,8.24335 12.52213,11.53851 -5.82279,-30.20241 23.98243,24.6397 34.46769,16.98548 2.3921,-1.74623 3.05301,-5.52865 3.82099,-8.12972 0.32301,-1.23211 0.84818,-2.42832 0.96902,-3.69632 0.13342,-1.40007 -0.0534,-2.81667 -0.21519,-4.21375 -0.69084,-5.96475 -2.465,-9.59983 -5.78675,-14.46668 -0.80823,-0.92062 -1.55785,-1.89622 -2.42471,-2.76186 -1.4878,-1.4857 -4.37238,-3.87088 -6.18965,-4.94501 -16.254,-9.60725 -28.04603,-18.56373 -44.34832,-24.2512 -9.14941,-2.94195 -18.35692,-5.67445 -27.39758,-8.94365 -7.55661,-2.86383 -14.7992,-6.4669 -22.47138,-9.02426 -8.21008,-3.03345 -15.428,-1.20007 -23.4651,1.34228 -9.35647,3.77687 -18.76329,7.46067 -28.04867,11.41442 -4.84852,2.30144 -9.81134,4.33498 -15.05632,5.52264 0.005,0.23008 -3.22017,0.42869 -3.21812,0.3897 0.0208,-0.39597 0.14294,-1.28448 0.48603,-1.08571 11.97914,6.94025 23.55318,14.55732 35.32976,21.83598 -0.10248,-0.30409 -0.34463,-0.59354 -0.30743,-0.91227 0.39625,-3.39575 4.06642,-9.11244 5.81372,-11.74425 3.57516,-5.38492 3.60355,-5.12628 7.7591,-10.00848 6.91173,-7.38137 15.77905,-12.14181 25.41504,-14.96828 2.1167,-0.62088 4.27657,-1.08377 6.41485,-1.62565 8.60486,-1.5663 17.80647,-2.92296 26.36639,-0.22302 4.87954,1.53908 7.72279,3.63382 12.07682,6.27064 -34.71338,-19.15527 -27.90758,-17.07665 -17.36116,-8.11398 1.89899,1.61382 3.7327,3.30596 5.51445,5.04836 5.10536,4.9926 9.35684,10.47727 13.52138,16.24985 6.18948,8.9307 11.44979,18.41536 15.48551,28.49784 1.81544,2.83818 0.97167,7.48105 2.73788,10.25204 0.28053,0.44012 0.67083,0.79975 1.00624,1.19963 4.50068,3.24748 9.52088,5.77682 14.36708,8.47533 0,0 5.36881,2.8149 5.36881,2.8149 v 0 c 4.5401,2.25993 9.14286,4.95339 14.30828,5.39221 0.24511,-0.17412 0.60019,-0.25378 0.73533,-0.52236 0.41239,-0.81959 -0.19005,-2.37346 -0.39508,-2.99412 -1.02712,-3.10916 -2.56382,-6.00927 -3.91397,-8.9818 -5.24413,-10.45324 -11.06731,-20.62799 -17.70984,-30.26152 -2.89515,-4.08374 -5.38393,-7.77529 -8.62222,-11.60866 -14.88001,-17.61439 -30.67189,-25.20707 -52.12837,-37.333814 -5.40212,-2.836032 -7.53661,-4.394707 -13.49124,-5.822085 -9.11794,-2.185654 -18.62254,-0.52731 -27.6621,1.067552 -2.35008,0.535831 -4.73165,0.948617 -7.05025,1.607493 -10.34718,2.940368 -19.55154,8.462754 -26.84845,16.370414 -4.68641,5.34582 -3.99979,4.45286 -8.48145,10.00728 -1.30713,1.62002 -2.54073,3.29972 -3.88226,4.89136 -1.15949,1.37565 -2.47729,2.614 -3.61703,4.00605 -0.70202,0.85743 -2.13391,3.21559 -2.79027,4.27125 65.80705,42.96316 23.80259,31.72453 36.43634,22.25354 0.83759,-0.6279 2.08701,-0.641 2.92983,-1.26403 4.61735,-2.1976 9.08553,-4.66953 13.65548,-6.96553 8.71764,-4.36232 17.44764,-8.87017 26.94454,-11.31463 3.94857,-0.80894 5.3776,-1.30099 9.33437,-1.37996 4.83037,-0.0964 9.45765,1.32464 13.98162,2.85113 7.16911,2.67274 14.17573,5.76949 21.439,8.19275 8.95969,2.96642 18.05521,5.52051 26.92094,8.76377 12.61882,5.46848 31.48628,17.34353 -22.1295,-13.73275 -1.13441,-0.65751 2.26037,1.33109 3.36092,2.04384 1.07588,0.69677 2.15622,1.39308 3.16571,2.18299 0.94163,0.73682 1.78417,1.59219 2.67625,2.38829 0.82487,0.91009 1.71291,1.76669 2.47461,2.73028 4.16586,5.26996 5.56855,11.18809 6.43172,17.71622 -0.37429,1.72593 -0.42441,2.91897 -1.37534,4.37377 -0.5848,0.89467 -1.8169,0.11022 -1.46129,0.32085 8.60505,5.09663 17.27127,10.08928 25.9069,15.13392 -5.23687,-2.98893 -9.89034,-6.73681 -13.93836,-11.22432 -6.32918,-6.60895 -12.81537,-13.09766 -20.1126,-18.65357 -11.94257,-8.54162 -24.01785,-14.9693 -37.15712,-22.50018 -2.98987,-1.71367 -8.03073,-4.27359 -11.1567,-5.66688 -1.87653,-0.83641 -3.80338,-1.55503 -5.70507,-2.33254 -1.9718,-0.5938 -3.91351,-1.29868 -5.9154,-1.7814 -10.74715,-2.5915 -22.0206,-2.41954 -32.95195,-1.53104 -10.23162,1.2529 -21.25243,2.56345 -30.44517,7.63949 -0.89947,0.49667 -1.67587,1.18928 -2.51381,1.78391 z" />
    <path
       style="fill:#dadada;fill-opacity:1;stroke-width:20;stroke-linecap:round;paint-order:stroke fill markers"
       id="path77"
       d="m 65.928024,408.40776 c -2.111483,0.31597 0.06975,-0.13222 -1.297279,0.42288 -0.729339,0.29616 -1.361185,0.19074 -1.217741,1.15405 1.868712,2.29957 4.123253,4.16524 6.523862,5.87758 2.309092,1.63796 4.750938,3.07178 7.112034,4.63172 1.753462,1.21503 3.403265,2.55989 4.834465,4.14285 1.512375,1.34195 2.200154,3.03461 2.839904,4.90291 0.592287,2.36377 1.40132,4.67038 2.095805,7.00886 1.65407,3.45498 3.296256,6.91604 5.284193,10.19319 8.622583,9.87133 21.955813,13.95151 33.281923,20.28992 0.4953,0.27719 1.1044,0.26285 1.65388,0.40507 0.7261,0.18794 3.13214,0.85771 3.79654,1.04168 4.69452,1.30315 9.42168,2.48763 14.04058,4.04263 6.28021,1.90902 11.92053,5.26985 17.82422,8.04124 5.96345,1.86013 12.15189,2.75076 18.40066,2.64985 1.22882,-0.0198 2.45237,-0.16565 3.67855,-0.24847 3.85911,-1.77079 2.77949,-0.31786 0.11007,-5.4293 0,0 -5.60443,-4.08244 -5.60443,-4.08244 v 0 c -11.45149,-5.22122 -6.2526,-3.61689 -15.28066,-5.73777 -8.61387,-1.19423 -17.5162,-1.86455 -25.2411,-6.2498 -6.33504,-3.1633 -12.60305,-6.54119 -19.35842,-8.74492 -4.9831,-1.68018 -10.03406,-3.12506 -15.03637,-4.74131 -1.13008,-0.40033 -2.9459,-1.01032 -4.06281,-1.52736 -0.582307,-0.26956 -2.253325,-1.22816 -1.699527,-0.90404 9.378527,5.48884 18.804547,10.89638 28.175017,16.39899 0.38708,0.2273 -0.83153,-0.34527 -1.21997,-0.57023 -0.33488,-0.19394 -0.62687,-0.45393 -0.94031,-0.68089 -2.42092,-2.49206 -4.25193,-5.54018 -5.32946,-8.84926 -0.80714,-2.33245 -1.05557,-4.82147 -2.09725,-7.06923 -0.7132,-2.1477 -1.28708,-4.49656 -2.62126,-6.3389 -1.63177,-1.91949 -3.3431,-3.781 -5.39972,-5.25907 -2.42179,-1.84667 -5.04379,-3.38408 -7.6553,-4.94427 -2.30022,-1.45725 -4.707072,-2.83803 -6.487143,-4.94691 -2.892555,-2.26924 -6.075606,-4.16499 -9.081658,-6.27727 z" />
  </g>
</svg>
