<?xml version="1.0" encoding="UTF-8" standalone="no"?>
<!-- Created with Inkscape (http://www.inkscape.org/) -->

<svg
   width="511.93506"
   height="521.53668"
   viewBox="0 0 511.93506 521.53668"
   version="1.1"
   id="svg1"
   xmlns="http://www.w3.org/2000/svg"
   xmlns:svg="http://www.w3.org/2000/svg">
  <defs
     id="defs1" />
  <g
     id="layer4"
     style="opacity:1"
     transform="translate(-6.1495452,0.51271674)">
    <path
       style="fill:#264653;fill-opacity:1;stroke-width:20;stroke-linecap:round;paint-order:stroke fill markers"
       id="path30"
       d="m 36.685757,319.19789 c -0.393945,-0.37857 -0.855916,-0.69721 -1.181837,-1.13572 -0.35438,-0.47679 -0.575047,-1.04039 -0.833238,-1.57542 -0.459487,-0.95216 -0.986206,-1.88093 -1.318973,-2.88442 -1.085047,-3.27206 -1.203902,-6.88255 -1.450975,-10.28504 -0.08564,-3.00475 -0.445364,-5.98241 -0.596563,-8.98313 -0.04118,-0.81728 -0.01936,-1.63945 -0.113649,-2.45232 -0.240959,-2.07733 -0.702835,-4.12314 -1.029221,-6.18876 -0.557692,-5.30293 -0.986651,-10.73894 -0.390593,-16.06461 0.166188,-1.48486 0.517576,-2.94321 0.75522,-4.41833 0.267171,-1.65841 0.506109,-3.32124 0.759163,-4.98186 1.66288,-6.78014 3.507915,-13.56998 5.764594,-20.18397 0.843556,-2.47234 2.575794,-6.76341 3.554707,-9.23428 0.567875,-1.33441 1.109311,-2.68038 1.703626,-4.00323 0.565159,-1.25795 1.244018,-2.4644 1.77407,-3.73755 1.326663,-3.18653 1.778156,-5.21641 2.887463,-8.50526 1.404809,-4.16494 1.810162,-5.01823 3.450424,-9.13413 0.567045,-1.76869 1.064921,-3.56107 1.701134,-5.30607 0.671651,-1.8422 1.482253,-3.63073 2.21958,-5.44764 2.277017,-5.611 4.580013,-11.19212 7.460297,-16.53039 0.827483,-1.53364 1.758384,-3.00919 2.637577,-4.51379 0.765322,-1.26374 1.543784,-2.51961 2.295966,-3.79121 0.635712,-1.0747 1.310816,-2.12955 1.867451,-3.24725 2.232565,-4.48293 3.538347,-9.46129 5.146886,-14.18391 1.743999,-4.39039 3.568767,-8.75131 6.02906,-12.79989 2.244716,-3.69385 4.956965,-7.02354 7.742077,-10.31068 1.244265,-1.65207 2.815281,-3.03306 4.084943,-4.66358 0.553638,-0.71099 1.008953,-1.49341 1.52226,-2.23404 0.48513,-0.69997 1.088794,-1.32755 1.472952,-2.08765 0.543103,-1.07458 0.800042,-2.27391 1.287784,-3.37472 0.606409,-1.36865 1.327351,-2.68362 1.991026,-4.02543 4.824312,-8.61325 11.097442,-16.333361 18.417602,-22.949616 1.3801,-1.247387 2.8467,-2.395597 4.27005,-3.593395 3.11292,-2.587039 6.51182,-4.773807 9.80309,-7.117595 0.96069,-0.684127 3.03278,-1.972014 3.85651,-2.917257 0.6744,-0.773883 1.16177,-1.692663 1.74266,-2.538994 2.61142,-3.407794 6.03288,-6.004977 9.35937,-8.658252 1.28319,-1.023497 2.53692,-2.085691 3.85692,-3.061255 3.19816,-2.363649 4.77353,-3.232696 8.12603,-5.287973 4.071,-2.668284 8.69086,-4.260096 13.01596,-6.43183 1.90432,-0.956203 3.75847,-2.009224 5.64143,-3.006829 3.6503,-2.326579 7.82105,-3.532631 11.73505,-5.284445 10.32587,-4.62161 -5.11434,1.909248 6.31634,-2.86326 1.18961,-0.474622 2.36547,-0.985255 3.56882,-1.423867 1.28025,-0.466641 2.58993,-0.848464 3.8788,-1.290735 5.22881,-1.794249 10.42518,-3.653665 15.72599,-5.225905 7.61374,-2.533454 15.50118,-4.09808 23.32101,-5.840329 6.68023,-1.646225 13.32361,-3.465008 19.98039,-5.221245 4.24598,-1.054696 8.45152,-2.361461 12.81302,-2.858515 2.40731,-0.274346 3.17558,-0.225107 5.55597,-0.25325 6.67234,0.190107 13.28491,1.146823 19.89954,1.970984 6.43538,0.894964 12.80938,2.088658 19.13822,3.547125 2.03369,0.616971 4.03916,-0.259659 6.06657,0.10984 0.91661,0.156843 0.75108,0.206319 -0.26779,-0.443751 0,0 -24.52297,-18.5141359 -24.52297,-18.5141359 v 0 c -1.61658,-0.7138804 -0.96406,-0.7501887 -1.86354,-0.609203 -2.17196,0.381523 -4.37148,-0.9962368 -6.57343,-0.8015957 -4.98505,0.1370991 -9.95921,0.025685 -14.93358,-0.3940214 -3.85235,-0.4535512 -7.68022,-1.01724416 -11.51849,-1.57603001 -2.08602,-0.3036875 -5.03298,-0.79105722 -7.17286,-0.8815925 -0.90472,-0.0382774 -1.81034,0.0510587 -2.71551,0.0765881 -6.03745,0.77563008 -11.84877,2.66242791 -17.69807,4.29369281 -6.36742,1.8056405 -12.65346,3.8642609 -18.93121,5.9503674 -7.29604,2.4579582 -14.59762,4.8957862 -22.06096,6.8147152 -7.9357,2.640361 -15.98872,4.924623 -23.90129,7.638998 -2.37763,0.828974 -4.80276,1.529223 -7.14106,2.463392 -3.9691,1.585683 -7.53772,4.089765 -11.53892,5.616918 -1.9595,0.965639 -3.95659,1.858557 -5.87809,2.897757 -4.06269,2.197206 -7.54911,5.241971 -11.33442,7.854604 -2.39876,1.771514 -5.30768,3.949078 -7.7511,5.629025 -1.41524,0.973036 -2.88085,1.871379 -4.29704,2.843043 -3.74984,2.572815 -7.30704,5.426564 -11.20497,7.782309 -1.02202,0.607391 -2.12044,1.101573 -3.06605,1.822174 -0.8786,0.669538 -2.24475,2.719361 -2.86102,3.552979 -2.23601,3.024614 -4.22955,6.207621 -6.66507,9.085245 -3.786124,4.579801 -7.690793,9.029589 -11.825607,13.302028 -1.50461,1.554691 -3.097586,3.022553 -4.593868,4.585261 -2.60142,2.716906 -4.984298,5.638009 -7.650282,8.295411 -1.088007,1.11457 -2.153714,2.25136 -3.264021,3.34372 -0.901341,0.88677 -1.953185,1.62649 -2.769405,2.59218 -0.545723,0.64567 -0.841263,1.46675 -1.274731,2.19256 -1.507947,2.52494 -2.850308,5.09902 -4.040437,7.79604 -1.89984,3.88131 -3.885296,7.70939 -6.074262,11.43834 -1.697331,2.89145 -3.615429,5.6495 -5.311696,8.54156 -0.737856,1.25802 -1.37931,2.57014 -2.068964,3.85521 -1.379984,2.71754 -2.26602,4.30885 -3.394803,7.11653 -1.385818,3.44701 -2.261654,6.97172 -3.174064,10.55898 -0.372316,1.46381 -0.779399,2.91856 -1.169098,4.37784 -0.539157,1.69102 -1.0126,3.40442 -1.617471,5.07307 -2.068747,5.707 -4.773383,11.14057 -7.367137,16.61609 -0.83814,1.76935 -1.597933,3.57615 -2.474726,5.32666 -0.820601,1.63833 -1.743399,3.22344 -2.615098,4.83516 -1.733328,4.15727 -2.070195,4.94652 -3.760452,9.07324 -1.30057,3.1753 -2.185012,5.12175 -3.119232,8.41113 -0.392108,1.3806 -0.637772,2.79885 -0.984082,4.19165 -0.36047,1.44975 -0.757389,2.89019 -1.136084,4.33528 -0.23402,0.8583 -2.468898,9.07055 -2.674026,9.75741 -2.012855,6.73995 -4.437355,13.35688 -6.168329,20.18335 -0.472501,1.59232 -1.047584,3.15772 -1.417503,4.77695 -0.3455737,1.51265 -0.4889584,3.06451 -0.7242923,4.59819 -0.8033483,5.23544 -1.2034592,10.46425 -1.0636618,15.76677 -0.02694,0.9246 -0.1694056,4.6612 -0.081775,5.73788 0.070898,0.87109 0.2846359,1.72467 0.416279,2.58867 0.4660606,3.05887 0.6595157,6.13345 1.0925561,9.1972 0.353193,3.41196 0.838034,6.89476 0.867199,10.33023 0.0075,0.88621 -0.21645,1.77021 -0.15412,2.65426 0.043,0.60987 0.310883,1.18258 0.466325,1.77387 0.02542,0.39948 0.05083,0.79896 0.07625,1.19844 z" />
    <path
       style="fill:#264653;fill-opacity:1;stroke-width:20;stroke-linecap:round;paint-order:stroke fill markers"
       id="path31"
       d="m 29.803294,308.00757 c -0.05529,-1.63677 -0.286415,-0.25549 1.255984,-1.20815 0.220113,-0.13595 0.203235,-0.48812 0.380746,-0.67633 0.829768,-0.87977 1.318371,-0.24182 -0.182467,-1.78192 -8.230633,-3.93025 -16.170329,-8.53913 -24.6918984,-11.79075 -0.7178525,-0.27391 -0.3165925,1.53995 -0.1875627,2.29737 0.1736932,1.01961 0.6952249,1.94866 1.0747898,2.9108 2.4459031,6.19994 1.0767297,2.50673 4.9542653,10.14772 1.195158,2.35515 2.29746,4.75628 3.446191,7.13443 4.645523,9.78203 8.588607,19.87407 12.971676,29.77259 0.995282,2.2477 4.961262,10.85931 6.039909,13.20678 4.474816,9.59813 8.39409,19.43792 12.4286,29.22514 2.992409,8.06144 5.729215,16.207 8.709743,24.27156 2.072976,5.2557 3.908662,10.71762 6.928163,15.53488 0.554424,0.88452 1.184058,1.71961 1.776087,2.57941 3.59838,5.07381 8.245114,9.28375 12.796657,13.48083 4.943272,4.40445 10.148508,8.50804 15.449663,12.47107 11.33414,8.59836 24.07772,14.99663 36.37905,22.09953 0.74091,0.42664 1.48183,0.85329 2.22275,1.27993 -7.07551,-4.08163 -14.14853,-8.16759 -21.22654,-12.2449 -0.86965,-0.50096 1.73634,1.0071 2.60145,1.51588 2.48198,1.45967 4.95082,2.94205 7.41798,4.42658 5.52429,3.21909 10.61929,7.0886 15.9032,10.67258 12.87969,8.6624 25.98394,17.55969 40.69375,22.73105 5.88312,2.23405 12.02249,3.59869 18.1139,5.11017 6.85974,1.4706 13.79433,2.55356 20.69105,3.83938 7.22388,1.29752 14.58236,1.31859 21.89995,1.45092 6.35109,0.2092 12.64339,-0.73082 18.98248,-0.9459 0.53803,-0.0875 5.20641,0.23678 5.09319,-0.68708 -0.0355,-0.28937 -0.23246,-0.54675 -0.42877,-0.76227 -1.13718,-1.24842 -2.3694,-2.40682 -3.5541,-3.61023 -2.41102,-1.64532 -4.82205,-3.29064 -7.23307,-4.93596 0,0 -1.79117,-0.88978 -1.79117,-0.88978 v 0 c -2.38283,-1.36942 -4.76565,-2.73884 -7.14848,-4.10826 -2.10311,-1.61797 -4.58848,-4.45342 -7.6544,-3.83042 -0.93826,0.19066 -1.79313,0.70582 -2.75542,0.81112 -5.42336,1.37501 -10.99124,1.89789 -16.56774,2.21938 -2.87069,0.0787 -4.45096,0.16299 -7.34697,0.0717 -4.67427,-0.14742 -9.28352,-0.98279 -13.90818,-1.61595 -6.69701,-0.87354 -13.40975,-1.75786 -19.9326,-3.57392 -5.97644,-1.53936 -11.8695,-3.35671 -17.76708,-5.17133 -9.39503,-3.42798 -17.56397,-9.30276 14.36922,9.36672 0.95202,0.55659 -1.92552,-1.07705 -2.86332,-1.65729 -1.65933,-1.02666 -4.28184,-2.85585 -5.8804,-3.95336 -4.99315,-3.66314 -10.01638,-7.31938 -15.24659,-10.63356 -12.68589,-7.53304 -25.3458,-15.10751 -38.22761,-22.30778 41.7969,24.17629 19.31926,11.77848 10.33589,5.32128 -5.35688,-3.90568 -10.79491,-7.7326 -15.65777,-12.25918 -4.529175,-4.05241 -9.008264,-8.19941 -12.877043,-12.90269 -4.207321,-5.56255 -7.627672,-11.57805 -10.215514,-18.07063 -1.641378,-3.9122 -3.298162,-7.84454 -4.795421,-11.81424 -1.614939,-4.28171 -2.860201,-8.70632 -4.766685,-12.87871 -0.589433,-1.47311 -1.122849,-2.9699 -1.7683,-4.41934 -4.11464,-9.23995 -9.890842,-17.64303 -14.377975,-26.69284 -7.4443,-14.00866 -14.912049,-28.11065 -19.937931,-43.20862 -0.603705,-2.10535 -1.336336,-4.17793 -1.811116,-6.31605 -0.351485,-1.58287 -0.431277,-3.2141 -0.661499,-4.8191 -0.152343,-1.06207 -0.385871,-2.11365 -0.486164,-3.1819 -0.06011,-0.64019 0.104676,-1.29356 0.0063,-1.929 -0.02645,-0.17086 -0.241562,-0.24741 -0.362343,-0.37111 -8.056248,-4.16207 -16.112496,-8.32413 -24.1687443,-12.48619 0.54856,-0.3144 0.013032,-0.0501 1.2793075,0.9116 0.6785948,0.51537 1.3815562,0.99784 2.0723343,1.49677 0.6534535,0.5237 1.2940635,1.06383 1.9603605,1.57109 3.507816,2.67054 1.893227,1.03767 3.946345,3.34848 z" />
    <path
       style="fill:#264653;fill-opacity:1;stroke-width:20;stroke-linecap:round;paint-order:stroke fill markers"
       id="path32"
       d="m 91.619409,451.78376 c 9.160391,5.29247 18.278081,10.65955 27.481171,15.87741 1.08102,0.6129 5.94003,2.56751 6.59276,2.84559 5.49981,2.3431 10.89052,4.88617 16.27457,7.4818 10.40122,4.85237 20.68224,9.98493 31.23922,14.49394 1.44911,0.57295 2.90236,1.13557 4.34735,1.71887 4.18225,1.68823 4.212,1.86522 8.37708,3.18278 3.83849,1.21425 7.76724,2.19796 11.65439,3.24235 5.58959,1.39815 11.22292,2.6155 16.84273,3.88574 4.64616,1.29811 9.44221,0.77835 14.18933,0.81219 5.51984,0.13668 11.0421,0.38795 16.5643,0.36589 2.65518,-0.0744 5.34177,0.25045 7.99425,0.0249 1.47888,-0.12573 2.9439,-0.38687 4.42196,-0.52193 4.71149,-0.37798 9.39287,-1.06841 14.12458,-1.09242 1.77198,-0.0705 3.53438,-0.0558 5.28056,0.2629 -0.37163,-0.0228 0.55581,0.14332 0.43536,0.06 -28.16764,-19.49605 -33.02615,-24.0409 -19.95619,-12.75471 0,0 5.49558,3.99333 5.49558,3.99333 v 0 c 2.5025,1.57369 9.85507,6.51771 7.50751,4.72106 -7.83733,-5.99812 -31.58609,-23.65272 -23.9905,-17.35129 -0.017,1.00904 -1.93907,1.13249 -2.52572,1.45764 -4.12196,1.33185 -8.53899,1.29627 -12.80998,1.79511 -3.98592,0.23412 -7.98733,0.16258 -11.95945,0.68742 -4.86566,0.39048 -9.71398,1.10795 -14.61535,0.76688 -5.12477,-0.30346 -10.16514,-1.147 -15.18875,-2.19122 -5.06077,-0.89785 -10.13658,-1.7156 -15.16895,-2.76434 -7.83582,-1.69791 -15.4097,-4.36667 -22.78379,-7.50163 -9.7283,-4.18574 -19.59351,-8.07159 -29.0396,-12.887 -5.80942,-2.75744 -11.66417,-5.44645 -17.38723,-8.38128 -1.73156,-0.88796 -3.44923,-1.80381 -5.148356,-2.75236 -1.293814,-0.72228 -5.112173,-2.99923 -3.828514,-2.25905 7.72146,4.45234 15.42806,8.93042 23.14209,13.39563 z" />
    <path
       style="fill:#264653;fill-opacity:1;stroke-width:20;stroke-linecap:round;paint-order:stroke fill markers"
       id="path33"
       d="m 126.90952,476.43729 c 15.68225,10.09079 32.0178,18.44562 49.35345,25.07142 8.83395,3.44662 18.3077,4.01867 27.57319,5.48034 6.64483,1.49903 13.35627,2.5431 20.08897,3.53791 5.45948,0.87393 10.98065,0.90758 16.48958,1.10879 5.02993,0.33889 10.0566,0.54312 15.09767,0.50627 4.83252,10e-4 9.61965,-0.64902 14.43235,-0.97972 2.33585,-0.13958 4.66636,-0.24986 6.99296,0.0211 0.22061,0.0653 0.60189,0.41809 0.66183,0.19596 2.88186,-10.67981 -10.39257,-9.09088 -20.794,-14.2209 0,0 7.97606,5.81892 7.97606,5.81892 v 0 c -20.066,-10.74301 -20.10847,-3.11652 -19.04439,-14.13159 0.009,-0.0933 -8.1e-4,0.18738 -0.001,0.28107 -1.37432,0.97243 -3.12974,1.12322 -4.69233,1.67486 -0.63522,0.15528 -2.99094,0.74017 -3.54805,0.83578 -2.93705,0.50408 -5.93582,0.67074 -8.88055,1.12775 -4.40428,0.34738 -8.82704,0.40166 -13.23973,0.60287 -5.0947,-0.009 -10.18129,-0.29266 -15.26994,-0.52091 -5.68983,-0.27198 -11.33899,-1.06843 -17.02992,-1.35234 -8.74874,-0.85249 -17.56868,-1.82893 -25.86276,-4.92145 -6.5915,-2.53155 -13.03943,-5.33214 -19.23679,-8.73414 -1.57772,-0.86607 -6.23841,-3.593 -4.67269,-2.70544 7.0338,3.98726 14.05137,8.00307 21.07706,12.00461 z" />
    <path
       style="fill:#264653;fill-opacity:1;stroke-width:20;stroke-linecap:round;paint-order:stroke fill markers"
       id="path34"
       d="m 106.95829,470.43383 c 3.42202,0.21382 6.78126,0.93779 10.04506,1.96547 4.24336,2.43492 8.39418,5.00758 12.71236,7.31291 5.68412,2.90759 11.10251,6.29058 16.90978,8.95405 4.1575,1.83269 8.20149,3.88983 12.27026,5.9062 3.04009,1.84041 6.37146,3.08154 9.60401,4.52017 2.54315,1.12585 5.12934,2.18653 7.81682,2.91686 2.84934,0.85172 5.79058,1.09997 8.73906,1.32161 2.87391,0.15468 5.67088,0.84572 8.46496,1.48107 2.72035,0.81145 5.30176,2.00997 7.91563,3.10389 2.76049,0.95507 5.56928,1.76368 8.38138,2.55037 0.3607,0.0763 0.71455,0.20005 1.08211,0.22874 0.44039,0.0344 0.88333,-0.0619 1.32456,-0.0409 2.39217,0.114 4.81233,0.65566 7.14141,1.17435 3.69161,0.98884 7.35884,2.05487 11.00628,3.19693 2.80707,1.07688 5.70103,1.88619 8.55057,2.83065 1.17192,0.20109 2.30547,0.7877 3.48382,0.94691 0.24646,0.0333 0.49453,-0.0614 0.74319,-0.0656 0.82594,-0.014 1.65128,0.0521 2.47687,0.0798 2.69986,0.51143 5.38402,1.26706 8.14132,1.42507 5.73539,0.32865 -1.89474,-0.53884 4.63869,0.30451 3.75639,0.19483 7.49778,0.93275 11.21057,0.0608 1.27304,-1.18114 0.073,0.22637 0.4469,-1.39883 0.27053,-0.25492 0.54004,-0.41552 0.61761,-0.80532 0.0304,-0.15275 -0.12108,-0.34383 -0.0252,-0.46654 0.0936,-0.11978 0.29976,-0.051 0.44965,-0.0765 -1.42876,-1.40586 0.0963,-0.75544 -0.17072,-1.66229 -0.52421,-1.78012 -0.57,-0.29069 -0.3964,-1.74777 1.58393,-0.0488 3.13548,-0.27946 4.69647,-0.47449 2.04811,-1.21647 4.36899,-1.59758 6.61276,-2.26785 1.48628,-0.444 2.94223,-0.98423 4.42057,-1.45398 3.09305,-0.72175 6.02477,-1.97323 9.07542,-2.83335 2.92135,-0.736 1.4823,-0.34713 4.31796,-1.1636 3.22568,-0.96004 6.4851,-1.82702 9.80491,-2.39321 1.35496,-0.13297 2.51077,-0.41361 3.62312,-1.20458 2.5864,-2.68669 5.95806,-4.26699 9.30798,-5.77292 2.78265,-1.10857 5.18264,-2.99223 7.71435,-4.57947 1.39573,-1.06657 2.86231,-2.04321 4.32076,-3.0242 1.94228,-1.45183 4.19175,-2.55727 6.49873,-3.30177 0.61917,0.0192 1.1321,-0.34933 1.71008,-0.47597 0.37391,-0.0819 0.76517,-0.0673 1.13792,-0.15437 1.37753,-0.32179 2.73585,-0.96454 4.08192,-1.39862 3.15649,-1.3205 6.52284,-1.99046 9.75945,-3.05522 3.362,-1.18251 6.57102,-2.7897 9.83996,-4.21549 0.77224,-0.2775 1.55519,-0.52681 2.31672,-0.83248 0.77651,-0.31169 1.51264,-0.71995 2.29435,-1.01837 2.96706,-1.13268 1.99325,-0.48318 4.85122,-1.6046 1.30321,-0.51135 2.95289,-1.39073 4.19157,-2.02157 4.17802,-2.83442 8.84371,-4.7485 13.32511,-7.0151 2.52249,-1.15142 3.97612,-3.47308 5.77657,-5.44458 0.23044,-0.25233 2.79298,-2.83794 3.03391,-3.08149 1.97932,-1.89691 4.21118,-3.50436 6.07383,-5.52286 0.98786,-1.07051 1.91561,-2.19503 2.88332,-3.28378 1.32095,-1.5417 2.86303,-2.88996 4.23273,-4.38034 1.25198,-1.3623 2.33788,-2.91129 3.52362,-4.3332 1.60579,-1.73396 2.56338,-3.9239 3.78865,-5.91596 0.7086,-1.15205 1.87282,-2.76741 2.63403,-3.84959 1.92753,-2.58656 4.52894,-4.53921 6.68811,-6.90813 0.62169,-0.68208 2.1571,-2.62793 2.72171,-3.33443 2.09784,-3.04741 5.21378,-5.03811 8.05312,-7.30091 1.25571,-1.28703 1.96174,-2.98207 3.0811,-4.37481 0.62348,-0.77576 1.34958,-1.46322 2.01328,-2.20486 0.12809,-0.14857 1.83905,-2.12505 1.93032,-2.2639 0.38468,-0.58513 0.62702,-1.25474 0.9991,-1.84796 1.31778,-2.10101 2.9593,-4.00011 4.34393,-6.06087 1.50047,-1.73268 2.66047,-3.697 3.91104,-5.60101 0.34054,-0.51847 0.78825,-0.96798 1.08036,-1.51519 0.31816,-0.59602 0.47255,-1.2664 0.73648,-1.88834 0.26739,-0.63007 0.5712,-1.24405 0.8568,-1.86608 1.94042,-3.51835 4.96605,-6.17607 7.58037,-9.16176 2.94865,-3.56416 6.02325,-6.99414 9.29518,-10.26234 3.85587,-3.3691 6.96272,-7.4259 9.68774,-11.74335 1.47261,-2.9631 3.6689,-5.66395 4.54099,-8.91156 0.45287,-1.68644 0.5857,-3.44298 0.89595,-5.16139 1.12012,-4.4487 3.07029,-8.59465 3.94952,-13.10637 0.7209,-4.48079 1.50143,-8.9616 2.8278,-13.31329 0.25074,-0.61174 0.55266,-1.20492 0.75223,-1.83521 0.21933,-0.69271 0.31801,-1.41826 0.50058,-2.12155 0.64387,-2.48027 1.30812,-4.95474 1.95175,-7.43623 1.01025,-3.43367 2.68417,-6.58257 4.13298,-9.8307 1.19297,-3.57997 2.58056,-7.08974 3.74069,-10.67989 0.20767,-0.60875 0.46875,-1.20183 0.623,-1.82626 0.18743,-0.75873 0.26539,-1.54038 0.3989,-2.31043 0.52223,-3.01191 0.99503,-6.03134 1.55701,-9.03616 0.76324,-3.07864 0.5832,-6.27763 0.70511,-9.4172 0.0769,-1.97965 0.2586,-3.95426 0.33783,-5.93382 -0.11222,-3.65537 0.84367,-7.19676 1.24265,-10.79669 0.12383,-1.11728 0.25267,-3.86507 0.31188,-4.98689 0.0882,-3.44038 0.53403,-6.88926 -0.0314,-10.31323 -0.27732,-1.67946 -0.95439,-4.00512 -1.40084,-5.64622 -1.62518,-4.53906 -2.3192,-9.28446 -3.22996,-13.9907 -0.49564,-3.82119 -2.34798,-7.2247 -3.29802,-10.92449 -0.92055,-2.77046 -2.24591,-5.38923 -3.18006,-8.15478 -1.8517,-5.48195 0.8788,1.89129 -1.22603,-3.67703 -2.4558,-5.03784 -5.32617,-9.85578 -8.357,-14.56441 -2.68433,-3.9336 -4.92435,-8.14677 -7.44663,-12.1802 -0.0538,-0.0861 -4.08281,-6.18534 -4.15713,-6.29788 -2.98649,-4.55475 -5.33172,-9.46974 -7.78506,-14.3177 -0.41695,-0.79975 -0.8635,-1.58475 -1.25084,-2.39925 -0.69767,-1.46708 -1.23079,-3.00841 -1.92183,-4.47862 -1.14885,-2.4442 -2.4881,-4.75416 -3.91908,-7.03987 -3.51396,-5.62575 -8.4356,-10.09032 -13.07314,-14.754 -5.05167,-4.92445 -9.4338,-10.435786 -13.2135,-16.379588 -3.09665,-5.376242 -6.29443,-10.680586 -10.19545,-15.513826 -3.77273,-4.188892 -7.91385,-8.206059 -12.83263,-11.04277 -14.27137,-8.230444 -28.6081,-16.347023 -42.91215,-24.520535 -6.24989,-2.53803 -12.63019,-4.723114 -19.0099,-6.906317 -6.4642,-2.268938 -12.70178,-5.097952 -18.98956,-7.799614 -4.72439,-2.320759 -9.24656,-5.00706 -13.98222,-7.30777 -5.39459,-2.522658 -11.074,-4.381553 -16.74646,-6.167787 -5.88217,-1.8926803 -11.8305,-3.5695048 -17.76034,-5.3044953 -5.22273,-1.2736196 -10.42963,-2.6172612 -15.64035,-3.9413515 -0.62516,-0.1666388 -2.13124,-1.09420546 -1.87548,-0.4999165 0.52748,1.225659 1.881,1.8944211 2.86396,2.7967804 2.82322,2.5917109 4.69024,3.8689531 7.94796,6.3628749 0,0 8.77588,7.051115 8.77588,7.051115 v 0 c 6.10658,4.441808 4.93309,3.745292 10.60928,7.365025 1.77064,1.129142 3.47893,2.370173 5.34034,3.342424 0.40125,0.209581 0.8997,0.101225 1.34955,0.151838 4.9552,0.784711 9.8398,1.976755 14.62552,3.481312 5.57866,1.398089 11.14005,2.874578 16.59313,4.712706 6.0838,2.173511 12.03737,4.655129 17.72661,7.735077 4.63857,2.469637 9.19402,5.129025 14.08684,7.080317 6.23158,2.803771 12.65725,5.146693 19.06342,7.517434 7.13727,2.800142 14.32901,5.579342 21.05705,9.281142 -12.26493,-7.099101 -24.541,-14.17901 -36.79481,-21.297302 -0.88329,-0.513105 1.80467,0.959305 2.68267,1.481407 3.45769,2.05611 6.62981,4.533627 9.32151,7.534317 1.2641,1.44886 2.59095,2.923716 3.76068,4.451653 2.573,3.360915 4.63954,7.065905 6.94406,10.606242 3.89502,6.071997 7.90082,12.090924 12.92742,17.310212 4.20179,4.442951 8.70637,8.628225 12.42727,13.497416 2.9121,4.15637 5.51252,8.53568 7.34813,13.28571 2.50773,5.57105 6.03497,10.54647 9.33886,15.66504 3.78761,6.12818 7.60717,12.23384 11.46655,18.31531 2.59097,4.48954 4.97423,9.07626 7.34388,13.68515 0.85955,1.37821 1.79036,2.7123 2.61628,4.11092 1.57877,2.67349 2.68972,5.58703 4.09661,8.34713 2.07186,3.84656 3.30165,8.05929 5.59569,11.80104 2.51207,4.92954 4.95625,9.8972 6.49466,15.23646 1.60887,5.09663 3.26906,10.27403 3.44315,15.65799 0.0597,1.71921 0.0692,3.44065 0.17043,5.15792 0.22807,3.86946 0.85685,7.72574 0.46842,11.61505 -0.16537,4.01635 -0.11865,1.99879 -0.13828,6.05273 -0.11782,3.21305 -0.36035,6.43978 0.0354,9.65025 0.13978,4.31525 -0.26455,8.5283 -1.73735,12.61886 -1.23735,3.47376 -2.37802,6.96292 -3.91343,10.32327 -1.32144,3.46115 -2.74787,6.87976 -3.94103,10.38646 -1.17797,3.76755 -1.60494,7.71991 -2.81645,11.48348 -0.96214,2.8573 -2.13007,5.67228 -3.01845,8.55045 -0.21739,0.70432 -0.32105,1.44085 -0.54532,2.143 -0.21534,0.6742 -0.51401,1.31887 -0.77102,1.97831 -1.51946,4.30212 -1.96776,8.90341 -3.71696,13.14173 -0.62504,1.46903 -1.3667,2.88863 -1.94541,4.37652 -1.10838,2.84969 -1.6137,5.96742 -3.52687,8.46443 -0.69378,1.01432 -2.06851,3.05655 -2.82669,4.03811 -1.97156,2.55243 -4.43046,4.67636 -6.58599,7.06724 -3.21617,3.41748 -6.56509,6.68931 -9.84596,10.04413 -2.92928,3.04249 -5.52288,6.42219 -7.80232,9.9755 -0.79361,1.13765 -1.721,2.19311 -2.37911,3.41417 -0.28411,0.52715 -0.39853,1.13114 -0.64749,1.67578 -0.88505,1.93618 -2.03015,3.76499 -3.04659,5.63111 -1.48742,1.88907 -2.89004,3.87507 -4.70915,5.47026 -0.5677,0.49782 -1.23885,0.86971 -1.80118,1.3736 -0.34586,0.30991 -1.63801,1.89364 -1.95975,2.28171 -0.62734,0.7753 -1.20718,1.59034 -1.86959,2.33591 -1.18732,1.33638 -2.62361,2.46963 -3.6046,3.9848 -1.66223,3.11173 -3.78159,5.92845 -6.36555,8.34542 -0.50133,0.55225 -2.36588,2.59157 -2.86128,3.19331 -2.01434,2.44673 -3.73908,5.13948 -6.02161,7.36404 -2.86293,2.82521 -5.74845,5.74004 -7.89085,9.16442 -2.06438,3.11119 -4.40069,6.02532 -6.9317,8.7682 -2.82968,2.97336 -5.83343,5.77561 -8.66406,8.74961 -2.80524,2.63378 -5.64239,5.22719 -8.4853,7.81708 -3.79682,3.00164 -7.88615,5.48649 -12.46308,7.13694 -2.554,1.21512 -5.53234,2.78945 -8.19226,3.66509 -0.89307,0.294 -1.82544,0.45395 -2.727,0.72077 -0.8174,0.24192 -1.61829,0.53649 -2.42744,0.80473 -3.68304,1.07346 -7.3494,2.23851 -10.99309,3.42773 -3.04716,1.16938 -6.0155,2.57227 -9.23654,3.24123 -2.39859,0.72762 -4.96963,1.08461 -6.99508,2.65486 -2.13027,1.49676 -4.4314,2.71773 -6.6088,4.14619 -1.21646,1.1114 -2.18107,2.46229 -3.48417,3.47533 -0.90953,0.85262 -1.80705,1.73441 -2.82694,2.45816 -0.79024,0.56078 -1.67256,0.98452 -2.45814,1.5518 -0.36606,0.26434 -0.69235,0.57979 -1.03852,0.86968 -3.09169,2.10791 -6.33321,4.19621 -10.13285,4.65439 -1.25052,0.18074 -2.39725,0.44036 -3.46104,1.16517 -2.49551,1.47509 -5.10812,2.72981 -7.9196,3.49108 -4.34797,1.302 -8.56001,3.04826 -12.95912,4.20382 -4.70977,1.05101 -0.20599,0.0855 -4.9073,0.97807 -2.63198,0.49972 -5.24969,1.13129 -7.93668,0.53798 -1.90205,-0.092 -3.79976,-0.35481 -5.70907,-0.3989 -5.71016,-1.9546 1.77125,0.66255 -4.48367,-1.72883 -1.07216,-0.40991 -2.13814,-0.39779 -3.19943,-0.77572 -0.55679,-0.19827 -1.088,-0.46212 -1.632,-0.69318 -1.16173,0.0593 -0.34091,0.084 -1.92625,-0.28647 -0.72494,-0.16941 -1.47782,-0.21408 -2.19421,-0.4166 -4.71332,-1.33244 0.5377,-0.12574 -3.33538,-0.97105 -3.41303,-0.25836 -6.85421,-0.17573 -10.23346,-0.78187 -5.07041,-0.74751 -9.88206,-2.74923 -14.78731,-4.18429 -3.52299,-1.45527 -6.95071,-3.11954 -10.57294,-4.32235 -2.87891,-0.9343 -5.71508,-2.01115 -8.69752,-2.59276 -3.69277,-0.8937 -7.34197,-2.05479 -11.11439,-2.54977 -3.4408,-0.48493 -6.84542,-1.12073 -10.104,-2.3524 -2.29894,-0.53355 -4.59979,-1.05377 -6.86767,-1.71592 -1.83234,-0.23875 -3.66935,-0.28262 -5.51335,-0.2016 -2.44374,-0.20023 -4.85891,0.061 -7.30308,-0.005 -2.0936,-0.11941 -4.20215,-0.35098 -6.20283,-1.01005 -1.97461,-0.68888 -3.96111,-1.33699 -5.97715,-1.88559 -1.89175,-0.40793 -3.65566,-1.56026 -5.61714,-1.5302 -0.80835,-0.1458 -1.69643,-0.17079 -2.48807,-0.38337 -1.50387,-0.40383 -2.94709,-1.05991 -4.41417,-1.56995 -4.37284,-1.98074 -8.80393,-3.84143 -13.0148,-6.15617 -3.227332,-1.73624 -1.947132,-1.08482 -4.79808,-2.49839 -1.044784,-0.51803 -2.917792,-1.71346 -4.239416,-1.3563 -0.234805,0.0635 -0.34812,0.33978 -0.522181,0.50968 -2.160385,0.32872 -4.252651,0.94215 -6.414557,1.24688 z" />
    <path
       style="fill:#264653;fill-opacity:1;stroke-width:20;stroke-linecap:round;paint-order:stroke fill markers"
       id="path35"
       d="m 222.53326,29.990201 c 2.81955,0.296626 5.2286,-0.899419 7.84125,-1.684338 2.51517,-0.755633 3.5986,-0.914969 6.21975,-1.455322 1.17231,-0.183301 2.34837,-0.344044 3.51694,-0.549902 4.52181,-0.796576 2.60219,-0.642954 7.21495,-1.283103 3.498,-0.485445 6.99685,-0.698443 10.52115,-0.854212 5.1737,-0.256306 10.28155,0.448613 15.31652,1.557354 5.02576,1.631388 10.12031,1.775101 15.3447,1.967749 6.60153,0.45869 13.23276,0.637032 19.79486,1.527324 5.44162,1.110972 10.9175,2.062397 16.35091,3.208063 5.89142,1.538337 11.7731,3.127097 17.54308,5.07638 0.9449,0.363214 1.90357,0.692457 2.8347,1.089643 1.81703,0.775081 3.78077,1.798937 5.50813,2.752438 0.95222,0.525624 3.77436,2.163863 2.83137,1.621847 -23.51553,-13.516397 -29.96973,-17.540202 -20.27843,-11.549771 4.26432,2.749997 8.19738,5.955325 12.25056,8.995187 10.80973,7.40679 22.79308,13.549505 34.03065,19.862793 0.94067,0.528471 1.96775,0.886355 2.93951,1.355195 3.03782,1.465628 3.2732,1.65236 6.22824,3.294278 -42.98478,-23.728659 -26.4515,-16.553971 -18.51739,-9.768225 2.21511,1.894507 4.2337,4.005138 6.25311,6.101325 3.76098,4.011688 7.92443,7.607321 11.90437,11.392291 3.22638,3.1706 6.16372,6.63149 8.84507,10.271973 0.80211,1.602565 2.61907,3.072457 3.121,4.814067 -0.25648,0.287337 -0.60798,0.157339 -0.94536,0.107513 12.59455,5.758671 25.04132,11.852162 37.78365,17.276012 0.36906,0.15709 -0.009,-0.80225 -0.0233,-1.20308 -0.0171,-0.46425 -0.0481,-0.92788 -0.0721,-1.39182 -0.0425,-0.52098 -0.10969,-1.04052 -0.12752,-1.56292 -0.0176,-0.51445 0.0584,-1.030674 0.0215,-1.544093 -0.18802,-2.610844 -1.04852,-5.126171 -2.06342,-7.507367 -0.37998,-0.710265 -0.78047,-1.40993 -1.13994,-2.130793 -0.32391,-0.649567 -0.57689,-1.33334 -0.90926,-1.978622 -1.60473,-3.115554 -3.67912,-5.96214 -5.68519,-8.823061 -3.30326,-5.079083 -7.07777,-9.800171 -11.116,-14.306539 -0.98214,-0.894081 -1.91978,-1.839623 -2.9464,-2.682244 -3.24103,-2.660138 -6.88346,-5.060504 -10.50581,-7.166424 C 366.3255,33.836142 373.53034,37.897311 356.01059,28.077117 349.13733,24.101969 342.1404,20.394274 334.85744,17.232353 327.68781,14.455314 320.77912,11.094882 313.98562,7.508486 311.69176,6.28127 309.41962,5.0146794 307.14489,3.7527413 306.7475,3.5322868 306.35316,3.3059332 305.9492,3.0977854 c -0.72717,-0.3746775 -0.66419,-0.3887239 -0.37591,0.028329 -1.48857,2.487265 -3.5737,4.3537907 -2.12159,7.5467986 0.36355,0.799411 1.45449,0.984679 2.17452,1.487453 1.04551,0.730046 2.10016,1.44799 3.12195,2.210889 2.69958,2.015595 4.87659,3.862081 7.49498,6.015305 8.8666,7.708173 17.93736,15.179561 27.31238,22.260652 7.64387,5.54777 14.88927,11.594306 21.50494,18.333845 5.18135,5.384604 9.48041,11.512499 14.06831,17.388165 4.62151,6.060877 10.0689,11.410413 15.48141,16.751758 4.64437,4.588409 9.47222,8.98352 14.22328,13.45913 4.25713,3.97051 7.79945,8.5101 10.851,13.44488 1.99755,3.295 3.1282,6.98203 3.96903,10.71424 1.05722,2.47346 0.23301,5.185 0.70609,7.71941 3.74138,3.54593 0.74442,0.91331 9.82147,6.10873 1.91321,1.09507 3.81817,2.2045 5.72725,3.30675 0,0 17.64611,8.49074 17.64611,8.49074 v 0 c 8.22207,3.08573 3.66564,1.25375 13.59923,5.66708 0.36775,0.14565 0.7895,0.05 1.18425,0.0751 -0.21545,-2.82805 -1.65269,-5.54817 -1.34286,-8.46465 -0.99409,-5.03674 -3.30705,-9.23761 -5.93619,-13.61165 -3.55906,-5.61796 -7.78688,-10.80375 -12.54137,-15.45796 -5.02559,-4.92448 -10.30237,-9.56882 -15.68478,-14.10014 -5.54339,-5.03312 -10.73303,-10.39916 -15.57489,-16.115435 -5.12786,-6.201705 -10.0754,-12.556581 -15.56085,-18.455571 -2.34479,-2.476261 -3.96331,-4.265844 -6.47496,-6.590641 -5.17962,-4.79427 -10.93849,-8.911429 -16.57974,-13.130931 -8.9432,-6.59049 -17.90828,-13.199891 -25.68479,-21.185001 -2.28518,-2.289878 -4.56909,-4.563456 -6.74928,-6.953106 -0.28172,-0.308788 -0.50128,-1.153922 -0.84937,-0.922515 -1.99372,1.325402 -1.1372,5.325228 -3.67347,6.17172 2.46591,1.667929 5.2569,2.663368 7.95601,3.897859 6.64268,2.992356 13.34966,5.834265 20.02275,8.757378 6.05471,2.66473 11.99968,5.580953 17.80369,8.756631 15.42162,8.555428 4.37792,2.45776 -31.17752,-18.137008 -1.21986,-0.706579 2.45137,1.393145 3.66438,2.111425 3.28162,1.943208 6.48723,4.008351 9.51181,6.336835 4.59426,4.435032 8.7437,9.27018 12.66565,14.308091 3.09339,4.020648 6.16501,8.106156 8.6528,12.533623 1.79868,3.057891 4.00687,6.138699 4.63575,9.685537 -0.005,0.317793 0.0139,0.636993 -0.0165,0.953378 -0.0176,0.183023 -0.29088,0.45422 -0.12664,0.536863 64.20625,32.306218 48.29978,24.190658 35.42388,17.182808 -2.14829,-1.59213 -3.8778,-3.672105 -5.6708,-5.636266 -3.30845,-3.806556 -6.40531,-7.802126 -10.08573,-11.271313 -4.15325,-3.98312 -8.60343,-7.631833 -12.72727,-11.647544 -2.31667,-2.247517 -4.56763,-4.580069 -6.97793,-6.728616 -9.98017,-8.896335 -23.18376,-14.172758 -34.20677,-20.927252 -1.0114,-0.52422 -2.02036,-1.053186 -3.0342,-1.572659 -1.07521,-0.550915 -2.16127,-1.080639 -3.2329,-1.638473 -1.10879,-0.57717 -4.3857,-2.399635 -3.30799,-1.766345 7.84846,4.61193 15.75012,9.132732 23.62255,13.703632 0.76578,0.444627 -1.54822,-0.861075 -2.30258,-1.324804 -0.70591,-0.433941 -1.38416,-0.911326 -2.07624,-1.366989 -4.63252,-3.284134 -9.16289,-6.714068 -13.8897,-9.861595 -13.11703,-8.391189 -26.44653,-17.01947 -41.20655,-22.201586 -5.74554,-1.798547 -11.56452,-3.348867 -17.44502,-4.643534 -5.5629,-1.25154 -11.10477,-2.791414 -16.82698,-3.103784 -6.22612,-0.181597 -12.46707,-0.09728 -18.67519,-0.676718 -5.40663,-0.631665 -10.68935,-1.783607 -16.02734,-2.8142883 -4.76009,-0.6381164 -9.55938,-0.7317532 -14.31176,0.084852 -6.93432,1.0002019 -13.88935,1.9849833 -20.74967,3.3967523 -3.76315,0.774013 -2.90645,0.612194 -6.63367,1.322567 -2.42062,0.461346 -5.42027,0.460656 -6.82743,2.819793 z" />
    <path
       style="fill:#264653;fill-opacity:1;stroke-width:20;stroke-linecap:round;paint-order:stroke fill markers"
       id="path36"
       d="m 282.67637,105.96352 c -0.71668,0.11084 -1.43137,0.23542 -2.15004,0.33253 -1.03371,0.13968 -2.08592,0.16184 -3.10644,0.37775 -2.29397,0.48535 -3.86726,1.28446 -6.01298,2.20095 -3.87404,1.65468 -2.86248,1.22263 -6.87999,2.94146 -10.02298,4.71086 -19.66493,10.12555 -29.00005,16.07235 -2.91683,2.08804 -5.80257,3.94085 -8.31179,6.53746 -2.92987,3.03193 -3.35039,4.42375 -5.57082,7.95 -3.41038,5.20544 -1.7527,2.60797 -4.9766,7.79016 -1.6027,2.4166 -3.0319,4.94135 -4.58443,7.38908 -0.72078,1.13641 -1.57861,2.18927 -2.2171,3.37387 -0.70324,1.30473 -1.17223,2.72312 -1.79426,4.06846 -6.03594,13.05486 2.07159,-4.95756 -3.73155,8.01219 -0.51296,1.35979 -1.03797,2.71508 -1.53888,4.07936 -1.47156,4.00794 -1.7323,4.6649 -2.82444,8.93602 -1.24283,4.86045 -1.28755,6.07909 -2.65602,10.9363 -0.4884,1.73353 -1.0801,3.43628 -1.62015,5.15442 -0.40238,1.6685 -0.77944,3.34332 -1.20715,5.00551 -0.39464,1.53369 -0.91773,3.03462 -1.25957,4.58094 -1.21144,5.47995 -1.65392,11.16262 -2.09055,16.74489 -0.72283,7.96423 0.10405,15.93159 0.66649,23.87675 0.16055,1.62715 0.33866,3.25267 0.48166,4.88146 0.23921,2.72453 0.42646,6.51198 0.82754,9.2328 0.66784,4.53041 1.9258,8.89202 3.26764,13.2559 2.24371,6.07026 4.78849,12.14021 8.67604,17.37576 1.05286,1.41793 2.22535,2.743 3.33802,4.1145 3.14746,3.99622 6.34434,8.0113 9.00503,12.36009 2.21087,3.61356 4.05237,7.48665 5.81088,11.33229 2.38648,5.2957 3.83608,10.9547 6.08255,16.29927 1.30212,3.32491 3.15772,6.36687 5.61053,8.95487 3.05614,2.49332 6.38767,4.64875 9.79795,6.62554 10.93369,6.33778 21.88624,12.64298 32.82936,18.96447 3.98769,2.37727 8.59254,2.94566 13.07825,3.72692 5.90858,1.02908 3.01473,0.55097 8.86929,1.46558 8.59639,1.87842 17.32205,2.62495 26.10101,2.74721 6.44607,-0.0361 13.08742,0.66878 19.4301,-0.85678 1.03892,-0.24988 2.0432,-0.62651 3.0648,-0.93977 4.36831,-1.71529 8.8028,-3.40068 13.01202,-5.49263 2.33433,-1.16014 3.5843,-2.02336 5.78387,-3.4073 5.5431,-5.57197 11.44682,-10.75683 17.08257,-16.2323 5.77941,-5.97255 11.30263,-12.18038 16.76152,-18.44619 0.84557,-1.02423 1.69194,-2.0478 2.53671,-3.07269 0.87463,-1.06114 1.71263,-2.15341 2.62146,-3.1854 2.82714,-3.2103 6.0121,-6.09537 8.81476,-9.32806 0.93121,-1.0741 1.78156,-2.21573 2.67235,-3.3236 3.03647,-4.07078 7.69018,-8.08034 9.73197,-12.79461 0.6289,-1.45206 0.89024,-3.03873 1.41939,-4.53002 0.54488,-1.53564 1.20035,-3.02977 1.80052,-4.54466 4.19369,-8.74467 4.49124,-18.56924 5.69194,-28.02886 0.39262,-3.84538 1.08919,-7.71682 1.19887,-11.58927 0.0378,-1.3356 -0.13335,-2.67112 -0.10637,-4.00698 0.0265,-1.31357 0.17784,-2.62164 0.26676,-3.93246 0.0152,-1.58822 0.0303,-3.17644 0.0455,-4.76466 0.0484,-1.67263 0.0647,-3.3465 0.14532,-5.01789 0.08,-1.65765 0.25772,-3.30964 0.33656,-4.96735 0.23769,-4.99743 0.044,-5.50328 0.35336,-10.48785 0.0263,-0.42447 0.79071,-9.06214 0.84128,-9.63551 0.65578,-4.23376 0.90863,-8.5231 1.0838,-12.80006 0.0553,-1.35019 0.15499,-2.70214 0.10621,-4.05258 -0.0611,-1.6905 -0.66674,-6.22477 -0.88447,-7.95797 -1.22529,-6.89963 -3.5803,-13.555 -6.6434,-19.84045 -3.92931,-6.46654 -8.76577,-12.34965 -13.47002,-18.26452 -1.15668,-1.27543 -2.31281,-2.55135 -3.47002,-3.82629 -2.72279,-2.99977 -4.03455,-4.52206 -6.93033,-7.37376 -3.73773,-3.68082 -7.69039,-7.14798 -11.59661,-10.64665 -4.15666,-3.56432 -8.24684,-7.35715 -13.02825,-10.0978 -41.14153,-23.581796 -26.05612,-18.56515 -44.93736,-24.456887 -6.05773,-1.677949 -12.18086,-3.298201 -18.42298,-4.140678 -1.57572,-0.212669 -7.18883,-0.674246 -8.78829,-0.811256 -5.245,-0.349227 -10.51314,-0.899946 -15.73787,-0.05055 -3.50952,0.570553 -4.18698,0.897503 -7.62726,1.926962 -4.10047,1.457521 -8.21156,2.948476 -12.16426,4.78019 -1.11336,0.515939 -2.28325,0.955013 -3.28111,1.669184 -1.33828,0.957815 -2.23345,2.637795 -3.08436,3.984225 -0.84694,0.87261 -2.67262,2.19992 -2.12526,3.8438 1.00487,3.01795 5.94809,7.71874 7.64128,9.54803 0,0 4.96025,3.12991 4.96025,3.12991 v 0 c 2.71059,0.9898 5.38578,2.08252 8.13176,2.96939 5.27692,1.7043 7.11593,2.32712 12.05776,0.62953 1.52935,-0.18489 5.69547,-0.64003 7.11903,-1.01923 1.2275,-0.32696 2.38239,-0.88258 3.57083,-1.33121 4.04731,-1.52785 8.09569,-3.06872 12.38631,-3.79508 1.34915,-0.20929 2.69246,-0.46046 4.04743,-0.62789 6.1494,-0.75985 12.4009,-0.47614 18.56677,-0.14099 8.93942,0.85558 17.89943,2.3223 26.25023,5.75889 16.53352,7.76543 4.33872,2.19909 -29.30553,-17.556 -1.16671,-0.68507 2.4099,1.23383 3.5772,1.91788 3.98966,2.33798 7.65137,5.1803 11.24628,8.07338 7.63323,6.34513 15.06461,13.03464 21.36786,20.73268 4.68184,5.8255 9.13942,11.8282 13.69384,17.75371 1.1651,1.61498 3.4283,4.68892 4.45328,6.37045 2.59146,4.25148 4.34191,8.99426 5.94362,13.68187 2.55903,8.60161 3.9294,17.44485 4.68935,26.38098 0.16014,2.67896 0.48714,7.60469 0.51114,10.25696 0.0617,6.81436 -0.53995,13.64229 -0.81686,20.44459 -0.11381,1.56965 -0.30678,3.13557 -0.34143,4.70896 -0.0307,1.39622 0.14284,2.79059 0.14556,4.18714 0.003,1.28685 -0.14869,2.57166 -0.12987,3.85838 0.0602,4.11694 0.61218,8.23661 0.62882,12.35771 0.0315,4.19815 0.14609,5.23953 -0.25688,9.44932 -0.59869,6.25446 -2.20661,12.31831 -3.72357,18.39529 -2.78274,6.93687 -0.4354,1.93493 -4.1735,8.02945 -0.62115,1.01271 -1.12334,2.09477 -1.73389,3.11391 -2.03129,3.39065 -4.36772,6.58667 -7.24641,9.31474 -6.26734,5.79265 -12.04915,12.09101 -17.60625,18.56148 -5.00661,6.47863 -10.21717,12.83606 -16.50824,18.13102 -1.96902,1.79906 -3.96053,3.5738 -5.90749,5.39672 -3.74588,3.50725 -7.46458,7.08673 -12.04096,9.52575 -5.75191,3.50216 -12.02394,6.24006 -18.62327,7.67281 -7.14523,1.00591 -14.35984,1.4448 -21.5762,1.42229 -2.67618,-0.153 -5.99917,-0.30599 -8.66772,-0.60522 -5.74307,-0.64398 -11.44211,-1.68331 -17.16007,-2.50676 -2.69969,-0.52862 -6.452,-1.21245 -9.10106,-1.93839 -5.08033,-1.3922 -9.93928,-3.45421 -14.52162,-6.04291 52.50772,30.43661 30.3969,18.06481 18.93892,10.60624 -1.01401,-0.68288 -1.53977,-0.96564 -2.40355,-1.81194 -1.72507,-1.69015 -2.68925,-4.00219 -4.03911,-5.96856 -0.86595,-1.44484 -1.78564,-2.85826 -2.60967,-4.32741 -2.40278,-4.28387 -4.24462,-8.85237 -6.42694,-13.24554 -1.44923,-2.78448 -2.92113,-5.76981 -4.63289,-8.40638 -0.95593,-1.47239 -2.04952,-2.8507 -3.06846,-4.28022 -2.95405,-4.14439 -5.97285,-8.23956 -8.89131,-12.40915 -4.31329,-6.67251 -9.26949,-13.02975 -12.17358,-20.504 -0.47229,-1.32516 -1.00125,-2.63147 -1.41686,-3.97549 -0.94656,-3.06105 -1.43584,-5.5718 -2.01385,-8.72499 -0.83509,-4.55564 -1.56831,-9.15446 -1.42151,-13.80467 0.0623,-4.47178 0.003,-4.27278 0.27623,-8.61564 0.0801,-1.27382 0.23449,-2.54301 0.2862,-3.8183 0.14425,-3.55782 -0.12576,-7.12312 -0.16189,-10.67941 -0.0736,-5.65329 -0.014,-11.23486 0.70474,-16.85237 0.20074,-1.56896 0.33135,-3.15283 0.67258,-4.69733 0.35487,-1.60629 0.94003,-3.15291 1.41004,-4.72936 0.54605,-1.67194 0.97816,-3.3855 1.63815,-5.01583 1.5321,-3.78463 3.09817,-5.99504 4.97171,-9.59524 2.43961,-4.68798 1.84907,-3.74954 3.64284,-8.46334 0.50001,-1.31397 1.02208,-2.61944 1.53313,-3.92916 1.16247,-2.83699 1.98668,-5.10423 3.50983,-7.78338 0.70811,-1.24555 1.61758,-2.36805 2.34255,-3.60386 0.68116,-1.16111 1.22963,-2.39538 1.87111,-3.57887 6.38719,-11.78393 -2.06557,4.13704 4.15153,-7.62842 0.95277,-1.70672 3.37103,-6.14957 4.50347,-7.72754 0.89522,-1.24743 1.94581,-2.37647 2.95921,-3.52996 3.13896,-3.57291 6.44811,-7.03173 10.16529,-10.01081 1.48759,-1.0763 2.92777,-2.22138 4.46277,-3.2289 7.74694,-5.08482 16.45418,-8.45574 25.12482,-11.5853 3.73204,-1.4126 3.53333,-1.36451 7.20768,-2.65231 1.70815,-0.59868 4.22911,-1.31543 5.82449,-2.32182 1.03691,-0.65411 1.69831,-1.80443 2.81221,-2.37041 z" />
    <path
       style="fill:#264653;fill-opacity:1;stroke-width:20;stroke-linecap:round;paint-order:stroke fill markers"
       id="path37"
       d="m 45.999373,266.93609 c 3.609032,-5.69802 6.017428,-12.04559 9.611518,-17.77011 1.988797,-3.16767 10.799182,-15.27922 12.681945,-17.89152 2.668488,-3.46602 5.260054,-6.99264 8.005464,-10.39806 3.005008,-3.72742 6.13614,-7.35159 9.241841,-10.99554 7.836003,-9.19405 13.585389,-15.98339 22.223859,-24.56504 7.86849,-7.81674 17.05606,-15.68736 25.38176,-23.01634 4.04151,-3.4379 8.12882,-6.82268 12.12452,-10.31371 3.82334,-3.34043 7.5181,-6.82586 11.33048,-10.1788 12.95275,-11.39177 26.31829,-22.32734 39.48752,-33.46728 2.8376,-2.33336 5.72844,-4.60344 8.51279,-7.00008 2.698,-2.322318 5.28185,-4.774051 7.92997,-7.153093 9.21245,-8.276388 18.42148,-16.538178 27.88373,-24.52876 1.84525,-1.463021 3.68123,-2.937802 5.53574,-4.389064 4.64038,-3.631366 4.52475,-3.28394 8.59412,-7.015245 3.08589,-2.829528 5.90539,-5.937752 8.83125,-8.928349 2.85454,-2.898562 6.34122,-5.018384 9.99435,-6.753459 1.80574,-0.748202 1.0065,-0.377132 2.41407,-1.0773 -0.27723,-0.184851 0.92395,-0.188756 0.83784,-0.502897 -0.15432,-0.56302 -4.49249,-2.794612 -4.58514,-2.849749 -6.23032,-3.707884 -12.42783,-7.47061 -18.64174,-11.205916 0,0 10.96432,5.978123 10.96432,5.978123 v 0 c -6.1326,-4.018739 -12.21853,-8.109622 -18.39781,-12.056218 -0.46364,-0.296121 -4.27057,-2.50849 -5.18929,-2.442411 -0.30694,0.02208 -0.62503,0.604077 -0.73527,0.760059 -1.18553,1.711295 0.16298,-0.309571 -1.16385,2.003615 -1.88612,3.288267 -3.97165,6.480156 -6.69705,9.147056 -2.11244,2.310522 -3.45177,3.682898 -5.37702,6.160944 -4.34843,5.596994 -7.72391,11.864308 -12.17511,17.386099 -5.4952,6.713217 -11.12413,13.227593 -17.10956,19.51428 -12.87338,13.521327 -1.03243,0.875262 -14.57504,14.565858 -2.49982,2.527133 -4.90474,5.146401 -7.35711,7.719601 -6.30429,6.471736 -10.03216,10.242066 -16.27055,16.882976 -6.68589,7.1173 -11.48493,12.56461 -18.32043,19.63151 -3.47559,3.59326 -7.08319,7.05703 -10.5686,10.64076 -3.59635,3.69781 -7.11702,7.46847 -10.67552,11.20271 -8.67084,8.69019 -15.16823,15.41661 -24.312391,23.69065 -26.546999,24.02089 -0.530826,-0.54227 -25.979978,22.36768 -3.659355,3.29424 -7.167074,6.75345 -10.711006,10.17155 -3.242842,3.12771 -6.432431,6.31017 -9.648647,9.46525 -2.823441,2.85467 -5.671812,5.6849 -8.470325,8.56401 -2.439852,2.51013 -4.752215,5.14451 -7.244089,7.603 -3.759318,3.70896 -7.934808,6.98036 -11.685796,10.69774 -1.640058,1.62536 -2.10058,2.4515 -3.255172,4.17922 z" />
    <path
       style="fill:#264653;fill-opacity:1;stroke-width:20;stroke-linecap:round;paint-order:stroke fill markers"
       id="path38"
       d="m 143.19032,130.75381 c -0.15838,0.9554 -1.32865,1.18066 -1.68329,1.96756 -0.31898,0.70777 -0.22726,1.53594 -0.3451,2.30327 -0.51493,3.35301 -0.81363,6.64863 -1.02471,10.0365 0.28484,12.94583 0.3749,25.89365 0.34286,38.84232 -0.17167,7.21753 0.46823,14.40917 0.77337,21.60875 0.10409,2.45583 0.0865,4.91543 0.16064,7.37234 0.42378,14.04157 0.25182,1.5955 0.35564,15.63563 0.0242,2.62311 0.0104,5.24684 0.0727,7.86932 0.19969,8.41201 0.52509,8.57309 0.34829,16.97173 -0.15685,7.45077 -0.78418,14.91482 -1.17485,22.35665 -0.34231,8.52443 -0.34943,4.59575 -0.01,13.39398 0.0876,2.2718 0.11699,4.54707 0.27948,6.81475 0.17439,2.43381 0.53197,4.85165 0.73072,7.28359 0.27269,3.33658 0.58899,10.04875 0.76203,13.45487 0.71547,6.355 0.62283,12.75562 1.16223,19.12301 0.20872,2.46391 0.57097,4.91322 0.77888,7.3772 0.54316,6.43718 0.53455,9.02479 0.73076,15.48419 0.034,7.5563 0.40022,15.10042 0.93434,22.63579 0.17137,2.41761 0.20799,4.85085 0.55126,7.25009 5.03986,35.22514 -1.15019,-16.44731 2.84744,18.28245 0.12406,2.81607 0.27588,5.63106 0.37217,8.44823 0.3525,10.31363 -0.0267,5.07092 0.46796,15.12123 0.32912,6.68704 0.67147,13.35564 0.87492,20.04879 0.005,6.37176 0.59721,12.77101 0.31229,19.14433 -0.0916,2.04992 -0.37859,4.08647 -0.55306,6.13101 0.45797,1.2799 -0.59248,2.47432 -0.47877,3.71906 0.37936,4.15263 9.93224,6.58671 10.19536,6.72913 0,0 15.679,8.15051 15.679,8.15051 v 0 c 11.47818,4.98348 10.82911,6.82067 9.09282,-1.34028 -0.49961,-2.40037 -1.09802,-4.78085 -1.5379,-7.19289 -1.25272,-6.86924 -1.89218,-13.85197 -3.25672,-20.70475 -0.68007,-4.08218 -1.61077,-9.48087 -2.15398,-13.54486 -1.4342,-10.72975 -2.34575,-21.53034 -3.96531,-32.23808 -2.55402,-36.16728 0.92286,16.67484 -0.50464,-17.11029 -0.10335,-2.44592 -0.55081,-4.86542 -0.77923,-7.30284 -0.70739,-7.54858 -1.12621,-15.12312 -1.4047,-22.69843 -0.0935,-7.27999 -0.18076,-7.93778 0.0335,-15.13931 0.0684,-2.30042 0.29037,-4.59662 0.29399,-6.89806 0.0102,-6.4978 -1.01858,-12.92464 -1.43366,-19.39515 -0.46094,-3.59973 -1.35685,-10.24005 -1.62884,-13.82676 -0.17677,-2.33109 -0.17668,-4.67245 -0.30542,-7.00668 -0.37752,-6.84495 -0.73312,-13.69141 -1.24934,-20.52747 -0.42631,-7.81289 -0.91907,-15.65101 -1.04152,-23.4759 -0.23111,-14.76904 0.25728,-2.12805 0.2436,-16.72997 -0.002,-2.65656 -0.14406,-5.31118 -0.21609,-7.96676 -0.66045,-14.89051 -1.14566,-29.78082 -1.53665,-44.68114 -0.0371,-2.35791 -0.12834,-4.71558 -0.11142,-7.07373 0.0727,-10.126 1.08711,-20.21395 2.39631,-30.24512 0.11562,-3.5557 0.11004,-7.03639 -0.0567,-10.58799 -0.04,-0.85276 0.0874,-1.72749 -0.10645,-2.55889 -0.30599,-1.31227 -1.22589,-2.42058 -1.52902,-3.74209 z" />
    <path
       style="fill:#264653;fill-opacity:1;stroke-width:20;stroke-linecap:round;paint-order:stroke fill markers"
       id="path39"
       d="m 243.99205,313.43638 c 0.28752,-0.78464 0.79547,-1.52096 0.86256,-2.35393 0.26275,-3.26212 -1.16844,-8.13305 -1.83324,-10.96482 -0.70922,-3.021 -1.49738,-6.02364 -2.16734,-9.05359 -2.96212,-13.39646 -2.41345,-11.61455 -4.55924,-26.22127 -1.17565,-13.50061 -2.44356,-22.3524 -1.46186,-36.139 0.75304,-10.57531 3.89284,-24.12201 5.89732,-34.597 3.48484,-18.211 0.60369,-8.9976 6.50237,-23.98565 0,0 -1.74671,-0.97415 -1.74671,-0.97415 v 0 c -5.60308,14.23146 -2.33084,6.83539 -10.04589,22.08539 -4.27594,10.22483 -7.1268,21.80799 -10.30133,32.35497 -1.67634,5.56944 -3.72562,11.03049 -5.18301,16.66119 -1.26092,4.87158 -1.97394,9.86875 -2.96091,14.80313 -1.58432,12.18005 -1.54229,11.45221 -2.82571,22.68269 -0.59634,5.21831 -1.90024,12.34894 -0.70057,17.61298 0.25092,1.101 0.81501,2.10629 1.22251,3.15943 z" />
    <path
       style="fill:#264653;fill-opacity:1;stroke-width:20;stroke-linecap:round;paint-order:stroke fill markers"
       id="path40"
       d="m 235.63248,276.51072 c 0.6216,-1.52727 0.62275,-3.15701 0.84015,-4.76164 0.13664,-1.00848 0.39078,-2.00022 0.49722,-3.01234 0.41802,-3.97491 0.22644,-6.38359 0.17186,-10.6187 -1.17801,-12.36278 -0.17904,-24.70273 2.75241,-36.77048 3.26531,-13.44214 8.8254,-26.22276 14.04769,-38.97685 1.45493,-6.81513 4.09856,-13.32656 5.64733,-20.11708 0.58254,-2.55413 0.43158,-5.27509 1.2766,-7.75477 0.71396,-2.09509 3.83619,-5.75718 5.35458,-7.64848 0,0 -1.7166,-1.02629 -1.7166,-1.02629 v 0 c -0.80423,1.00344 -1.67554,1.95661 -2.41269,3.0103 -1.05675,1.51051 -1.75792,3.27417 -2.96104,4.6709 -1.68205,1.95274 -3.96309,3.33419 -5.62862,5.30105 -3.20489,3.78471 -8.74909,13.19879 -11.14057,17.08493 -1.62648,3.97317 -3.29227,7.93047 -4.87944,11.9195 -4.97483,12.50323 -5.35813,14.05859 -10.20819,26.66135 -3.03448,7.88505 -6.30045,15.68084 -9.25891,23.59473 -1.06905,2.85972 -2.01407,5.7643 -3.0211,8.64645 -0.20986,2.09835 -0.59468,4.18652 -0.62958,6.29505 -0.0543,3.27881 0.6151,5.36662 1.39015,8.44759 0.58743,2.33517 1.17772,4.64688 2.47461,6.71126 z" />
    <path
       style="fill:#264653;fill-opacity:1;stroke-width:20;stroke-linecap:round;paint-order:stroke fill markers"
       id="path41"
       d="m 232.01713,246.37734 c 0.26788,-0.46293 0.65158,-0.87601 0.80365,-1.38878 0.29004,-0.97799 0.28053,-2.02314 0.50342,-3.01858 0.43786,-1.95555 2.58778,-9.53811 2.98934,-10.6842 1.92462,-5.49311 4.09742,-9.80786 6.55712,-15.09975 3.84305,-8.54254 7.68513,-17.0804 11.64182,-25.57092 1.48747,-3.19192 2.83769,-6.45126 4.45862,-9.57751 4.24724,-8.19154 5.50032,-9.48186 10.64683,-16.81819 4.07513,-4.73257 7.06009,-10.20588 9.7401,-15.80675 0.47092,-0.98415 0.72959,-2.07099 1.28376,-3.01078 0.61857,-1.049 1.60886,-1.82881 2.3941,-2.75964 0.22677,-0.14442 1.00485,-0.79834 1.43772,-0.57142 0.35895,0.18817 1.19908,1.07494 0.84957,0.86976 -23.1135,-13.56856 -16.96732,-20.03829 -23.07973,-11.60624 -0.51026,0.57226 -3.08962,3.45225 -3.34104,3.79915 -0.82977,1.14493 -1.49405,2.40155 -2.27375,3.58116 -0.99449,1.50457 -2.0565,2.96385 -3.04811,4.47033 -0.85014,1.29154 -6.4418,10.12203 -7.12016,11.19174 -1.2319,2.09879 -2.60345,4.12163 -3.69569,6.29637 -2.97586,5.92523 -4.3423,10.43434 -6.36644,16.80214 -2.05845,6.47574 -3.83626,12.27094 -5.21124,18.93472 -0.67169,3.25535 -1.09868,6.55645 -1.64803,9.83467 -3.03232,17.4962 -4.91407,35.15877 -7.29742,52.75038 -1.85276,12.06026 -0.94349,24.22228 -0.47942,36.338 0.0801,1.79153 0.26847,3.5815 0.24025,5.37459 -0.0445,2.82919 -0.48473,5.63847 -0.68679,8.46078 -0.23,3.21253 -0.28066,6.40697 -0.37712,9.6248 0.2113,2.09077 -0.13506,4.20319 -0.0234,6.29324 0.0598,1.1195 0.33314,2.15225 0.308,3.27859 0.004,0.55167 0.23827,1.05683 0.33209,1.59027 0.0178,0.10107 0.17287,0.3147 0.0714,0.29945 -0.16246,-0.0244 -0.3107,-0.1069 -0.46605,-0.16035 -0.17741,-0.0745 -0.35483,-0.14904 -0.53224,-0.22356 10.77755,4.82669 21.46297,9.86461 32.33267,14.48007 0.38673,0.16421 -0.44122,-0.71722 -0.69993,-1.04827 -0.3965,-0.50736 -0.84472,-0.97211 -1.26214,-1.4624 -2.67872,-3.14634 -1.55316,-1.7371 -4.12518,-5.35238 -2.75006,-4.06117 -5.17784,-8.38407 -6.82633,-13.01899 -0.52871,-1.48655 -2.25687,-7.41061 -2.62937,-8.66926 -1.3595,-5.44294 -1.9226,-11.05206 -1.68277,-16.65964 0.0931,-2.1772 0.39002,-4.3409 0.5868,-6.51119 0.93668,-10.33084 0.43146,-5.31406 1.6991,-16.40579 0.43739,-3.60004 0.80815,-7.2088 1.31218,-10.80012 0.59224,-4.2199 1.06637,-8.46709 1.97614,-12.63009 1.53568,-7.02712 4.87581,-16.72995 7.46175,-23.47871 1.3229,-3.45251 2.848,-6.82422 4.24194,-10.24868 1.39927,-3.43758 2.75835,-6.89139 4.13752,-10.33709 3.95017,-8.19121 9.15508,-15.61762 14.3935,-23.0054 3.94428,-5.56266 7.95272,-11.01319 12.1694,-16.3725 4.77741,-6.15036 10.13084,-11.87969 15.64584,-17.3778 9.24672,-9.21839 -1.81409,2.23485 7.03632,-7.01744 4.28436,-3.9178 8.23761,-8.21552 12.78737,-11.83902 2.39707,-1.90907 3.78894,-2.76701 6.30632,-4.45029 5.32484,-3.37779 11.58043,-4.7261 17.67889,-5.98922 4.07623,-0.60461 8.20014,-1.70459 12.34753,-1.49492 2.21279,-0.15264 1.36125,-0.4007 -0.19413,-1.54126 -0.37265,-0.27326 -0.72499,-0.57319 -1.08749,-0.85978 -2.71164,-2.08811 -5.45991,-4.12128 -8.14747,-6.24017 0,0 -7.07816,-5.56016 -7.07816,-5.56016 v 0 c -3.76041,-2.46097 -7.62348,-4.68955 -11.58404,-6.817848 -0.51477,-0.253629 -1.03359,-0.499175 -1.54429,-0.760887 -1.13119,-0.579693 -2.00316,-1.557757 -3.12158,-0.677642 -1.3655,1.948565 -6.57651,3.078537 -8.71506,3.869927 -2.90808,0.86961 -5.9037,1.60373 -8.70051,2.80287 -3.05885,1.31149 -5.76701,3.25139 -8.60448,4.95897 -6.86998,5.05874 -13.26963,10.73896 -18.69565,17.35195 -1.11118,1.21125 -2.26972,2.3807 -3.33355,3.63375 -1.06669,1.25642 -2.02481,2.60123 -3.05332,3.8891 -4.86858,6.09628 -9.59935,12.28336 -14.32639,18.48985 -3.1502,4.55149 -4.6556,6.48103 -7.341,11.35776 -5.61304,10.19336 -8.86344,21.45971 -13.36623,32.14221 -1.50294,3.42842 -3.22334,6.76953 -4.50881,10.28528 -1.29944,3.55394 -2.16783,7.25103 -3.23089,10.88269 -1.76772,6.03894 -5.03903,17.88018 -7.17169,23.73738 -1.38891,3.81456 -3.16403,7.47761 -4.68344,11.24208 -1.28806,3.19127 -2.49226,6.41576 -3.73838,9.62363 -1.64311,5.51475 -3.19053,9.90589 -4.01143,15.5823 -1.15166,7.96357 -0.46653,16.09094 0.67559,24.00103 0.24508,1.53341 0.40842,3.08215 0.73523,4.60024 1.33289,6.19138 4.11854,11.87682 7.09098,17.41736 7.99741,16.9432 -10.2777,0.19165 34.77809,20.738 0.23985,0.10938 -0.43126,-0.30327 -0.6469,-0.4549 -0.9351,-0.70193 -1.66127,-1.67302 -2.51954,-2.4879 -0.8632,-1.04632 -1.17103,-1.95498 -1.62306,-3.23489 -0.79464,-2.24997 -1.59642,-4.49401 -1.88008,-6.88428 -0.8543,-4.91158 -1.30048,-9.87933 -1.99379,-14.81664 -0.23934,-1.70438 -0.60514,-3.39225 -0.77268,-5.10518 -0.1755,-1.79425 -0.17004,-3.60161 -0.25506,-5.40242 -0.40277,-5.85741 -0.81,-11.71152 -1.35544,-17.55786 -0.35634,-3.81956 -0.94303,-9.0498 -1.17774,-12.84699 -0.15077,-2.43921 -0.1984,-4.8837 -0.29759,-7.32556 0.0103,-2.69668 -0.0486,-5.39452 0.031,-8.09004 0.26884,-9.09377 1.38187,-18.07373 2.29821,-27.11239 0.31423,-3.09955 0.52587,-6.20891 0.83972,-9.3085 0.32483,-3.20812 0.71746,-6.40901 1.07619,-9.61351 1.82714,-9.51219 3.55347,-19.12142 7.28116,-28.12887 3.15534,-7.62447 7.79723,-14.49287 12.53568,-21.19198 3.83089,-4.9483 7.71408,-9.82054 12.30098,-14.10863 1.06317,-0.9939 2.25451,-1.84197 3.35138,-2.79856 6.88474,-6.00417 -1.81769,1.31549 3.82182,-3.3947 0.45375,-0.31755 0.92505,-0.6114 1.36125,-0.95266 0.33586,-0.26274 1.29937,-0.61057 0.95066,-0.856 -6.98374,-4.91537 -14.42948,-9.13916 -21.64422,-13.70874 0.1741,0.3392 0.41916,0.65054 0.5223,1.0176 0.13469,0.47932 -0.29602,1.12096 -0.46552,1.47181 -0.30232,0.39541 -0.62906,0.77329 -0.90695,1.18623 -0.41989,0.62397 -0.69612,1.34826 -1.18389,1.92075 -0.74272,0.87173 -1.71005,1.53006 -2.47918,2.37859 -4.22467,4.66084 -7.70014,9.9053 -10.0358,15.76747 -1.38547,2.84735 -2.68822,5.73645 -4.1564,8.54204 -6.58235,12.57847 -3.5478,5.85905 -10.62036,18.22297 -4.65267,8.1336 -8.70577,16.6223 -12.66092,25.10848 -2.35869,5.4964 -4.146,9.79195 -6.66683,15.17597 -3.02044,6.45111 -2.60709,4.48418 -4.40862,10.34725 -0.31691,1.03141 -0.73235,2.05614 -0.81916,3.13165 -0.0639,0.79215 0.25091,1.56952 0.37636,2.35428 z" />
    <path
       style="fill:#264653;fill-opacity:1;stroke-width:20;stroke-linecap:round;paint-order:stroke fill markers"
       id="path42"
       d="m 423.17745,113.43113 c 0.14585,0.68139 0.19033,1.39268 0.43754,2.04419 1.13955,3.00329 3.36407,6.34879 4.97084,8.93355 1.4049,2.26 2.85951,4.48878 4.27038,6.74505 5.31023,8.4922 4.05883,6.50395 9.1309,15.26241 6.22099,12.67274 10.61841,26.18328 13.49203,39.99546 0.5825,2.7998 0.9966,5.63202 1.4949,8.44803 1.14457,6.29416 0.9822,12.75918 2.38789,19.01329 0.83185,3.70103 2.41838,7.18604 3.53793,10.8 0.80784,2.04301 1.5555,3.33336 1.01941,5.49737 -0.076,0.30693 -0.5793,1.73248 -0.49374,2.09851 0.11441,0.48949 0.48493,0.88068 0.7274,1.32103 3.16753,1.98579 6.33506,3.97159 9.50259,5.95738 0,0 1.73844,0.98885 1.73844,0.98885 v 0 c 3.33918,1.63878 6.67836,3.27756 10.01754,4.91634 0.4517,-0.0875 0.96646,-0.0164 1.35511,-0.26265 0.7041,-0.44619 1.01049,-2.80387 1.36753,-3.49753 0.25209,-0.48975 0.61752,-0.9147 0.97158,-1.33665 0.43516,-0.5186 0.92762,-0.98629 1.39143,-1.47943 1.31382,-2.56182 2.75388,-4.98994 3.05324,-7.93553 0.65026,-6.39827 -1.20948,-12.77401 -1.7898,-19.08475 -0.90395,-5.59115 -1.78212,-12.00132 -3.31305,-17.46544 -3.38893,-12.09558 -9.36474,-23.25334 -15.52149,-34.11441 -2.37621,-4.62022 -5.07517,-9.79694 -7.35182,-14.48919 -2.86963,-5.9144 -5.12725,-12.26308 -9.37718,-17.38131 z" />
    <path
       style="fill:#264653;fill-opacity:1;stroke-width:20;stroke-linecap:round;paint-order:stroke fill markers"
       id="path43"
       d="m 464.67793,188.59792 c -0.43601,0.53697 -1.02486,0.97982 -1.30801,1.6109 -1.83693,4.09411 -1.22252,11.27436 -1.13448,15.48531 0.2447,11.70425 0.45364,5.05535 -0.4669,17.12447 -1.0539,13.82777 -1.97195,27.72913 -4.05611,41.45287 -1.14758,7.55655 -2.59731,14.07368 -4.14259,21.56884 -8.2891,25.52594 1.69523,-4.45632 -6.72231,18.66071 -0.92527,2.54106 -1.6125,5.16332 -2.4906,7.72106 -1.34748,3.92499 -3.13909,7.07278 -3.10805,11.31591 0.0117,1.59326 0.61319,3.12705 0.91979,4.69057 1.40554,1.76467 2.81109,3.52935 4.21663,5.29403 0,0 5.60553,3.25687 5.60553,3.25687 v 0 c 2.286,0.33186 4.572,0.66372 6.858,0.99557 1.4512,-0.6041 3.08649,-0.88207 4.35359,-1.81232 3.31686,-2.43512 4.61064,-6.26255 6.20803,-9.82011 1.10834,-2.46838 2.34056,-4.89359 3.20801,-7.45656 0.42198,-1.24682 4.98693,-19.09375 5.15934,-19.76379 1.03274,-3.57904 2.22228,-7.11651 3.09823,-10.73711 0.84765,-3.50367 1.45204,-7.06296 2.06753,-10.61477 2.36728,-13.66088 3.77281,-27.46951 4.92741,-41.27722 0.0919,-3.02096 0.0659,-6.04782 0.27566,-9.0629 0.44854,-6.44618 1.72076,-12.79852 2.1412,-19.2522 0.0704,-1.08065 0.18041,-2.16536 0.11976,-3.2466 -0.0448,-0.79829 -0.28944,-1.57267 -0.43416,-2.359 z" />
    <path
       style="fill:#264653;fill-opacity:1;stroke-width:20;stroke-linecap:round;paint-order:stroke fill markers"
       id="path44"
       d="m 449.73166,301.77541 c -0.46688,1.34991 -0.97887,2.68505 -1.40064,4.04973 -0.20631,0.66754 -3.69235,13.0397 -3.7073,13.08567 -2.43829,7.49678 -5.83014,14.57862 -9.19876,21.68458 -1.14102,2.64971 -2.42564,5.24209 -3.42306,7.94912 -1.05974,2.87616 -1.6503,5.9129 -2.74005,8.77781 -1.07676,2.83075 -2.49266,5.52059 -3.74729,8.27711 -2.34789,5.15849 -4.86444,10.23955 -7.18338,15.41111 -0.9738,2.17171 -1.83665,4.39149 -2.75498,6.58723 -3.53432,10.61602 -1.91189,0.83337 3.59061,13.87616 0.82001,1.9437 -1.65691,6.29392 -2.58809,8.194 -0.0935,0.17032 -0.18698,0.34065 -0.28047,0.51097 0,0 1.7342,0.99628 1.7342,0.99628 v 0 c 0.095,-0.17301 0.19004,-0.34601 0.28506,-0.51902 0.83123,-1.69509 2.64752,-6.77215 4.40759,-7.17952 12.64494,-2.9266 6.61989,4.41067 11.94592,-5.12571 3.40082,-7.28388 6.46082,-14.70297 9.88341,-21.9779 1.28416,-2.72957 2.42609,-5.53642 3.92541,-8.15399 1.4876,-2.59708 3.43913,-4.90347 5.01225,-7.44966 1.50933,-2.44296 2.81856,-5.00401 4.22783,-7.50602 1.20131,-2.38497 2.43577,-4.75354 3.60394,-7.15492 1.45783,-2.99684 5.15318,-11.11294 6.67397,-14.14495 7.08784,-14.13108 -0.12086,0.94612 6.16654,-11.70622 0.61866,-1.24495 1.16662,-2.52381 1.74993,-3.78572 z" />
  </g>
</svg>
