<?xml version="1.0" encoding="UTF-8" standalone="no"?>
<!-- Created with Inkscape (http://www.inkscape.org/) -->

<svg
   width="499.55042"
   height="528.52246"
   viewBox="0 0 499.55042 528.52246"
   version="1.1"
   id="svg1"
   xmlns="http://www.w3.org/2000/svg"
   xmlns:svg="http://www.w3.org/2000/svg">
  <defs
     id="defs1" />
  <g
     id="layer5"
     transform="translate(-6.2101416,8.5014507)">
    <path
       style="fill:#264653;fill-opacity:1;stroke-width:20;stroke-linecap:round;paint-order:stroke fill markers"
       id="path45"
       d="m 34.658092,318.45172 c -1.06319,-3.09034 -0.04683,-6.20254 0.306169,-9.31375 0.448153,-3.94993 0.305502,-4.09109 0.284425,-8.4172 0.07982,-6.50794 0.297144,-13.17846 1.782761,-19.55127 0.510384,-2.18938 1.376688,-4.28022 2.059083,-6.42223 2.281242,-7.16073 1.420956,-4.32753 3.366355,-11.20652 1.133371,-4.85482 1.99604,-9.7679 3.070571,-14.63509 0.313313,-1.41918 0.557938,-2.85941 1.00077,-4.24365 1.919838,-4.54141 1.123213,-2.26206 2.421935,-6.82675 1.204127,-6.2942 1.532051,-12.70802 1.109122,-19.09072 0.09103,-6.26395 1.510339,-12.45271 3.736532,-18.29326 0.0016,-0.004 3.845017,-9.06041 3.881442,-9.14624 2.270673,-6.69062 4.687911,-13.37013 7.717706,-19.7615 2.885474,-5.77163 1.489793,-2.88694 4.19002,-8.65261 1.686412,-4.11727 2.314361,-5.58111 3.933649,-9.83449 0.864724,-2.27136 1.508897,-4.6342 2.545701,-6.83235 1.103608,-2.33979 2.451161,-4.56285 3.854233,-6.73632 2.430314,-3.76474 6.142925,-8.26853 8.941443,-11.79019 2.775542,-3.0621 5.356495,-6.29501 8.112182,-9.37437 0.839603,-0.93822 5.601329,-5.94933 6.555849,-7.10331 2.39138,-2.89109 3.01714,-4.1745 4.99938,-7.4043 5.00331,-8.661128 12.42047,-15.428495 20.04024,-21.743981 0.97383,-0.902738 1.97572,-1.776117 2.92149,-2.708213 1.99547,-1.966624 3.85725,-4.064471 5.79633,-6.086722 3.60235,-3.756867 7.26829,-7.446372 10.95639,-11.118758 1.35296,-1.307239 2.70591,-2.614477 4.05887,-3.921717 1.42893,-1.38065 2.79485,-2.829651 4.28679,-4.141952 5.38651,-4.737913 11.41901,-8.810541 17.65327,-12.326302 1.18337,-0.610463 2.37964,-1.196525 3.5501,-1.831389 2.28163,-1.237576 4.46236,-2.657683 6.76077,-3.863821 3.75913,-1.972681 7.66404,-3.597712 11.62457,-5.107272 7.85873,-2.861725 16.0086,-4.832659 24.16104,-6.655451 1.4126,-0.270063 2.84002,-0.471687 4.2378,-0.810188 2.16315,-0.523853 7.8961,-2.385527 9.81797,-2.947844 6.25443,-1.829975 12.5491,-3.434421 18.89669,-4.901246 11.31518,-2.030724 2.32986,-0.475222 13.60599,-2.272509 2.23655,-0.356482 4.45871,-0.808488 6.70442,-1.101836 6.14984,-0.803329 12.39259,-1.197142 18.58156,-1.549672 1.56168,-0.03869 3.28176,0.570316 4.68504,-0.116079 1.83241,-0.8962938 -0.65436,-3.1176451 -1.87861,-4.5533865 0,0 -13.57116,-10.0608486 -13.57116,-10.0608486 v 0 c -3.34577,-1.6342296 -7.64982,-4.0962173 -11.46951,-4.4822269 -1.26195,-0.1275297 -2.47447,0.558646 -3.71171,0.837969 -17.44357,3.4503314 9.5624,-1.8594186 -10.49455,1.9619504 -1.99515,0.3801271 -3.971,0.8605793 -5.97172,1.2101625 -2.285,0.3992539 -4.59524,0.6428371 -6.88136,1.0356342 -2.30004,0.3951903 -11.05528,2.1833223 -13.27576,2.63229224 -6.77423,1.31139456 -13.54324,2.74501186 -20.33642,3.95082146 -3.81387,0.676974 -7.68,1.0354616 -11.49217,1.7219573 -1.3895,0.250221 -2.75376,0.6245718 -4.13064,0.9368578 -0.57274,0.126891 -7.85849,1.7351702 -8.41158,1.8813816 -1.30097,0.3439187 -2.56816,0.805446 -3.85975,1.183086 -4.10974,1.2016235 -8.19126,2.4300995 -12.19067,3.9785045 -4.13421,1.628243 -8.24248,3.227709 -12.28876,5.065615 -2.60759,1.184421 -5.08701,2.187587 -7.49167,3.766814 -1.05711,0.694237 -1.99713,1.552162 -2.99569,2.328243 -5.45163,4.548276 -11.05941,9.004968 -16.80296,13.180018 -1.71931,1.249785 -3.52018,2.384495 -5.24297,3.629483 -1.59889,1.155455 -3.14657,2.380168 -4.71986,3.570252 -4.27518,3.337997 -8.53405,6.695057 -12.7491,10.108943 -1.65708,1.34211 -5.1078,4.123585 -6.71413,5.669052 -0.952772,0.916677 -1.81317,1.924761 -2.719757,2.887141 -6.19663,7.813751 -12.661736,15.422292 -19.521973,22.664637 -1.030878,1.197569 -2.129011,2.340384 -3.092633,3.592707 -2.156338,2.802375 -2.813134,4.314857 -4.529627,7.405704 -3.516375,6.331858 -1.413997,2.646564 -5.511613,9.297848 -1.127094,1.8295 -2.23782,3.66904 -3.356729,5.50357 -1.362478,2.11904 -6.748752,10.53349 -8.083593,12.45207 -1.509388,2.16946 -3.054179,4.31772 -4.703251,6.383 -1.575353,1.97295 -3.438724,3.70903 -4.962408,5.72216 -1.881349,2.48567 -3.879965,6.45843 -5.361715,9.22711 -3.977032,9.56476 -7.302477,19.39903 -11.526443,28.86826 -1.042894,3.22281 -2.003968,6.472 -3.070918,9.68693 -2.001039,6.02952 -4.642212,11.83687 -6.088031,18.04817 -0.272345,1.13332 -0.66455,2.2444 -0.817035,3.39997 -0.129697,0.98288 -0.01705,1.98272 -0.02406,2.97409 -0.0297,4.20056 -0.01654,8.40131 -0.187666,12.59966 0.03043,1.27507 0.02153,2.55169 0.09129,3.82522 0.08042,1.46814 0.354298,2.92605 0.359052,4.39639 0.005,1.53388 -0.196685,3.06174 -0.329996,4.58983 -0.446514,5.11823 -1.08155,10.2208 -1.594564,15.3323 -1.069063,13.15241 0.140114,-1.87356 -0.969384,12.43276 -0.186852,2.40935 -0.217785,4.83702 -0.577058,7.22675 -0.938774,6.24431 -3.157172,12.25481 -4.3354182,18.45022 -0.9561651,4.03305 -1.0369573,3.86814 -1.5333342,7.7071 -0.2562704,1.98198 -0.2896905,3.99202 -0.6154143,5.96378 -0.2305382,1.39556 -0.4803843,1.96362 -0.9135797,3.15616 z" />
    <path
       style="fill:#264653;fill-opacity:1;stroke-width:20;stroke-linecap:round;paint-order:stroke fill markers"
       id="path47"
       d="m 8.5427299,283.84603 c 1.2061669,7.30534 2.8876881,14.52167 4.6483011,21.71469 3.32367,8.44488 6.628664,16.89648 9.861518,25.37649 0.692519,1.81653 1.317485,3.66051 2.082866,5.44755 0.87989,2.05441 1.899737,4.04602 2.849605,6.06903 4.363987,10.04067 8.914021,19.99907 13.339614,30.012 4.020966,7.77955 6.508457,16.19388 9.852994,24.25445 2.259183,4.82209 4.296968,9.8463 7.302903,14.27634 1.050113,1.54762 4.713365,6.18575 5.818019,7.6003 6.340669,7.34646 11.370354,15.66515 17.495956,23.17364 4.752608,5.81381 10.730809,10.30168 16.752819,14.69285 5.687005,4.03457 11.502885,7.88152 17.426235,11.55901 0.94468,0.58256 1.87442,1.19004 2.83402,1.74767 6.48156,3.76648 19.69847,11.98273 29.4021,16.73853 3.6221,1.77521 7.34352,3.32818 11.04741,4.92154 6.84251,2.70596 13.71761,5.33063 20.58213,7.98126 5.75983,2.27218 11.70699,3.99732 17.58959,5.90948 5.07244,1.82389 10.26641,3.22298 15.48503,4.54928 4.61259,1.13409 9.33724,1.21529 14.05285,1.03808 5.58809,-0.44238 11.1673,-0.9765 16.7491,-1.49011 3.42492,-0.0842 6.42046,-1.75855 9.57396,-2.84878 0.87794,-0.30353 4.73432,-1.37419 5.64891,-1.63141 0.93574,-0.18321 1.86393,-0.41046 2.80723,-0.54964 1.02467,-0.15119 4.34832,-0.40799 5.4482,-0.49595 2.19672,-0.17567 4.37015,-0.39775 6.57259,-0.48464 4.98191,-0.20568 9.91497,-0.82133 14.90625,-0.84206 2.80488,-0.008 5.59558,0.37401 8.39896,0.37284 0.68802,-0.0691 1.57197,-0.13131 2.22433,-0.32681 0.56537,-0.16944 1.08573,-0.46984 1.6507,-0.6406 1.61449,-0.48797 3.29699,-0.72268 4.91983,-1.18214 0.98212,-0.27805 1.94326,-0.62549 2.91489,-0.93823 3.18221,-1.03835 6.40553,-1.9071 9.44475,-3.33735 1.03026,-0.48484 2.10636,-0.91256 3.02773,-1.58158 1.09877,-0.79783 1.97886,-1.86003 2.97815,-2.77939 1.0504,-0.96639 2.11385,-1.91849 3.17078,-2.87774 5.4794,-4.25629 11.03805,-8.41169 16.62827,-12.52195 2.19263,-2.37693 5.21812,-3.40227 7.9371,-4.95031 0.80372,-0.4576 1.52298,-1.05089 2.30727,-1.54105 3.02735,-1.76252 1.56476,-0.86484 4.39267,-2.68503 2.45706,-1.44757 4.75723,-3.15889 7.29674,-4.46747 1.96811,-0.92231 1.02391,-0.44919 2.83666,-1.41126 2.79407,-1.5759 5.47891,-3.32236 8.28773,-4.87621 5.05589,-3.00529 10.30963,-5.61854 15.83087,-7.64673 1.1079,-0.29332 5.43111,-1.3933 6.28178,-1.82402 1.56295,-0.79137 3.40979,-2.93731 4.5917,-4.13528 2.63663,-2.67244 2.01336,-2.03727 4.78067,-4.56594 2.31819,-2.3478 4.73736,-4.65345 6.88002,-7.1681 0.90118,-1.05763 1.62455,-2.26404 2.57194,-3.28049 1.75645,-1.88445 4.76177,-4.21875 6.75751,-5.84294 6.41037,-4.75074 12.34098,-10.11025 18.30105,-15.40477 11.79555,-10.98069 -5.69099,5.40875 5.86336,-5.79057 1.01331,-0.98216 2.159,-1.82394 3.14927,-2.82932 3.00308,-3.0489 5.63028,-6.56856 8.22381,-9.96034 0.80772,-1.19318 1.66639,-2.35341 2.42315,-3.57954 1.00597,-1.62993 3.27638,-5.96828 4.22306,-7.63262 1.97893,-3.4791 2.39359,-3.80389 4.20262,-7.36226 0.69513,-1.36733 1.31058,-2.77373 1.96588,-4.16059 3.41297,-6.5038 7.04626,-12.89587 10.65086,-19.29605 0.86221,-1.53091 1.86411,-2.98488 2.65144,-4.55561 0.84849,-1.69275 1.4981,-3.47808 2.24715,-5.21712 3.12812,-7.4661 6.34977,-15.0768 7.90416,-23.06919 0.29482,-1.51588 0.44313,-3.05661 0.66469,-4.58492 0.2471,-6.31022 2.5171,-12.29657 3.23593,-18.53137 0.38316,-3.3234 0.44404,-6.67612 0.6869,-10.01271 0.50335,-7.95016 2.62736,-15.66509 3.68101,-23.53454 0.19702,-1.47154 0.31553,-2.95254 0.47329,-4.42881 0.13806,-1.47626 0.36665,-2.94684 0.41418,-4.42879 0.0567,-1.76707 -0.0655,-3.53535 -0.1021,-5.30295 -0.15217,-7.3478 -0.606,-14.63401 -1.31446,-21.9485 -1.04017,-9.70634 -2.62273,-19.32006 -4.64219,-28.86656 -0.32411,-1.40109 -0.65237,-2.80123 -0.97233,-4.20327 -0.73812,-3.23436 -0.96661,-4.62333 -1.94198,-7.80275 -1.26798,-4.13324 -2.84367,-8.18902 -4.27241,-12.26855 -2.42468,-7.40418 -5.89024,-14.3845 -9.48859,-21.27153 -0.73856,-1.23775 -1.4828,-2.47213 -2.21568,-3.71325 -1.30313,-2.20681 -2.77837,-4.86751 -4.23076,-6.98994 -2.61864,-3.82669 -5.71356,-7.32128 -8.68751,-10.86828 -3.86616,-4.82539 -7.88186,-9.53654 -11.38332,-14.64085 -0.5495,-0.80104 -3.19422,-4.88811 -3.81635,-5.84708 -2.10688,-3.4444 -4.09353,-6.958325 -6.09321,-10.464066 -2.31053,-4.731661 -5.93046,-8.686431 -9.37563,-12.614631 -5.3551,-5.321665 -10.77408,-10.662086 -16.59625,-15.482307 -1.69026,-1.399374 -3.45039,-2.712132 -5.17558,-4.068199 -22.66511,-17.564699 -47.65152,-32.088605 -73.53442,-44.398038 -7.8802,-3.651231 -15.85685,-7.194685 -24.18867,-9.7031238 -4.42749,-1.3329749 -6.03497,-1.5812094 -10.53479,-2.543172 -10.25395,-2.051835 -20.51311,-4.02345833 -30.83705,-5.6863456 -4.41557,-0.6071743 -8.84075,-1.201567 -13.28338,-1.5800062 -1.32137,-0.1125586 -2.64382,-0.2787322 -3.96985,-0.2614235 -1.96264,0.025618 -4.93908,0.5864587 -6.88446,0.9066184 -0.56867,0.4861209 -1.82115,0.71914446 -1.70601,1.45836279 0.1509,0.96885884 5.22318,8.17131211 5.64942,8.79293441 0,0 13.95446,9.7252615 13.95446,9.7252615 v 0 c 2.62954,1.154037 5.2617,2.302138 7.88863,3.462111 9.90698,4.374624 5.25591,3.022271 13.17707,4.729335 16.28355,1.424778 -8.21915,-0.765995 8.57378,0.896235 5.42882,0.537366 10.90201,0.678648 16.28971,1.622195 9.97817,1.388321 19.94743,3.013809 29.74438,5.381513 11.28619,2.970961 22.3554,6.728953 32.73709,12.13569 16.94377,9.19486 18.87025,10.314999 -29.42627,-17.212323 -1.71025,-0.974783 3.35707,2.057343 5.01485,3.118911 5.08094,3.253606 10.05651,6.681145 14.79274,10.422586 6.41015,5.503609 12.68756,11.185857 18.49864,17.325861 3.11457,3.399661 5.90956,7.018275 8.35732,10.930908 0.64079,1.104016 1.22281,2.243405 1.9092,3.319672 2.00493,3.143777 4.48542,5.965037 6.75708,8.909442 2.73824,3.420405 5.53658,6.797047 8.19046,10.284036 2.1998,2.890373 3.3531,4.625753 5.57027,7.487533 0.95643,1.2345 1.95368,2.43684 2.93052,3.65527 5.09108,6.46957 10.58511,12.7741 14.35906,20.13619 3.72656,6.91764 7.67963,13.74093 10.63113,21.04094 3.05511,7.79747 5.52931,15.81482 7.78942,23.87573 2.50879,9.46226 4.69854,19.03953 5.90188,28.76451 0.60491,5.22849 1.19209,10.4101 1.08769,15.68579 -0.12554,6.34339 -0.25419,3.71626 -0.9579,9.80592 -0.16693,1.44453 -0.24374,2.89805 -0.36561,4.34708 -1.02787,9.52148 -1.641,19.08678 -3.08428,28.56285 -0.16152,1.25868 -1.10619,8.44972 -1.19469,9.80064 -0.42334,6.46273 0.51762,13.02389 -0.9365,19.41493 -1.4534,9.44507 -2.41757,19.0078 -5.27569,28.17639 -0.79206,2.08526 -2.93391,7.81388 -3.85694,9.8937 -0.74723,1.6837 -1.61725,3.3102 -2.41675,4.96972 -2.42993,5.04377 -4.76015,10.13212 -7.04925,15.24125 -0.62007,1.4097 -1.28364,2.80105 -1.8602,4.22909 -1.05069,2.60235 -1.80776,5.31782 -2.87833,7.91205 -1.23607,2.99526 -2.23649,4.68017 -3.76645,7.52382 -0.64502,1.19885 -1.28987,2.39781 -1.93481,3.59671 -1.8391,3.00941 -2.29859,3.96049 -4.49373,6.74715 -0.85846,1.08978 -1.8375,2.08031 -2.7055,3.16251 -0.8283,1.03269 -1.51744,2.1752 -2.38073,3.17883 -0.42499,0.49408 -5.12031,5.15785 -5.59757,5.63367 -5.82756,5.27372 -12.18519,9.97765 -17.33945,15.96148 -2.18006,2.07848 -4.24633,4.15875 -6.65399,5.98791 -1.25805,0.95578 -2.68291,1.68039 -3.92645,2.65498 -2.59179,2.03125 -4.68666,4.71071 -7.06071,6.97292 -2.32416,2.3801 -2.0995,2.28259 -4.72062,4.41947 -0.89033,0.72584 -3.73156,2.72281 -4.49281,3.78864 -0.44085,0.61726 -0.46548,1.45704 -0.85008,2.11082 -0.34705,0.58994 -0.87862,1.04973 -1.31793,1.57459 -4.98092,3.31748 -10.544,5.40384 -16.17569,7.35224 -3.22355,1.32507 -6.5268,2.58554 -9.35458,4.67065 -2.99723,2.2004 -5.73885,4.7539 -8.77365,6.91386 -1.31885,0.95141 -2.57919,1.98325 -3.91236,2.91448 -0.75046,0.52421 -1.57359,0.94062 -2.31403,1.4789 -0.73845,0.53683 -1.38596,1.1906 -2.11465,1.74061 -2.53114,1.91053 -2.86837,1.97233 -5.71551,3.58602 -2.17273,1.64335 -2.87579,2.11296 -4.92045,3.90595 -3.52281,3.0892 -6.53721,6.72376 -10.26195,9.59612 -1.20077,0.78578 -2.35051,1.65571 -3.60233,2.35733 -1.20397,0.6748 -2.49923,1.17195 -3.74701,1.76183 -3.8315,1.81132 -7.74837,3.50671 -11.94186,4.29064 -4.74455,0.66832 -9.23532,1.13243 -14.01837,0.55799 -2.27583,0.0767 -4.46258,0.69945 -6.69846,1.08333 -4.81144,0.70863 -9.65568,0.85985 -14.50677,1.11242 -0.10606,0.01 -4.58205,0.42076 -4.63281,0.42843 -3.19243,0.48193 -6.16657,1.86102 -9.29277,2.60305 -4.81219,1.38014 -9.56076,3.00318 -14.2649,4.7146 -4.95274,1.33744 -10.12785,1.98366 -15.2559,1.91306 -4.62715,-0.16673 -9.25565,-0.63952 -13.76176,-1.74316 -4.77434,-1.12623 -9.51522,-2.40233 -14.20786,-3.83117 -5.80971,-1.83946 -11.56198,-3.85477 -17.3131,-5.86879 -6.63165,-2.39116 -13.23296,-4.86717 -19.78295,-7.47434 -3.39316,-1.32718 -6.72519,-2.71957 -9.97122,-4.38264 -1.09843,-0.56277 -4.32664,-2.376 -3.2626,-1.75064 2.27,1.33412 29.48422,17.07071 16.64414,9.64544 -6.12992,-3.72231 -12.14497,-7.62464 -18.09095,-11.6344 -6.32973,-4.36389 -12.60143,-8.91271 -17.91403,-14.5105 C 97.9045,444.09526 91.682323,436.35259 86.228475,428.06586 81.57545,421.35351 76.963102,414.52272 73.603564,407.05289 70.171944,398.85501 67.268641,390.43221 63.39279,382.42825 57.534431,372.20889 51.441733,362.08913 46.973076,351.1521 c -0.812251,-1.95762 -1.561449,-3.9426 -2.436754,-5.87285 -0.882525,-1.94617 -1.921225,-3.81816 -2.833988,-5.75034 -3.664015,-7.75613 -6.914656,-15.78712 -8.385979,-24.28007 -0.867505,-4.04967 -1.288802,-5.40393 -1.668025,-9.44675 -0.350964,-3.74155 -0.217818,-7.5376 -0.974465,-11.24335 z" />
    <path
       style="fill:#264653;fill-opacity:1;stroke-width:20;stroke-linecap:round;paint-order:stroke fill markers"
       id="path48"
       d="m 45.422607,248.31465 c 0.872766,-0.86744 1.859281,-1.63378 2.618298,-2.60233 1.137471,-1.45146 2.028105,-3.08044 3.042157,-4.62066 1.524603,-1.97156 3.029952,-3.95815 4.573809,-5.91467 8.729594,-11.06293 2.792214,-3.37922 12.465429,-15.16687 2.732567,-3.32987 5.405136,-6.70853 8.107704,-10.0628 12.697756,-13.98637 7.904949,-9.03057 21.913024,-23.05759 9.798112,-9.81137 15.370932,-15.35681 25.527122,-24.841 10.07162,-9.40522 15.35586,-13.96833 25.6005,-23.04247 8.45394,-7.51353 15.48017,-13.97579 24.32936,-20.99549 3.69812,-2.93357 7.62197,-5.57322 11.34583,-8.47404 3.56701,-2.77865 6.98462,-5.74455 10.52209,-8.56072 25.38912,-20.212158 -4.67343,4.20255 19.59317,-15.604582 7.93675,-6.767286 16.50314,-12.732312 24.72426,-19.13299 6.13529,-4.776725 12.05649,-9.850891 18.01866,-14.840166 1.75347,-1.398851 3.49813,-2.808812 5.26041,-4.196551 1.6799,-1.322868 3.33756,-2.676176 5.06589,-3.9351 5.30971,-3.867604 11.0817,-7.113861 16.77867,-10.367708 -0.39887,-0.728776 4.71743,-1.423169 4.24419,-3.112528 -0.41525,-1.482338 -1.69227,-2.626556 -2.86934,-3.618656 -3.87269,-3.264113 -8.12552,-6.048499 -12.18828,-9.072749 0,0 -1.67958,-1.08583 -1.67958,-1.08583 v 0 C 271.5954,15.570651 257.87573,7.0201635 252.5191,6.6515048 c -1.53947,-0.1059511 -3.34642,2.4057155 -4.07474,3.215302 -2.95736,3.0092272 -5.93065,6.0297932 -8.99528,8.9295112 -7.50667,7.102716 -0.8777,0.58059 -9.08989,8.060271 -1.63853,1.492378 -3.20169,3.065464 -4.80253,4.598196 -1.63875,1.663641 -3.30939,3.296458 -4.91625,4.990921 -10.39612,10.962919 -19.66127,22.969036 -30.699,33.327597 -15.05559,14.575634 -2.12922,1.913119 -17.19908,17.110968 -3.09795,3.124268 -6.33761,6.109991 -9.34954,9.317273 -3.05187,3.249814 -5.80131,6.773956 -8.83201,10.043526 -5.86418,6.32637 -16.07569,16.38736 -22.10864,22.40472 -23.55994,24.42594 -46.808999,49.29383 -72.954967,71.02273 -3.588251,2.82332 -7.23447,5.57449 -10.764752,8.46997 -5.264393,4.31777 -10.249469,8.96685 -15.468173,13.33973 -1.994732,1.67144 -3.963537,3.38122 -6.06532,4.91587 -1.618081,1.18148 -3.424673,2.0843 -5.075848,3.21906 -0.954468,0.65595 -1.821238,1.43116 -2.731856,2.14675 z" />
    <path
       style="fill:#264653;fill-opacity:1;stroke-width:20;stroke-linecap:round;paint-order:stroke fill markers"
       id="path49"
       d="m 138.02035,124.11939 c -0.26582,0.44516 -0.63691,0.84248 -0.79747,1.33549 -1.61995,4.97439 0.50537,11.13714 1.46831,15.86623 4.13477,20.30619 -0.63216,-2.32604 4.12173,19.99843 2.73685,15.12838 5.68739,30.31236 6.90222,45.66317 0.7368,9.31039 0.55085,13.63422 0.54391,22.92344 -0.12639,3.68098 -0.25278,7.36195 -0.37917,11.04292 -0.23147,3.59796 -0.56251,7.1909 -0.69442,10.79389 -0.14665,4.00532 -4.4e-4,8.01765 -0.14097,12.02319 -0.39577,11.28059 -1.62116,22.52556 -2.67304,33.75717 -0.31893,3.30877 -0.71679,6.61088 -0.95677,9.92632 -0.0397,0.54832 -0.9157,19.01878 -0.94855,19.74633 -0.39854,8.8278 -0.79061,17.65101 -1.03462,26.48435 -0.39233,7.80105 0.37844,15.58032 0.92572,23.35006 0.17986,2.55338 0.23082,5.11779 0.51165,7.66204 1.71347,11.53393 1.01639,5.81439 2.11152,17.15613 1.11504,15.02708 -0.0551,0.68658 1.45566,15.43487 0.68703,6.70692 0.48214,6.57624 1.19844,13.03052 0.37311,3.36187 0.84892,6.7116 1.25042,10.0702 0.92815,4.93037 1.43307,9.9317 2.63304,14.80761 0.34325,0.84576 0.32797,1.78731 0.61278,2.64704 0.14177,0.42793 0.4019,0.80956 0.5519,1.23468 0.25559,0.72436 0.24712,1.49989 0.32957,2.25283 0.32564,0.79348 -0.16655,1.70272 0.0874,2.47088 2.06584,1.28637 0.93553,0.6038 3.1439,1.88751 1.20418,0.69998 2.06079,0.71463 1.09872,1.58734 -0.42092,0.88737 -1.58631,0.44992 -2.3546,0.86725 -0.63541,0.34515 -0.52942,1.23068 -0.66065,1.82243 -0.0533,0.73721 -0.47832,1.61362 -0.42689,2.36121 0.0293,0.42564 0.2315,0.82452 0.28501,1.2478 -0.36257,0.88416 0.58727,1.37404 1.2702,1.70912 8.24105,4.04334 16.50785,8.03398 24.76178,12.05097 -5.45591,-4.41218 -2.51814,-1.99728 -8.792,-7.27053 0,0 -5.49572,-2.80073 -5.49572,-2.80073 v 0 c -6.30624,-1.13171 -3.37608,-0.54384 -8.7994,-1.71851 8.25111,4.32945 16.49087,8.68058 24.75331,12.98834 0.77793,0.40559 1.59086,0.70741 1.1664,-0.38538 0.0214,-0.31745 0.20466,-0.61233 0.21331,-0.93039 0.0221,-0.81151 -0.42465,-1.90402 -0.45253,-2.73823 -0.0893,-0.49402 -0.0637,-1.01072 -0.20755,-1.49171 -0.51163,-1.71125 -2.22684,-2.6112 -2.80101,-4.25684 -0.68862,-1.31662 -0.6862,-1.17547 1.11703,-0.40668 1.93145,0.82346 1.29546,0.5638 3.15262,1.24861 0.35132,-0.92009 -0.39037,-2.11979 -0.23086,-3.08616 -0.15698,-0.92771 -0.5275,-1.82786 -0.63197,-2.76041 -0.0406,-0.36219 0.0552,-0.73535 -0.0133,-1.09329 -0.0868,-0.45283 -0.94359,-2.74684 -1.07189,-3.0991 -2.40485,-5.58867 -5.57022,-10.84803 -7.36355,-16.69752 -2.70175,-8.06566 -4.97818,-16.34888 -6.42835,-24.74105 -0.43943,-2.54303 -0.70791,-5.11269 -1.07812,-7.66672 -0.39205,-2.7047 -0.80576,-5.40623 -1.20864,-8.10934 -2.01465,-19.03787 -0.001,2.05115 -1.12424,-16.60851 -0.1562,-2.59501 -0.49802,-5.17556 -0.72702,-7.76516 -0.70046,-7.92119 -1.24678,-15.85604 -2.06128,-23.76717 -0.4376,-6.55858 -0.80585,-11.26442 -1.01917,-17.8758 -0.32,-9.91818 -0.0424,-19.81401 0.006,-29.73107 0.0168,-3.47899 -0.0469,-6.95791 -0.0703,-10.43687 0.10218,-8.18035 0.10744,-14.45502 0.5133,-22.6596 2.1063,-42.57978 -0.68123,18.46073 2.00917,-23.29214 0.30769,-4.77515 0.22671,-17.65847 0.22572,-22.38515 -0.35319,-11.67971 -0.8308,-23.32434 -2.00333,-34.95748 -1.36697,-13.56236 -1.23394,-9.17337 -2.93567,-22.57363 -0.44915,-3.53677 -0.78933,-7.08652 -1.18399,-10.62978 -0.28467,-6.54274 -0.68722,-11.46809 -0.30067,-17.93507 0.13297,-2.22461 0.61726,-4.418 0.76843,-6.64146 0.20079,-2.95326 0.26664,-6.50288 -0.48389,-9.43959 z" />
    <path
       style="fill:#264653;fill-opacity:1;stroke-width:20;stroke-linecap:round;paint-order:stroke fill markers"
       id="path50"
       d="m 163.14878,134.50647 c 0.25759,-0.33611 0.3767,-0.85845 0.77275,-1.00833 1.30404,-0.4935 3.25688,0.21811 4.28571,-1.21164 0.30071,-0.4179 0.0438,-1.03723 0.17821,-1.53422 0.46651,-1.72519 0.64672,-1.23318 2.4386,-1.56886 3.5093,-10.95631 3.37765,-2.6598 -27.31272,-14.70427 -0.80195,-0.31473 0.23219,1.70774 0.31398,2.56535 0.76868,8.05983 -0.32531,0.60629 1.68049,11.68785 2.15662,15.39754 2.14548,30.97845 2.58009,46.48774 0.14614,5.21484 0.46789,10.42728 0.45204,15.64415 -0.0157,5.18401 -0.36452,10.36167 -0.54678,15.5425 -0.77635,18.02789 -2.66788,35.9926 -4.6109,53.92642 -0.36969,3.4122 -1.03046,6.80112 -1.16139,10.23079 -0.12392,3.2461 0.26607,6.49148 0.3991,9.73722 0.49491,9.41499 -0.31356,6.35986 2.58466,15.01745 0.54742,1.63526 0.99131,3.32952 1.8151,4.84448 0.70509,1.29668 1.81292,2.32967 2.71939,3.49451 0,0 5.24952,2.63561 5.24952,2.63561 v 0 c 0.82081,-0.27566 1.82217,-0.24409 2.46243,-0.82699 0.85585,-0.77917 1.21211,-1.97451 1.74393,-3.00249 3.29543,-6.36989 2.2076,-3.92357 2.8901,-12.20415 1.07165,-13.80999 0.81043,-4.95802 0.0211,-20.31954 -0.96455,-18.77216 -1.41198,-37.61981 -0.27739,-56.3935 2.0041,-29.30148 -0.19859,-1.50649 2.89962,-29.78598 1.56986,-14.32917 1.54023,-28.83178 4.23958,-43.02684 3.21601,-12.16667 0.42352,-0.73922 2.12331,-9.64458 0.12275,-0.64309 1.07157,-1.55565 0.51235,-1.8961 -45.71016,-27.82851 -31.06162,-23.04661 -26.68321,-12.78249 0.74503,0.7958 1.58775,1.51028 2.2351,2.38739 2.4477,3.31646 -0.27344,0.65733 1.6752,3.93714 1.75957,2.96159 2.83228,2.95224 5.13779,5.77809 0.43873,0.53776 0.64818,1.22742 0.97228,1.84112 z" />
    <path
       style="fill:#264653;fill-opacity:1;stroke-width:20;stroke-linecap:round;paint-order:stroke fill markers"
       id="path51"
       d="m 300.22191,118.4858 c -8.30484,5.16034 -20.47417,-18.14771 -32.57031,-16.12115 -2.02061,0.33853 -3.6635,1.21928 -5.5157,2.04007 -3.3676,1.81437 -6.54311,3.89335 -9.53913,6.26956 -1.13486,0.90009 -2.32479,1.74487 -3.34806,2.77003 -1.24059,1.24288 -2.23612,2.7101 -3.41821,4.00873 -1.27734,1.40327 -2.63767,2.72869 -3.9565,4.09304 -3.58094,3.99353 -7.77127,7.46063 -11.22883,11.56906 -1.09436,1.30037 -2.04048,2.71867 -3.04639,4.0886 -3.70361,5.04387 -2.42356,3.21613 -5.76367,8.61821 -2.58938,4.18292 -5.09079,8.42121 -7.39147,12.77067 -0.67696,1.27979 -1.45051,2.51852 -1.97863,3.86656 -0.60675,1.54877 -0.88477,3.20856 -1.4113,4.78639 -0.52907,1.58547 -1.16903,3.13176 -1.75355,4.69763 -1.4814,4.4546 -3.43793,8.73971 -4.91529,13.19525 -1.43609,4.33104 -2.6366,8.7604 -3.99508,13.11809 -1.87407,7.32919 -3.90946,14.65327 -5.03239,22.14899 -0.25376,1.69391 -0.40311,3.40182 -0.60466,5.10273 -0.71067,6.57523 -1.79313,13.10902 -1.90268,19.7362 -0.0593,3.58872 0.10813,5.64033 0.29434,9.20609 0.31052,2.06371 1.08122,7.43137 1.53672,9.4854 0.40134,1.80979 0.97424,3.57759 1.41842,5.37735 0.83139,3.36868 1.38708,6.80187 2.23255,10.16705 0.4592,1.82775 1.04784,3.62051 1.57176,5.43076 1.4877,4.7232 2.113,9.85213 3.5906,14.56683 0.54906,1.75193 1.31273,3.42954 1.93182,5.15797 3.46861,9.68379 -0.32192,-0.20764 3.41906,9.35281 3.46483,7.75808 6.86722,15.55945 10.91829,23.03379 1.90265,3.11196 3.54369,6.45168 5.76254,9.36443 2.4405,3.20371 5.36219,6.10428 8.17327,8.97641 2.75065,2.80034 5.89873,5.2012 9.3123,7.14072 19.62725,11.15184 21.38426,14.84265 36.6616,18.27707 7.66668,1.65356 15.52445,1.63736 23.30518,2.26338 5.71628,0.73742 11.40824,1.64978 17.14576,2.21927 3.61653,0.3898 7.23881,0.69903 10.86904,0.92189 2.04817,0.0169 4.10005,0.36654 6.14703,0.14257 1.19831,-0.13112 2.00976,-0.35897 3.19213,-0.63338 2.90807,-0.85862 5.82625,-1.66963 8.772,-2.38995 0.75046,-0.18351 1.52424,-0.28532 2.2546,-0.5372 0.81894,-0.28243 1.58222,-0.70591 2.37333,-1.05887 2.56998,-1.32814 5.23861,-2.53679 7.51954,-4.35336 0.94403,-0.75184 1.77372,-1.63707 2.66877,-2.44661 4.86102,-4.39656 1.07559,-0.84625 5.93283,-5.48212 1.02659,-1.2355 1.98581,-2.53024 3.07977,-3.7065 1.17865,-1.26733 2.48546,-2.40911 3.72819,-3.61366 1.25925,-1.26102 2.56563,-2.47665 3.77773,-3.78305 3.64373,-3.92719 6.92372,-8.20631 10.20149,-12.43594 0.90995,-1.35582 1.88955,-2.6674 2.72986,-4.06745 0.89146,-1.48527 1.62364,-3.06067 2.45918,-4.5781 3.04242,-5.52537 6.17501,-11.01657 9.36811,-16.4558 3.44036,-5.76841 7.06969,-11.42738 10.30586,-17.31563 0.46936,-0.83181 0.95826,-1.65289 1.40807,-2.49543 1.22704,-2.2984 1.38309,-2.92568 2.69439,-5.16274 1.31293,-2.23985 2.70827,-4.44362 4.03745,-6.67675 2.67073,-6.0252 6.48969,-11.44198 10.08819,-16.9366 0.53152,-0.96059 1.21382,-1.85206 1.59456,-2.88176 0.48285,-1.30585 0.63077,-2.71232 0.97291,-4.06188 0.35671,-1.40708 0.72038,-2.81285 1.12346,-4.20735 1.19369,-4.12973 2.43907,-8.25063 3.66138,-12.37307 1.37917,-3.80024 1.9131,-7.80159 2.58009,-11.76286 0.20787,-1.23449 0.50841,-2.45494 0.65262,-3.69847 0.42079,-3.62868 0.25613,-5.62845 0.1982,-9.35495 -0.11811,-5.08442 0.0861,-10.19198 0.82353,-15.22923 0.16813,-1.14856 1.36635,-6.92259 1.345,-8.20391 -0.0257,-1.54424 -0.47564,-3.05206 -0.71346,-4.5781 -0.86109,-4.96614 -2.91411,-9.55487 -4.7293,-14.21123 -1.65744,-4.25171 -3.1021,-8.54347 -4.87973,-12.74804 -1.63342,-3.53817 -3.1908,-7.14896 -5.30435,-10.43942 -2.08032,-3.23871 -4.48648,-6.30649 -6.6685,-9.4806 -3.50379,-5.2228 -7.26388,-10.2627 -11.58791,-14.83537 -4.05401,-3.84479 -8.49901,-7.36693 -13.34624,-10.1721 -15.37197,-8.89603 -30.79208,-17.70862 -46.18812,-26.562933 -6.79074,-3.683451 -14.30255,-5.560078 -21.88878,-6.696149 -8.09752,-0.667853 -16.21429,-1.044717 -24.33552,-1.247374 -6.88921,-0.121995 -13.76958,0.553346 -20.59269,1.454217 -0.98617,0.167678 -1.99417,0.237133 -2.9585,0.503036 -1.0665,0.294075 -2.07071,0.779618 -3.10614,1.169215 -1.15811,0.435756 -2.3229,0.854149 -3.4745,1.306842 -3.73292,1.46741 -7.44238,2.94986 -11.0923,4.612589 -2.11139,1.172381 -9.82285,3.814787 -9.3171,7.221777 0.6196,4.17398 8.01884,11.23866 9.88866,13.32539 0,0 5.20454,3.35266 5.20454,3.35266 v 0 c 5.60614,2.2119 14.6192,6.25673 20.98556,7.13528 5.12045,0.70662 9.5898,-2.00651 14.15723,-3.69074 0.15303,-0.057 7.24479,-2.70412 7.47023,-2.77639 1.80002,-0.57703 5.70637,-1.54428 7.59683,-1.87255 1.18961,-0.20658 2.40019,-0.271 3.59384,-0.45284 0.90259,-0.1375 1.79472,-0.3365 2.69208,-0.50475 2.18021,-0.36103 3.60349,-0.63264 5.82253,-0.84887 3.4547,-0.33663 6.88875,-0.31897 10.35256,-0.36232 1.10098,-0.0138 2.20117,-0.0649 3.30175,-0.0974 7.82491,-0.13109 15.71851,0.0365 23.40026,1.68238 3.24398,0.74504 4.31563,0.91785 7.47883,1.9346 4.9158,1.58009 9.51755,3.88542 13.98805,6.44777 -13.34158,-7.71872 -26.69572,-15.41577 -40.02473,-23.15616 -1.00188,-0.58181 2.04035,1.09898 3.04266,1.68005 3.74244,2.16958 7.32342,4.63683 10.6429,7.41133 5.77966,4.96936 11.16556,10.34328 16.21658,16.05565 5.81808,6.48264 11.36307,13.28096 15.97771,20.68243 0.98357,1.7064 4.08003,7.03657 4.9272,8.68487 2.91963,5.68061 4.81055,11.79016 6.62668,17.89182 0.28739,1.38649 0.5425,2.78006 0.86217,4.15946 0.3541,1.52801 0.84242,3.02433 1.15866,4.56063 1.37847,6.69674 1.29277,13.59038 0.5923,20.36244 -0.42639,3.57786 -0.65159,5.16222 -0.93717,8.67668 -0.10253,1.26168 -0.12046,2.53009 -0.2499,3.7893 -0.40537,3.94332 -1.28449,7.82353 -1.79793,11.7514 -1.16847,5.2592 -2.61812,11.21689 -4.8657,16.11908 -0.51244,1.11769 -1.21351,2.14154 -1.73739,3.25392 -0.45016,0.95585 -0.78696,1.96109 -1.18044,2.94163 -2.49903,6.06162 -5.22603,12.08985 -9.10696,17.41026 -0.77546,1.49577 -1.63063,3.09572 -2.32415,4.63237 -0.37187,0.82395 -0.66312,1.68337 -1.04921,2.50076 -1.20176,2.54425 -1.47283,2.61428 -2.79522,5.12714 -0.4464,0.84825 -0.83906,1.72372 -1.25858,2.58557 -3.01329,6.05278 -5.51616,12.34402 -8.30901,18.49913 -2.50301,5.73064 -4.91422,11.6018 -8.01545,17.04195 -0.83977,1.47312 -1.80301,2.87266 -2.67273,4.32829 -0.81096,1.35729 -1.57916,2.73968 -2.36874,4.10952 -0.85327,1.40258 -1.64004,2.84784 -2.5598,4.20775 -2.96085,4.37776 -6.57742,8.20053 -10.55538,11.66458 -1.31161,1.14217 -2.617,2.30415 -4.05075,3.28864 -1.45539,0.99935 -3.05947,1.76267 -4.58921,2.64401 -5.75332,3.66178 -11.40988,7.6255 -17.87216,9.96495 -4.28075,1.42969 -8.52356,3.01463 -13.11504,3.05478 -3.10416,0.0185 -6.20695,-0.16978 -9.31022,-0.23822 -3.28591,-0.16009 -6.5648,-0.32066 -9.85644,-0.26528 -5.04709,-0.2455 -10.08837,-0.73641 -15.14584,-0.59176 -7.01868,0.0705 -14.09603,0.0718 -21.00151,-1.34785 -1.20965,-0.33354 -2.43657,-0.60985 -3.62896,-1.00062 -9.33824,-3.06037 -18.92271,-10.81175 18.40686,11.60042 1.15631,0.69423 -2.40627,-1.22362 -3.56374,-1.91592 -3.15238,-1.8855 -3.43462,-2.31514 -6.23434,-4.67184 -2.27376,-2.05833 -3.74296,-3.2834 -5.79712,-5.55237 -3.26426,-3.60561 -5.81804,-7.76312 -8.27903,-11.93424 -4.60929,-7.67929 -9.33209,-15.3208 -12.92036,-23.55156 -1.19351,-2.71012 -2.97082,-6.60492 -3.94775,-9.39599 -0.55279,-1.5793 -0.92848,-3.21566 -1.44115,-4.80844 -1.59533,-4.95649 -3.46405,-9.83367 -4.61796,-14.92615 -0.35116,-1.71456 -0.65824,-3.43875 -1.05349,-5.14369 -1.27127,-5.48375 -1.41698,-4.64589 -2.46671,-10.2101 -0.30981,-1.64214 -0.4794,-3.30787 -0.7517,-4.95665 -1.35018,-8.1752 -0.38478,-1.00502 -1.37934,-9.10491 -0.97033,-9.50644 -1.03355,-19.14195 0.88574,-28.54757 2.02915,-8.8713 3.80442,-17.80894 6.24263,-26.58076 2.34494,-8.94445 5.34728,-17.69697 8.1736,-26.49788 3.80945,-10.77498 -0.63429,1.20319 3.76173,-8.94343 0.56736,-1.30953 0.9493,-2.69273 1.48035,-4.01741 1.79247,-4.47122 3.94502,-8.79893 6.56931,-12.84344 0.2339,-0.33571 5.52265,-7.93375 5.83129,-8.34911 0.99132,-1.33408 2.07548,-2.59691 3.08582,-3.91665 3.17345,-4.1453 6.24043,-8.37874 10.18617,-11.8593 1.42807,-1.25071 2.77113,-2.60573 4.28422,-3.75212 1.4654,-1.11027 3.09146,-1.99087 4.62806,-3.0003 4.32822,-2.84334 8.66499,-5.87971 13.72297,-7.27346 2.77539,-0.46181 3.07703,-0.72194 5.79838,-0.4107 10.01721,1.14564 28.58451,16.51592 -18.23448,-12.44521 z" />
    <path
       style="fill:#264653;fill-opacity:1;stroke-width:20;stroke-linecap:round;paint-order:stroke fill markers"
       id="path52"
       d="m 253.6353,352.41632 c 0.23006,-0.17542 0.62756,-0.24382 0.6902,-0.52628 0.0857,-0.38642 -0.84324,-2.60822 -0.89337,-2.74732 -0.73367,-2.03556 -1.55586,-3.94961 -2.48126,-5.91056 -1.99849,-4.93621 -4.56244,-9.65621 -6.37893,-14.6671 -1.06863,-2.94785 -2.22671,-7.5558 -3.02762,-10.55406 -2.48946,-11.7713 -4.23264,-23.73285 -4.97695,-35.74425 -0.32963,-10.96381 0.52861,-21.90618 1.78901,-32.78883 1.09483,-6.34828 2.29452,-12.67722 3.50153,-19.0046 0.32999,-1.72986 0.56494,-3.47931 0.96598,-5.19409 0.3984,-1.70347 0.95319,-3.36654 1.42978,-5.04981 1.48502,-4.39619 1.93548,-5.61207 3.29583,-10.137 0.63179,-2.10152 1.05789,-4.27002 1.83328,-6.3229 2.24584,-5.94591 5.83585,-11.35365 9.19223,-16.70374 3.652,-7.9614 8.19508,-15.58587 13.74934,-22.37708 1.97739,-2.41776 5.61275,-6.26247 7.78803,-8.60305 2.72282,-2.79777 4.08571,-4.09408 6.57108,-7.04026 1.00285,-1.18879 1.89605,-2.4679 2.91004,-3.64721 3.12772,-3.63764 6.5145,-7.01311 10.05264,-10.2427 3.36241,-2.74617 6.77123,-5.43003 9.9601,-8.3802 2.86449,-2.65007 2.6528,-2.79948 5.75401,-5.06435 0.91047,-0.66493 1.88509,-1.23724 2.82764,-1.85586 2.89679,-1.92659 5.98407,-3.53337 9.00198,-5.25481 0.71654,-0.30611 1.70543,-0.60262 2.22202,0.14486 -0.0334,0.10394 -0.001,0.26581 -0.10027,0.31183 -0.46927,0.21811 -1.05993,0.71283 -1.49219,0.42833 -8.12226,-5.34593 -15.79943,-11.33923 -23.69915,-17.008847 0,0 10.861,6.717687 10.861,6.717687 v 0 c -7.74041,-5.81624 -15.24632,-11.958411 -23.22123,-17.44872 -0.4301,-0.296104 -1.03214,0.209048 -1.50808,0.423861 -0.10895,0.04917 -0.10089,0.216738 -0.15134,0.325107 0.15557,0.79398 -0.16496,1.432174 -0.77912,1.973161 -2.54519,2.114746 -4.29275,4.908458 -6.50121,7.352473 -2.13041,2.427898 -2.23486,2.664608 -4.71807,4.967298 -0.98896,0.91706 -2.05284,1.7512 -3.03949,2.67075 -3.09598,2.88541 -5.84378,6.10443 -8.73364,9.18841 -6.80503,6.87511 -14.18835,13.38167 -18.81844,22.03301 -2.04834,3.24138 -4.04088,6.51864 -6.14233,9.72585 -6.05777,9.24532 -1.41345,1.83391 -7.73374,11.21153 -1.24335,1.84479 -2.39533,3.74974 -3.62098,5.60633 -1.19399,1.80863 -2.42505,3.59252 -3.63758,5.38878 -2.653,5.87222 -5.1338,11.90548 -8.26418,17.54612 -1.074,1.93525 -2.4387,3.70256 -3.47121,5.66025 -2.02968,3.84834 -2.52274,6.09938 -3.78338,10.18751 -0.5103,1.71324 -0.9992,3.433 -1.5309,5.13972 -0.52468,1.68417 -1.1738,3.3303 -1.63801,5.03213 -1.74975,6.41474 -2.33057,13.10322 -2.95744,19.69375 -0.2292,2.13227 -0.96388,8.70285 -1.07857,10.83442 -0.0995,1.84857 -0.041,3.70243 -0.0925,5.55296 -0.0535,1.92324 -0.22271,3.84368 -0.22252,5.76767 1.5e-4,1.50639 0.44486,10.45543 0.5117,11.85867 0.49852,6.32327 1.02814,12.63064 2.06186,18.89512 0.94075,5.7011 1.30028,6.69159 2.59696,12.26739 0.44958,1.93324 0.8883,3.86898 1.33246,5.80347 3.64085,14.66904 -0.8939,-3.3197 2.87032,10.75904 1.295,4.84348 2.34162,9.79031 4.58017,14.32246 1.19743,2.47165 2.48665,4.66946 4.0745,6.91098 0.73597,1.03895 1.95428,2.82721 2.8781,3.74018 0.63602,0.62855 1.37321,1.14572 2.05981,1.71858 z" />
    <path
       style="fill:#264653;fill-opacity:1;stroke-width:20;stroke-linecap:round;paint-order:stroke fill markers"
       id="path53"
       d="m 248.66079,208.59478 c 0.35255,-0.27667 0.7588,-0.49607 1.05767,-0.83002 1.82973,-2.04445 1.53254,-2.57962 3.138,-5.18481 0.83816,-1.36007 1.80579,-2.636 2.7172,-3.94811 3.88464,-5.59251 2.61371,-3.78677 6.85559,-9.45784 5.36485,-7.95665 10.52231,-16.13561 17.11895,-23.16341 3.9911,-4.25196 7.40103,-7.00022 11.79694,-10.79902 2.05606,-1.56525 4.1011,-3.14506 6.16816,-4.69574 5.40711,-4.05634 6.08384,-4.71233 11.82123,-7.97841 4.24571,-2.41692 8.728,-4.3513 13.14406,-6.42333 4.3463,-2.34828 8.58031,-4.84305 12.99644,-7.06005 -0.0645,-0.47813 0.0209,-1.00217 -0.19341,-1.43441 -0.34912,-0.70406 -0.98635,-1.22487 -1.44257,-1.86476 -0.23815,-0.33404 -0.34074,-0.76948 -0.63747,-1.05275 -2.55922,-2.44316 -6.56278,-4.48028 -9.32755,-6.14934 0,0 -6.08121,-4.53901 -6.08121,-4.53901 v 0 c -1.32932,-0.77655 -7.69809,-4.67073 -10.27312,-5.75055 -0.51891,-0.2176 -1.10256,-0.2293 -1.64494,-0.37912 -0.97279,-0.26871 -1.90531,-0.69514 -2.89823,-0.87583 -0.72077,-0.13116 -1.46481,-0.0343 -2.19722,-0.0514 -3.18436,3.13769 -6.54274,6.05814 -9.74724,9.17415 -2.85562,3.15672 -5.56274,6.42538 -8.57419,9.44115 -5.92313,5.93162 -3.47124,3.22627 -10.15808,9.18875 -1.89417,1.68898 -3.72566,3.44697 -5.58849,5.17045 -11.1493,10.37507 -22.21018,21.01533 -30.62842,33.81336 -1.30827,2.23757 -4.62203,7.8434 -5.88022,10.22833 -0.76495,1.44997 -1.41802,2.95642 -2.15151,4.42256 -1.30135,2.60122 -2.09861,3.32696 -2.41727,6.08195 -0.0734,0.63466 0.0808,1.27522 0.12121,1.91283 z" />
    <path
       style="fill:#264653;fill-opacity:1;stroke-width:20;stroke-linecap:round;paint-order:stroke fill markers"
       id="path54"
       d="m 224.03325,305.06664 c -0.48669,0.19677 -1.04132,0.27373 -1.46008,0.59032 -0.4497,0.34 -0.73701,0.85564 -1.06189,1.31638 -0.39195,0.55586 -0.86831,1.08338 -1.08487,1.72813 -1.06137,3.1599 0.15841,6.64252 0.91643,9.68594 1.97509,8.72596 7.17995,16.12347 12.38062,23.22383 2.57948,3.22552 5.42781,6.34709 9.07885,8.37978 7.674,4.27243 14.98901,9.31159 23.10887,12.65999 2.65457,1.09466 -4.26497,-3.84579 -6.39746,-5.76869 0,0 -1.57752,-1.22939 -1.57752,-1.22939 v 0 c -15.61742,-11.38347 -12.3,-8.39531 10.48723,4.27842 0.47849,0.26613 -0.95535,-0.5372 -1.41154,-0.83997 -2.7141,-1.80127 -5.10336,-3.99896 -7.29935,-6.401 -2.47019,-2.77114 -3.69594,-3.99809 -5.87139,-7.04863 -3.33515,-4.67674 -5.59062,-9.92138 -7.57607,-15.28251 -0.25001,-1.10363 -0.56106,-2.19518 -0.75005,-3.31088 -0.64329,-3.79774 -0.40269,-7.90077 -2.24902,-11.39377 z" />
    <path
       style="fill:#264653;fill-opacity:1;stroke-width:20;stroke-linecap:round;paint-order:stroke fill markers"
       id="path55"
       d="m 229.4985,322.86787 c -0.30579,2.22852 -0.60057,4.41555 -0.15676,6.66202 0.78344,3.96561 2.58444,7.77401 4.09891,11.49261 2.61427,4.93069 5.10733,10.15565 9.09126,14.17117 0.55012,0.55447 1.16775,1.03762 1.75163,1.55643 9.80031,8.93902 1.84969,1.82958 31.93064,18.74862 0.34952,0.19658 0.78021,0.31258 1.17649,0.25123 0.47515,-0.0736 0.48801,-1.11785 0.60317,-1.30357 0.1446,-0.23319 0.42003,-0.35315 0.63004,-0.52973 1.30292,-0.63618 2.56272,-0.93888 3.94886,-0.49302 2.07718,0.52501 3.77561,2.59565 5.34559,-0.31775 0.11106,-0.35726 0.43203,-0.71095 0.33317,-1.07176 -0.33807,-1.23385 -5.38792,-6.35321 -5.88053,-6.95103 -3.06675,-3.72172 -4.8936,-6.58443 -7.69113,-10.64058 -3.66071,-6.19208 -5.30376,-8.76197 -8.63854,-15.31074 -1.46134,-2.86973 -2.62418,-5.89049 -4.18055,-8.70982 -2.17416,-3.93845 -4.94348,-7.5379 -6.99806,-11.54003 -15.03015,-29.27734 8.84913,10.84358 -11.5724,-22.23623 -0.80909,-3.07901 -1.61818,-6.15802 -2.42727,-9.23703 0,0 -1.78988,-0.89237 -1.78988,-0.89237 v 0 c -0.31655,2.54264 -0.63311,5.08529 -0.94967,7.62793 -1.15311,2.2676 -3.18367,4.27382 -3.45933,6.80279 -0.34064,3.12494 1.4242,6.14388 1.70683,9.27459 0.2521,2.79241 -0.57386,5.6454 -0.11027,8.41057 0.4781,2.85171 1.95337,5.44334 2.89149,8.17843 1.55805,4.54252 2.97272,9.13335 4.54321,13.67176 2.15555,6.74763 0.90702,3.23243 3.21118,9.10828 0.29197,0.74454 1.79612,4.76231 2.734,5.36743 0.3088,0.19924 0.72653,0.11117 1.08979,0.16675 2.14676,-1.65571 3.0952,-1.08012 4.92419,0.42472 1.08807,1.1011 -0.42004,1.12457 -1.26427,1.1195 -1.53777,-0.54913 -2.83426,-1.42365 -4.22902,-2.26224 -0.32915,-0.19791 -1.32833,-0.77178 -0.99636,-0.57865 28.87026,16.796 37.98499,21.46975 26.46058,15.51175 -5.32522,-3.81841 -9.71712,-8.78876 -12.59863,-14.70604 -0.52338,-1.1876 -1.11741,-2.34651 -1.57014,-3.5628 -0.91327,-2.45358 -1.15749,-3.92202 -1.5945,-6.43858 -0.32606,-1.8776 -0.87203,-3.88955 -0.46476,-5.78711 z" />
    <path
       style="fill:#264653;fill-opacity:1;stroke-width:20;stroke-linecap:round;paint-order:stroke fill markers"
       id="path59"
       d="m 151.17036,438.62461 c 0.0956,1.12186 0.21653,2.24185 0.28675,3.36558 0.34866,5.57928 0.0335,4.21977 0.64797,10.25679 0.63261,6.21499 1.69184,12.38354 2.62846,18.5571 0.72052,4.37521 1.66726,8.71174 2.44186,13.07647 0.3575,2.01443 0.60477,4.03245 1.02135,6.0366 3.5398,13.57728 -17.86876,-2.89856 33.1038,17.95254 0.9993,0.40878 -0.28605,-2.15305 -0.6249,-3.17818 -0.47154,-1.4266 -1.25515,-2.73264 -1.79264,-4.13572 -0.65652,-1.71378 -1.1911,-3.47183 -1.78665,-5.20775 -2.7236,-6.32438 -4.29672,-13.03482 -5.64363,-19.76089 -1.14563,-5.72092 -1.7701,-8.63352 -1.92889,-14.40928 -0.0534,-1.94156 0.13685,-3.88217 0.20527,-5.82325 0.15411,-1.53509 0.59484,-3.06816 0.46233,-4.60527 -0.2547,-2.95444 -1.82635,-5.9249 -3.68411,-8.1546 -1.07077,-1.28516 -2.4167,-2.31348 -3.62506,-3.47022 0,0 -8.20871,-4.20242 -8.20871,-4.20242 v 0 c -1.22947,-0.0568 -2.48738,-0.43946 -3.68842,-0.17053 -4.81785,1.0788 -2.56295,7.59654 -1.84534,10.33485 1.21791,6.28682 1.5615,7.27257 2.17852,13.79186 0.2224,2.34988 0.26261,4.71389 0.44981,7.06684 0.1908,2.39819 1.04875,9.76476 1.0215,12.34343 -0.017,1.60678 -0.33813,3.19591 -0.50719,4.79387 -0.23115,1.24632 -0.25017,2.55142 -0.69344,3.73896 -0.29775,0.79767 -0.88352,1.47411 -1.47944,2.08223 -0.19963,0.20371 -1.06555,0.12264 -0.81534,0.25955 10.68815,5.84856 21.57135,11.33338 32.35703,17.00007 -0.19885,-0.13931 -0.43662,-0.23525 -0.59656,-0.41793 -0.27957,-0.31933 -0.46688,-0.70891 -0.70032,-1.06337 -4.09605,-6.54537 -7.50015,-13.50466 -9.29522,-21.06282 -0.41973,-1.93672 -0.9561,-3.8518 -1.25919,-5.81016 -1.04301,-6.73904 -0.74833,-13.77172 1.19475,-20.33042 0.24199,-0.8168 0.64071,-1.57873 0.96106,-2.3681 z" />
    <path
       style="fill:#264653;fill-opacity:1;stroke-width:20;stroke-linecap:round;paint-order:stroke fill markers"
       id="path72"
       d="m 159.1764,440.92796 c 5.2083,4.26724 1.86352,1.74342 10.41832,7.03374 0,0 1.79471,0.88263 1.79471,0.88263 v 0 c 8.03857,2.91554 4.67207,2.20325 9.86617,3.03723 z" />
    <path
       style="fill:#264653;fill-opacity:1;stroke-width:20;stroke-linecap:round;paint-order:stroke fill markers"
       id="path73"
       d="m 156.02544,395.52698 c 0.12064,1.24519 -0.43826,2.47838 -0.3127,3.7146 0.13658,1.34469 0.56505,2.64437 0.90447,3.95267 1.64579,6.34369 4.21829,12.40009 6.45079,18.55256 4.89462,13.40824 9.08142,27.04819 12.29672,40.95331 0.20797,2.58254 2.08076,8.38876 1.1618,11.01683 -0.12571,0.8677 -1.10971,0.0332 -1.26402,-0.15766 -0.13133,0.96858 0.16882,1.99376 0.18864,3.00229 0.17366,1.34492 0.15071,2.63468 -0.17122,3.94821 -0.13075,0.2665 0.003,0.58001 -0.28431,0.68994 -0.004,0.003 -0.009,0.006 -0.0128,0.009 -0.0388,-1.9e-4 -0.0776,-3.8e-4 -0.1164,-5.7e-4 0,0 31.81296,16.07296 31.81296,16.07296 v 0 c -0.0388,-9.6e-4 -0.0777,-0.002 -0.11648,-0.003 -0.004,-0.004 -0.009,-0.008 -0.0129,-0.0114 -0.22311,-0.29546 -0.1936,-0.6075 -0.28518,-0.96799 -0.26772,-1.36447 -0.3775,-2.70336 -0.15493,-4.08857 0.0298,-0.85476 0.26553,-1.62145 0.31067,-2.43475 -0.0194,-0.20663 0.0636,-0.44698 -0.0501,-0.62059 -0.46343,-0.70749 -1.48316,-1.42383 -1.7622,-2.33949 -3.26227,-4.68062 -6.37697,-9.46453 -8.86825,-14.61439 -2.31179,-4.80858 -3.4989,-7.09837 -5.55442,-12.17778 -3.90822,-9.65764 -6.75429,-19.71407 -9.26434,-29.8121 -1.60211,-7.37572 -1.32555,-5.1616 -2.1124,-12.02553 -0.16293,-1.42137 -0.33343,-2.84299 -0.43066,-4.27036 -0.0767,-1.12542 0.0439,-2.2629 -0.0907,-3.38286 -0.95544,-7.94927 -0.4967,0.53648 -0.69836,-4.01783 z" />
    <path
       style="fill:#264653;fill-opacity:1;stroke-width:20;stroke-linecap:round;paint-order:stroke fill markers"
       id="path74"
       d="m 10.294714,277.53506 c -0.180959,1.14673 -0.8951057,2.13091 -1.1362264,3.25431 -0.5115331,2.38327 -0.4178367,5.11608 -0.4857816,7.50166 -0.1559545,5.47565 -0.152438,4.76123 -0.440882,10.41682 -0.4896451,9.27211 -1.3603986,18.61088 -0.4850254,27.8917 0.1673415,1.77417 0.4668627,3.53339 0.7002941,5.30008 1.8759513,8.24891 3.2531843,16.70235 6.1402623,24.68895 0.545775,1.5098 1.227092,2.9671 1.840638,4.45064 2.899603,7.63246 5.492986,15.37015 8.427281,22.98931 4.081268,7.6328 8.148102,15.28989 12.845695,22.5649 2.741784,4.04843 5.393768,8.19785 8.551225,11.94483 0.449641,0.53359 4.35253,4.8263 4.865089,5.39126 2.322223,2.82412 4.993133,5.34233 7.399824,8.08821 2.343132,2.67337 4.490274,5.53187 6.808664,8.23084 4.639299,5.13431 9.793169,9.75169 15.131221,14.13997 3.172033,2.52662 6.430833,4.97926 9.964737,6.98522 24.569521,13.94649 15.759181,10.25361 27.362831,14.9138 6.32092,2.1414 12.75161,3.97332 19.14266,5.90642 5.79393,2.03334 11.83081,3.13704 17.86111,4.1902 6.06374,0.99007 11.86505,3.0505 17.87905,4.26548 4.83704,0.97087 9.70767,1.65326 14.62587,2.01557 4.91031,0.42715 9.82703,0.77125 14.72011,1.36923 3.26811,0.24095 6.52759,0.58511 9.795,0.83379 1.31584,0.0144 2.60253,0.22613 3.87947,0.50733 0.001,-0.0511 0.0436,-0.12142 0.004,-0.1532 -3.69303,-2.93504 -7.50986,-5.71085 -11.26196,-8.56999 0,0 -3.17233,-2.4482 -3.17233,-2.4482 v 0 c -2.21902,-1.64044 -9.62486,-7.52586 -12.72453,-8.99387 -1.14559,0.01 -2.28758,0.2012 -3.4356,0.23107 -2.586,0.22274 -5.1679,0.49185 -7.7673,0.5024 -4.41367,0.29641 -8.81998,-0.11416 -13.22621,-0.39363 -4.35102,-0.33234 -8.73565,-0.43299 -13.03337,-1.25066 -5.87279,-1.15382 -11.69434,-2.52466 -17.51447,-3.91754 -5.77345,-1.0361 -11.50531,-2.25613 -17.11257,-4.00307 -6.14657,-1.83022 -12.39904,-3.33224 -18.390816,-5.65454 -9.456286,-4.10452 -2.998798,-1.43029 15.954216,9.71208 0.87538,0.51463 -1.78811,-0.96376 -2.6648,-1.47616 -1.77681,-1.03851 -3.77684,-2.33519 -5.46595,-3.4992 -0.95212,-0.65612 -1.88286,-1.34274 -2.82429,-2.01411 -5.753749,-4.42355 -11.372594,-9.06079 -16.465911,-14.24189 -2.506458,-2.7435 -4.997796,-5.51217 -7.329781,-8.40781 -0.736538,-0.91457 -1.389792,-1.89518 -2.143453,-2.79569 -1.210087,-1.44586 -3.619179,-3.89053 -4.912431,-5.22956 -5.013912,-5.43276 -9.74655,-11.14643 -14.011713,-17.18821 -4.576619,-6.97059 -9.246661,-13.96123 -12.198548,-21.8157 -3.418443,-7.6631 -6.352242,-15.53381 -9.395687,-23.35112 -4.17658,-12.43533 1.544894,4.39453 -3.099228,-8.57172 -2.345176,-6.54766 -4.17004,-13.31166 -5.204664,-20.19216 -0.598198,-3.79043 -1.123922,-6.6866 -1.452028,-10.51692 -0.634766,-7.41025 -0.118281,-14.84217 0.942598,-22.18918 0.800527,-4.45918 0.838521,-5.26039 1.987867,-9.49984 0.569163,-2.0994 1.472691,-4.42729 1.858659,-6.60148 0.215596,-1.21447 0.07565,-2.47422 0.357359,-3.68308 z" />
    <path
       style="fill:#264653;fill-opacity:1;stroke-width:20;stroke-linecap:round;paint-order:stroke fill markers"
       id="path75"
       d="m 19.660667,336.26968 c 4.480872,9.36259 8.337245,19.0295 11.833293,28.80078 0.631675,1.86142 1.177204,3.75433 1.895026,5.58425 7.8898,20.11319 -1.910269,-6.56693 5.175539,12.52399 1.756629,4.73279 3.288003,9.54765 4.938176,14.31787 0.574708,1.32812 1.152969,2.65472 1.724124,3.98437 1.302611,3.0325 1.699069,4.17017 3.21088,7.07762 1.613208,3.10246 3.481664,6.02073 5.456861,8.89916 1.993261,2.40739 3.744607,5.11554 6.09285,7.21505 1.159391,1.03658 2.432501,1.93849 3.653497,2.90175 2.667178,2.10416 4.140093,3.23674 6.821669,5.31532 5.637041,4.26909 10.519175,9.40775 15.942725,13.92473 3.215443,2.63795 6.625201,5.02475 9.865756,7.63044 2.236402,1.73396 4.046397,3.92202 6.041767,5.91168 1.09246,1.34813 2.47954,2.39204 3.88427,3.38881 0.87221,0.74367 1.84619,1.34451 2.79549,1.98138 0.0853,0.17414 2.57096,1.45568 1.67071,1.34329 -2.02494,-0.12527 0.47958,0.10934 1.82805,-4.79456 0.0667,-0.24262 -0.44911,-0.22709 -0.67372,-0.34055 -0.38391,-0.19393 -1.52352,-0.79809 -1.15184,-0.58162 2.31633,1.34905 35.66877,20.64519 23.5575,13.6381 -12.35795,-8.47655 -25.85899,-14.84808 -38.881444,-22.11501 -9.280034,-5.11097 -23.617187,-13.32116 18.828904,10.93728 0.9306,0.53185 -1.83722,-1.1049 -2.74359,-1.67707 -0.81567,-0.51491 -4.92439,-3.22349 -5.61322,-3.67661 -3.77933,-2.55071 -7.458292,-5.28769 -10.50655,-8.70557 -1.653298,-1.85378 -2.225876,-2.81193 -3.659814,-4.86985 -4.191874,-6.32564 -9.87629,-11.29521 -15.490367,-16.30057 0,0 -1.771527,-0.92827 -1.771527,-0.92827 v 0 c -2.29522,-0.26435 -10.323642,-2.62271 -11.175299,2.22612 -0.145834,0.83029 0.198587,1.67427 0.297881,2.51141 0.47003,0.9461 0.856026,1.93884 1.410092,2.83831 3.016748,4.89741 7.791631,8.52134 12.255853,11.98863 13.467588,9.52998 28.201981,17.07093 42.490921,25.28517 10.81506,5.97349 32.68458,18.18805 -14.8297,-8.80092 10.24062,5.94901 20.50539,11.8564 30.74461,17.80783 0.58922,0.34248 1.16044,0.71502 1.74032,1.07307 0.38443,0.23736 0.79535,0.9897 1.15261,0.71314 4.81806,-3.72979 4.69803,-3.55938 2.64854,-4.34119 -1.25581,-0.60722 -2.44756,-1.31644 -3.61082,-2.08684 -1.48856,-0.96806 -2.98376,-1.91842 -4.57277,-2.71846 -1.90105,-1.10961 -3.80763,-2.22003 -5.57743,-3.53424 -2.46595,-2.11368 -4.65346,-4.51468 -7.14329,-6.60185 -3.92025,-2.96559 -8.05368,-5.62118 -12.05811,-8.46962 -6.02163,-4.6442 -11.634688,-9.78331 -17.529508,-14.58525 -0.517179,-0.41121 -5.656738,-4.48747 -6.230139,-4.98285 -3.137622,-2.71071 -5.945106,-5.82114 -8.566706,-9.02158 -1.603747,-2.10651 -2.587423,-3.3144 -4.032396,-5.56647 -2.955341,-4.60607 -5.425447,-9.53645 -7.772783,-14.46937 -2.608705,-5.10438 -5.258402,-10.19048 -7.543977,-15.4517 -3.763748,-8.66387 -1.385748,-3.48281 -4.502966,-12.14709 -0.693904,-1.9287 -1.489338,-3.81935 -2.234006,-5.72902 -2.654443,-7.40068 -5.708979,-15.81606 -6.15617,-23.74706 -0.03796,-0.67328 0.07099,-1.34682 0.10649,-2.02023 z" />
    <path
       style="fill:#264653;fill-opacity:1;stroke-width:20;stroke-linecap:round;paint-order:stroke fill markers"
       id="path76"
       d="m 116.28968,472.61029 c 0.36803,0.31556 0.71572,0.65652 1.10408,0.94669 0.74701,0.55814 3.11169,2.09863 3.87991,2.54335 9.05004,5.23902 17.2413,10.08945 26.27489,14.69605 6.37429,3.25819 12.43152,7.0849 18.65969,10.60724 5.34592,3.12758 11.41847,4.70397 17.35667,6.29886 6.48421,2.09989 13.16925,3.32709 19.8329,4.66977 4.28801,1.01517 8.59963,1.92826 12.94414,2.66593 2.61249,0.63368 5.27738,0.79342 7.94834,0.95246 2.07343,0.15543 4.19066,0.22557 6.22301,0.69714 0.21947,0.0775 0.44564,0.13821 0.65843,0.23256 0.52412,0.2324 1.24269,0.66557 1.71476,0.96261 0.36231,0.22798 1.4227,0.95223 1.07518,0.70227 -34.36669,-24.71884 -20.39272,-26.7897 -34.89683,-24.48606 -2.56829,0.0915 -5.13207,-0.20602 -7.66103,-0.62561 -4.11372,-0.45685 -7.7811,-2.40564 -11.58395,-3.87374 -5.14464,-2.27339 -10.55297,-3.61567 -16.03245,-4.77124 -7.60908,-1.73578 -15.04753,-4.11585 -22.53323,-6.30419 -2.05739,-0.59487 -3.02493,-1.09072 -5.01115,-1.07909 -0.36265,0.002 -0.70936,0.1816 -1.07199,0.18582 -0.38075,0.004 -0.93235,-0.48501 -1.13104,-0.16018 -0.19903,0.32538 0.33962,0.72385 0.65515,0.93816 3.63935,2.47194 7.42804,4.71653 11.14206,7.0748 -1.08912,-0.61367 -2.17824,-1.22734 -3.26737,-1.84101 0,0 -3.4545,-1.61196 -3.4545,-1.61196 v 0 c -0.90684,-0.10875 -1.81369,-0.2175 -2.72053,-0.32624 4.49092,2.96813 8.98374,5.9334 13.47277,8.90439 5.50937,3.64629 11.28121,7.1426 17.45707,9.57093 1.13941,0.44802 2.33685,0.73144 3.50527,1.09716 7.14222,1.92767 14.37431,3.48731 21.49417,5.49433 6.11846,2.05396 12.12031,4.41381 18.07451,6.9035 4.34641,1.84425 8.88733,3.13025 13.45258,4.32095 3.36909,0.70967 6.75586,1.40135 10.20736,1.53556 14.61981,1.67736 1.17034,0.28106 -32.57066,-24.48078 -0.53311,-0.39124 1.06448,0.79107 1.53975,1.25085 0.4176,0.40401 0.36685,0.26103 0.36787,0.64656 -0.99932,0.63846 -3.3264,0.35234 -4.45385,0.40997 -2.34022,-0.11954 -4.64757,-0.53513 -6.99445,-0.54639 -3.64311,-0.33164 -7.25446,-0.93877 -10.90417,-1.20042 -5.54766,-0.50733 -11.09263,-1.1984 -16.51322,-2.51909 -5.15421,-1.39301 -10.4145,-2.57458 -15.10779,-5.22203 -5.83782,-3.08734 -11.5755,-6.35973 -17.37354,-9.52064 -6.61743,-3.55342 -20.51136,-11.8068 8.67719,5.24042 1.45464,0.84957 -2.93642,-1.65373 -4.36883,-2.54026 -0.58369,-0.36126 -1.16348,-0.7288 -1.74522,-1.0932 z" />
  </g>
</svg>
