<svg width="70" height="70" viewBox="0 0 70 70" fill="none" xmlns="http://www.w3.org/2000/svg">
<path d="M4.9639 38.7041C5.8254 38.3634 5.80508 38.4686 6.56261 37.5133C7.68012 36.104 9.32472 33.1541 10.1609 31.9338C13.5005 27.0599 13.7272 27.1379 17.8556 22.5736C19.3993 20.9974 20.9193 19.3959 22.4867 17.8448C23.9342 16.4124 25.3802 14.9757 26.8988 13.6244C28.2111 12.4568 29.5942 11.3764 30.9729 10.2939C33.0604 8.65494 34.8522 7.38849 37.0236 5.9446C37.6732 5.51263 38.3374 5.10457 38.9942 4.68455C38.7672 4.18308 41.0268 3.91194 40.8866 3.08094C40.8144 2.65357 40.3138 2.44718 40.0274 2.1303L38.8264 1.33545C38.3382 1.15903 37.8788 0.802562 37.3616 0.80618C36.7288 0.810606 35.805 2.205 35.5769 2.48781C33.7556 4.92551 31.8933 7.31159 29.9157 9.61816C28.8175 10.899 27.7248 12.1865 26.5753 13.4182C25.1956 14.8967 23.7452 16.3028 22.3309 17.7459C20.7866 19.3217 19.2434 20.8986 17.6996 22.475C13.3241 26.9092 13.2932 27.1431 8.72175 31.0291C6.67018 32.7731 5.19738 33.7464 3.31492 35.4466C2.40279 36.2704 2.55978 36.0766 2.1709 36.8476L4.9639 38.7041Z" fill="#264653"/>
<path d="M18.2646 18.7407C18.4069 19.2954 18.5382 19.8531 18.6913 20.4047C19.5504 23.5002 19.992 24.5368 20.6285 27.9551C21.0263 30.0918 21.3667 32.242 21.6168 34.4026C21.882 36.6932 21.9862 39.0008 22.1734 41.2997C22.3534 43.5098 22.5368 45.7196 22.7185 47.9295C23.3893 52.5327 23.2318 57.1875 23.6431 61.8101C23.7174 62.6456 23.7852 63.4852 23.9453 64.3077C24.046 64.8246 24.2631 65.3098 24.422 65.8109L25.276 66.2329C25.1909 65.7736 25.0966 65.316 25.0208 64.8549C24.6565 62.6406 24.4465 60.9398 24.1135 58.6515C23.076 51.5227 23.5761 55.8754 22.8821 48.0139C22.8303 47.3846 21.8056 34.9614 21.7805 34.4869C21.6857 32.6947 21.6147 26.8887 21.658 24.5668C21.6741 23.7026 21.7365 22.8401 21.7757 21.9768C21.7829 21.5032 21.7901 21.0297 21.7973 20.5562L18.2646 18.7407Z" fill="#264653"/>
<path d="M48.7538 15.6468C49.1889 15.011 49.7725 14.2803 49.4402 13.4234C48.8 11.7719 45.217 10.5557 44.6709 10.3987C44.0157 10.2104 43.3273 10.6167 42.6555 10.7257C40.3381 11.8561 39.283 12.1644 37.3006 14.1288C35.2066 16.2036 33.032 19.4707 31.7311 22.0919C30.9165 23.7334 30.097 25.4071 29.6601 27.1962C29.195 29.1001 29.2558 31.1014 29.0537 33.0539C29.4185 34.9704 29.5255 36.9592 30.1482 38.8032C31.1724 41.8362 33.4713 45.5432 36.0928 47.4327C37.5641 48.4932 39.2493 49.2739 40.9805 49.7574C44.8923 50.8499 46.3099 49.9055 49.9899 48.8536C53.0873 46.597 54.6687 46.0809 56.3133 42.2929C56.9895 40.7354 57.3472 39.0211 57.5065 37.3216C57.8394 33.7687 57.2026 30.302 55.5367 27.1643C54.7291 25.6434 53.4912 24.4136 52.4684 23.0383C51.0868 22.0129 49.8219 20.7938 48.3236 19.9621C45.5132 18.402 42.3553 17.5969 39.2037 17.299C38.0691 17.1918 36.9252 17.3101 35.7859 17.3157L35.9338 17.4268C37.0725 17.4221 38.2159 17.3047 39.3498 17.4127C42.0048 17.6657 45.4384 18.4199 47.8068 19.7504C49.2051 20.536 50.3707 21.7006 51.6527 22.6757C52.6568 24.0317 53.8747 25.2439 54.665 26.7437C57.0469 31.2638 57.3942 36.9352 55.2006 41.6129C53.5108 45.2161 51.9288 45.8678 48.9735 48.1345C45.2478 49.3358 44.3777 50.1545 40.3705 49.2577C39.0167 48.9547 37.6663 48.4371 36.5286 47.6197C33.6438 45.5472 31.4616 42.2805 30.3126 38.8857C29.6892 37.0437 29.5813 35.0564 29.2156 33.1418C29.4586 31.2152 29.4281 29.23 29.9446 27.362C30.4324 25.5978 31.2832 23.9478 32.1934 22.373C34.4886 18.4016 37.845 15.0652 41.9694 13.2168C42.882 12.8078 43.8748 12.6257 44.8275 12.3302C46.9149 12.2984 48.0309 12.7941 45.865 11.2263C45.5362 10.9883 46.5028 11.7475 46.7377 12.0841C47.2926 12.879 47.3313 13.8083 47.2059 14.7315L48.7538 15.6468Z" fill="#264653"/>
<path d="M18.1118 2.39607C18.0713 2.3902 18.0307 2.38433 17.9902 2.37846C17.9568 2.37784 17.9231 2.38084 17.8899 2.37662C17.8495 2.37148 17.8006 2.32223 17.7703 2.35049C17.7451 2.3741 17.7985 2.41506 17.8176 2.44422C18.1499 2.9509 17.6786 2.15652 18.0845 2.86027L18.7533 3.29726C19.0369 3.45751 19.3042 3.65769 19.5953 3.80239C19.769 3.88875 19.9697 3.92778 20.1474 4.00544L18.1118 2.39607Z" fill="#264653"/>
<path d="M17.3365 3.56249C17.1854 3.73562 16.9885 3.85379 16.8241 4.01067C16.5695 4.25359 16.3429 4.52607 16.1015 4.78299C15.4079 5.52127 15.9079 4.97783 15.17 5.79021C14.025 7.23018 12.771 8.56854 11.5374 9.92566C10.4368 11.1067 9.62211 12.4213 8.85965 13.8474C8.73876 14.0926 8.62106 14.3396 8.49698 14.583C8.35919 14.8534 8.2268 15.1273 8.07409 15.3889C7.51136 16.3532 6.7927 17.214 6.12165 18.0969C5.55087 18.8618 5.00554 19.6397 4.50279 20.4543C4.38426 20.6463 4.2578 20.8335 4.14979 21.0321C4.02107 21.2687 3.91217 21.5163 3.79336 21.7584C3.36497 22.5691 2.88637 23.3502 2.37759 24.1091C2.22661 24.3343 2.06456 24.5514 1.91445 24.7773C1.53743 25.3444 1.49519 25.4408 1.16317 26.0228C0.875945 26.6042 0.530475 27.1651 0.330721 27.7893C0.113952 28.4666 0.0566111 29.1673 0.00435333 29.8729C-0.0162745 31.2498 0.0309955 32.6466 0.263566 34.0063C0.307723 34.2645 0.36855 34.5193 0.421043 34.7758C0.860043 36.2961 1.14235 37.8546 1.39558 39.417C1.49725 40.1598 1.66768 40.8892 1.81357 41.6232C1.86485 41.8811 1.90365 42.1418 1.95908 42.3988C2.08395 42.978 2.2064 43.3862 2.3647 43.9557C2.88883 45.2236 3.33801 46.5237 3.87873 47.7845C4.17801 48.4823 4.38823 48.9063 4.71258 49.5864C5.32288 50.7482 5.85376 51.9648 6.54312 53.0813C6.66756 53.2828 6.80561 53.475 6.93685 53.6719C7.80466 54.9372 8.8591 56.041 9.8886 57.1621C10.8543 58.2071 11.8031 59.2691 12.7887 60.2942C14.0334 61.4632 15.3566 62.5406 16.7631 63.4927C18.6601 64.6239 20.508 65.9108 22.5334 66.8052C23.0682 67.0414 23.6134 67.2466 24.1616 67.4464C24.3295 67.5005 24.4961 67.5587 24.6652 67.6085C26.7417 68.2202 23.5566 67.2497 25.7215 67.9023C26.2702 68.0677 26.8123 68.2558 27.3564 68.4363C28.553 68.801 29.7388 69.2021 30.9505 69.5104C32.2324 69.8223 33.5438 69.9121 34.8551 69.9599C36.2812 70.0711 37.7009 69.9362 39.1128 69.7374C40.868 69.418 42.6152 69.0596 44.3572 68.671C46.0661 68.291 47.7207 67.7811 49.3339 67.0862C50.6027 66.489 51.8872 65.928 53.1578 65.3349C54.4991 64.7659 55.6143 63.7992 56.7952 62.9544C57.0065 62.8043 57.2173 62.6534 57.4291 62.5042C57.6321 62.3612 57.8418 62.2279 58.0397 62.0775C58.8243 61.481 59.5528 60.7954 60.2715 60.1177C61.3426 59.2082 62.1938 58.0829 63.0599 56.9754C64.1261 55.7217 64.891 54.2569 65.6449 52.7926C65.7665 52.5503 65.8923 52.3102 66.0096 52.0657C66.2985 51.4633 66.3931 51.2059 66.6691 50.5853C67.0198 49.7967 67.3899 49.0177 67.7598 48.2387C68.397 46.7901 68.7706 45.2419 69.2873 43.7471C69.6934 42.6284 69.8508 41.4437 69.9492 40.26C70.0648 38.839 69.9631 37.4063 69.8446 35.9885C69.6642 34.6341 69.4581 33.284 69.2915 31.9276C69.2517 31.5028 69.1644 31.0851 69.11 30.6625C69.0833 30.4553 69.0708 30.2464 69.0451 30.0391C68.977 29.4904 68.8719 28.9476 68.7753 28.4039C68.6427 27.8746 68.6366 27.3169 68.4768 26.7951C68.4447 26.6903 68.2186 26.075 68.183 25.9773C67.8962 25.0057 67.415 24.1235 66.9583 23.2307C66.6625 22.6911 66.4216 22.1188 66.125 21.5798C65.761 20.9181 65.3534 20.2762 64.9608 19.6324C64.1399 18.3037 63.2595 17.0148 62.4008 15.7117C61.7822 14.7365 61.1391 13.7801 60.4788 12.8349C59.8478 11.9583 59.1598 11.1259 58.4657 10.3024C57.7638 9.46318 56.9593 8.73034 56.1168 8.04753C53.3676 6.07884 50.4617 4.33123 47.455 2.81748C46.2222 2.19148 44.9318 1.70136 43.6209 1.28366C42.1777 0.829985 40.6999 0.533532 39.2155 0.27083C37.7466 0.0167179 36.2562 -0.0260886 34.7706 0.0122058C34.5331 0.0268265 34.2937 0.0221562 34.058 0.0560681C33.7919 0.0943464 33.5328 0.173096 33.2695 0.228183C32.9726 0.290314 32.6749 0.348555 32.3774 0.40771C31.45 0.592113 30.526 0.777876 29.6043 0.991147C28.6723 1.24232 27.7235 1.43614 26.8019 1.72866C26.4304 1.8466 26.0677 1.99283 25.6977 2.11574C24.8343 2.40247 23.9637 2.66502 23.0972 2.94123C21.6368 3.491 20.1786 4.0478 18.7402 4.65701C18.2851 4.84977 17.8232 5.028 17.3809 5.25047C16.9909 5.44666 16.4792 5.53187 16.2472 5.91099C15.993 6.32655 16.1359 6.88788 16.0802 7.37632C16.0224 7.85871 15.9645 8.3411 15.9066 8.82349L16.5178 9.22345C17.1822 9.14581 17.8467 9.06817 18.5111 8.99054C19.2246 8.96091 19.9505 9.04246 20.6515 8.90165C21.086 8.81435 21.4553 8.51765 21.8541 8.31895C22.2744 8.10957 22.6849 7.87924 23.1086 7.67749C24.5127 7.00896 25.965 6.44539 27.4561 6.02243C28.4309 5.73247 29.1463 5.50379 30.1331 5.27221C30.5545 5.17331 30.9822 5.10509 31.4046 5.01067C32.352 4.79887 33.283 4.51396 34.2342 4.31938C35.4686 4.05831 36.7071 3.77109 37.9664 3.6723C38.271 3.64841 38.5771 3.65157 38.8822 3.63641C39.1068 3.62525 39.331 3.60771 39.5554 3.59336C41.0062 3.56952 42.456 3.675 43.8893 3.91332C45.3706 4.18607 46.839 4.55323 48.2737 5.02265C49.6091 5.51392 50.9166 6.07423 52.1847 6.73127C52.3791 6.83438 52.5751 6.9346 52.7681 7.04061C52.968 7.15045 53.5591 7.49685 53.3635 7.37876C51.838 6.45747 50.3064 5.54686 48.7779 4.6309C48.9682 4.748 49.1601 4.86226 49.3487 4.9822C49.5332 5.09953 49.7159 5.21985 49.897 5.34263C50.0658 5.45699 50.2312 5.57655 50.3982 5.69351C51.2663 6.34269 52.0966 7.04274 52.8305 7.85366C53.5647 8.66204 54.2516 9.51247 54.9363 10.3658C55.6795 11.3439 56.3966 12.3435 57.1181 13.3387C58.0361 14.6329 58.9656 15.9202 59.7973 17.2767C60.4873 18.4269 61.1547 19.5924 61.7458 20.801C62.1881 21.6983 62.657 22.583 63.0448 23.5072C63.0941 23.6409 63.1434 23.7747 63.1927 23.9084C63.2361 24.0355 63.277 24.1636 63.3228 24.2898C63.5289 24.8565 63.7971 25.3986 63.9291 25.9932C64.0825 26.5514 64.2231 27.1118 64.3582 27.675C64.4105 27.893 64.4711 28.1092 64.5131 28.3296C64.5928 28.7478 64.6144 29.1762 64.698 29.5937C64.9205 30.9532 65.162 32.3101 65.3387 33.6769C65.3988 34.1453 65.4693 34.6361 65.4993 35.1078C65.5568 36.0126 65.5053 36.9193 65.437 37.8215C65.3049 38.9778 65.1109 40.1224 64.8759 41.2612C64.5605 42.8077 64.0687 44.3037 63.5155 45.7757C62.9692 47.361 62.3578 48.9218 61.7021 50.4621C61.58 50.7129 61.4649 50.9675 61.3357 51.2145C60.7169 52.3977 59.9346 53.4812 59.1293 54.5334C58.2443 55.5973 57.2926 56.5991 56.3525 57.6106C55.9289 58.02 55.7505 58.2022 55.3051 58.5922C54.5567 59.2473 53.7453 59.821 52.9591 60.4254C52.4531 60.7949 52.1724 61.0115 51.6454 61.3503C50.8797 61.8427 50.0726 62.2586 49.2637 62.6681C48.0289 63.283 46.7815 63.8692 45.5425 64.4747C45.0157 64.7217 44.727 64.8654 44.1842 65.0847C43.0823 65.5297 41.9391 65.8441 40.7834 66.0995C39.0025 66.4735 37.214 66.8313 35.4051 67.026C34.7466 67.1114 34.6166 67.1389 33.954 67.1825C33.0285 67.2434 32.1022 67.1935 31.1765 67.1649C29.8659 67.0742 28.5531 66.9444 27.2784 66.599C26.0574 66.2498 24.8468 65.8625 23.6418 65.4582C22.5792 65.1082 21.5037 64.8044 20.4435 64.4471C19.9357 64.2615 19.4292 64.0745 18.9354 63.8511C17.5206 63.2111 14.9622 61.5809 20.9592 65.1793C19.5672 64.2989 18.2483 63.2999 17.0715 62.126C16.0505 61.1036 15.0913 60.0184 14.0918 58.9738C13.0658 57.8789 12.0002 56.8114 11.1414 55.5656C10.983 55.3309 10.5271 54.6584 10.377 54.4224C9.76002 53.4527 9.21036 52.4391 8.65998 51.4283C7.74679 49.6675 6.90537 47.8503 6.37964 45.9211C6.1437 45.1486 5.91644 44.3699 5.73224 43.582C5.56103 42.8498 5.45109 42.103 5.28423 41.3697C4.94221 39.7848 4.45619 38.2373 4.15939 36.6415C4.04756 36.1408 3.92563 35.6279 3.84238 35.1209C3.66624 34.0481 3.62761 32.9612 3.71358 31.8769C3.78544 31.2882 3.79063 31.1057 3.92443 30.5383C4.11795 29.7177 4.41734 28.921 4.75299 28.1533C5.47076 26.6452 6.26714 25.18 7.23307 23.8241C7.38662 23.6034 7.54878 23.3888 7.69372 23.1619C7.81349 22.9744 7.91242 22.7734 8.02645 22.5821C8.50852 21.7733 9.02567 20.9828 9.57822 20.2243C10.2377 19.3118 10.8379 18.3648 11.4552 17.4219C11.6246 17.1632 11.8062 16.9131 11.9711 16.6513C12.1174 16.4193 12.2494 16.1779 12.3885 15.9413C12.5161 15.6901 12.9266 14.8764 13.0645 14.6285C13.5826 13.6966 14.2085 12.8373 14.893 12.0298C16.0756 10.6287 17.2436 9.20333 18.586 7.96066C19.1269 7.45455 19.0794 7.49184 19.608 7.02309C19.7364 6.90928 20.2852 6.43786 20.4213 6.29378C20.5711 6.13509 20.6768 5.9357 20.8359 5.78499L17.3365 3.56249Z" fill="#264653"/>
<path d="M17.7088 8.05449C17.7016 8.01956 17.6882 7.9854 17.6871 7.9497C17.6793 7.69483 17.9175 7.36577 18.0371 7.15418C18.2787 6.83594 18.5633 6.55381 18.8534 6.28341C19.021 6.04574 19.2702 5.94079 19.5135 5.81341C19.6477 5.74313 19.6717 5.72212 19.7923 5.64003C19.9883 5.53479 20.1453 5.37565 20.305 5.2215C20.5248 5.00248 20.2423 5.29376 20.4599 5.03409C20.4933 4.9943 20.5354 4.96296 20.5685 4.92301C20.744 4.71164 20.6537 4.75815 20.8816 4.55227C20.9574 4.48379 21.0423 4.42698 21.1227 4.36433C21.5748 4.05163 22.0654 3.77589 22.5969 3.6381C22.6928 3.61326 22.7909 3.59952 22.8879 3.58023C23.483 3.53102 24.0795 3.50871 24.6748 3.45947C25.0491 3.46597 25.4215 3.41861 25.7956 3.42006C26.0137 3.42091 26.154 3.43181 26.3707 3.44426C26.7779 3.45752 27.173 3.57022 27.5763 3.61448C27.8408 3.62566 28.1 3.68016 28.3544 3.75257C28.4209 3.7737 28.497 3.74919 28.5634 3.76456C28.6158 3.77669 28.6637 3.8074 28.7169 3.81454C28.7542 3.81954 28.7912 3.80118 28.8288 3.80017C28.886 3.79863 28.9431 3.80466 29.0003 3.80691C29.4584 3.7991 29.9065 3.92112 30.3461 4.04141C30.6465 4.13459 30.9499 4.21648 31.2569 4.2825C31.2847 4.28561 31.4942 4.33785 31.5115 4.30883C31.5358 4.2681 31.3885 4.13487 31.3556 4.10438C31.1675 3.93049 30.9726 3.76471 30.7811 3.59487L29.1314 2.41182C28.9117 2.24858 28.694 2.08237 28.4722 1.92209C28.2923 1.79208 28.1289 1.6744 27.9072 1.67015C27.6499 1.63397 27.3981 1.56741 27.1407 1.53181C26.7107 1.47756 26.2761 1.49049 25.8498 1.40241C25.7822 1.39529 25.7144 1.39023 25.647 1.38105C25.5869 1.37285 25.5281 1.34762 25.4675 1.3503C25.4457 1.35126 25.4361 1.38454 25.4153 1.3913C25.3621 1.40851 25.2915 1.37591 25.2372 1.39884C25.1273 1.52234 24.921 1.47896 24.7782 1.47884C24.4566 1.46758 24.136 1.50557 23.8148 1.52121C23.6425 1.53058 23.4703 1.5436 23.2979 1.55004C22.918 1.56424 22.5359 1.53508 22.1589 1.60026C21.6156 1.64628 21.0803 1.7422 20.5626 1.9243C19.9257 2.14289 19.3233 2.44357 18.7358 2.77816C18.6396 2.8336 18.5452 2.89258 18.4471 2.94448C18.3526 2.99455 18.2546 3.0374 18.1583 3.08386C18.0764 3.11943 17.9922 3.14986 17.9126 3.19057C17.8601 3.2174 17.8139 3.25592 17.763 3.28592C17.5505 3.41126 17.6866 3.30659 17.5286 3.44053C17.3719 3.5816 17.2116 3.7213 17.0909 3.8982C16.9939 4.01373 16.9123 4.13768 16.8203 4.25677C16.6865 4.42985 16.5203 4.56178 16.339 4.67837C16.2603 4.75812 16.1499 4.86587 16.0795 4.95425C15.9011 5.1782 15.7722 5.4419 15.5962 5.668C15.5487 5.72901 15.4977 5.7873 15.4536 5.85102C15.2885 6.08972 15.1804 6.36334 15.0283 6.6095L17.7088 8.05449Z" fill="#264653"/>
<path d="M14.647 10.1179C14.5733 9.5608 14.8107 9.06996 15.0428 8.58612C15.3969 7.84837 15.2252 8.16163 15.6944 7.45411C16.0759 7.03602 16.2373 6.83788 16.6558 6.46248C16.814 6.32065 16.9834 6.19282 17.1467 6.05748C17.4928 5.77078 17.763 5.53665 18.1225 5.2664C18.2983 5.13429 18.4798 5.01064 18.6585 4.88275C19.2067 4.4932 19.7925 4.1649 20.4123 3.91469C20.6019 3.83815 20.7964 3.77499 20.9895 3.70861C21.1729 3.6456 21.3553 3.57875 21.5418 3.52654C21.7301 3.47385 21.9225 3.43833 22.1128 3.39422C22.6467 3.26489 23.1909 3.20012 23.7336 3.12729C23.8985 3.10515 24.0619 3.06832 24.2278 3.05642C24.6411 3.02678 24.7984 3.06325 25.2022 3.10973C25.777 3.18703 26.3117 3.40886 26.8307 3.66435C26.8467 3.66516 26.8858 3.68159 26.8787 3.66675C26.8588 3.62526 26.8183 3.59812 26.7845 3.56778C26.686 3.47925 26.5907 3.38539 26.482 3.31049C26.0152 2.9886 25.5342 2.68935 25.0602 2.37877L26.2927 2.87933C25.775 2.53786 25.2523 2.20446 24.7397 1.85492C24.4325 1.64542 24.1583 1.37523 23.8168 1.22108C23.4024 1.11367 22.9783 1.06251 22.551 1.1138C22.2808 1.14904 21.993 1.18905 21.7229 1.21236C21.535 1.22856 21.3459 1.22776 21.1586 1.25007C20.6245 1.31373 20.1002 1.46296 19.5792 1.59321C19.341 1.6714 18.7017 1.87543 18.4773 1.97308C18.2993 2.05058 18.1299 2.14816 17.9587 2.24072C17.3654 2.56142 16.7899 2.91616 16.209 3.25983C15.8493 3.49818 15.4438 3.75742 15.1003 4.02194C14.9319 4.1516 14.7652 4.28455 14.6097 4.43034C14.4566 4.57378 14.3198 4.73473 14.1761 4.88812C13.6142 5.48756 13.7871 5.30037 13.2421 5.93451C13.0809 6.10897 12.9204 6.28403 12.7586 6.45787C12.6076 6.62006 12.4454 6.7716 12.3038 6.9426C12.1923 7.07733 12.1016 7.22913 12.0009 7.37281C11.7846 7.68177 11.5692 7.99033 11.3232 8.27545L14.647 10.1179Z" fill="#264653"/>
<path d="M19.6335 23.9595C19.468 24.8438 19.5326 25.7659 19.5841 26.661C19.6661 28.0438 19.9529 29.3981 20.3148 30.7277C20.7228 32.0253 21.0427 33.3412 21.2361 34.6906C21.2639 34.9369 21.3551 35.6808 21.3524 35.9242C21.3499 36.1347 21.3045 36.3426 21.2899 36.5526C21.2468 37.1703 21.2446 37.7922 21.2134 38.4107C21.1463 40.1761 21.1345 41.9429 21.0687 43.7085C21.0285 45.6921 21.2626 47.6692 21.4474 49.6405C21.7304 52.2198 22.241 54.7629 22.6311 57.325C22.9726 59.3368 23.1841 61.3685 23.4681 63.3887C23.4937 63.6711 23.5513 63.9498 23.5776 64.2321C23.5929 64.397 23.5599 64.6562 23.691 64.7969C24.1288 65.2669 25.8838 65.8863 25.9276 65.9054L25.1204 65.4951C25.724 65.822 26.3219 66.1606 26.9312 66.4759C27.0594 66.5422 27.1884 66.6515 27.3312 66.639C27.464 66.6274 27.0638 65.2581 27.0498 65.1729C26.9175 64.726 26.7733 64.2828 26.6475 63.8338C26.1896 62.1996 25.8834 60.5231 25.6277 58.844C25.2433 56.3373 24.9446 53.8168 24.6671 51.2952C24.4616 49.3296 24.3354 47.3558 24.2317 45.3818C24.2158 43.6128 24.3635 41.8496 24.3632 40.0804C24.3593 39.4368 24.3864 38.7815 24.3257 38.1401C24.3024 37.8937 24.2486 37.6511 24.2203 37.4052C24.1955 37.1904 24.1842 36.9742 24.1662 36.7586C24.1405 36.551 24.1147 36.3434 24.089 36.1358C23.8598 34.7622 23.5304 33.4126 23.0946 32.0929C22.7203 30.78 22.3693 29.4582 22.3167 28.0813C22.267 27.1347 22.2286 26.1805 22.0666 25.2468L19.6335 23.9595Z" fill="#264653"/>
<path d="M11.8196 31.8532C11.9994 31.6854 12.6082 31.1197 12.7332 30.989C13.8811 29.7888 14.9446 28.4452 16.0424 27.1913C18.2785 24.691 20.2492 21.9582 22.3488 19.3383C25.005 16.1157 27.8786 13.0919 30.7725 10.0992C32.9915 7.91211 35.1859 5.65667 37.7353 3.87737C37.9027 3.55523 38.4577 3.57517 38.6441 3.25189C38.8428 2.90728 38.2884 2.56503 38.1506 2.47338C37.6757 2.15763 37.1667 1.90047 36.6748 1.61401L37.5478 2.21813C37.5404 2.21328 36.0468 1.13573 35.6118 1.04301C35.4997 1.01912 35.3695 1.05112 35.2768 1.12052C35.0128 1.31809 35.0233 1.79287 34.7423 1.96699C34.5815 2.19134 34.4303 2.42328 34.2601 2.64002C33.7974 3.22934 33.0641 4.0369 32.5792 4.56475C32.106 5.07983 30.5158 6.76955 30.0757 7.23234C29.5958 7.73688 29.1121 8.23745 28.6303 8.74C25.707 11.7252 22.8054 14.7355 20.1043 17.9404C17.9277 20.5041 15.7566 23.0717 13.6279 25.6783C12.2497 27.269 10.813 28.8087 9.21973 30.1723L11.8196 31.8532Z" fill="#264653"/>
<path d="M4.67567 37.0178C5.19481 36.7632 5.36376 36.7163 5.85076 36.2719C6.16453 35.9856 7.73735 34.2075 7.83169 34.0999C10.4311 31.1352 8.17483 33.6129 11.0019 30.5618C12.6633 28.8601 14.368 27.2052 16.0373 25.5119C16.5259 25.0163 17.0268 24.5331 17.4977 24.0195C17.8868 23.5952 18.2375 23.1348 18.6155 22.7C18.9113 22.3598 19.2177 22.0298 19.5189 21.6946C19.6082 21.3978 19.6975 21.1009 19.7868 20.804L18.6612 20.083C18.301 20.2104 17.9409 20.3378 17.5807 20.4652C17.2492 20.7815 16.9206 21.1012 16.5861 21.4142C16.1543 21.818 15.7021 22.1986 15.282 22.6153C14.7902 23.1031 14.3285 23.6223 13.852 24.1261C12.226 25.8452 10.6087 27.5735 8.95246 29.2617C5.334 32.8121 8.95992 29.286 5.46187 32.5985C5.31404 32.7385 3.66988 34.3206 3.35375 34.6802C2.96279 35.1248 2.91328 35.261 2.66797 35.7148L4.67567 37.0178Z" fill="#264653"/>
<path d="M38.9321 12.9395C38.8191 12.9789 38.7062 13.0184 38.5933 13.0578C38.3855 13.096 38.1709 13.1056 37.9699 13.1723C37.1389 13.448 36.2066 14.3122 35.5679 14.8991C35.3289 15.1144 35.0768 15.3151 34.8509 15.545C34.6086 15.7915 34.3972 16.0684 34.1658 16.3258C33.9264 16.592 33.6737 16.8452 33.4387 17.1156C32.746 17.9126 32.1345 18.7579 31.5497 19.6405C30.9144 20.7173 30.2718 21.8496 30.0232 23.103C29.9136 23.6557 29.8343 24.7799 29.7876 25.3297C29.6488 27.351 29.6164 29.377 29.5769 31.4022C29.5288 33.0672 29.351 34.7245 29.1814 36.38C29.0538 37.3553 29.0024 38.3413 29.1231 39.3208C29.1727 39.7229 29.2836 40.201 29.3684 40.5976C29.6853 41.9444 30.3573 43.1404 31.033 44.3214C31.7176 45.4244 32.4835 46.4934 33.4629 47.3376C33.6531 47.5016 33.8575 47.6472 34.0548 47.802C35.6981 48.813 37.2575 50.1082 39.1296 50.5944C39.9854 50.8167 40.8556 50.8462 41.732 50.8828C43.286 50.9426 44.8215 50.6943 46.2676 50.0978C46.5412 49.985 46.8047 49.8472 47.0732 49.7219C48.6685 48.7777 50.0199 47.4648 51.359 46.1778C52.3789 45.068 53.4924 44.0247 54.3332 42.7539C54.4817 42.5294 54.6117 42.2925 54.7509 42.0618C55.5965 40.5304 56.1177 38.85 56.5964 37.1668C56.915 36.0136 57.2628 34.8676 57.456 33.6825C57.4931 33.4552 57.6512 32.2204 57.6824 31.9791C57.7498 30.9454 58.0624 29.9403 58.09 28.9026C58.1092 28.1809 58.0502 28.0541 57.9274 27.3361C57.6885 26.2774 57.3575 25.2272 56.7651 24.3181C56.3885 23.74 56.1004 23.4498 55.6481 22.9348C55.4071 22.7121 55.1746 22.4792 54.9253 22.2667C54.5178 21.9195 53.8075 21.3888 53.3505 21.109C51.1721 19.7752 49.1866 18.4582 46.9202 17.4261C45.0152 16.6778 43.0182 16.2183 41.0145 15.8615C40.372 15.7768 39.5695 15.6225 38.9144 15.7264C37.8206 15.8999 36.5816 16.629 35.7213 17.3188C35.4049 17.5724 35.1233 17.8692 34.8243 18.1445C34.6189 18.4517 34.3364 18.717 34.208 19.0662C34.0829 19.4064 34.0818 20.6392 34.0731 21.0371L35.2356 21.7571C35.5476 21.6524 35.858 21.5428 36.1715 21.4431C37.8079 20.9228 36.934 21.3435 38.372 20.4574C39.3572 19.7689 40.3535 19.0215 41.5222 18.6962C42.5794 18.4019 43.6492 18.5509 44.7057 18.7416C46.7207 19.134 48.7311 19.624 50.6208 20.4655C52.097 21.1825 55.1362 22.9728 49.0209 19.3664C48.7392 19.2002 49.5783 19.7096 49.8492 19.8939C50.1184 20.0771 50.3845 20.266 50.6406 20.4684C50.8836 20.6603 51.1104 20.8733 51.3453 21.0758C52.5353 22.3296 53.5691 23.6584 54.0397 25.3811C54.0893 25.6321 54.148 25.8815 54.1886 26.1343C54.3995 27.4475 54.3614 28.7975 54.2562 30.1183C54.0673 31.8823 53.846 33.6522 53.4157 35.3729C52.9699 37.0342 52.5276 38.7187 51.6904 40.2243C51.362 40.8006 51.2482 41.0292 50.8695 41.5763C50.1734 42.5822 49.3459 43.4843 48.4923 44.3466C47.1799 45.6254 45.8018 46.8732 44.2009 47.7522C43.5332 48.0741 43.3387 48.1994 42.6237 48.4151C41.4593 48.7665 40.2417 48.855 39.0346 48.8278C38.1023 48.7435 37.2092 48.6366 36.3176 48.3224C36.077 48.2376 35.3998 47.8802 35.6108 48.0268C36.2597 48.4778 39.4232 50.3469 37.5548 49.2402C37.3764 49.1062 37.1918 48.9806 37.0197 48.8381C36.059 48.0425 35.2755 47.035 34.6194 45.9649C33.9488 44.8375 33.3694 43.6551 32.9899 42.3864C32.9297 42.1841 32.8586 41.985 32.8093 41.7796C32.531 40.622 32.5649 39.4198 32.6283 38.2392C32.7603 36.559 33.0628 34.8864 32.9977 33.1967C32.8827 31.1479 32.7635 29.0894 32.9518 27.0408C32.9949 26.6735 33.024 26.3042 33.081 25.9389C33.3257 24.3685 33.8652 22.8849 34.6675 21.5281C35.2074 20.6431 35.7545 19.7723 36.3479 18.9242C36.5471 18.6393 36.7359 18.3458 36.9516 18.0741C37.1636 17.8071 37.4045 17.5661 37.6293 17.3106C37.8323 17.0798 38.0332 16.8471 38.2351 16.6153C38.8684 16.0499 38.8243 16.0742 39.4569 15.5646C39.5805 15.4651 40.2694 14.9473 40.3925 14.7851C40.4825 14.6666 40.5118 14.5103 40.5714 14.3728C40.629 14.2987 40.6866 14.2246 40.7442 14.1505L38.9321 12.9395Z" fill="#264653"/>
<path d="M34.6359 15.58C34.5145 15.6716 34.3801 15.7471 34.2716 15.8547C34.0888 16.0363 33.5667 16.7459 33.4325 16.92C32.8815 17.6351 32.4085 18.2766 31.9166 19.0403C31.0235 20.5765 30.2702 22.1996 29.5683 23.8376C29.0422 25.1106 28.7084 26.4541 28.4913 27.8167C28.2147 29.2241 28.0314 30.6453 27.944 32.078C27.8185 33.7818 27.9506 35.4811 28.2316 37.1602C28.511 38.7419 29.1244 40.2166 29.7783 41.6638C30.3067 42.8893 30.9373 44.0628 31.6675 45.1711C32.1825 45.9623 32.8156 46.6646 33.4727 47.3307C33.9494 47.8042 34.4471 48.2565 34.9651 48.6811C36.6401 49.9725 38.3896 51.2927 40.4686 51.5616C41.485 51.6082 42.5108 51.5502 43.5248 51.4611C44.7476 51.3828 45.9181 51.0565 47.0687 50.6412C48.3731 50.1441 49.5197 49.3233 50.667 48.5302C51.6111 47.8066 52.5772 47.1163 53.5426 46.4238C54.3563 45.8308 55.1419 45.191 55.8781 44.4977C56.6139 43.705 57.136 42.7419 57.709 41.8248C58.5398 40.5555 59.205 39.1884 59.7641 37.7717C60.1777 36.3978 60.3137 34.9599 60.3768 33.5289C60.2978 32.1212 60.3241 30.7111 60.285 29.3028C60.2223 28.6724 60.2776 28.0255 60.2096 27.3962C60.1385 26.7376 59.9389 26.0901 59.7496 25.4607C59.3513 24.2427 58.563 23.2915 57.7067 22.3915C56.9428 21.5997 56.0666 20.9478 55.1511 20.3595C52.8399 18.8571 50.4844 17.4707 48.0106 16.2987C47.2066 15.9019 46.3703 15.586 45.5194 15.3167C44.8046 15.1092 44.0799 14.9408 43.3604 14.7517C42.5094 14.4925 41.6491 14.2762 40.7832 14.0782C40.2738 13.9856 39.7671 13.8787 39.2557 13.7986C39.1871 13.8031 38.9797 13.6702 39.1738 13.82C39.8944 14.3759 40.6156 14.9311 41.3365 15.4866L41.1693 15.4103C41.4049 15.6006 42.8636 17.2644 43.8839 17.3856C44.3532 17.4551 44.8257 17.5051 45.2886 17.6153C46.1278 17.7891 46.9475 18.0466 47.7793 18.2535C48.5172 18.4546 49.2509 18.6712 49.9857 18.8836C50.783 19.1234 51.5459 19.4609 52.2965 19.8265C54.2665 20.7984 58.38 23.1979 50.0489 18.3293C51.0477 18.902 52.0184 19.5358 52.8704 20.3285C53.7746 21.191 54.6426 22.1157 55.1913 23.2709C55.496 23.9648 55.6482 24.4313 55.8282 25.1693C55.8836 25.3962 55.9571 25.6191 55.9965 25.8496C56.0375 26.0891 56.0716 26.8695 56.0841 27.1065C56.1354 28.5115 56.269 29.9141 56.2227 31.3223C56.2007 32.7174 56.1577 34.1255 55.7497 35.4688C55.5644 36.0632 55.5051 36.3167 55.2446 36.8889C54.836 37.7862 54.2927 38.6085 53.7571 39.4272C53.1714 40.2966 52.5848 41.1773 51.8843 41.9526C51.1938 42.6714 50.4148 43.2684 49.6092 43.8422C48.697 44.5655 47.8178 45.3319 46.8968 46.0437C45.7893 46.875 44.616 47.5219 43.34 48.034C42.2471 48.4397 41.1145 48.7272 39.9534 48.8182C38.9539 48.884 37.9478 48.9661 36.9503 48.8262C36.6453 48.7618 36.3543 48.6901 36.07 48.554C35.9764 48.5092 35.7075 48.3509 35.7964 48.4049C39.8808 50.8843 40.4104 51.2274 39.0532 50.3565C38.4719 49.9513 37.937 49.4861 37.4127 49.0054C36.6956 48.3308 36.0245 47.6089 35.4018 46.8398C35.0318 46.3566 34.6556 45.8679 34.3557 45.333C34.0056 44.7085 33.7503 44.0287 33.4357 43.3858C32.7711 41.9489 32.0816 40.5125 31.7649 38.94C31.711 38.6526 31.6468 38.367 31.6033 38.0776C31.4 36.7268 31.4492 35.3583 31.5287 33.9995C31.6288 32.5846 31.7766 31.174 32.0441 29.7809C32.3408 28.4586 32.5545 27.1101 33.0142 25.8335C33.6271 24.1736 34.3379 22.5523 35.2023 21.0146C35.6118 20.2582 35.9762 19.4753 36.389 18.7215C36.8411 17.8961 36.6334 18.3387 37.0869 17.6245C37.1602 17.5089 37.2219 17.3859 37.2895 17.2666L34.6359 15.58Z" fill="#264653"/>
<path d="M37.6541 19.7375C38.98 18.9193 40.5423 18.6839 42.0494 18.4949C43.5957 18.4447 45.2111 18.4527 46.7083 18.9228C46.9929 19.0122 47.2651 19.1397 47.5435 19.2481C47.808 19.3733 48.0759 19.4912 48.337 19.6236C48.6115 19.7628 48.8812 19.9119 49.1498 20.0627C49.4102 20.209 50.181 20.6667 49.9237 20.5148C49.0785 20.0161 48.2419 19.5013 47.3863 19.022C47.1791 18.906 47.7821 19.2865 47.9765 19.4242C48.1569 19.552 48.3324 19.6871 48.5103 19.8185C49.4528 20.5209 50.2548 21.3872 51.0192 22.2849C51.5196 22.9239 52.1113 23.4695 52.7586 23.9431C51.9498 19.6027 56.0898 27.484 57.5462 26.384C57.8785 26.1331 57.9703 25.5895 58.077 25.2157C58.1218 25.0387 58.1948 24.8668 58.2116 24.6845C58.2301 24.4833 58.2041 24.2798 58.1817 24.079C58.0857 23.2218 57.8393 22.6994 57.3779 22C57.2656 21.8677 57.1615 21.7275 57.0411 21.6031C56.8344 21.3896 56.4337 21.0468 56.1813 20.8924C53.9236 19.5118 52.2856 18.2246 50.0212 17.4073C48.7503 16.9845 47.4714 16.5918 46.2156 16.122C45.166 15.7105 44.16 15.1927 43.0943 14.8251C41.9539 14.3892 40.9513 14.6527 39.8349 15.018C38.5353 15.5608 37.2286 16.0902 35.9389 16.6584C35.2654 16.9891 34.576 17.2814 33.8475 17.4521C33.8482 17.4851 33.4002 17.5137 33.4005 17.5081C33.4034 17.4512 33.4203 17.3235 33.468 17.352C35.1319 18.3494 36.7396 19.4441 38.3754 20.4901C38.3612 20.4464 38.3275 20.4048 38.3327 20.359C38.3877 19.871 38.8975 19.0494 39.1402 18.6712C39.6368 17.8973 39.6408 17.9345 40.218 17.2329C41.1781 16.1721 42.4098 15.488 43.7482 15.0818C44.0422 14.9926 44.3423 14.9261 44.6393 14.8482C45.8345 14.6231 47.1126 14.4281 48.3016 14.8161C48.9794 15.0373 49.3744 15.3384 49.9791 15.7173C45.1573 12.9645 46.1027 13.2632 47.5676 14.5512C47.8314 14.7832 48.0861 15.0263 48.3336 15.2767C49.0427 15.9942 49.6333 16.7824 50.2118 17.612C51.0715 18.8954 51.8022 20.2585 52.3627 21.7074C52.6149 22.1153 52.4977 22.7825 52.743 23.1807C52.782 23.244 52.8362 23.2957 52.8828 23.3531C53.508 23.8198 54.2053 24.1833 54.8784 24.5711L55.6242 24.9756C56.2548 25.3004 56.8941 25.6875 57.6116 25.7505C57.6457 25.7255 57.695 25.7141 57.7138 25.6755C57.7711 25.5577 57.6874 25.3344 57.6589 25.2452C57.5162 24.7984 57.3028 24.3816 57.1152 23.9544C56.3868 22.4522 55.578 20.99 54.6553 19.6056C54.2531 19.0187 53.9074 18.4882 53.4576 17.9373C51.3908 15.4059 49.1972 14.3148 46.2169 12.5721C45.4665 12.1645 45.17 11.9405 44.3429 11.7354C43.0764 11.4213 41.7562 11.6596 40.5005 11.8888C40.1741 11.9658 39.8433 12.0251 39.5212 12.1198C38.084 12.5424 36.8055 13.336 35.7919 14.4724C35.141 15.2406 35.2363 15.1123 34.6138 15.9105C34.4323 16.1433 34.2609 16.3847 34.0746 16.6135C33.9135 16.8112 33.7305 16.9891 33.5721 17.1892C33.4746 17.3124 33.2757 17.6513 33.1846 17.803C42.3254 23.9772 36.4908 22.3621 38.2457 21.001C38.362 20.9108 38.5356 20.9089 38.6526 20.8194C39.294 20.5036 39.9146 20.1483 40.5494 19.8184C41.7603 19.1915 42.973 18.5436 44.2921 18.1923C44.8406 18.0761 45.0391 18.0054 45.5887 17.994C46.2596 17.9802 46.9024 18.1844 47.5308 18.4038C48.5266 18.7879 49.4998 19.2329 50.5087 19.5811C51.7532 20.0074 53.0166 20.3745 54.2481 20.8406C56.0009 21.6264 58.6216 23.333 51.1742 18.8671C51.0167 18.7726 51.4882 19.0583 51.6411 19.1608C51.7905 19.2609 51.9406 19.361 52.0808 19.4745C52.2116 19.5804 52.3286 19.7033 52.4526 19.8177C52.5671 19.9485 52.6905 20.0716 52.7963 20.2101C53.3749 20.9674 53.5698 21.8179 53.6897 22.7561C53.6377 23.0041 53.6307 23.1755 53.4986 23.3846C53.4174 23.5132 53.2463 23.4005 53.2956 23.4307C54.4909 24.1632 55.6947 24.8806 56.8942 25.6056C56.1668 25.1761 55.5204 24.6375 54.9581 23.9926C54.079 23.0428 53.178 22.1103 52.1644 21.3119C50.5056 20.0844 48.8283 19.1606 47.0032 18.0784C46.5879 17.8321 45.8877 17.4642 45.4535 17.264C45.1928 17.1438 44.9252 17.0405 44.661 16.9288C44.3871 16.8435 44.1174 16.7422 43.8394 16.6728C42.3466 16.3004 40.7806 16.3251 39.2623 16.4528C37.8411 16.6328 36.3102 16.8212 35.0333 17.5506C34.9084 17.622 34.8005 17.7215 34.6842 17.807L37.6541 19.7375Z" fill="#264653"/>
</svg>
