<svg width="3449" height="1395" viewBox="0 0 3449 1395" fill="none" xmlns="http://www.w3.org/2000/svg">
<ellipse cx="323.383" cy="388.784" rx="323.383" ry="326.729" fill="url(#paint0_linear_193_2)"/>
<ellipse cx="288.413" cy="289.47" rx="288.413" ry="289.47" transform="matrix(-0.820524 0.571612 -0.563692 -0.825985 1978.64 1052.25)" fill="url(#paint1_linear_193_2)"/>
<ellipse cx="244.363" cy="246.832" rx="244.363" ry="246.832" transform="matrix(0.99398 0.10956 -0.107354 0.994221 1531 102.056)" fill="url(#paint2_linear_193_2)"/>
<circle cx="175" cy="175" r="175" transform="matrix(-0.524975 -0.851118 0.849951 -0.526862 2140.77 1275.37)" fill="url(#paint3_linear_193_2)"/>
<circle cx="175" cy="175" r="175" transform="matrix(-0.850734 0.525597 -0.527484 -0.849565 3367.89 1110.94)" fill="url(#paint4_linear_193_2)"/>
<ellipse cx="250" cy="250" rx="250" ry="250" transform="matrix(0.706863 -0.70735 0.708917 0.705292 2081.99 574.914)" fill="url(#paint5_linear_193_2)"/>
<circle cx="350" cy="350" r="350" transform="matrix(0.296809 0.954937 -0.954276 0.298928 3240.93 0)" fill="url(#paint6_linear_193_2)"/>
<ellipse cx="360.955" cy="361.4" rx="360.955" ry="361.4" transform="matrix(-0.744794 -0.667294 0.659648 -0.751575 778.676 1394.02)" fill="url(#paint7_linear_193_2)"/>
<ellipse cx="179.685" cy="181.488" rx="179.685" ry="181.488" transform="matrix(0.992331 -0.12361 0.121129 0.992637 916 328.477)" fill="url(#paint8_linear_193_2)"/>
<defs>
<linearGradient id="paint0_linear_193_2" x1="323.383" y1="62.0557" x2="323.383" y2="715.513" gradientUnits="userSpaceOnUse">
<stop stop-color="#828CFF"/>
<stop offset="1" stop-color="white" stop-opacity="0"/>
</linearGradient>
<linearGradient id="paint1_linear_193_2" x1="288.413" y1="0" x2="288.413" y2="578.941" gradientUnits="userSpaceOnUse">
<stop stop-color="#DC4DDA"/>
<stop offset="1" stop-color="white" stop-opacity="0"/>
</linearGradient>
<linearGradient id="paint2_linear_193_2" x1="244.363" y1="0" x2="244.363" y2="493.664" gradientUnits="userSpaceOnUse">
<stop stop-color="#DC4DDA"/>
<stop offset="1" stop-color="white" stop-opacity="0"/>
</linearGradient>
<linearGradient id="paint3_linear_193_2" x1="175" y1="0" x2="175" y2="350" gradientUnits="userSpaceOnUse">
<stop stop-color="#828CFF"/>
<stop offset="1" stop-color="white" stop-opacity="0"/>
</linearGradient>
<linearGradient id="paint4_linear_193_2" x1="175" y1="0" x2="175" y2="350" gradientUnits="userSpaceOnUse">
<stop stop-color="#DC4DDA"/>
<stop offset="1" stop-color="white" stop-opacity="0"/>
</linearGradient>
<linearGradient id="paint5_linear_193_2" x1="250" y1="0" x2="250" y2="500" gradientUnits="userSpaceOnUse">
<stop stop-color="#828CFF"/>
<stop offset="1" stop-color="white" stop-opacity="0"/>
</linearGradient>
<linearGradient id="paint6_linear_193_2" x1="350" y1="0" x2="350" y2="700" gradientUnits="userSpaceOnUse">
<stop stop-color="#D25797"/>
<stop offset="1" stop-color="white" stop-opacity="0"/>
</linearGradient>
<linearGradient id="paint7_linear_193_2" x1="360.955" y1="0" x2="360.955" y2="722.8" gradientUnits="userSpaceOnUse">
<stop stop-color="#DC4DDA"/>
<stop offset="1" stop-color="white" stop-opacity="0"/>
</linearGradient>
<linearGradient id="paint8_linear_193_2" x1="179.685" y1="0" x2="179.685" y2="362.976" gradientUnits="userSpaceOnUse">
<stop stop-color="#828CFF"/>
<stop offset="1" stop-color="white" stop-opacity="0"/>
</linearGradient>
</defs>
</svg>
