<svg width="2017" height="1332" viewBox="0 0 2017 1332" fill="none" xmlns="http://www.w3.org/2000/svg">
<ellipse cx="323.383" cy="326.729" rx="323.383" ry="326.729" fill="url(#paint0_linear_116_9)"/>
<ellipse cx="288.413" cy="289.47" rx="288.413" ry="289.47" transform="matrix(-0.820524 0.571612 -0.563692 -0.825985 1978.64 990.196)" fill="url(#paint1_linear_116_9)"/>
<ellipse cx="244.363" cy="246.832" rx="244.363" ry="246.832" transform="matrix(0.99398 0.10956 -0.107354 0.994221 1531 40)" fill="url(#paint2_linear_116_9)"/>
<ellipse cx="360.955" cy="361.4" rx="360.955" ry="361.4" transform="matrix(-0.744794 -0.667294 0.659648 -0.751575 778.675 1331.96)" fill="url(#paint3_linear_116_9)"/>
<ellipse cx="179.685" cy="181.488" rx="179.685" ry="181.488" transform="matrix(0.992331 -0.12361 0.121129 0.992637 916 266.422)" fill="url(#paint4_linear_116_9)"/>
<defs>
<linearGradient id="paint0_linear_116_9" x1="323.383" y1="0" x2="323.383" y2="653.457" gradientUnits="userSpaceOnUse">
<stop stop-color="#F9FF58"/>
<stop offset="1" stop-color="#E9E9E9" stop-opacity="0"/>
</linearGradient>
<linearGradient id="paint1_linear_116_9" x1="288.413" y1="0" x2="288.413" y2="578.941" gradientUnits="userSpaceOnUse">
<stop stop-color="#FF5858"/>
<stop offset="1" stop-color="white" stop-opacity="0"/>
</linearGradient>
<linearGradient id="paint2_linear_116_9" x1="244.363" y1="0" x2="244.363" y2="493.664" gradientUnits="userSpaceOnUse">
<stop stop-color="#DC4DDA"/>
<stop offset="1" stop-color="white" stop-opacity="0"/>
</linearGradient>
<linearGradient id="paint3_linear_116_9" x1="360.955" y1="0" x2="360.955" y2="722.8" gradientUnits="userSpaceOnUse">
<stop stop-color="#A9D29D"/>
<stop offset="1" stop-color="#E9E9E9" stop-opacity="0"/>
</linearGradient>
<linearGradient id="paint4_linear_116_9" x1="179.685" y1="0" x2="179.685" y2="362.976" gradientUnits="userSpaceOnUse">
<stop stop-color="#828CFF"/>
<stop offset="1" stop-color="white" stop-opacity="0"/>
</linearGradient>
</defs>
</svg>
