<svg width="3452" height="1397" viewBox="0 0 3452 1397" fill="none" xmlns="http://www.w3.org/2000/svg">
<ellipse cx="323.383" cy="391.729" rx="323.383" ry="326.729" fill="url(#paint0_linear_135_2)"/>
<ellipse cx="288.413" cy="289.47" rx="288.413" ry="289.47" transform="matrix(-0.820524 0.571612 -0.563692 -0.825985 1978.64 1055.2)" fill="url(#paint1_linear_135_2)"/>
<ellipse cx="244.363" cy="246.832" rx="244.363" ry="246.832" transform="matrix(0.99398 0.10956 -0.107354 0.994221 1531 105)" fill="url(#paint2_linear_135_2)"/>
<circle cx="175" cy="175" r="175" transform="matrix(0.866623 0.498964 -0.497039 0.867728 2132.96 798)" fill="url(#paint3_linear_135_2)"/>
<circle cx="175" cy="175" r="175" transform="matrix(0.294821 0.955553 -0.954896 0.296941 3242.21 838)" fill="url(#paint4_linear_135_2)"/>
<ellipse cx="250" cy="250" rx="250" ry="250" transform="matrix(0.0657553 -0.997836 0.997979 0.0635404 2170 810.918)" fill="url(#paint5_linear_135_2)"/>
<circle cx="350" cy="350" r="350" transform="matrix(-0.95032 -0.311274 0.309164 -0.951009 3235.22 883.598)" fill="url(#paint6_linear_135_2)"/>
<ellipse cx="360.955" cy="361.4" rx="360.955" ry="361.4" transform="matrix(-0.744794 -0.667294 0.659648 -0.751575 778.675 1396.96)" fill="url(#paint7_linear_135_2)"/>
<ellipse cx="179.685" cy="181.488" rx="179.685" ry="181.488" transform="matrix(0.992331 -0.12361 0.121129 0.992637 916 331.422)" fill="url(#paint8_linear_135_2)"/>
<defs>
<linearGradient id="paint0_linear_135_2" x1="323.383" y1="65.0005" x2="323.383" y2="718.458" gradientUnits="userSpaceOnUse">
<stop stop-color="#F9FF58"/>
<stop offset="1" stop-color="#E9E9E9" stop-opacity="0"/>
</linearGradient>
<linearGradient id="paint1_linear_135_2" x1="288.413" y1="0" x2="288.413" y2="578.941" gradientUnits="userSpaceOnUse">
<stop stop-color="#FF5858"/>
<stop offset="1" stop-color="white" stop-opacity="0"/>
</linearGradient>
<linearGradient id="paint2_linear_135_2" x1="244.363" y1="0" x2="244.363" y2="493.664" gradientUnits="userSpaceOnUse">
<stop stop-color="#DC4DDA"/>
<stop offset="1" stop-color="white" stop-opacity="0"/>
</linearGradient>
<linearGradient id="paint3_linear_135_2" x1="175" y1="0" x2="175" y2="350" gradientUnits="userSpaceOnUse">
<stop stop-color="#C7814F"/>
<stop offset="1" stop-color="white" stop-opacity="0"/>
</linearGradient>
<linearGradient id="paint4_linear_135_2" x1="175" y1="0" x2="175" y2="350" gradientUnits="userSpaceOnUse">
<stop stop-color="#CC8A2F"/>
<stop offset="1" stop-color="white" stop-opacity="0"/>
</linearGradient>
<linearGradient id="paint5_linear_135_2" x1="250" y1="0" x2="250" y2="500" gradientUnits="userSpaceOnUse">
<stop stop-color="#A5D559"/>
<stop offset="1" stop-color="white" stop-opacity="0"/>
</linearGradient>
<linearGradient id="paint6_linear_135_2" x1="350" y1="0" x2="350" y2="700" gradientUnits="userSpaceOnUse">
<stop stop-color="#D25797"/>
<stop offset="1" stop-color="white" stop-opacity="0"/>
</linearGradient>
<linearGradient id="paint7_linear_135_2" x1="360.955" y1="0" x2="360.955" y2="722.8" gradientUnits="userSpaceOnUse">
<stop stop-color="#A9D29D"/>
<stop offset="1" stop-color="#E9E9E9" stop-opacity="0"/>
</linearGradient>
<linearGradient id="paint8_linear_135_2" x1="179.685" y1="0" x2="179.685" y2="362.976" gradientUnits="userSpaceOnUse">
<stop stop-color="#828CFF"/>
<stop offset="1" stop-color="white" stop-opacity="0"/>
</linearGradient>
</defs>
</svg>
